<?xml version="1.0" encoding="UTF-8" standalone="no"?>
<!-- Created with Inkscape (http://www.inkscape.org/) -->

<svg
   xmlns:dc="http://purl.org/dc/elements/1.1/"
   xmlns:cc="http://creativecommons.org/ns#"
   xmlns:rdf="http://www.w3.org/1999/02/22-rdf-syntax-ns#"
   xmlns:svg="http://www.w3.org/2000/svg"
   xmlns="http://www.w3.org/2000/svg"
   xmlns:sodipodi="http://sodipodi.sourceforge.net/DTD/sodipodi-0.dtd"
   xmlns:inkscape="http://www.inkscape.org/namespaces/inkscape"
   width="1.9935237mm"
   height="2.7713816mm"
   viewBox="0 0 1.9935237 2.7713816"
   version="1.1"
   id="svg11958"
   inkscape:version="0.92.3 (2405546, 2018-03-11)"
   sodipodi:docname="0.svg">
  <defs
     id="defs11952" />
  <sodipodi:namedview
     id="base"
     pagecolor="#ffffff"
     bordercolor="#666666"
     borderopacity="1.0"
     inkscape:pageopacity="0.0"
     inkscape:pageshadow="2"
     inkscape:zoom="116.95055"
     inkscape:cx="3.7672892"
     inkscape:cy="5.2372734"
     inkscape:document-units="mm"
     inkscape:current-layer="layer1"
     showgrid="false"
     fit-margin-top="0"
     fit-margin-left="0"
     fit-margin-right="0"
     fit-margin-bottom="0"
     inkscape:window-width="2560"
     inkscape:window-height="1377"
     inkscape:window-x="1072"
     inkscape:window-y="1072"
     inkscape:window-maximized="1" />
  <metadata
     id="metadata11955">
    <rdf:RDF>
      <cc:Work
         rdf:about="">
        <dc:format>image/svg+xml</dc:format>
        <dc:type
           rdf:resource="http://purl.org/dc/dcmitype/StillImage" />
        <dc:title></dc:title>
      </cc:Work>
    </rdf:RDF>
  </metadata>
  <g
     inkscape:label="Layer 1"
     inkscape:groupmode="layer"
     id="layer1"
     transform="translate(-65.527029,-139.13217)">
    <path
       style="fill:#000000;stroke-width:0.26458332"
       d="m 66.659813,139.13241 c -0.149265,-0.003 -0.300918,0.0216 -0.403076,0.0749 -0.294746,0.15374 -0.555197,0.59847 -0.666626,1.13843 -0.08362,0.40519 -0.08389,0.5024 -0.0021,0.81855 0.07561,0.29212 0.23323,0.50875 0.467671,0.64285 0.488641,0.27949 1.154298,-0.0744 1.372527,-0.73019 0.220247,-0.66184 0.02792,-1.59976 -0.379822,-1.85311 -0.09234,-0.0574 -0.239343,-0.0883 -0.388607,-0.0915 z m -0.06615,0.48937 c 0.235858,-0.005 0.339223,0.16025 0.411861,0.61495 0.06989,0.43749 -0.03426,0.84822 -0.270784,1.06918 -0.07461,0.0697 -0.171833,0.10658 -0.311092,0.11782 -0.275693,0.0223 -0.412059,-0.0846 -0.501779,-0.39325 -0.06165,-0.21211 -0.06189,-0.2595 0.0021,-0.57516 0.112424,-0.55483 0.255301,-0.76394 0.560172,-0.82114 0.03941,-0.007 0.07586,-0.0116 0.109555,-0.0124 z"
       id="path1121"
       inkscape:connector-curvature="0" />
  </g>
</svg>
