<?xml version="1.0" encoding="UTF-8" standalone="no"?>
<!-- Created with Inkscape (http://www.inkscape.org/) -->

<svg
   xmlns:dc="http://purl.org/dc/elements/1.1/"
   xmlns:cc="http://creativecommons.org/ns#"
   xmlns:rdf="http://www.w3.org/1999/02/22-rdf-syntax-ns#"
   xmlns:svg="http://www.w3.org/2000/svg"
   xmlns="http://www.w3.org/2000/svg"
   xmlns:sodipodi="http://sodipodi.sourceforge.net/DTD/sodipodi-0.dtd"
   xmlns:inkscape="http://www.inkscape.org/namespaces/inkscape"
   width="2.0613101mm"
   height="2.5595987mm"
   viewBox="0 0 2.0613101 2.5595987"
   version="1.1"
   id="svg14788"
   inkscape:version="0.92.3 (2405546, 2018-03-11)"
   sodipodi:docname="5.svg">
  <defs
     id="defs14782" />
  <sodipodi:namedview
     id="base"
     pagecolor="#ffffff"
     bordercolor="#666666"
     borderopacity="1.0"
     inkscape:pageopacity="0.0"
     inkscape:pageshadow="2"
     inkscape:zoom="0.35"
     inkscape:cx="-317.5332"
     inkscape:cy="-149.44852"
     inkscape:document-units="mm"
     inkscape:current-layer="layer1"
     showgrid="false"
     fit-margin-top="0"
     fit-margin-left="0"
     fit-margin-right="0"
     fit-margin-bottom="0"
     inkscape:window-width="2560"
     inkscape:window-height="1377"
     inkscape:window-x="1072"
     inkscape:window-y="1072"
     inkscape:window-maximized="1" />
  <metadata
     id="metadata14785">
    <rdf:RDF>
      <cc:Work
         rdf:about="">
        <dc:format>image/svg+xml</dc:format>
        <dc:type
           rdf:resource="http://purl.org/dc/dcmitype/StillImage" />
        <dc:title></dc:title>
      </cc:Work>
    </rdf:RDF>
  </metadata>
  <g
     inkscape:label="Layer 1"
     inkscape:groupmode="layer"
     id="layer1"
     transform="translate(-67.005064,-106.73215)">
    <path
       style="fill:#000000;stroke-width:0.26458332"
       d="m 67.633927,109.23992 c -0.18489,-0.0833 -0.381,-0.26753 -0.381,-0.35789 0,-0.16497 0.203482,-0.22172 0.371949,-0.10372 0.146565,0.10266 0.395193,0.0862 0.61132,-0.0405 0.350522,-0.20542 0.421939,-0.36229 0.230756,-0.50686 -0.102918,-0.0778 -0.170387,-0.0893 -0.486833,-0.0829 -0.202048,0.004 -0.433894,0.0136 -0.515215,0.0212 -0.139673,0.013 -0.15068,0.004 -0.198907,-0.15557 -0.07027,-0.23308 -0.231455,-0.86455 -0.255676,-1.00166 -0.03524,-0.1995 0.08811,-0.23413 0.944043,-0.26498 0.735707,-0.0265 0.769273,-0.0242 0.878416,0.0617 0.136561,0.10742 0.146305,0.25194 0.02443,0.3623 -0.07945,0.072 -0.159265,0.0807 -0.740283,0.0807 -0.558964,0 -0.648583,0.009 -0.632529,0.0635 0.01029,0.0349 0.04057,0.15277 0.0673,0.26188 0.04589,0.18734 0.0544,0.19618 0.152837,0.15875 0.183501,-0.0698 0.629719,-0.0457 0.878554,0.0474 0.361571,0.13528 0.530362,0.38398 0.471946,0.69536 -0.09564,0.50982 -0.95618,0.97085 -1.4211,0.76135 z"
       id="path1131"
       inkscape:connector-curvature="0" />
  </g>
</svg>
