<?xml version="1.0" encoding="UTF-8" standalone="no"?>
<!-- Created with Inkscape (http://www.inkscape.org/) -->

<svg
   xmlns:dc="http://purl.org/dc/elements/1.1/"
   xmlns:cc="http://creativecommons.org/ns#"
   xmlns:rdf="http://www.w3.org/1999/02/22-rdf-syntax-ns#"
   xmlns:svg="http://www.w3.org/2000/svg"
   xmlns="http://www.w3.org/2000/svg"
   xmlns:sodipodi="http://sodipodi.sourceforge.net/DTD/sodipodi-0.dtd"
   xmlns:inkscape="http://www.inkscape.org/namespaces/inkscape"
   width="1.7611475mm"
   height="2.3719621mm"
   viewBox="0 0 1.7611475 2.3719621"
   version="1.1"
   id="svg15354"
   inkscape:version="0.92.3 (2405546, 2018-03-11)"
   sodipodi:docname="6.svg">
  <defs
     id="defs15348" />
  <sodipodi:namedview
     id="base"
     pagecolor="#ffffff"
     bordercolor="#666666"
     borderopacity="1.0"
     inkscape:pageopacity="0.0"
     inkscape:pageshadow="2"
     inkscape:zoom="136.64408"
     inkscape:cx="3.3281528"
     inkscape:cy="4.482448"
     inkscape:document-units="mm"
     inkscape:current-layer="layer1"
     showgrid="false"
     fit-margin-top="0"
     fit-margin-left="0"
     fit-margin-right="0"
     fit-margin-bottom="0"
     inkscape:window-width="2560"
     inkscape:window-height="1377"
     inkscape:window-x="1072"
     inkscape:window-y="1072"
     inkscape:window-maximized="1" />
  <metadata
     id="metadata15351">
    <rdf:RDF>
      <cc:Work
         rdf:about="">
        <dc:format>image/svg+xml</dc:format>
        <dc:type
           rdf:resource="http://purl.org/dc/dcmitype/StillImage" />
        <dc:title></dc:title>
      </cc:Work>
    </rdf:RDF>
  </metadata>
  <g
     inkscape:label="Layer 1"
     inkscape:groupmode="layer"
     id="layer1"
     transform="translate(-58.839664,-152.18307)">
    <path
       style="fill:#000000;stroke-width:0.26458332"
       d="m 59.928323,152.18337 c -0.317484,-0.0163 -0.911725,0.6411 -1.064019,1.24592 -0.100425,0.39881 0.115451,0.87448 0.478006,1.05316 0.217025,0.10696 0.690558,0.0935 0.901237,-0.0258 0.48518,-0.2748 0.473663,-1.04135 -0.01913,-1.28984 -0.201395,-0.10156 -0.475983,-0.12308 -0.710552,-0.0558 -0.13027,0.0374 -0.135046,0.0353 -0.09043,-0.0481 0.07566,-0.14138 0.374724,-0.4489 0.529685,-0.54467 0.147299,-0.091 0.180962,-0.19576 0.09198,-0.28474 -0.03198,-0.032 -0.07143,-0.0478 -0.116787,-0.0501 z m -0.06615,1.39681 c 0.08809,0.005 0.159853,0.0248 0.19327,0.0651 0.07503,0.0904 0.0688,0.30534 -0.01138,0.38551 -0.08971,0.0897 -0.405352,0.11388 -0.561723,0.0429 -0.135941,-0.0617 -0.203378,-0.13056 -0.247015,-0.2527 -0.04721,-0.13213 0.362566,-0.25542 0.626837,-0.24081 z"
       id="path1117"
       inkscape:connector-curvature="0" />
  </g>
</svg>
