<?xml version="1.0" encoding="UTF-8" standalone="no"?>
<!-- Created with Inkscape (http://www.inkscape.org/) -->

<svg
   xmlns:dc="http://purl.org/dc/elements/1.1/"
   xmlns:cc="http://creativecommons.org/ns#"
   xmlns:rdf="http://www.w3.org/1999/02/22-rdf-syntax-ns#"
   xmlns:svg="http://www.w3.org/2000/svg"
   xmlns="http://www.w3.org/2000/svg"
   xmlns:sodipodi="http://sodipodi.sourceforge.net/DTD/sodipodi-0.dtd"
   xmlns:inkscape="http://www.inkscape.org/namespaces/inkscape"
   width="2.3008566mm"
   height="2.8341954mm"
   viewBox="0 0 2.3008566 2.8341954"
   version="1.1"
   id="svg15920"
   inkscape:version="0.92.3 (2405546, 2018-03-11)"
   sodipodi:docname="7.svg">
  <defs
     id="defs15914" />
  <sodipodi:namedview
     id="base"
     pagecolor="#ffffff"
     bordercolor="#666666"
     borderopacity="1.0"
     inkscape:pageopacity="0.0"
     inkscape:pageshadow="2"
     inkscape:zoom="114.35859"
     inkscape:cx="4.3480754"
     inkscape:cy="5.3559598"
     inkscape:document-units="mm"
     inkscape:current-layer="layer1"
     showgrid="false"
     fit-margin-top="0"
     fit-margin-left="0"
     fit-margin-right="0"
     fit-margin-bottom="0"
     inkscape:window-width="2560"
     inkscape:window-height="1377"
     inkscape:window-x="1072"
     inkscape:window-y="1072"
     inkscape:window-maximized="1" />
  <metadata
     id="metadata15917">
    <rdf:RDF>
      <cc:Work
         rdf:about="">
        <dc:format>image/svg+xml</dc:format>
        <dc:type
           rdf:resource="http://purl.org/dc/dcmitype/StillImage" />
        <dc:title></dc:title>
      </cc:Work>
    </rdf:RDF>
  </metadata>
  <g
     inkscape:label="Layer 1"
     inkscape:groupmode="layer"
     id="layer1"
     transform="translate(-69.909094,-111.13049)">
    <path
       style="fill:#000000;stroke-width:0.26458332"
       d="m 70.689447,113.89366 c -0.03659,-0.0366 -0.06652,-0.11152 -0.06652,-0.16652 0,-0.055 0.200025,-0.53161 0.4445,-1.05911 0.244475,-0.52751 0.4445,-0.96461 0.4445,-0.97133 0,-0.007 -0.332235,-0.0261 -0.738296,-0.043 -0.635879,-0.0265 -0.747969,-0.0414 -0.808043,-0.10783 -0.03836,-0.0424 -0.06309,-0.11168 -0.05494,-0.15398 0.02916,-0.1514 0.231412,-0.19413 1.133041,-0.23935 0.983342,-0.0493 1.090647,-0.0302 1.158483,0.20677 0.03313,0.11573 -0.02207,0.25034 -0.513852,1.25295 -0.631521,1.28753 -0.789747,1.4905 -0.998874,1.28137 z"
       id="path1135"
       inkscape:connector-curvature="0" />
  </g>
</svg>
