<?xml version="1.0" encoding="UTF-8" standalone="no"?>
<!-- Created with Inkscape (http://www.inkscape.org/) -->

<svg
   xmlns:dc="http://purl.org/dc/elements/1.1/"
   xmlns:cc="http://creativecommons.org/ns#"
   xmlns:rdf="http://www.w3.org/1999/02/22-rdf-syntax-ns#"
   xmlns:svg="http://www.w3.org/2000/svg"
   xmlns="http://www.w3.org/2000/svg"
   xmlns:sodipodi="http://sodipodi.sourceforge.net/DTD/sodipodi-0.dtd"
   xmlns:inkscape="http://www.inkscape.org/namespaces/inkscape"
   width="1.6839653mm"
   height="2.5609331mm"
   viewBox="0 0 1.6839653 2.5609331"
   version="1.1"
   id="svg17052"
   inkscape:version="0.92.3 (2405546, 2018-03-11)"
   sodipodi:docname="9.svg">
  <defs
     id="defs17046" />
  <sodipodi:namedview
     id="base"
     pagecolor="#ffffff"
     bordercolor="#666666"
     borderopacity="1.0"
     inkscape:pageopacity="0.0"
     inkscape:pageshadow="2"
     inkscape:zoom="15.839192"
     inkscape:cx="-2.832038"
     inkscape:cy="18.737092"
     inkscape:document-units="mm"
     inkscape:current-layer="layer1"
     showgrid="false"
     fit-margin-top="0"
     fit-margin-left="0"
     fit-margin-right="0"
     fit-margin-bottom="0"
     inkscape:window-width="2560"
     inkscape:window-height="1377"
     inkscape:window-x="1072"
     inkscape:window-y="1072"
     inkscape:window-maximized="1" />
  <metadata
     id="metadata17049">
    <rdf:RDF>
      <cc:Work
         rdf:about="">
        <dc:format>image/svg+xml</dc:format>
        <dc:type
           rdf:resource="http://purl.org/dc/dcmitype/StillImage" />
        <dc:title></dc:title>
      </cc:Work>
    </rdf:RDF>
  </metadata>
  <g
     inkscape:label="Layer 1"
     inkscape:groupmode="layer"
     id="layer1"
     transform="translate(-77.021114,-126.38617)">
    <path
       style="fill:#000000;stroke-width:0.26458332"
       d="m 78.284166,126.38643 c -0.130122,-0.003 -0.279593,0.0204 -0.412377,0.0708 -0.680381,0.25792 -1.030724,0.86028 -0.757576,1.30224 0.140145,0.22676 0.376878,0.32554 0.783932,0.32659 l 0.343648,0.001 0.02273,0.33177 c 0.01392,0.20319 0.05009,0.37269 0.09302,0.43821 0.08541,0.13035 0.193551,0.11824 0.264584,-0.03 0.132391,-0.27622 0.09752,-2.21345 -0.04238,-2.35334 -0.05478,-0.0548 -0.165465,-0.0842 -0.295589,-0.0873 z m -0.07234,0.38448 c 0.04,0.008 0.04082,0.0851 0.04082,0.38137 v 0.39997 l -0.188102,0.047 c -0.230624,0.0581 -0.299775,0.0569 -0.488857,-0.009 -0.131874,-0.0458 -0.147601,-0.0671 -0.141595,-0.19275 0.01074,-0.22519 0.33423,-0.50145 0.723472,-0.61753 0.02349,-0.007 0.04093,-0.012 0.05426,-0.009 z"
       id="path1113"
       inkscape:connector-curvature="0" />
  </g>
</svg>
