<?xml version="1.0" encoding="UTF-8" standalone="no"?>
<!-- Created with Inkscape (http://www.inkscape.org/) -->

<svg
   xmlns:dc="http://purl.org/dc/elements/1.1/"
   xmlns:cc="http://creativecommons.org/ns#"
   xmlns:rdf="http://www.w3.org/1999/02/22-rdf-syntax-ns#"
   xmlns:svg="http://www.w3.org/2000/svg"
   xmlns="http://www.w3.org/2000/svg"
   xmlns:sodipodi="http://sodipodi.sourceforge.net/DTD/sodipodi-0.dtd"
   xmlns:inkscape="http://www.inkscape.org/namespaces/inkscape"
   width="2.0173359mm"
   height="3.0262828mm"
   viewBox="0 0 2.0173359 3.0262828"
   version="1.1"
   id="svg868"
   inkscape:version="0.92.3 (2405546, 2018-03-11)"
   sodipodi:docname="b.svg">
  <defs
     id="defs862" />
  <sodipodi:namedview
     id="base"
     pagecolor="#ffffff"
     bordercolor="#666666"
     borderopacity="1.0"
     inkscape:pageopacity="0.0"
     inkscape:pageshadow="2"
     inkscape:zoom="0.35"
     inkscape:cx="956.66943"
     inkscape:cy="-434.28104"
     inkscape:document-units="mm"
     inkscape:current-layer="layer1"
     showgrid="false"
     fit-margin-top="0"
     fit-margin-left="0"
     fit-margin-right="0"
     fit-margin-bottom="0"
     inkscape:window-width="2560"
     inkscape:window-height="1377"
     inkscape:window-x="1072"
     inkscape:window-y="1072"
     inkscape:window-maximized="1" />
  <metadata
     id="metadata865">
    <rdf:RDF>
      <cc:Work
         rdf:about="">
        <dc:format>image/svg+xml</dc:format>
        <dc:type
           rdf:resource="http://purl.org/dc/dcmitype/StillImage" />
        <dc:title></dc:title>
      </cc:Work>
    </rdf:RDF>
  </metadata>
  <g
     inkscape:label="Layer 1"
     inkscape:groupmode="layer"
     id="layer1"
     transform="translate(270.12772,-30.903525)">
    <path
       inkscape:connector-curvature="0"
       style="fill:#000000;stroke-width:0.26458332"
       d="m -269.55008,30.904883 c -0.12803,0.0076 -0.2521,0.04707 -0.35502,0.125574 -0.26015,0.198427 -0.26309,0.221768 -0.15709,1.203544 0.14752,1.366345 0.21665,1.589474 0.51366,1.65933 0.36322,0.08543 0.65351,0.02331 0.99684,-0.212907 0.30451,-0.209513 0.44131,-0.429641 0.44131,-0.709517 0,-0.374581 -0.13431,-0.560352 -0.55448,-0.764812 -0.18734,-0.09116 -0.31993,-0.178099 -0.29456,-0.193786 0.0845,-0.05221 0.21446,-0.356218 0.21446,-0.501778 0,-0.363262 -0.42104,-0.628373 -0.80512,-0.605648 z m 0.007,0.434082 c 0.2166,0.0057 0.36276,0.132803 0.2961,0.257349 -0.0244,0.0456 -0.12751,0.151083 -0.22944,0.234611 l -0.18552,0.151928 -0.0434,-0.303857 c -0.0239,-0.16704 -0.0355,-0.312804 -0.0258,-0.324011 0.01,-0.01121 0.0942,-0.01848 0.18811,-0.01602 z m -0.0279,1.137398 0.23306,0.0041 c 0.22979,0.0042 0.52151,0.114764 0.68782,0.260969 0.12808,0.112604 0.0947,0.321335 -0.0749,0.470256 -0.0818,0.07183 -0.20108,0.157579 -0.2651,0.190686 -0.064,0.03311 -0.20445,0.07369 -0.31264,0.08992 l -0.19689,0.02946 -0.0315,-0.289904 c -0.0171,-0.159491 -0.0328,-0.394908 -0.0351,-0.522966 z"
       id="path1008" />
  </g>
</svg>
