<?xml version="1.0" encoding="UTF-8" standalone="no"?>
<!-- Created with Inkscape (http://www.inkscape.org/) -->

<svg
   width="11.490381mm"
   height="13.371832mm"
   viewBox="0 0 11.490381 13.371832"
   version="1.1"
   id="svg1915"
   inkscape:version="1.1 (c68e22c387, 2021-05-23)"
   sodipodi:docname="cyrillic-capital-letter-tse.svg"
   xmlns:inkscape="http://www.inkscape.org/namespaces/inkscape"
   xmlns:sodipodi="http://sodipodi.sourceforge.net/DTD/sodipodi-0.dtd"
   xmlns="http://www.w3.org/2000/svg"
   xmlns:svg="http://www.w3.org/2000/svg">
  <sodipodi:namedview
     id="namedview1917"
     pagecolor="#ffffff"
     bordercolor="#666666"
     borderopacity="1.0"
     inkscape:pageshadow="2"
     inkscape:pageopacity="0.0"
     inkscape:pagecheckerboard="0"
     inkscape:document-units="mm"
     showgrid="false"
     fit-margin-top="0"
     fit-margin-left="0"
     fit-margin-right="0"
     fit-margin-bottom="0"
     inkscape:zoom="0.77771465"
     inkscape:cx="-77.792029"
     inkscape:cy="275.8081"
     inkscape:window-width="1284"
     inkscape:window-height="1081"
     inkscape:window-x="24"
     inkscape:window-y="197"
     inkscape:window-maximized="0"
     inkscape:current-layer="layer1" />
  <defs
     id="defs1912" />
  <g
     inkscape:label="Layer 1"
     inkscape:groupmode="layer"
     id="layer1"
     transform="translate(-125.5744,-75.64398)">
    <path
       d="m 135.5023,88.811922 c -0.26901,-0.269 -0.29868,-0.88142 -0.11867,-2.44905 0.0475,-0.41353 0.0754,-0.76201 0.0621,-0.7744 -0.0413,-0.0384 -2.52068,0.1182 -3.36858,0.2128 -1.17884,0.13153 -4.59633,0.25155 -4.92457,0.17295 -0.897,-0.21479 -1.00559,-0.55321 -1.34566,-4.193492 -0.32785,-3.509618 -0.30893,-5.490778 0.0563,-5.894358 0.26659,-0.29457 0.66663,-0.15162 0.82588,0.29512 0.031,0.087 0.0944,0.8299 0.14085,1.651 0.0904,1.59759 0.36256,4.796718 0.51832,6.093368 l 0.095,0.790462 0.2638,-0.0472 c 0.14508,-0.0259 1.08294,-0.10521 2.08412,-0.17612 1.66682,-0.11806 2.9811,-0.249822 3.44067,-0.344932 0.17661,-0.0366 0.1824,-0.0853 0.23817,-2.00675 0.0314,-1.08309 0.0684,-2.912828 0.0822,-4.066058 0.0224,-1.87721 0.041,-2.1144 0.17712,-2.26484 0.20503,-0.22655 0.6447,-0.22084 0.85354,0.0111 0.15241,0.16927 0.16025,0.32882 0.14251,2.89984 -0.0104,1.49639 -0.0634,3.302648 -0.11791,4.013908 -0.0545,0.71127 -0.0842,1.30564 -0.0659,1.32083 0.0183,0.0152 0.39253,-0.007 0.83166,-0.0504 0.69013,-0.0674 0.84307,-0.0578 1.12767,0.0705 0.62688,0.282692 0.68614,0.712882 0.39742,2.885382 -0.0958,0.72074 -0.20856,1.40095 -0.25062,1.51156 -0.2094,0.55079 -0.76813,0.71602 -1.14541,0.33873 z"
       style="fill:#000000;stroke-width:0.0224014"
       id="path1176" />
  </g>
</svg>
