<?xml version="1.0" encoding="UTF-8" standalone="no"?>
<!-- Created with Inkscape (http://www.inkscape.org/) -->

<svg
   width="8.4097986mm"
   height="10.113374mm"
   viewBox="0 0 8.4097986 10.113374"
   version="1.1"
   id="svg2842"
   inkscape:version="1.1 (c68e22c387, 2021-05-23)"
   sodipodi:docname="cyrillic-capital-letter-che.svg"
   xmlns:inkscape="http://www.inkscape.org/namespaces/inkscape"
   xmlns:sodipodi="http://sodipodi.sourceforge.net/DTD/sodipodi-0.dtd"
   xmlns="http://www.w3.org/2000/svg"
   xmlns:svg="http://www.w3.org/2000/svg">
  <sodipodi:namedview
     id="namedview2844"
     pagecolor="#ffffff"
     bordercolor="#666666"
     borderopacity="1.0"
     inkscape:pageshadow="2"
     inkscape:pageopacity="0.0"
     inkscape:pagecheckerboard="0"
     inkscape:document-units="mm"
     showgrid="false"
     inkscape:zoom="0.77771465"
     inkscape:cx="-26.359282"
     inkscape:cy="65.576751"
     inkscape:window-width="1278"
     inkscape:window-height="1360"
     inkscape:window-x="-7"
     inkscape:window-y="0"
     inkscape:window-maximized="0"
     inkscape:current-layer="layer1" />
  <defs
     id="defs2839" />
  <g
     inkscape:label="Layer 1"
     inkscape:groupmode="layer"
     id="layer1"
     transform="translate(-111.80541,-131.02579)">
    <path
       style="fill:#000000;stroke-width:0.0846667"
       d="m 119.34573,141.09139 c -0.27019,-0.10871 -0.38177,-0.57968 -0.4673,-1.97246 -0.0473,-0.76993 -0.0961,-1.41268 -0.10854,-1.42833 -0.0124,-0.0156 -0.32093,0.0406 -0.68557,0.12503 -0.48215,0.11162 -1.00938,0.15371 -1.93298,0.15431 -1.09062,6.7e-4 -1.3597,-0.0269 -1.905,-0.19549 -0.79182,-0.24478 -1.99014,-0.88647 -2.17106,-1.16257 -0.27537,-0.42027 -0.37721,-4.58041 -0.12769,-5.21651 0.15673,-0.39957 0.60249,-0.50368 0.73032,-0.17057 0.0293,0.0764 0.0716,0.90217 0.0939,1.83495 0.0223,0.93279 0.0607,1.92652 0.0851,2.20829 l 0.0445,0.51232 0.78945,0.26854 c 1.48069,0.50367 2.6892,0.55758 4.25558,0.18984 l 0.77206,-0.18126 0.0287,-2.0941 c 0.0251,-1.83138 0.0475,-2.12283 0.17881,-2.32305 0.10442,-0.15926 0.22283,-0.22894 0.38904,-0.22894 0.277,0 0.45394,0.17577 0.59658,0.59267 0.11653,0.34058 0.24948,3.44385 0.28168,6.57509 l 0.0219,2.13009 -0.20526,0.21941 c -0.19328,0.2066 -0.41834,0.26173 -0.66435,0.16274 z"
       id="path1349" />
  </g>
</svg>
