<?xml version="1.0" encoding="UTF-8" standalone="no"?>
<!-- Created with Inkscape (http://www.inkscape.org/) -->

<svg
   width="17.686369mm"
   height="14.792259mm"
   viewBox="0 0 17.686369 14.792259"
   version="1.1"
   id="svg2269"
   inkscape:version="1.1 (c68e22c387, 2021-05-23)"
   sodipodi:docname="cyrillic-capital-letter-shcha.svg"
   xmlns:inkscape="http://www.inkscape.org/namespaces/inkscape"
   xmlns:sodipodi="http://sodipodi.sourceforge.net/DTD/sodipodi-0.dtd"
   xmlns="http://www.w3.org/2000/svg"
   xmlns:svg="http://www.w3.org/2000/svg">
  <sodipodi:namedview
     id="namedview2271"
     pagecolor="#ffffff"
     bordercolor="#666666"
     borderopacity="1.0"
     inkscape:pageshadow="2"
     inkscape:pageopacity="0.0"
     inkscape:pagecheckerboard="0"
     inkscape:document-units="mm"
     showgrid="false"
     fit-margin-top="0"
     fit-margin-left="0"
     fit-margin-right="0"
     fit-margin-bottom="0"
     inkscape:zoom="0.77771465"
     inkscape:cx="-67.505479"
     inkscape:cy="354.24304"
     inkscape:window-width="1284"
     inkscape:window-height="1081"
     inkscape:window-x="114"
     inkscape:window-y="209"
     inkscape:window-maximized="0"
     inkscape:current-layer="layer1" />
  <defs
     id="defs2266" />
  <g
     inkscape:label="Layer 1"
     inkscape:groupmode="layer"
     id="layer1"
     transform="translate(-122.81666,-54.861603)">
    <path
       style="fill:#000000;stroke-width:0.0846667"
       d="m 139.48297,69.633043 c -0.0929,-0.0347 -0.24104,-0.14325 -0.32921,-0.24129 -0.14986,-0.16663 -0.15708,-0.29014 -0.11068,-1.89383 0.0273,-0.94357 0.0753,-1.8013 0.1067,-1.90607 l 0.0571,-0.1905 -2.35938,6.7e-4 c -3.31907,9.3e-4 -12.09453,-0.23709 -12.61026,-0.34204 -0.51095,-0.10397 -0.77921,-0.27519 -0.89074,-0.56854 -0.1232,-0.32405 -0.50598,-5.615494 -0.52539,-7.262834 -0.0148,-1.25559 0.002,-1.47149 0.13314,-1.67216 0.18772,-0.28815 0.51613,-0.3072 0.68846,-0.0399 0.0676,0.10477 0.16295,0.4191 0.21198,0.6985 0.0861,0.49051 0.53039,5.23786 0.6474,6.917434 l 0.0572,0.82143 0.22307,-0.0368 c 0.35338,-0.0583 2.28517,-0.11702 3.97568,-0.12087 l 1.55129,-0.004 -0.0529,-0.9525 c -0.13506,-2.431884 -0.1966,-6.935984 -0.10001,-7.319224 0.17778,-0.70532 0.75652,-0.88888 1.04788,-0.33235 0.19122,0.36525 0.29565,2.77188 0.26208,6.03908 -0.0257,2.498464 -0.0224,2.558284 0.14305,2.597674 0.0931,0.0222 1.17898,0.0496 2.413,0.0609 1.9076,0.0175 2.23857,0.003 2.20966,-0.1 -0.0187,-0.0663 -0.0504,-1.924424 -0.0704,-4.129134 -0.0388,-4.2713 -0.0243,-4.45428 0.36056,-4.55088 0.3554,-0.0892 0.57737,2.5e-4 0.7556,0.30443 0.16896,0.28837 0.17335,0.40605 0.16357,4.3815 l -0.01,4.085174 h 0.95196 c 1.14964,0 1.41581,0.047 1.68675,0.29814 0.41661,0.38611 0.48802,0.91984 0.39918,2.98396 -0.0874,2.03026 -0.15244,2.30485 -0.5815,2.45442 -0.12972,0.0452 -0.31184,0.0538 -0.40474,0.0192 z"
       id="path1277" />
  </g>
</svg>
