<?xml version="1.0" encoding="UTF-8" standalone="no"?>
<!-- Created with Inkscape (http://www.inkscape.org/) -->

<svg
   width="13.347505mm"
   height="16.226948mm"
   viewBox="0 0 13.347505 16.226948"
   version="1.1"
   id="svg3024"
   inkscape:version="1.1 (c68e22c387, 2021-05-23)"
   sodipodi:docname="cyrillic-capital-letter-de.svg"
   xmlns:inkscape="http://www.inkscape.org/namespaces/inkscape"
   xmlns:sodipodi="http://sodipodi.sourceforge.net/DTD/sodipodi-0.dtd"
   xmlns="http://www.w3.org/2000/svg"
   xmlns:svg="http://www.w3.org/2000/svg">
  <sodipodi:namedview
     id="namedview3026"
     pagecolor="#ffffff"
     bordercolor="#666666"
     borderopacity="1.0"
     inkscape:pageshadow="2"
     inkscape:pageopacity="0.0"
     inkscape:pagecheckerboard="0"
     inkscape:document-units="mm"
     showgrid="false"
     inkscape:zoom="0.77771465"
     inkscape:cx="77.792029"
     inkscape:cy="139.51132"
     inkscape:window-width="1284"
     inkscape:window-height="1081"
     inkscape:window-x="127"
     inkscape:window-y="245"
     inkscape:window-maximized="0"
     inkscape:current-layer="layer1" />
  <defs
     id="defs3021" />
  <g
     inkscape:label="Layer 1"
     inkscape:groupmode="layer"
     id="layer1"
     transform="translate(-84.501505,-111.63899)">
    <path
       id="path836"
       style="fill:#000000;stroke-width:0.0846667"
       d="m 93.705475,111.63919 c -0.342768,2.3e-4 -0.796422,0.009 -1.396286,0.0258 -3.22154,0.0894 -4.536254,0.2583 -4.961466,0.63821 l -0.260959,0.23358 -0.06511,1.51308 c -0.108849,2.53444 -0.269954,3.41195 -0.92964,5.05757 -0.259344,0.64692 -0.987319,1.76684 -1.394248,2.14509 -0.246433,0.22908 -0.249238,0.36961 -0.07287,3.49643 0.136763,2.42424 0.163486,2.65115 0.351419,2.94762 0.167772,0.26469 0.457703,0.21275 0.620633,-0.1111 0.101786,-0.20239 0.127635,-0.6152 0.127635,-2.03192 0,-0.9779 -0.02741,-2.12666 -0.06149,-2.5523 l -0.06202,-0.77359 0.315727,0.0744 c 0.173752,0.041 1.55411,0.11406 3.067526,0.16226 1.513417,0.0482 3.323484,0.12215 4.021984,0.16485 0.6985,0.0426 1.709976,0.0797 2.247927,0.0827 l 0.978217,0.005 0.09562,1.62988 c 0.0527,0.89641 0.140943,1.76299 0.195844,1.92598 0.188516,0.55997 0.670798,0.76476 1.007692,0.42788 0.330888,-0.33095 0.370735,-0.75635 0.266118,-2.82877 -0.135149,-2.6778 -0.152902,-2.7058 -1.721326,-2.7497 l -1.01854,-0.0284 0.04908,-4.408 c 0.05416,-4.83782 0.0612,-4.76412 -0.443891,-4.97334 -0.122185,-0.0506 -0.386265,-0.0738 -0.95758,-0.0734 z m -1.744081,1.51101 h 1.85002 l -0.04908,0.57155 c -0.14396,1.6725 -0.187616,2.90952 -0.176213,4.99142 l 0.01296,2.30322 -2.498037,-0.005 c -1.373717,-0.002 -2.821543,0.0196 -3.217386,0.0496 v 5.3e-4 c -0.395791,0.03 -0.843413,0.0733 -0.994754,0.0966 -0.318744,0.0491 -0.332132,0.0149 -0.116285,-0.29094 0.57031,-0.80808 1.296564,-2.83004 1.499129,-4.17338 0.08898,-0.58978 0.123217,-1.29647 0.104908,-2.15698 l -0.02685,-1.27951 0.880559,-0.0537 c 0.484558,-0.0296 1.713548,-0.0537 2.731082,-0.0537 z" />
  </g>
</svg>
