<?xml version="1.0" encoding="UTF-8" standalone="no"?>
<!-- Created with Inkscape (http://www.inkscape.org/) -->

<svg
   width="12.30994mm"
   height="20.251657mm"
   viewBox="0 0 12.30994 20.251657"
   version="1.1"
   id="svg1724"
   inkscape:version="1.1 (c68e22c387, 2021-05-23)"
   sodipodi:docname="cyrillic-capital-letter-ef.svg"
   xmlns:inkscape="http://www.inkscape.org/namespaces/inkscape"
   xmlns:sodipodi="http://sodipodi.sourceforge.net/DTD/sodipodi-0.dtd"
   xmlns="http://www.w3.org/2000/svg"
   xmlns:svg="http://www.w3.org/2000/svg">
  <sodipodi:namedview
     id="namedview1726"
     pagecolor="#ffffff"
     bordercolor="#666666"
     borderopacity="1.0"
     inkscape:pageshadow="2"
     inkscape:pageopacity="0.0"
     inkscape:pagecheckerboard="0"
     inkscape:document-units="mm"
     showgrid="false"
     fit-margin-top="0"
     fit-margin-left="0"
     fit-margin-right="0"
     fit-margin-bottom="0"
     inkscape:zoom="0.77771465"
     inkscape:cx="37.93165"
     inkscape:cy="349.09976"
     inkscape:window-width="1284"
     inkscape:window-height="1081"
     inkscape:window-x="119"
     inkscape:window-y="139"
     inkscape:window-maximized="0"
     inkscape:current-layer="layer1" />
  <defs
     id="defs1721" />
  <g
     inkscape:label="Layer 1"
     inkscape:groupmode="layer"
     id="layer1"
     transform="translate(-94.886264,-56.214377)">
    <path
       id="path1271"
       style="fill:#000000;stroke-width:0.0846667"
       d="m 100.81982,56.214699 c -0.0892,0.0042 -0.15505,0.04808 -0.23202,0.143143 -0.16033,0.197991 -0.1912,0.392622 -0.34727,2.195732 l -0.10439,1.208712 -0.34261,0.195337 c -0.188368,0.10741 -0.636559,0.32202 -0.996323,0.47749 -0.896678,0.38746 -1.693646,1.010213 -2.365745,1.848983 -1.05622,1.318129 -1.552028,2.558444 -1.545127,3.865914 0.0024,0.451749 0.06088,0.951761 0.14366,1.227832 0.221142,0.737489 0.874932,1.754424 1.580267,2.458764 1.062378,1.06091 2.009989,1.573953 3.281968,1.777153 0.3136,0.0501 0.57831,0.09977 0.58859,0.11007 0.0411,0.04109 0.27751,2.182826 0.32867,2.977596 0.0656,1.019911 0.16168,1.435503 0.38344,1.657264 0.20917,0.209161 0.43294,0.111656 0.64905,-0.283705 0.13095,-0.239538 0.14935,-0.527717 0.14935,-2.371947 V 71.60394 l 0.55035,-0.192753 c 1.56967,-0.54913 2.76777,-1.469853 3.622,-2.783293 0.7643,-1.175154 1.0294,-2.083379 1.0325,-3.539318 0.002,-1.159681 -0.12085,-1.715328 -0.59635,-2.686658 -0.43326,-0.88508 -0.76751,-1.228202 -1.77715,-1.826762 -0.99385,-0.58921 -1.52606,-0.781702 -2.51458,-0.908472 -0.75476,-0.09679 -0.76628,-0.10195 -0.81648,-0.35295 -0.028,-0.14004 -0.0507,-0.765989 -0.0507,-1.391129 0,-1.26845 -0.0924,-1.592119 -0.48162,-1.689819 -0.0534,-0.01341 -0.099,-0.01998 -0.13953,-0.01809 z m 0.67955,4.794022 0.3731,0.05581 c 0.84008,0.12595 1.25201,0.254134 1.88671,0.587044 0.93509,0.49047 1.32315,0.857931 1.64538,1.557011 1.09484,2.37528 -0.041,5.330062 -2.5275,6.574792 -0.42689,0.21371 -0.82353,0.388607 -0.8816,0.388607 -0.11028,0 -0.24368,-2.366829 -0.34365,-6.096268 -0.0256,-0.954611 -0.0707,-2.035214 -0.0997,-2.401404 z m -1.44694,0.188619 c 0.0983,0 0.11834,0.364817 0.11834,2.151807 0,2.04996 0.11288,5.462229 0.21497,6.505029 l 0.0475,0.487309 -0.23719,-0.0088 c -0.697475,-0.02502 -1.678362,-0.478756 -2.538348,-1.174606 -0.548521,-0.44383 -1.181156,-1.346143 -1.421101,-2.026233 -0.612251,-1.73531 0.857469,-4.513016 2.939354,-5.555216 0.417002,-0.20875 0.811313,-0.379305 0.876435,-0.379305 z" />
  </g>
</svg>
