<?xml version="1.0" encoding="UTF-8" standalone="no"?>
<!-- Created with Inkscape (http://www.inkscape.org/) -->

<svg
   width="12.601232mm"
   height="10.711144mm"
   viewBox="0 0 12.601232 10.711144"
   version="1.1"
   id="svg2651"
   inkscape:version="1.1 (c68e22c387, 2021-05-23)"
   sodipodi:docname="cyrillic-capital-letter-el.svg"
   xmlns:inkscape="http://www.inkscape.org/namespaces/inkscape"
   xmlns:sodipodi="http://sodipodi.sourceforge.net/DTD/sodipodi-0.dtd"
   xmlns="http://www.w3.org/2000/svg"
   xmlns:svg="http://www.w3.org/2000/svg">
  <sodipodi:namedview
     id="namedview2653"
     pagecolor="#ffffff"
     bordercolor="#666666"
     borderopacity="1.0"
     inkscape:pageshadow="2"
     inkscape:pageopacity="0.0"
     inkscape:pagecheckerboard="0"
     inkscape:document-units="mm"
     showgrid="false"
     inkscape:zoom="0.77771465"
     inkscape:cx="138.22551"
     inkscape:cy="76.50621"
     inkscape:window-width="1284"
     inkscape:window-height="1081"
     inkscape:window-x="112"
     inkscape:window-y="160"
     inkscape:window-maximized="0"
     inkscape:current-layer="layer1" />
  <defs
     id="defs2648" />
  <g
     inkscape:label="Layer 1"
     inkscape:groupmode="layer"
     id="layer1"
     transform="translate(-68.544745,-128.34546)">
    <path
       style="fill:#000000;stroke-width:0.0846667"
       d="m 68.979074,138.9252 c -0.65359,-0.30591 -0.54498,-0.93997 0.16102,-0.93997 0.46735,0 0.84751,-0.18368 1.34762,-0.6511 0.77885,-0.72795 1.50007,-1.90404 1.75983,-2.86974 0.30561,-1.13611 0.61351,-3.19803 0.73222,-4.9035 0.0744,-1.06884 0.11425,-1.09786 1.52082,-1.10795 0.5588,-0.004 2.08442,-0.0376 3.39026,-0.0748 2.72724,-0.0775 2.8018,-0.0637 3.09153,0.5745 0.14002,0.30839 0.16117,0.56782 0.16353,2.00522 0.004,2.1857 -0.15858,6.53209 -0.26444,7.08818 -0.1129,0.59306 -0.30603,0.81968 -0.69851,0.81968 -0.38667,0 -0.55979,-0.16975 -0.65208,-0.63941 -0.0847,-0.43118 -0.10249,-6.4414 -0.0224,-7.58595 l 0.0548,-0.78317 -1.727,0.0104 c -0.94985,0.006 -2.12704,0.0343 -2.61599,0.0635 l -0.889,0.0531 -0.0672,0.71967 c -0.10478,1.12191 -0.55682,3.59699 -0.79511,4.35341 -0.2646,0.83996 -0.43686,1.18714 -0.98104,1.97728 -1.08427,1.57436 -2.52543,2.35087 -3.50882,1.89061 z"
       id="path1353" />
  </g>
</svg>
