<?xml version="1.0" encoding="UTF-8" standalone="no"?>
<!-- Created with Inkscape (http://www.inkscape.org/) -->

<svg
   width="14.282924mm"
   height="10.868096mm"
   viewBox="0 0 14.282924 10.868096"
   version="1.1"
   id="svg2451"
   inkscape:version="1.1 (c68e22c387, 2021-05-23)"
   sodipodi:docname="cyrillic-capital-letter-yu2.svg"
   xmlns:inkscape="http://www.inkscape.org/namespaces/inkscape"
   xmlns:sodipodi="http://sodipodi.sourceforge.net/DTD/sodipodi-0.dtd"
   xmlns="http://www.w3.org/2000/svg"
   xmlns:svg="http://www.w3.org/2000/svg">
  <sodipodi:namedview
     id="namedview2453"
     pagecolor="#ffffff"
     bordercolor="#666666"
     borderopacity="1.0"
     inkscape:pageshadow="2"
     inkscape:pageopacity="0.0"
     inkscape:pagecheckerboard="0"
     inkscape:document-units="mm"
     showgrid="false"
     inkscape:zoom="0.77771465"
     inkscape:cx="-26.359282"
     inkscape:cy="-13.501096"
     inkscape:window-width="2560"
     inkscape:window-height="1369"
     inkscape:window-x="-8"
     inkscape:window-y="-8"
     inkscape:window-maximized="1"
     inkscape:current-layer="layer1" />
  <defs
     id="defs2448" />
  <g
     inkscape:label="Layer 1"
     inkscape:groupmode="layer"
     id="layer1"
     transform="translate(-111.93071,-152.08142)">
    <path
       id="path1297"
       style="fill:#000000;stroke-width:0.0846667"
       d="m 112.47134,152.08142 c -0.0537,7e-5 -0.10589,0.0122 -0.15449,0.0382 -0.3656,0.19565 -0.38804,0.48483 -0.38603,4.99918 0.003,4.65915 0.0111,4.75809 0.47956,5.10563 0.19794,0.1468 0.26011,0.15498 0.47956,0.0641 0.42928,-0.1778 0.46844,-0.40938 0.40513,-2.37815 l -0.0563,-1.76682 1.80041,0.045 c 0.99025,0.0246 1.84814,0.0595 1.90635,0.0775 0.0628,0.0194 0.10612,0.18016 0.10697,0.39532 0.003,0.88709 0.54364,2.27166 1.14824,2.94091 0.54731,0.60579 1.28653,0.9907 2.36421,1.23145 v 5.3e-4 c 0.69651,0.15524 1.85002,0.15339 2.45877,-0.004 1.26347,-0.32696 2.35911,-1.41729 2.92695,-2.91248 0.3674,-0.96756 0.35029,-2.1072 -0.0543,-3.63337 -0.44532,-1.67997 -1.26349,-2.79199 -2.57969,-3.50573 -0.93086,-0.50474 -1.61298,-0.64221 -2.44792,-0.493 -0.69099,0.12349 -1.62259,0.54676 -2.07222,0.94155 -0.73782,0.6478 -1.44706,1.93122 -1.67071,3.02359 l -0.10851,0.52968 -1.31672,5.3e-4 c -0.72409,2.9e-4 -1.56927,0.0245 -1.87844,0.0537 l -0.56224,0.0527 -0.0543,-1.25987 c -0.0742,-1.73167 -0.19688,-3.05196 -0.30282,-3.24993 -0.0996,-0.18592 -0.27046,-0.29631 -0.43151,-0.29611 z m 8.8129,1.60869 c 0.71226,4.2e-4 0.72602,0.004 1.3126,0.38912 1.08148,0.70936 1.56459,1.4109 1.9177,2.78536 0.11787,0.4589 0.18772,0.99568 0.19172,1.48157 0.007,0.70783 -0.0146,0.80753 -0.29816,1.40146 -0.52356,1.09627 -1.10316,1.59367 -2.05984,1.76733 -0.56012,0.10157 -0.63952,0.10131 -1.35599,-0.003 -0.67524,-0.0984 -0.9711,-0.20306 -1.42988,-0.50694 -0.42654,-0.28252 -0.96957,-1.06398 -1.1896,-1.71204 -0.2006,-0.5908 -0.31673,-1.79897 -0.22632,-2.35438 0.11787,-0.72424 0.75197,-1.98828 1.23661,-2.46548 0.62203,-0.61248 1.03677,-0.78341 1.90116,-0.7829 z" />
  </g>
</svg>
