<?xml version="1.0" encoding="UTF-8" standalone="no"?>
<!-- Created with Inkscape (http://www.inkscape.org/) -->

<svg
   width="12.078671mm"
   height="11.308226mm"
   viewBox="0 0 12.078671 11.308226"
   version="1.1"
   id="svg2042"
   inkscape:version="1.1 (c68e22c387, 2021-05-23)"
   sodipodi:docname="cyrillic-capital-letter-zhe.svg"
   xmlns:inkscape="http://www.inkscape.org/namespaces/inkscape"
   xmlns:sodipodi="http://sodipodi.sourceforge.net/DTD/sodipodi-0.dtd"
   xmlns="http://www.w3.org/2000/svg"
   xmlns:svg="http://www.w3.org/2000/svg">
  <sodipodi:namedview
     id="namedview2044"
     pagecolor="#ffffff"
     bordercolor="#666666"
     borderopacity="1.0"
     inkscape:pageshadow="2"
     inkscape:pageopacity="0.0"
     inkscape:pagecheckerboard="0"
     inkscape:document-units="mm"
     showgrid="false"
     fit-margin-top="0"
     fit-margin-left="0"
     fit-margin-right="0"
     fit-margin-bottom="0"
     inkscape:zoom="0.77771465"
     inkscape:cx="4.5003653"
     inkscape:cy="201.23062"
     inkscape:window-width="2560"
     inkscape:window-height="1369"
     inkscape:window-x="-8"
     inkscape:window-y="-8"
     inkscape:window-maximized="1"
     inkscape:current-layer="layer1" />
  <defs
     id="defs2039" />
  <g
     inkscape:label="Layer 1"
     inkscape:groupmode="layer"
     id="layer1"
     transform="translate(-103.84726,-95.387123)">
    <path
       style="fill:#000000;stroke-width:0.0846667"
       d="m 114.18945,106.60345 c -0.14016,-0.0629 -0.76362,-0.64391 -1.38547,-1.29116 -0.62185,-0.64724 -1.49778,-1.51932 -1.9465,-1.93796 l -0.81587,-0.76116 -0.0423,1.5695 c -0.0467,1.72975 -0.12739,2.02714 -0.55033,2.02714 -0.43167,0 -0.66149,-0.78718 -0.77126,-2.64168 -0.0553,-0.93397 -0.0674,-0.98453 -0.21207,-0.88322 -0.0844,0.0591 -0.7168,0.62372 -1.40537,1.2547 -1.88725,1.72939 -2.37182,2.0985 -2.75661,2.09979 -0.25681,8.7e-4 -0.33773,-0.0393 -0.41334,-0.20527 -0.0791,-0.17363 -0.0577,-0.26839 0.13535,-0.59772 0.22364,-0.38161 2.18945,-2.36416 3.57357,-3.60398 l 0.69028,-0.61831 -0.81326,-0.89466 c -1.15021,-1.265342 -2.39502,-2.466892 -2.81274,-2.714992 -0.69096,-0.41038 -0.85604,-0.74174 -0.52072,-1.04521 0.20046,-0.18142 0.33391,-0.17663 0.8915,0.032 0.71493,0.26749 1.3611,0.73301 2.50967,1.80803 l 1.05833,0.99057 0.0455,-1.63353 c 0.0502,-1.80257 0.12534,-2.12177 0.50985,-2.16669 0.12922,-0.0151 0.27331,0.0388 0.36001,0.13456 0.1751,0.19348 0.37589,1.47912 0.46292,2.96394 l 0.061,1.04133 1.143,-0.89981 c 0.62865,-0.49489 1.63532,-1.28734 2.23706,-1.76099 0.60172,-0.47366 1.23037,-0.94672 1.397,-1.05126 0.58532,-0.36722 1.10728,-0.17298 1.10728,0.41206 0,0.29671 -0.0559,0.3951 -0.4445,0.78246 -0.24448,0.24369 -0.79102,0.70793 -1.21453,1.03165 -0.42352,0.32371 -1.42741,1.10166 -2.23087,1.72877 l -1.46085,1.140212 0.28354,0.24525 c 2.10529,1.82099 3.95756,3.70089 4.24658,4.30996 0.385,0.81133 -0.15273,1.47811 -0.91587,1.13567 z"
       id="path1311" />
  </g>
</svg>
