<?xml version="1.0" encoding="UTF-8" standalone="no"?>
<!-- Created with Inkscape (http://www.inkscape.org/) -->

<svg
   width="8.9818811mm"
   height="10.900929mm"
   viewBox="0 0 8.9818811 10.900929"
   version="1.1"
   id="svg2933"
   inkscape:version="1.1 (c68e22c387, 2021-05-23)"
   sodipodi:docname="cyrillic-capital-letter-pe.svg"
   xmlns:inkscape="http://www.inkscape.org/namespaces/inkscape"
   xmlns:sodipodi="http://sodipodi.sourceforge.net/DTD/sodipodi-0.dtd"
   xmlns="http://www.w3.org/2000/svg"
   xmlns:svg="http://www.w3.org/2000/svg">
  <sodipodi:namedview
     id="namedview2935"
     pagecolor="#ffffff"
     bordercolor="#666666"
     borderopacity="1.0"
     inkscape:pageshadow="2"
     inkscape:pageopacity="0.0"
     inkscape:pagecheckerboard="0"
     inkscape:document-units="mm"
     showgrid="false"
     inkscape:zoom="0.77771465"
     inkscape:cx="12.215277"
     inkscape:cy="274.52228"
     inkscape:window-width="1284"
     inkscape:window-height="1081"
     inkscape:window-x="100"
     inkscape:window-y="183"
     inkscape:window-maximized="0"
     inkscape:current-layer="layer1" />
  <defs
     id="defs2930" />
  <g
     inkscape:label="Layer 1"
     inkscape:groupmode="layer"
     id="layer1"
     transform="translate(-101.65339,-75.858814)">
    <path
       style="fill:#000000;stroke-width:0.0846667"
       d="m 109.68105,86.636832 c -0.10313,-0.0722 -0.22845,-0.20784 -0.27849,-0.30134 -0.18076,-0.33775 -0.26863,-1.79163 -0.32183,-5.324654 l -0.0542,-3.59833 -1.43933,1.7e-4 c -0.79164,8e-5 -2.19305,0.0344 -3.11427,0.0762 l -1.67494,0.076 0.0463,0.47415 c 0.0254,0.26078 0.0846,1.42665 0.13145,2.59082 0.0469,1.16416 0.10913,2.68958 0.13836,3.389824 0.0597,1.43101 -0.0161,1.84849 -0.36488,2.00739 -0.17282,0.0787 -0.23509,0.066 -0.37873,-0.0777 -0.0945,-0.0945 -0.20475,-0.32047 -0.24492,-0.50206 -0.0764,-0.34525 -0.21221,-2.262404 -0.29336,-4.140164 -0.0262,-0.60537 -0.0868,-1.83109 -0.1347,-2.72382 -0.10361,-1.93023 -0.0559,-2.15721 0.48546,-2.30753 0.17835,-0.0495 0.49572,-0.0908 0.70527,-0.0918 0.20955,-9.7e-4 1.2573,-0.0768 2.32833,-0.16853 3.59782,-0.30812 5.02272,-0.17247 5.28348,0.50297 0.0504,0.13062 0.0939,2.12818 0.10942,5.02835 l 0.0258,4.811664 -0.23756,0.20484 c -0.27596,0.23798 -0.45551,0.25639 -0.71662,0.0735 z"
       id="path1351" />
  </g>
</svg>
