<?xml version="1.0" encoding="UTF-8" standalone="no"?>
<!-- Created with Inkscape (http://www.inkscape.org/) -->

<svg
   width="10.807779mm"
   height="16.163059mm"
   viewBox="0 0 10.807779 16.163059"
   version="1.1"
   id="svg2542"
   inkscape:version="1.1 (c68e22c387, 2021-05-23)"
   sodipodi:docname="cyrillic-capital-letter-be.svg"
   xmlns:inkscape="http://www.inkscape.org/namespaces/inkscape"
   xmlns:sodipodi="http://sodipodi.sourceforge.net/DTD/sodipodi-0.dtd"
   xmlns="http://www.w3.org/2000/svg"
   xmlns:svg="http://www.w3.org/2000/svg">
  <sodipodi:namedview
     id="namedview2544"
     pagecolor="#ffffff"
     bordercolor="#666666"
     borderopacity="1.0"
     inkscape:pageshadow="2"
     inkscape:pageopacity="0.0"
     inkscape:pagecheckerboard="0"
     inkscape:document-units="mm"
     showgrid="false"
     inkscape:zoom="3.1108586"
     inkscape:cx="-18.483643"
     inkscape:cy="38.092378"
     inkscape:window-width="2560"
     inkscape:window-height="1369"
     inkscape:window-x="-8"
     inkscape:window-y="-8"
     inkscape:window-maximized="1"
     inkscape:current-layer="layer1" />
  <defs
     id="defs2539" />
  <g
     inkscape:label="Layer 1"
     inkscape:groupmode="layer"
     id="layer1"
     transform="translate(-43.92603,-127.32053)">
    <path
       id="path1303"
       style="fill:#000000;stroke-width:0.0846667"
       d="m 53.436031,127.32053 c -0.151051,0 -0.594281,0.44474 -0.594281,0.59635 0,0.14951 -0.320569,0.23984 -1.315164,0.36948 -1.866768,0.24331 -3.093244,0.66318 -4.343903,1.48725 -1.677855,1.10554 -2.803075,2.88723 -3.1564,4.99763 -0.135598,0.80981 -0.133297,2.43583 0.0048,3.07991 0.294137,1.37318 0.953373,2.57035 2.017448,3.66386 0.834654,0.85772 2.078011,1.61009 3.05046,1.84588 1.675633,0.40628 3.433234,-0.21499 4.492255,-1.58801 0.793168,-1.02836 1.140566,-2.08877 1.14255,-3.48765 0.0026,-1.55179 -0.370655,-2.58662 -1.331171,-3.69744 -0.947791,-1.09609 -1.746092,-1.56994 -3.123327,-1.85415 -1.656213,-0.34178 -3.182726,-0.10049 -4.202324,0.66455 l -0.28837,0.21653 0.233072,-0.42788 c 0.603064,-1.10801 1.585595,-2.09707 2.58691,-2.60346 0.705485,-0.35677 1.68791,-0.6422 2.942458,-0.85473 0.685932,-0.1162 1.40798,-0.28876 1.604566,-0.38396 0.433916,-0.21006 0.672835,-0.57327 0.747236,-1.13584 0.0472,-0.35694 0.02736,-0.45851 -0.127635,-0.65526 -0.100886,-0.12806 -0.253418,-0.23306 -0.339011,-0.23306 z m -4.570783,6.86625 c 0.743532,-0.006 1.358582,0.10282 2.021602,0.35088 0.603038,0.22563 1.592686,1.21932 1.956964,1.96474 0.91059,1.86331 0.210423,4.36207 -1.457272,5.19968 -1.219888,0.6127 -2.491502,0.36624 -3.839554,-0.74517 -0.677439,-0.55853 -1.261295,-1.28768 -1.630918,-2.03657 -0.306917,-0.6229 -0.312526,-0.65357 -0.309536,-1.60869 0.0045,-1.29525 0.200237,-1.8128 0.885216,-2.33888 0.794279,-0.61 1.114558,-0.73179 2.046394,-0.77669 0.111971,-0.005 0.2209,-0.008 0.327104,-0.009 z" />
  </g>
</svg>
