<?xml version="1.0" encoding="UTF-8" standalone="no"?>
<!-- Created with Inkscape (http://www.inkscape.org/) -->

<svg
   width="8.1142044mm"
   height="11.140435mm"
   viewBox="0 0 8.1142044 11.140435"
   version="1.1"
   id="svg3115"
   inkscape:version="1.1 (c68e22c387, 2021-05-23)"
   sodipodi:docname="cyrillic-capital-letter-ya.svg"
   xmlns:inkscape="http://www.inkscape.org/namespaces/inkscape"
   xmlns:sodipodi="http://sodipodi.sourceforge.net/DTD/sodipodi-0.dtd"
   xmlns="http://www.w3.org/2000/svg"
   xmlns:svg="http://www.w3.org/2000/svg">
  <sodipodi:namedview
     id="namedview3117"
     pagecolor="#ffffff"
     bordercolor="#666666"
     borderopacity="1.0"
     inkscape:pageshadow="2"
     inkscape:pageopacity="0.0"
     inkscape:pagecheckerboard="0"
     inkscape:document-units="mm"
     showgrid="false"
     inkscape:zoom="0.77771465"
     inkscape:cx="66.219661"
     inkscape:cy="17.358552"
     inkscape:window-width="2560"
     inkscape:window-height="1369"
     inkscape:window-x="-8"
     inkscape:window-y="-8"
     inkscape:window-maximized="1"
     inkscape:current-layer="layer1" />
  <defs
     id="defs3112" />
  <g
     inkscape:label="Layer 1"
     inkscape:groupmode="layer"
     id="layer1"
     transform="translate(-87.458342,-143.78029)">
    <path
       id="path1293"
       style="fill:#000000;stroke-width:0.0846667"
       d="m 94.423316,143.78034 c -0.18415,0.001 -0.446325,0.0212 -0.857832,0.0589 -1.49262,0.13676 -2.033058,0.2776 -2.999316,0.7829 -1.054312,0.55135 -1.473042,0.98977 -1.79885,1.88309 -0.197458,0.54168 -0.226007,0.72765 -0.191717,1.26194 0.05165,0.80484 0.305171,1.25837 0.951865,1.70377 0.258419,0.17797 0.469742,0.33902 0.469742,0.35812 0,0.0191 -0.166265,0.25099 -0.369465,0.51521 -1.043781,1.35727 -2.171382,3.37087 -2.169398,3.87418 0.0026,0.3716 0.05025,0.47249 0.29509,0.61133 0.221562,0.12566 0.260853,0.12404 0.545703,-0.0232 0.161581,-0.0836 0.372004,-0.36786 0.640265,-0.86403 0.219843,-0.4066 0.724879,-1.2553 1.122416,-1.88619 0.397536,-0.63088 0.80301,-1.2899 0.900721,-1.46451 0.119115,-0.21281 0.21926,-0.30153 0.304377,-0.26923 0.518292,0.1965 1.716749,0.25651 2.603447,0.13022 l 0.444949,-0.0636 0.0026,0.68316 c 0.0034,1.33614 0.153088,3.07661 0.286279,3.33417 0.154676,0.29906 0.34208,0.38653 0.56896,0.2651 0.344911,-0.18457 0.365125,-0.40092 0.394812,-4.1858 0.02892,-3.68986 -0.0794,-5.85709 -0.314696,-6.29677 -0.05247,-0.098 -0.212698,-0.23906 -0.35605,-0.31316 -0.128852,-0.0666 -0.236114,-0.097 -0.472836,-0.0956 z m -0.31316,1.42007 0.102817,1.07642 c 0.05641,0.59199 0.102367,1.42405 0.10234,1.84898 v 0.77256 l -0.274928,0.0553 c -0.151289,0.0302 -0.656167,0.0733 -1.121886,0.0956 -0.968375,0.0464 -1.420733,-0.0498 -2.39522,-0.51005 -0.514139,-0.24282 -0.638149,-0.34252 -0.744644,-0.59738 -0.1143,-0.27279 -0.114247,-0.3533 0,-0.74362 0.201348,-0.68785 0.520595,-1.00125 1.422638,-1.39578 0.761921,-0.33324 1.336517,-0.46701 2.397787,-0.55811 z" />
  </g>
</svg>
