<?xml version="1.0" encoding="UTF-8" standalone="no"?>
<!-- Created with Inkscape (http://www.inkscape.org/) -->

<svg
   width="10.110499mm"
   height="12.160061mm"
   viewBox="0 0 10.110499 12.160061"
   version="1.1"
   id="svg2360"
   inkscape:version="1.1 (c68e22c387, 2021-05-23)"
   sodipodi:docname="cyrillic-capital-letter-e.svg"
   xmlns:inkscape="http://www.inkscape.org/namespaces/inkscape"
   xmlns:sodipodi="http://sodipodi.sourceforge.net/DTD/sodipodi-0.dtd"
   xmlns="http://www.w3.org/2000/svg"
   xmlns:svg="http://www.w3.org/2000/svg">
  <sodipodi:namedview
     id="namedview2362"
     pagecolor="#ffffff"
     bordercolor="#666666"
     borderopacity="1.0"
     inkscape:pageshadow="2"
     inkscape:pageopacity="0.0"
     inkscape:pagecheckerboard="0"
     inkscape:document-units="mm"
     showgrid="false"
     inkscape:zoom="0.77771465"
     inkscape:cx="-12.215277"
     inkscape:cy="-446.82198"
     inkscape:window-width="2560"
     inkscape:window-height="1369"
     inkscape:window-x="-8"
     inkscape:window-y="-8"
     inkscape:window-maximized="1"
     inkscape:current-layer="layer1" />
  <defs
     id="defs2357" />
  <g
     inkscape:label="Layer 1"
     inkscape:groupmode="layer"
     id="layer1"
     transform="translate(-54.140628,-133.4045)">
    <path
       style="fill:#000000;stroke-width:0.0846667"
       d="m 56.75905,145.45304 c -1.52191,-0.55568 -3.14796,-2.50395 -2.45314,-2.93925 0.21776,-0.13642 0.49951,-0.0114 1.21961,0.54114 0.37253,0.28586 0.9193,0.63495 1.21504,0.77577 0.50726,0.24153 0.5792,0.25326 1.27,0.20711 1.10712,-0.0739 2.55797,-0.59902 3.37304,-1.2207 0.49248,-0.37564 0.95674,-1.28009 1.09234,-2.12806 l 0.0521,-0.32569 -0.83426,-0.0612 c -0.45883,-0.0336 -2.11436,-0.10615 -3.67896,-0.16112 -3.07095,-0.10791 -3.12428,-0.11764 -3.12428,-0.56995 0,-0.29895 0.17452,-0.47588 0.57531,-0.58322 1.0287,-0.27551 4.38771,-0.40817 5.94402,-0.23474 0.58208,0.0649 1.07048,0.10869 1.08532,0.0974 0.0717,-0.0546 -0.4361,-1.30512 -0.76099,-1.87389 -0.48426,-0.84776 -1.09982,-1.46258 -1.81872,-1.81649 -0.57187,-0.28153 -0.58567,-0.28373 -1.7635,-0.28123 -1.32107,0.003 -1.83076,0.13473 -2.46362,0.63766 -0.44942,0.35715 -0.7041,0.40547 -0.89493,0.16981 -0.14026,-0.17321 -0.14263,-0.21546 -0.028,-0.4996 0.43424,-1.07602 2.36818,-1.88334 4.24486,-1.77202 1.71935,0.10199 3.14324,1.03067 4.12818,2.69242 0.59537,1.0045 0.87508,1.7245 1.03295,2.65894 0.16486,0.97575 0.0743,1.96836 -0.27465,3.00908 -0.49148,1.46601 -1.17398,2.23083 -2.61051,2.9254 -1.27586,0.61688 -1.98486,0.80701 -3.17843,0.85236 -0.75746,0.0288 -1.05697,0.007 -1.3488,-0.1 z"
       id="path1285" />
  </g>
</svg>
