<?xml version="1.0" encoding="UTF-8" standalone="no"?>
<!-- Created with Inkscape (http://www.inkscape.org/) -->

<svg
   width="10.90146mm"
   height="13.874145mm"
   viewBox="0 0 10.90146 13.874145"
   version="1.1"
   id="svg1450"
   inkscape:version="1.1 (c68e22c387, 2021-05-23)"
   sodipodi:docname="cyrillic-capital-letter-short-I-with-tail.svg"
   xmlns:inkscape="http://www.inkscape.org/namespaces/inkscape"
   xmlns:sodipodi="http://sodipodi.sourceforge.net/DTD/sodipodi-0.dtd"
   xmlns="http://www.w3.org/2000/svg"
   xmlns:svg="http://www.w3.org/2000/svg">
  <sodipodi:namedview
     id="namedview1452"
     pagecolor="#ffffff"
     bordercolor="#666666"
     borderopacity="1.0"
     inkscape:pageshadow="2"
     inkscape:pageopacity="0.0"
     inkscape:pagecheckerboard="0"
     inkscape:document-units="mm"
     showgrid="false"
     fit-margin-top="0"
     fit-margin-left="0"
     fit-margin-right="0"
     fit-margin-bottom="0"
     inkscape:zoom="8.7988368"
     inkscape:cx="25.514736"
     inkscape:cy="25.173782"
     inkscape:window-width="2560"
     inkscape:window-height="1369"
     inkscape:window-x="-8"
     inkscape:window-y="-8"
     inkscape:window-maximized="1"
     inkscape:current-layer="layer1" />
  <defs
     id="defs1447" />
  <g
     inkscape:label="Layer 1"
     inkscape:groupmode="layer"
     id="layer1"
     transform="translate(-70.415254,-98.18664)">
    <path
       d="m 80.18135,111.98578 c -0.34623,-0.13946 -0.42475,-0.41233 -0.57233,-1.98885 -0.0785,-0.8382 -0.19399,-1.86692 -0.25671,-2.28602 -0.0627,-0.4191 -0.18025,-1.4478 -0.26115,-2.286 -0.0809,-0.8382 -0.16986,-1.56635 -0.19767,-1.61811 -0.0764,-0.14217 -1.65613,1.66603 -3.57046,4.08685 -0.39923,0.50486 -1.02788,1.29892 -1.397,1.76456 -1.00737,1.27079 -1.9381,2.21348 -2.24624,2.27511 -0.4645,0.0929 -0.79912,-0.19343 -0.87775,-0.75106 -0.20695,-1.4678 -0.48252,-8.44146 -0.35382,-8.95422 0.11299,-0.45022 0.56674,-0.63966 0.85108,-0.35532 0.27179,0.27179 0.34313,0.92524 0.55886,5.11853 0.0491,0.95461 0.11197,1.95303 0.13969,2.21871 l 0.0504,0.48303 0.77266,-0.98517 c 2.82532,-3.60232 3.27279,-4.14639 4.498,-5.46898 0.5588,-0.60322 1.19135,-1.2907 1.40567,-1.52775 0.34912,-0.38614 0.42617,-0.43099 0.74041,-0.43099 0.68444,0 0.70149,0.0494 1.11189,3.22042 0.14415,1.11378 0.31762,2.36796 0.38549,2.78706 0.0679,0.4191 0.18796,1.4891 0.26689,2.37779 0.16032,1.8052 0.12568,2.05255 -0.31974,2.28288 -0.26648,0.13781 -0.4551,0.14753 -0.72818,0.0375 z m -5.51059,-10.24971 c -1.21892,-0.2358 -2.05084,-1.29719 -2.05084,-2.61653 0,-0.51102 0.0958,-0.6789 0.38756,-0.6789 0.26016,0 0.35618,0.14919 0.55279,0.85884 0.19187,0.6926 0.31168,0.86319 0.77077,1.09751 0.61589,0.31433 1.49057,0.12421 1.95212,-0.42431 0.2059,-0.24469 0.48542,-0.96683 0.48542,-1.25405 0,-0.24382 0.27246,-0.53199 0.50298,-0.53199 0.51003,0 0.80986,0.73607 0.60688,1.48988 -0.14958,0.55548 -0.70953,1.34552 -1.12711,1.59024 -0.72469,0.42469 -1.45715,0.58991 -2.08057,0.46931 z"
       style="fill:#000000;stroke-width:0.0224014"
       id="path1060" />
  </g>
</svg>
