<?xml version="1.0" encoding="UTF-8" standalone="no"?>
<!-- Created with Inkscape (http://www.inkscape.org/) -->

<svg
   xmlns:dc="http://purl.org/dc/elements/1.1/"
   xmlns:cc="http://creativecommons.org/ns#"
   xmlns:rdf="http://www.w3.org/1999/02/22-rdf-syntax-ns#"
   xmlns:svg="http://www.w3.org/2000/svg"
   xmlns="http://www.w3.org/2000/svg"
   xmlns:sodipodi="http://sodipodi.sourceforge.net/DTD/sodipodi-0.dtd"
   xmlns:inkscape="http://www.inkscape.org/namespaces/inkscape"
   width="1.8624609mm"
   height="4.1688652mm"
   viewBox="0 0 1.8624609 4.1688652"
   version="1.1"
   id="svg3818"
   inkscape:version="0.92.3 (2405546, 2018-03-11)"
   sodipodi:docname="e-acute.svg">
  <defs
     id="defs3812" />
  <sodipodi:namedview
     id="base"
     pagecolor="#ffffff"
     bordercolor="#666666"
     borderopacity="1.0"
     inkscape:pageopacity="0.0"
     inkscape:pageshadow="2"
     inkscape:zoom="0.35"
     inkscape:cx="-289.33753"
     inkscape:cy="-106.40764"
     inkscape:document-units="mm"
     inkscape:current-layer="layer1"
     showgrid="false"
     fit-margin-top="0"
     fit-margin-left="0"
     fit-margin-right="0"
     fit-margin-bottom="0"
     inkscape:window-width="2560"
     inkscape:window-height="1377"
     inkscape:window-x="1072"
     inkscape:window-y="1072"
     inkscape:window-maximized="1" />
  <metadata
     id="metadata3815">
    <rdf:RDF>
      <cc:Work
         rdf:about="">
        <dc:format>image/svg+xml</dc:format>
        <dc:type
           rdf:resource="http://purl.org/dc/dcmitype/StillImage" />
        <dc:title></dc:title>
      </cc:Work>
    </rdf:RDF>
  </metadata>
  <g
     inkscape:label="Layer 1"
     inkscape:groupmode="layer"
     id="layer1"
     transform="translate(-59.544959,-116.51078)">
    <path
       inkscape:connector-curvature="0"
       style="fill:#000000;stroke-width:0.26458332"
       d="m 60.64096,116.51157 c -0.04784,0.005 -0.115665,0.0321 -0.204123,0.0868 -0.164505,0.10166 -0.586293,0.55108 -0.677995,0.72243 -0.04911,0.092 -0.04921,0.12272 -5.29e-4,0.18139 0.08946,0.10778 0.25682,0.0435 0.49816,-0.19172 0.429281,-0.41834 0.591788,-0.81967 0.384474,-0.79892 z m -0.2589,1.29863 c -0.456107,2.5e-4 -0.585507,0.0149 -0.706416,0.0806 -0.125138,0.068 -0.144198,0.0987 -0.123508,0.19844 0.01347,0.0649 0.04541,0.58518 0.07131,1.156 0.05568,1.22695 0.08034,1.35064 0.279054,1.41025 0.135482,0.0406 0.644011,0.0287 1.109493,-0.0258 0.274648,-0.0322 0.453189,-0.18609 0.378272,-0.32607 -0.08279,-0.15469 -0.231331,-0.1792 -0.779799,-0.12816 -0.279804,0.026 -0.514029,0.0412 -0.520379,0.0336 -0.01635,-0.0197 -0.07254,-0.74276 -0.05788,-0.74466 0.0066,-8.7e-4 0.208804,-0.0189 0.449067,-0.0403 0.482502,-0.0431 0.638034,-0.12469 0.580842,-0.30489 -0.05209,-0.16412 -0.35401,-0.20252 -0.915188,-0.11627 -0.115872,0.0178 -0.118354,0.0127 -0.146762,-0.27802 -0.01593,-0.16299 -0.03881,-0.33111 -0.05064,-0.37362 -0.01953,-0.0701 0.02273,-0.0774 0.456303,-0.078 0.513368,-6.9e-4 0.689729,-0.0506 0.711583,-0.20154 0.0071,-0.0493 -0.02993,-0.12846 -0.08217,-0.1757 -0.08357,-0.0756 -0.161819,-0.0861 -0.65319,-0.0858 z"
       id="path930" />
  </g>
</svg>
