<?xml version="1.0" encoding="UTF-8" standalone="no"?>
<!-- Created with Inkscape (http://www.inkscape.org/) -->

<svg
   xmlns:dc="http://purl.org/dc/elements/1.1/"
   xmlns:cc="http://creativecommons.org/ns#"
   xmlns:rdf="http://www.w3.org/1999/02/22-rdf-syntax-ns#"
   xmlns:svg="http://www.w3.org/2000/svg"
   xmlns="http://www.w3.org/2000/svg"
   xmlns:sodipodi="http://sodipodi.sourceforge.net/DTD/sodipodi-0.dtd"
   xmlns:inkscape="http://www.inkscape.org/namespaces/inkscape"
   width="1.4994969mm"
   height="2.5298169mm"
   viewBox="0 0 1.4994969 2.5298169"
   version="1.1"
   id="svg3132"
   inkscape:version="0.92.3 (2405546, 2018-03-11)"
   sodipodi:docname="f.svg">
  <defs
     id="defs3126" />
  <sodipodi:namedview
     id="base"
     pagecolor="#ffffff"
     bordercolor="#666666"
     borderopacity="1.0"
     inkscape:pageopacity="0.0"
     inkscape:pageshadow="2"
     inkscape:zoom="0.35"
     inkscape:cx="-378.59491"
     inkscape:cy="-100.93367"
     inkscape:document-units="mm"
     inkscape:current-layer="layer1"
     showgrid="false"
     fit-margin-top="0"
     fit-margin-left="0"
     fit-margin-right="0"
     fit-margin-bottom="0"
     inkscape:window-width="2560"
     inkscape:window-height="1377"
     inkscape:window-x="1072"
     inkscape:window-y="1072"
     inkscape:window-maximized="1" />
  <metadata
     id="metadata3129">
    <rdf:RDF>
      <cc:Work
         rdf:about="">
        <dc:format>image/svg+xml</dc:format>
        <dc:type
           rdf:resource="http://purl.org/dc/dcmitype/StillImage" />
        <dc:title></dc:title>
      </cc:Work>
    </rdf:RDF>
  </metadata>
  <g
     inkscape:label="Layer 1"
     inkscape:groupmode="layer"
     id="layer1"
     transform="translate(-83.160974,-119.59815)">
    <path
       inkscape:connector-curvature="0"
       style="fill:#000000;stroke-width:0.26458332"
       d="m 83.417174,122.03736 c -0.07997,-0.12205 -0.121259,-0.36829 -0.212482,-1.26708 -0.07404,-0.72952 -0.05806,-0.93736 0.07893,-1.02662 0.202063,-0.13166 1.125713,-0.19936 1.270961,-0.0932 0.05004,0.0366 0.07046,0.0968 0.06101,0.17992 -0.01786,0.15701 -0.191,0.22468 -0.585716,0.22893 -0.429551,0.005 -0.475578,0.026 -0.4484,0.20856 0.01254,0.0842 0.03424,0.23881 0.04822,0.34359 l 0.02543,0.1905 0.417457,-0.0133 c 0.375484,-0.012 0.426247,-0.005 0.504875,0.0741 0.109834,0.10983 0.110583,0.19125 0.0028,0.29908 -0.07267,0.0727 -0.14111,0.0847 -0.482827,0.0847 h -0.398165 l 0.0195,0.32808 c 0.02074,0.34928 -0.03189,0.52721 -0.16347,0.55255 -0.03869,0.007 -0.100812,-0.0329 -0.138055,-0.0898 z"
       id="path972" />
  </g>
</svg>
