<?xml version="1.0" encoding="UTF-8" standalone="no"?>
<!-- Created with Inkscape (http://www.inkscape.org/) -->

<svg
   xmlns:dc="http://purl.org/dc/elements/1.1/"
   xmlns:cc="http://creativecommons.org/ns#"
   xmlns:rdf="http://www.w3.org/1999/02/22-rdf-syntax-ns#"
   xmlns:svg="http://www.w3.org/2000/svg"
   xmlns="http://www.w3.org/2000/svg"
   xmlns:sodipodi="http://sodipodi.sourceforge.net/DTD/sodipodi-0.dtd"
   xmlns:inkscape="http://www.inkscape.org/namespaces/inkscape"
   width="2.2759867mm"
   height="2.7897661mm"
   viewBox="0 0 2.2759867 2.7897661"
   version="1.1"
   id="svg3698"
   inkscape:version="0.92.3 (2405546, 2018-03-11)"
   sodipodi:docname="g.svg">
  <defs
     id="defs3692" />
  <sodipodi:namedview
     id="base"
     pagecolor="#ffffff"
     bordercolor="#666666"
     borderopacity="1.0"
     inkscape:pageopacity="0.0"
     inkscape:pageshadow="2"
     inkscape:zoom="0.35"
     inkscape:cx="-328.55608"
     inkscape:cy="-114.72804"
     inkscape:document-units="mm"
     inkscape:current-layer="layer1"
     showgrid="false"
     fit-margin-top="0"
     fit-margin-left="0"
     fit-margin-right="0"
     fit-margin-bottom="0"
     inkscape:window-width="2560"
     inkscape:window-height="1377"
     inkscape:window-x="1072"
     inkscape:window-y="1072"
     inkscape:window-maximized="1" />
  <metadata
     id="metadata3695">
    <rdf:RDF>
      <cc:Work
         rdf:about="">
        <dc:format>image/svg+xml</dc:format>
        <dc:type
           rdf:resource="http://purl.org/dc/dcmitype/StillImage" />
        <dc:title></dc:title>
      </cc:Work>
    </rdf:RDF>
  </metadata>
  <g
     inkscape:label="Layer 1"
     inkscape:groupmode="layer"
     id="layer1"
     transform="translate(-69.921533,-115.68844)">
    <path
       inkscape:connector-curvature="0"
       style="fill:#000000;stroke-width:0.26458332"
       d="m 70.486489,118.3829 c -0.416279,-0.19384 -0.592658,-0.55497 -0.561451,-1.14955 0.01524,-0.29024 0.04305,-0.40088 0.16106,-0.64062 0.160216,-0.32548 0.486566,-0.67847 0.752875,-0.81433 0.331054,-0.16889 0.74423,-0.0919 0.876196,0.16332 0.08691,0.16805 0.08076,0.28589 -0.01767,0.33856 -0.111657,0.0598 -0.110024,0.0603 -0.256783,-0.0832 -0.211741,-0.20698 -0.393629,-0.15514 -0.734576,0.20936 -0.280697,0.30009 -0.383815,0.54403 -0.385723,0.91248 -0.0019,0.35845 0.06891,0.54272 0.25186,0.65579 0.230507,0.14246 0.40382,0.11392 0.64947,-0.10693 0.217357,-0.19543 0.529851,-0.64325 0.419242,-0.60081 -0.033,0.0127 -0.165451,0.0362 -0.294338,0.0523 -0.275979,0.0345 -0.413935,-0.0204 -0.413935,-0.16463 0,-0.19106 0.224176,-0.29297 0.762,-0.34638 0.245266,-0.0244 0.288324,-0.0169 0.396253,0.0685 0.105677,0.0836 0.118279,0.11672 0.09905,0.26013 -0.04681,0.34901 -0.598318,1.07024 -0.96991,1.2684 -0.196387,0.10473 -0.47915,0.0961 -0.733621,-0.0224 z"
       id="path1034" />
  </g>
</svg>
