<?xml version="1.0" encoding="UTF-8" standalone="no"?>
<!-- Created with Inkscape (http://www.inkscape.org/) -->

<svg
   xmlns:dc="http://purl.org/dc/elements/1.1/"
   xmlns:cc="http://creativecommons.org/ns#"
   xmlns:rdf="http://www.w3.org/1999/02/22-rdf-syntax-ns#"
   xmlns:svg="http://www.w3.org/2000/svg"
   xmlns="http://www.w3.org/2000/svg"
   xmlns:sodipodi="http://sodipodi.sourceforge.net/DTD/sodipodi-0.dtd"
   xmlns:inkscape="http://www.inkscape.org/namespaces/inkscape"
   width="2.20928mm"
   height="2.3642099mm"
   viewBox="0 0 2.20928 2.3642099"
   version="1.1"
   id="svg4264"
   inkscape:version="0.92.3 (2405546, 2018-03-11)"
   sodipodi:docname="h.svg">
  <defs
     id="defs4258" />
  <sodipodi:namedview
     id="base"
     pagecolor="#ffffff"
     bordercolor="#666666"
     borderopacity="1.0"
     inkscape:pageopacity="0.0"
     inkscape:pageshadow="2"
     inkscape:zoom="0.35"
     inkscape:cx="-440.11068"
     inkscape:cy="-138.38926"
     inkscape:document-units="mm"
     inkscape:current-layer="layer1"
     showgrid="false"
     fit-margin-top="0"
     fit-margin-left="0"
     fit-margin-right="0"
     fit-margin-bottom="0"
     inkscape:window-width="2560"
     inkscape:window-height="1377"
     inkscape:window-x="1072"
     inkscape:window-y="1072"
     inkscape:window-maximized="1" />
  <metadata
     id="metadata4261">
    <rdf:RDF>
      <cc:Work
         rdf:about="">
        <dc:format>image/svg+xml</dc:format>
        <dc:type
           rdf:resource="http://purl.org/dc/dcmitype/StillImage" />
        <dc:title></dc:title>
      </cc:Work>
    </rdf:RDF>
  </metadata>
  <g
     inkscape:label="Layer 1"
     inkscape:groupmode="layer"
     id="layer1"
     transform="translate(-99.437022,-109.85363)">
    <path
       inkscape:connector-curvature="0"
       style="fill:#000000;stroke-width:0.26458332"
       d="m 101.27583,112.11514 c -0.0375,-0.0572 -0.0888,-0.2374 -0.11405,-0.40037 l -0.0459,-0.2963 -0.17268,0.0186 c -0.095,0.0102 -0.33937,0.0301 -0.54309,0.0443 l -0.37042,0.0258 v 0.20155 c 0,0.46768 -0.189308,0.62519 -0.34053,0.28333 -0.08391,-0.1897 -0.252138,-1.335 -0.252138,-1.71659 0,-0.23309 0.07179,-0.32293 0.226923,-0.28399 0.130217,0.0327 0.180795,0.16531 0.252232,0.66143 0.04389,0.30481 0.07233,0.39869 0.117453,0.38781 0.0328,-0.008 0.27561,-0.0251 0.53966,-0.0382 l 0.48011,-0.0239 -0.0181,-0.10993 c -0.01,-0.0605 -0.0539,-0.27753 -0.0976,-0.48236 -0.0866,-0.40587 -0.0668,-0.50508 0.10595,-0.53065 0.15057,-0.0223 0.2792,0.13862 0.37682,0.47136 0.19222,0.65516 0.29216,1.68831 0.17676,1.82736 -0.0822,0.099 -0.24368,0.0793 -0.32137,-0.0392 z"
       id="path958" />
  </g>
</svg>
