<?xml version="1.0" encoding="UTF-8" standalone="no"?>
<!-- Created with Inkscape (http://www.inkscape.org/) -->

<svg
   xmlns:dc="http://purl.org/dc/elements/1.1/"
   xmlns:cc="http://creativecommons.org/ns#"
   xmlns:rdf="http://www.w3.org/1999/02/22-rdf-syntax-ns#"
   xmlns:svg="http://www.w3.org/2000/svg"
   xmlns="http://www.w3.org/2000/svg"
   xmlns:sodipodi="http://sodipodi.sourceforge.net/DTD/sodipodi-0.dtd"
   xmlns:inkscape="http://www.inkscape.org/namespaces/inkscape"
   width="2.5202351mm"
   height="2.4367306mm"
   viewBox="0 0 2.5202351 2.4367306"
   version="1.1"
   id="svg8235"
   inkscape:version="0.92.3 (2405546, 2018-03-11)"
   sodipodi:docname="n.svg">
  <defs
     id="defs8229" />
  <sodipodi:namedview
     id="base"
     pagecolor="#ffffff"
     bordercolor="#666666"
     borderopacity="1.0"
     inkscape:pageopacity="0.0"
     inkscape:pageshadow="2"
     inkscape:zoom="5.6"
     inkscape:cx="-14.892333"
     inkscape:cy="-24.139283"
     inkscape:document-units="mm"
     inkscape:current-layer="layer1"
     showgrid="false"
     fit-margin-top="0"
     fit-margin-left="0"
     fit-margin-right="0"
     fit-margin-bottom="0"
     inkscape:window-width="2560"
     inkscape:window-height="1377"
     inkscape:window-x="1072"
     inkscape:window-y="1072"
     inkscape:window-maximized="1" />
  <metadata
     id="metadata8232">
    <rdf:RDF>
      <cc:Work
         rdf:about="">
        <dc:format>image/svg+xml</dc:format>
        <dc:type
           rdf:resource="http://purl.org/dc/dcmitype/StillImage" />
        <dc:title></dc:title>
      </cc:Work>
    </rdf:RDF>
  </metadata>
  <g
     inkscape:label="Layer 1"
     inkscape:groupmode="layer"
     id="layer1"
     transform="translate(-87.186308,-124.93642)">
    <path
       inkscape:connector-curvature="0"
       style="fill:#000000;stroke-width:0.26458332"
       d="m 89.213838,127.29334 c -0.07666,-0.0467 -0.381463,-0.31554 -0.677333,-0.59733 -0.295868,-0.28179 -0.625306,-0.58553 -0.732079,-0.67498 l -0.194138,-0.16264 0.01966,0.6469 c 0.02146,0.70632 -0.0054,0.83101 -0.179073,0.83101 -0.13372,0 -0.193151,-0.17589 -0.193151,-0.57167 0,-0.16776 -0.01995,-0.5506 -0.04431,-0.85074 -0.02437,-0.30014 -0.03414,-0.58625 -0.0217,-0.63579 0.01244,-0.0495 0.07805,-0.11304 0.145801,-0.14111 0.142526,-0.059 0.320797,0.0101 0.456544,0.17705 0.04297,0.0529 0.239914,0.23774 0.437653,0.41085 0.197736,0.17311 0.4904,0.43981 0.650364,0.59267 l 0.290843,0.27791 -0.02384,-0.16933 c -0.09216,-0.65429 -0.122331,-1.20958 -0.07228,-1.33042 0.07544,-0.18214 0.205407,-0.21087 0.324991,-0.0718 0.108267,0.12587 0.112672,0.14755 0.20747,1.02126 0.128995,1.18884 0.128601,1.10089 0.0054,1.22404 -0.131551,0.13155 -0.216344,0.13666 -0.400868,0.0242 z"
       id="path950" />
  </g>
</svg>
