<?xml version="1.0" encoding="UTF-8" standalone="no"?>
<!-- Created with Inkscape (http://www.inkscape.org/) -->

<svg
   xmlns:dc="http://purl.org/dc/elements/1.1/"
   xmlns:cc="http://creativecommons.org/ns#"
   xmlns:rdf="http://www.w3.org/1999/02/22-rdf-syntax-ns#"
   xmlns:svg="http://www.w3.org/2000/svg"
   xmlns="http://www.w3.org/2000/svg"
   xmlns:sodipodi="http://sodipodi.sourceforge.net/DTD/sodipodi-0.dtd"
   xmlns:inkscape="http://www.inkscape.org/namespaces/inkscape"
   width="1.8933803mm"
   height="2.8154414mm"
   viewBox="0 0 1.8933803 2.8154414"
   version="1.1"
   id="svg9933"
   inkscape:version="0.92.3 (2405546, 2018-03-11)"
   sodipodi:docname="p.svg">
  <defs
     id="defs9927" />
  <sodipodi:namedview
     id="base"
     pagecolor="#ffffff"
     bordercolor="#666666"
     borderopacity="1.0"
     inkscape:pageopacity="0.0"
     inkscape:pageshadow="2"
     inkscape:zoom="0.35"
     inkscape:cx="-346.42196"
     inkscape:cy="76.749043"
     inkscape:document-units="mm"
     inkscape:current-layer="layer1"
     showgrid="false"
     fit-margin-top="0"
     fit-margin-left="0"
     fit-margin-right="0"
     fit-margin-bottom="0"
     inkscape:window-width="2560"
     inkscape:window-height="1377"
     inkscape:window-x="1072"
     inkscape:window-y="1072"
     inkscape:window-maximized="1" />
  <metadata
     id="metadata9930">
    <rdf:RDF>
      <cc:Work
         rdf:about="">
        <dc:format>image/svg+xml</dc:format>
        <dc:type
           rdf:resource="http://purl.org/dc/dcmitype/StillImage" />
        <dc:title></dc:title>
      </cc:Work>
    </rdf:RDF>
  </metadata>
  <g
     inkscape:label="Layer 1"
     inkscape:groupmode="layer"
     id="layer1"
     transform="translate(-74.648548,-166.32441)">
    <path
       inkscape:connector-curvature="0"
       style="fill:#000000;stroke-width:0.26458332"
       d="m 75.402859,166.32611 c -0.136541,0.008 -0.272971,0.0415 -0.401527,0.10593 -0.385246,0.19321 -0.419521,0.37614 -0.271817,1.45108 0.09733,0.70831 0.220512,1.17311 0.326594,1.23248 0.224718,0.12576 0.31519,-0.25065 0.198956,-0.82682 -0.0168,-0.0832 -0.0043,-0.0893 0.141076,-0.0698 0.513231,0.0688 1.101468,-0.39015 1.143082,-0.89193 0.04775,-0.57574 -0.544682,-1.0339 -1.136364,-1.00097 z m -0.114721,0.47128 c 0.131043,-0.0106 0.26367,0.0152 0.402042,0.078 0.202171,0.0918 0.363657,0.3139 0.324012,0.44596 -0.04192,0.13961 -0.225042,0.30616 -0.433565,0.39429 -0.396904,0.16777 -0.370197,0.18125 -0.426331,-0.2129 -0.02745,-0.19278 -0.06068,-0.41937 -0.07338,-0.50333 -0.02024,-0.13389 -0.01043,-0.15591 0.077,-0.17932 0.04347,-0.0116 0.08654,-0.0192 0.130225,-0.0227 z"
       id="path986" />
  </g>
</svg>
