<?xml version="1.0" encoding="UTF-8" standalone="no"?>
<!-- Created with Inkscape (http://www.inkscape.org/) -->

<svg
   xmlns:dc="http://purl.org/dc/elements/1.1/"
   xmlns:cc="http://creativecommons.org/ns#"
   xmlns:rdf="http://www.w3.org/1999/02/22-rdf-syntax-ns#"
   xmlns:svg="http://www.w3.org/2000/svg"
   xmlns="http://www.w3.org/2000/svg"
   xmlns:sodipodi="http://sodipodi.sourceforge.net/DTD/sodipodi-0.dtd"
   xmlns:inkscape="http://www.inkscape.org/namespaces/inkscape"
   width="2.075073mm"
   height="2.6865914mm"
   viewBox="0 0 2.075073 2.6865914"
   version="1.1"
   id="svg11640"
   inkscape:version="0.92.3 (2405546, 2018-03-11)"
   sodipodi:docname="s.svg">
  <defs
     id="defs11634" />
  <sodipodi:namedview
     id="base"
     pagecolor="#ffffff"
     bordercolor="#666666"
     borderopacity="1.0"
     inkscape:pageopacity="0.0"
     inkscape:pageshadow="2"
     inkscape:zoom="0.35"
     inkscape:cx="-517.50719"
     inkscape:cy="-26.350601"
     inkscape:document-units="mm"
     inkscape:current-layer="layer1"
     showgrid="false"
     fit-margin-top="0"
     fit-margin-left="0"
     fit-margin-right="0"
     fit-margin-bottom="0"
     inkscape:window-width="2560"
     inkscape:window-height="1377"
     inkscape:window-x="1072"
     inkscape:window-y="1072"
     inkscape:window-maximized="1" />
  <metadata
     id="metadata11637">
    <rdf:RDF>
      <cc:Work
         rdf:about="">
        <dc:format>image/svg+xml</dc:format>
        <dc:type
           rdf:resource="http://purl.org/dc/dcmitype/StillImage" />
        <dc:title></dc:title>
      </cc:Work>
    </rdf:RDF>
  </metadata>
  <g
     inkscape:label="Layer 1"
     inkscape:groupmode="layer"
     id="layer1"
     transform="translate(-119.91485,-139.17481)">
    <path
       inkscape:connector-curvature="0"
       style="fill:#000000;stroke-width:0.26458332"
       d="m 120.56319,141.77981 c -0.3925,-0.17819 -0.60601,-0.42263 -0.60601,-0.69379 0,-0.20476 0.12891,-0.28364 0.2495,-0.15269 0.26448,0.2872 0.3295,0.34006 0.49709,0.40406 0.17284,0.066 0.19688,0.0659 0.3728,-0.001 0.30529,-0.1166 0.40461,-0.21649 0.40461,-0.40695 0,-0.12333 -0.0325,-0.20178 -0.12911,-0.31184 -0.14225,-0.16201 -0.23834,-0.20136 -0.73872,-0.30253 -0.35308,-0.0714 -0.58552,-0.18336 -0.6567,-0.31637 -0.023,-0.043 -0.0418,-0.16151 -0.0418,-0.26346 0,-0.19367 0.10401,-0.33619 0.33039,-0.45275 0.18065,-0.093 0.59621,-0.13644 0.83375,-0.0871 0.32342,0.0671 0.49834,0.28535 0.37262,0.46484 -0.0544,0.0777 -0.0915,0.0891 -0.21906,0.0673 -0.3569,-0.061 -0.6679,-0.0713 -0.78484,-0.0263 -0.18259,0.0704 -0.0934,0.11599 0.32578,0.16635 0.60418,0.0726 0.91075,0.2513 1.11381,0.64925 0.20607,0.40387 0.094,0.86398 -0.26623,1.09244 -0.2267,0.1438 -0.55348,0.25353 -0.75082,0.25212 -0.0714,-5e-4 -0.20963,-0.0371 -0.30706,-0.0814 z"
       id="path994" />
  </g>
</svg>
