<?xml version="1.0" encoding="UTF-8" standalone="no"?>
<!-- Created with Inkscape (http://www.inkscape.org/) -->

<svg
   xmlns:dc="http://purl.org/dc/elements/1.1/"
   xmlns:cc="http://creativecommons.org/ns#"
   xmlns:rdf="http://www.w3.org/1999/02/22-rdf-syntax-ns#"
   xmlns:svg="http://www.w3.org/2000/svg"
   xmlns="http://www.w3.org/2000/svg"
   xmlns:sodipodi="http://sodipodi.sourceforge.net/DTD/sodipodi-0.dtd"
   xmlns:inkscape="http://www.inkscape.org/namespaces/inkscape"
   width="1.7575227mm"
   height="3.0045462mm"
   viewBox="0 0 1.7575227 3.0045462"
   version="1.1"
   id="svg21580"
   inkscape:version="0.92.3 (2405546, 2018-03-11)"
   sodipodi:docname="symbol-left-curlybrace.svg">
  <defs
     id="defs21574" />
  <sodipodi:namedview
     id="base"
     pagecolor="#ffffff"
     bordercolor="#666666"
     borderopacity="1.0"
     inkscape:pageopacity="0.0"
     inkscape:pageshadow="2"
     inkscape:zoom="0.35"
     inkscape:cx="-300.9644"
     inkscape:cy="-65.750708"
     inkscape:document-units="mm"
     inkscape:current-layer="layer1"
     showgrid="false"
     fit-margin-top="0"
     fit-margin-left="0"
     fit-margin-right="0"
     fit-margin-bottom="0"
     inkscape:window-width="2560"
     inkscape:window-height="1377"
     inkscape:window-x="1072"
     inkscape:window-y="1072"
     inkscape:window-maximized="1" />
  <metadata
     id="metadata21577">
    <rdf:RDF>
      <cc:Work
         rdf:about="">
        <dc:format>image/svg+xml</dc:format>
        <dc:type
           rdf:resource="http://purl.org/dc/dcmitype/StillImage" />
        <dc:title></dc:title>
      </cc:Work>
    </rdf:RDF>
  </metadata>
  <g
     inkscape:label="Layer 1"
     inkscape:groupmode="layer"
     id="layer1"
     transform="translate(-62.621236,-128.43225)">
    <path
       style="fill:#000000;stroke-width:0.26458332"
       d="m 63.475382,131.3298 c -0.115162,-0.0575 -0.23541,-0.1465 -0.267208,-0.19776 -0.0318,-0.0513 -0.07202,-0.26479 -0.0894,-0.47451 -0.03384,-0.4085 -0.04462,-0.42734 -0.335717,-0.58686 -0.272118,-0.14911 -0.200308,-0.30444 0.209892,-0.45401 l 0.251872,-0.0918 v -0.35965 c 0,-0.44018 0.05878,-0.57297 0.295561,-0.66771 0.229,-0.0916 0.3947,-0.0867 0.486177,0.0143 0.111308,0.12299 0.05576,0.19849 -0.164285,0.22329 -0.299879,0.0338 -0.321119,0.0683 -0.321119,0.52123 0,0.37615 -0.0051,0.3979 -0.112713,0.48256 -0.06199,0.0488 -0.157197,0.0998 -0.211571,0.11347 l -0.09886,0.0248 0.110866,0.0872 c 0.153302,0.12059 0.22761,0.32195 0.22761,0.61678 0,0.32414 0.04675,0.36211 0.469535,0.38131 0.257357,0.0117 0.345532,0.0326 0.402405,0.0954 0.05987,0.0661 0.06419,0.0994 0.02429,0.18698 -0.09828,0.2157 -0.53148,0.25763 -0.877348,0.0849 z"
       id="path1151"
       inkscape:connector-curvature="0" />
  </g>
</svg>
