<?xml version="1.0" encoding="UTF-8" standalone="no"?>
<!-- Created with Inkscape (http://www.inkscape.org/) -->

<svg
   width="49.762722mm"
   height="51.603127mm"
   viewBox="0 0 49.762722 51.603127"
   version="1.1"
   id="svg5"
   xml:space="preserve"
   inkscape:version="1.2.1 (9c6d41e410, 2022-07-14)"
   sodipodi:docname="symbol-ctd-icon-parry.svg"
   xmlns:inkscape="http://www.inkscape.org/namespaces/inkscape"
   xmlns:sodipodi="http://sodipodi.sourceforge.net/DTD/sodipodi-0.dtd"
   xmlns="http://www.w3.org/2000/svg"
   xmlns:svg="http://www.w3.org/2000/svg"><sodipodi:namedview
     id="namedview7"
     pagecolor="#ffffff"
     bordercolor="#666666"
     borderopacity="1.0"
     inkscape:showpageshadow="2"
     inkscape:pageopacity="0.0"
     inkscape:pagecheckerboard="0"
     inkscape:deskcolor="#d1d1d1"
     inkscape:document-units="mm"
     showgrid="false"
     inkscape:zoom="2.587745"
     inkscape:cx="23.379429"
     inkscape:cy="150.32393"
     inkscape:window-width="2560"
     inkscape:window-height="1369"
     inkscape:window-x="-8"
     inkscape:window-y="-8"
     inkscape:window-maximized="1"
     inkscape:current-layer="layer1" /><defs
     id="defs2" /><g
     inkscape:label="Layer 1"
     inkscape:groupmode="layer"
     id="layer1"
     transform="translate(1.9253051,2.5326915)"><path
       style="fill:#000000;stroke-width:0.999998"
       d="m 17.719458,37.613823 c -1.886185,-2.455433 -1.95483,-2.509716 -2.202538,-1.741714 -0.645135,2.000202 -1.888492,2.697838 -4.063932,2.280235 -0.960655,-0.184409 -1.168701,-0.321646 -1.073633,-0.708217 0.103768,-0.421948 0.394039,-0.450378 0.872482,-0.08545 l 0.263155,0.200718 h 0.774966 0.774966 l 0.500683,-0.254588 c 0.658184,-0.334676 1.740996,-2.246926 1.346737,-2.378346 -0.0391,-0.01303 -0.25614,-0.153324 -0.482313,-0.311759 l -0.411223,-0.288063 -0.266545,0.212156 c -0.146599,0.116686 -0.348187,0.300277 -0.447973,0.40798 -0.530513,0.572604 -1.791963,1.408463 -2.630714,1.743155 l -0.489857,0.19547 v 0.349205 c 0,0.672612 -0.5830146,1.033337 -1.1659139,0.721379 -0.098357,-0.05264 -0.1858384,-0.05079 -0.2922742,0.0062 -0.4600491,0.246211 -0.9647273,-0.410043 -0.6136603,-0.797967 0.083312,-0.09206 0.089932,-0.176872 0.031711,-0.406244 -0.1452858,-0.572381 0.2555326,-1.014708 0.8634462,-0.952863 l 0.3110236,0.03164 0.1161026,-0.227236 c 0.3157048,-0.617894 1.490197,-2.09743 2.294345,-2.890242 l 0.419922,-0.414002 -0.369605,-0.45721 c -0.316951,-0.392073 -0.513467,-0.741269 -0.96901,-1.721863 -0.08647,-0.186131 -0.9160536,-0.901891 -2.0940861,-1.806765 -0.8376927,-0.64345 -0.8063133,-0.526158 -0.2918584,-1.090925 0.4959618,-0.544464 0.5094749,-0.543008 1.0715388,0.115405 0.2231972,0.261458 0.6886177,0.781131 1.0342667,1.154828 l 0.628454,0.679451 0.230202,-0.04319 c 0.126611,-0.02375 0.250647,-0.01011 0.275636,0.03033 0.02799,0.0453 0.163497,0.0081 0.353025,-0.09698 0.718434,-0.398211 1.759404,-0.384436 2.626417,0.03475 0.302821,0.14641 0.468212,0.189454 0.553195,0.143973 0.110025,-0.05888 0.254068,-0.05457 0.473608,0.01418 0.04395,0.01376 1.31758,-1.16845 2.830285,-2.627141 1.512705,-1.458692 5.036372,-4.852977 7.830372,-7.542856 2.794,-2.68988 5.912757,-5.694071 6.930571,-6.675983 6.210714,-5.991632 5.748379,-5.5771967 6.629982,-5.9430887 0.285067,-0.1183116 0.64544,-0.2387016 0.80083,-0.2675333 L 40.97477,6.152231 40.92334,6.3571595 c -0.138301,0.5510374 -1.838258,2.7038359 -2.503296,3.1701349 -0.117145,0.082137 -2.915044,2.8001186 -6.972893,6.7737226 -0.778329,0.76217 -3.929743,3.831516 -7.003143,6.820769 -3.0734,2.989253 -6.017292,5.85452 -6.541984,6.36726 l -0.953984,0.932252 0.03699,0.275796 c 0.02085,0.155437 0.0037,0.296351 -0.03921,0.322894 -0.04948,0.03058 -0.0142,0.182552 0.100586,0.433266 0.47574,1.039154 0.486807,1.814094 0.0393,2.751769 -0.124402,0.260659 -0.206027,0.526455 -0.18139,0.590657 0.02464,0.0642 0.009,0.15985 -0.03473,0.21255 -0.08067,0.09721 0.607603,0.78578 1.819817,1.820604 0.663282,0.56622 0.6647,0.578953 0.119812,1.075302 -0.564732,0.514423 -0.447637,0.545615 -1.089749,-0.290286 z m 11.561057,0.290286 c -0.544888,-0.496349 -0.543469,-0.509082 0.119813,-1.075302 1.212214,-1.034824 1.90049,-1.723398 1.819816,-1.820604 -0.04374,-0.0527 -0.05936,-0.148347 -0.03473,-0.21255 0.02464,-0.0642 -0.05699,-0.329998 -0.181389,-0.590657 -0.447511,-0.937675 -0.436445,-1.712615 0.0393,-2.751769 0.114781,-0.250714 0.150062,-0.402687 0.100586,-0.433266 -0.04308,-0.02662 -0.06002,-0.167767 -0.03898,-0.32467 l 0.03723,-0.277571 -3.294651,-3.202922 c -1.812058,-1.761608 -3.294651,-3.22532 -3.294651,-3.252694 0,-0.02737 0.243913,-0.292055 0.542029,-0.588182 l 0.542029,-0.538411 0.528399,0.503233 c 0.290621,0.276778 1.798476,1.728195 3.35079,3.22537 1.552315,1.497176 2.8586,2.710877 2.902857,2.697113 0.221216,-0.0688 0.364119,-0.07307 0.474162,-0.01418 0.08498,0.04548 0.250373,0.0024 0.553194,-0.143973 0.867013,-0.41919 1.907983,-0.432965 2.626417,-0.03475 0.189529,0.105051 0.325031,0.142274 0.353025,0.09698 0.02499,-0.04043 0.149025,-0.05408 0.275636,-0.03033 l 0.230203,0.04319 0.628453,-0.679451 c 0.34565,-0.373697 0.81107,-0.89337 1.034267,-1.154828 0.562064,-0.658413 0.575577,-0.659869 1.071539,-0.115405 0.514455,0.564767 0.545834,0.447475 -0.291859,1.090925 -1.178032,0.904874 -2.007617,1.620634 -2.094086,1.806765 -0.455542,0.980594 -0.652059,1.32979 -0.96901,1.721866 l -0.369605,0.457209 0.419923,0.414003 c 0.804148,0.792811 1.978639,2.272347 2.294344,2.890242 l 0.116103,0.227235 0.311023,-0.03164 c 0.607914,-0.06184 1.008732,0.380482 0.863446,0.952863 -0.05822,0.229372 -0.0516,0.314186 0.03171,0.406245 0.351067,0.387924 -0.153611,1.044177 -0.613661,0.797966 -0.106435,-0.05696 -0.193917,-0.05881 -0.292274,-0.0062 C 38.489014,38.267915 37.906,37.907189 37.906,37.234578 V 36.8854 l -0.489858,-0.195471 c -0.83875,-0.334692 -2.100201,-1.170551 -2.630714,-1.743155 -0.09978,-0.107703 -0.301374,-0.291294 -0.447973,-0.40798 l -0.266545,-0.212156 -0.411223,0.288063 c -0.226173,0.158435 -0.443214,0.298726 -0.482312,0.311759 -0.394259,0.13142 0.688552,2.04367 1.346737,2.378346 l 0.500682,0.254588 h 0.774967 0.774965 l 0.263155,-0.200718 c 0.478444,-0.364927 0.768715,-0.336497 0.872483,0.08545 0.09507,0.386571 -0.112978,0.523808 -1.073633,0.708217 -2.175441,0.417603 -3.418798,-0.280033 -4.063933,-2.280235 -0.247708,-0.768002 -0.316353,-0.713719 -2.202538,1.741714 -0.642112,0.835901 -0.525017,0.804709 -1.089749,0.290286 z M 22.064562,21.573045 c -0.429663,-0.436222 -0.435424,-0.398535 0.149692,-0.979168 0.587896,-0.583391 0.549338,-0.57857 0.99649,-0.124593 l 0.357855,0.363318 -0.540196,0.543825 c -0.640022,0.644323 -0.54247,0.624423 -0.963841,0.196618 z m -1.024582,-1.003905 -0.210881,-0.185383 0.553562,-0.553563 0.553563,-0.553563 0.221202,0.211925 0.221203,0.211925 -0.525782,0.529314 c -0.602459,0.606506 -0.539064,0.580041 -0.812867,0.339345 z m -1.785232,-1.71565 c -0.618891,-0.608352 -1.778219,-1.743333 -2.576286,-2.522179 -0.798065,-0.778846 -2.671959,-2.607646 -4.164207,-4.064 C 11.022007,10.810958 9.7419491,9.5779377 9.6696824,9.5272671 9.0046446,9.0609681 7.3046877,6.9081696 7.1663861,6.3571322 L 7.1149523,6.1522037 7.3974785,6.204625 c 1.0645219,0.1975166 1.5603685,0.550271 3.7762425,2.6864886 0.992199,0.9565307 2.620426,2.5266754 3.618283,3.4892104 0.997857,0.962534 2.9083,2.802548 4.245429,4.088918 2.845583,2.737563 2.602611,2.371998 1.988117,2.991237 -0.623428,0.628243 -0.455675,0.685744 -1.770802,-0.606989 z"
       id="path507" /></g></svg>
