<?xml version="1.0" encoding="UTF-8" standalone="no"?>
<!-- Created with Inkscape (http://www.inkscape.org/) -->

<svg
   xmlns:dc="http://purl.org/dc/elements/1.1/"
   xmlns:cc="http://creativecommons.org/ns#"
   xmlns:rdf="http://www.w3.org/1999/02/22-rdf-syntax-ns#"
   xmlns:svg="http://www.w3.org/2000/svg"
   xmlns="http://www.w3.org/2000/svg"
   xmlns:sodipodi="http://sodipodi.sourceforge.net/DTD/sodipodi-0.dtd"
   xmlns:inkscape="http://www.inkscape.org/namespaces/inkscape"
   width="1.0957129mm"
   height="1.262863mm"
   viewBox="0 0 1.0957129 1.262863"
   version="1.1"
   id="svg11383"
   inkscape:version="0.92.3 (2405546, 2018-03-11)"
   sodipodi:docname="symbol-quotes-straight.svg">
  <defs
     id="defs11377" />
  <sodipodi:namedview
     id="base"
     pagecolor="#ffffff"
     bordercolor="#666666"
     borderopacity="1.0"
     inkscape:pageopacity="0.0"
     inkscape:pageshadow="2"
     inkscape:zoom="0.35"
     inkscape:cx="-439.35792"
     inkscape:cy="-40.470599"
     inkscape:document-units="mm"
     inkscape:current-layer="layer1"
     showgrid="false"
     fit-margin-top="0"
     fit-margin-left="0"
     fit-margin-right="0"
     fit-margin-bottom="0"
     inkscape:window-width="2560"
     inkscape:window-height="1377"
     inkscape:window-x="1072"
     inkscape:window-y="1072"
     inkscape:window-maximized="1" />
  <metadata
     id="metadata11380">
    <rdf:RDF>
      <cc:Work
         rdf:about="">
        <dc:format>image/svg+xml</dc:format>
        <dc:type
           rdf:resource="http://purl.org/dc/dcmitype/StillImage" />
        <dc:title></dc:title>
      </cc:Work>
    </rdf:RDF>
  </metadata>
  <g
     inkscape:label="Layer 1"
     inkscape:groupmode="layer"
     id="layer1"
     transform="translate(-99.237854,-136.86262)">
    <path
       inkscape:connector-curvature="0"
       style="fill:#000000;stroke-width:0.26458332"
       d="m 99.379965,136.86358 c -0.109014,0.0132 -0.142111,0.17065 -0.142111,0.60875 0,0.35626 0.01611,0.49186 0.06615,0.56328 0.07866,0.11231 0.133985,0.11816 0.237712,0.0243 0.06513,-0.0589 0.07705,-0.13478 0.07493,-0.47646 -0.0027,-0.45934 -0.06349,-0.69386 -0.185517,-0.71727 -0.01881,-0.004 -0.03559,-0.004 -0.05116,-0.003 z m 0.769465,0 c -0.0676,-0.008 -0.13955,0.0503 -0.178804,0.16537 -0.06165,0.18078 -0.07073,0.80048 -0.01394,0.94981 0.05447,0.14326 0.269824,0.15403 0.343124,0.0171 0.0628,-0.11739 0.0316,-0.90744 -0.0413,-1.04334 -0.0295,-0.0549 -0.0685,-0.084 -0.10903,-0.0889 z"
       id="path1049" />
  </g>
</svg>
