<?xml version="1.0" encoding="UTF-8" standalone="no"?>
<!-- Created with Inkscape (http://www.inkscape.org/) -->

<svg
   width="22.014585mm"
   height="30.734264mm"
   viewBox="0 0 22.014585 30.734264"
   version="1.1"
   id="svg647"
   xml:space="preserve"
   inkscape:version="1.2.1 (9c6d41e410, 2022-07-14)"
   sodipodi:docname="symbol-shield.svg"
   xmlns:inkscape="http://www.inkscape.org/namespaces/inkscape"
   xmlns:sodipodi="http://sodipodi.sourceforge.net/DTD/sodipodi-0.dtd"
   xmlns="http://www.w3.org/2000/svg"
   xmlns:svg="http://www.w3.org/2000/svg"><sodipodi:namedview
     id="namedview649"
     pagecolor="#ffffff"
     bordercolor="#666666"
     borderopacity="1.0"
     inkscape:showpageshadow="2"
     inkscape:pageopacity="0.0"
     inkscape:pagecheckerboard="0"
     inkscape:deskcolor="#d1d1d1"
     inkscape:document-units="mm"
     showgrid="false"
     inkscape:zoom="41.403919"
     inkscape:cx="19.623746"
     inkscape:cy="20.263782"
     inkscape:window-width="2560"
     inkscape:window-height="1369"
     inkscape:window-x="-8"
     inkscape:window-y="-8"
     inkscape:window-maximized="1"
     inkscape:current-layer="layer1" /><defs
     id="defs644" /><g
     inkscape:label="Layer 1"
     inkscape:groupmode="layer"
     id="layer1"
     transform="translate(-143.88162,-121.71275)"><path
       style="fill:#000000;stroke-width:0.0725714"
       d="m 153.54816,151.7172 c -7.64507,-5.61628 -8.97369,-7.15127 -9.54752,-11.03046 -0.18808,-1.27148 -0.14049,-15.14614 0.0534,-15.56929 0.1315,-0.28699 0.097,-0.27486 1.41618,-0.49811 1.32174,-0.22369 1.15775,-0.28362 1.72053,0.62874 1.40477,2.27737 1.78852,2.01403 0.88372,-0.60642 -0.16945,-0.49077 -0.21933,-0.44699 0.76737,-0.67365 l 0.78563,-0.18047 c 0.2098,0.28053 0.43006,0.57428 0.61686,0.82324 0.6041,0.80515 0.69502,0.76251 0.67441,-0.31621 l -0.015,-0.78521 0.52302,-0.15238 c 1.03245,-0.3008 1.73734,-0.63861 2.89812,-1.38886 0.56583,-0.36571 0.53822,-0.36938 1.43489,0.19087 1.65556,1.03441 3.68196,1.6298 8.13288,2.38955 1.78783,0.30517 1.69741,0.27708 1.83113,0.56891 0.1939,0.42315 0.24149,14.29781 0.0534,15.56929 -0.31671,2.14103 -1.18753,4.05369 -1.79524,3.94307 -0.34352,-0.0536 -0.65607,-0.0504 -1.00132,-0.0507 0.0175,0.53553 0.0975,0.94232 0.24454,1.43091 -0.18451,0.19779 -0.36901,0.39559 -0.55352,0.59339 l -0.47127,-0.232 c -0.74024,-0.36442 -0.73527,-0.36828 -0.68921,0.5341 0.0475,0.93038 0.27589,0.66755 -2.17527,2.50315 -4.91252,3.67883 -4.27084,3.42288 -5.78773,2.30853 z"
       id="path792"
       sodipodi:nodetypes="ssssssscsscssssssccccssss" /></g></svg>
