<?xml version="1.0" encoding="UTF-8" standalone="no"?>
<!-- Created with Inkscape (http://www.inkscape.org/) -->

<svg
   xmlns:dc="http://purl.org/dc/elements/1.1/"
   xmlns:cc="http://creativecommons.org/ns#"
   xmlns:rdf="http://www.w3.org/1999/02/22-rdf-syntax-ns#"
   xmlns:svg="http://www.w3.org/2000/svg"
   xmlns="http://www.w3.org/2000/svg"
   xmlns:sodipodi="http://sodipodi.sourceforge.net/DTD/sodipodi-0.dtd"
   xmlns:inkscape="http://www.inkscape.org/namespaces/inkscape"
   width="2.7713859mm"
   height="3.8284955mm"
   viewBox="0 0 2.7713859 3.8284955"
   version="1.1"
   id="svg17877"
   inkscape:version="0.92.3 (2405546, 2018-03-11)"
   sodipodi:docname="symbol-dollar.svg">
  <defs
     id="defs17871" />
  <sodipodi:namedview
     id="base"
     pagecolor="#ffffff"
     bordercolor="#666666"
     borderopacity="1.0"
     inkscape:pageopacity="0.0"
     inkscape:pageshadow="2"
     inkscape:zoom="0.35"
     inkscape:cx="-393.33417"
     inkscape:cy="7.2353141"
     inkscape:document-units="mm"
     inkscape:current-layer="layer1"
     showgrid="false"
     fit-margin-top="0"
     fit-margin-left="0"
     fit-margin-right="0"
     fit-margin-bottom="0"
     inkscape:window-width="2560"
     inkscape:window-height="1377"
     inkscape:window-x="1072"
     inkscape:window-y="1072"
     inkscape:window-maximized="1" />
  <metadata
     id="metadata17874">
    <rdf:RDF>
      <cc:Work
         rdf:about="">
        <dc:format>image/svg+xml</dc:format>
        <dc:type
           rdf:resource="http://purl.org/dc/dcmitype/StillImage" />
        <dc:title></dc:title>
      </cc:Work>
    </rdf:RDF>
  </metadata>
  <g
     inkscape:label="Layer 1"
     inkscape:groupmode="layer"
     id="layer1"
     transform="translate(-87.060738,-146.91918)">
    <path
       inkscape:connector-curvature="0"
       style="fill:#000000;stroke-width:0.26458332"
       d="m 88.490102,146.92102 c -0.05789,-0.007 -0.119459,0.006 -0.181382,0.0388 -0.07203,0.0386 -0.07708,0.0783 -0.05374,0.40876 l 0.02585,0.36639 -0.303343,-0.0258 -0.302823,-0.0253 -0.12764,0.26251 c -0.07221,0.14834 -0.2055,0.33088 -0.306967,0.42065 l -0.179319,0.15865 h 0.142626 c 0.109061,8e-5 0.178628,-0.0372 0.29714,-0.15865 0.08521,-0.0873 0.183269,-0.20032 0.217559,-0.25115 0.0584,-0.0866 0.07792,-0.0895 0.305925,-0.0486 0.215061,0.0386 0.243395,0.0551 0.243395,0.14314 0,0.0823 -0.0282,0.10462 -0.159162,0.12661 -0.08731,0.0147 -0.21939,0.0451 -0.293524,0.0677 -0.14624,0.0446 -0.409855,0.30929 -0.457335,0.45889 -0.0417,0.13139 0.0087,0.35768 0.09767,0.43822 0.112114,0.10146 0.416816,0.1974 0.626834,0.1974 h 0.185518 v 0.30179 0.30179 l -0.18035,-0.0284 c -0.09895,-0.0158 -0.259583,-0.0757 -0.357085,-0.13281 -0.0975,-0.0571 -0.187314,-0.0871 -0.199987,-0.0667 -0.05743,0.0929 0.336034,0.37637 0.615465,0.44338 0.06871,0.0165 0.130202,0.0737 0.161748,0.14986 0.02804,0.0677 0.08966,0.16426 0.136425,0.21446 0.06911,0.0742 0.09636,0.0815 0.147277,0.0393 0.08489,-0.0705 0.184486,-0.26875 0.184486,-0.36793 0,-0.0572 0.05649,-0.10279 0.19327,-0.15503 0.27491,-0.10499 0.526066,-0.35376 0.526066,-0.52142 0,-0.31215 -0.185206,-0.47439 -0.542602,-0.47439 -0.199628,0 -0.20978,-0.006 -0.235127,-0.13229 -0.0277,-0.13848 -0.03632,-0.46043 -0.01241,-0.46043 0.0076,0 0.130632,0.0477 0.273886,0.10593 0.14325,0.0582 0.273193,0.10594 0.288353,0.10594 0.05045,0 -0.01979,-0.29569 -0.115755,-0.48783 -0.05208,-0.10427 -0.119581,-0.18965 -0.150379,-0.18965 -0.06793,0 -0.0716,0.0612 -0.01035,0.1757 0.06183,0.11553 0.04024,0.12605 -0.143144,0.0698 -0.137944,-0.0423 -0.156578,-0.0641 -0.156578,-0.18345 0,-0.12372 0.01373,-0.13779 0.158647,-0.16174 0.288848,-0.0478 0.335631,-0.0358 0.393258,0.10335 0.07285,0.17586 0.342315,0.35316 0.483174,0.31781 l 0.106452,-0.0264 -0.167431,-0.16743 c -0.0921,-0.0921 -0.225089,-0.28202 -0.29559,-0.42168 -0.07356,-0.14573 -0.150984,-0.24663 -0.181385,-0.23719 -0.02913,0.009 -0.15028,0.0274 -0.269232,0.0413 l -0.216008,0.0253 -0.02585,-0.21756 c -0.01418,-0.11971 -0.007,-0.253 0.01603,-0.2961 0.03206,-0.0599 0.02204,-0.0984 -0.04341,-0.16382 -0.04686,-0.0469 -0.101277,-0.0743 -0.159165,-0.0816 z m -0.222724,1.60301 v 0.3607 0.3607 l -0.201538,-0.002 c -0.240948,-0.002 -0.47594,-0.0955 -0.47594,-0.18914 0,-0.20063 0.257458,-0.43188 0.560689,-0.50333 z m 0.465604,0.93276 h 0.139528 c 0.160803,0 0.241329,0.0638 0.241329,0.19068 0,0.0971 -0.304911,0.42166 -0.351917,0.37466 -0.01598,-0.016 -0.02894,-0.14968 -0.02894,-0.29714 z"
       id="path1060" />
  </g>
</svg>
