<?xml version="1.0" encoding="UTF-8" standalone="no"?>
<!-- Created with Inkscape (http://www.inkscape.org/) -->

<svg
   xmlns:dc="http://purl.org/dc/elements/1.1/"
   xmlns:cc="http://creativecommons.org/ns#"
   xmlns:rdf="http://www.w3.org/1999/02/22-rdf-syntax-ns#"
   xmlns:svg="http://www.w3.org/2000/svg"
   xmlns="http://www.w3.org/2000/svg"
   xmlns:sodipodi="http://sodipodi.sourceforge.net/DTD/sodipodi-0.dtd"
   xmlns:inkscape="http://www.inkscape.org/namespaces/inkscape"
   width="1.3082246mm"
   height="1.3488778mm"
   viewBox="0 0 1.3082246 1.3488778"
   version="1.1"
   id="svg6855"
   inkscape:version="0.92.3 (2405546, 2018-03-11)"
   sodipodi:docname="symbol-asterisk.svg">
  <defs
     id="defs6849" />
  <sodipodi:namedview
     id="base"
     pagecolor="#ffffff"
     bordercolor="#666666"
     borderopacity="1.0"
     inkscape:pageopacity="0.0"
     inkscape:pageshadow="2"
     inkscape:zoom="0.35"
     inkscape:cx="32.472229"
     inkscape:cy="-106.02226"
     inkscape:document-units="mm"
     inkscape:current-layer="layer1"
     showgrid="false"
     fit-margin-top="0"
     fit-margin-left="0"
     fit-margin-right="0"
     fit-margin-bottom="0"
     inkscape:window-width="2560"
     inkscape:window-height="1377"
     inkscape:window-x="1072"
     inkscape:window-y="1072"
     inkscape:window-maximized="1" />
  <metadata
     id="metadata6852">
    <rdf:RDF>
      <cc:Work
         rdf:about="">
        <dc:format>image/svg+xml</dc:format>
        <dc:type
           rdf:resource="http://purl.org/dc/dcmitype/StillImage" />
        <dc:title></dc:title>
      </cc:Work>
    </rdf:RDF>
  </metadata>
  <g
     inkscape:label="Layer 1"
     inkscape:groupmode="layer"
     id="layer1"
     transform="translate(25.600539,-119.43273)">
    <path
       style="fill:#000000;stroke-width:0.26458332"
       d="m -25.531937,120.75528 c -0.06943,-0.0694 -0.01384,-0.20246 0.164153,-0.39274 l 0.192376,-0.20566 -0.213543,-0.2102 c -0.20877,-0.2055 -0.258813,-0.31554 -0.168802,-0.37117 0.07728,-0.0478 0.227058,0.0144 0.368893,0.15305 l 0.136703,0.13365 5.29e-4,-0.16377 c 7.94e-4,-0.20115 0.04813,-0.28266 0.152593,-0.26281 0.05885,0.0112 0.08511,0.0625 0.100759,0.1968 l 0.02117,0.18168 0.145809,-0.10797 c 0.153771,-0.11387 0.275276,-0.13778 0.321347,-0.0632 0.05781,0.0935 -0.02997,0.25159 -0.212598,0.38274 l -0.189584,0.13615 0.171283,0.18582 c 0.202679,0.21988 0.213117,0.36452 0.02784,0.38582 -0.09046,0.0104 -0.156073,-0.0261 -0.290039,-0.16143 -0.193728,-0.19567 -0.149836,-0.20433 -0.480587,0.0949 -0.129135,0.11682 -0.196141,0.14066 -0.248414,0.0884 z"
       id="path1061"
       inkscape:connector-curvature="0" />
  </g>
</svg>
