<?xml version="1.0" encoding="UTF-8" standalone="no"?>
<!-- Created with Inkscape (http://www.inkscape.org/) -->

<svg
   width="38.787403mm"
   height="38.500587mm"
   viewBox="0 0 38.787403 38.500587"
   version="1.1"
   id="svg647"
   xml:space="preserve"
   inkscape:version="1.2.1 (9c6d41e410, 2022-07-14)"
   sodipodi:docname="symbol-crossed-swords.svg"
   xmlns:inkscape="http://www.inkscape.org/namespaces/inkscape"
   xmlns:sodipodi="http://sodipodi.sourceforge.net/DTD/sodipodi-0.dtd"
   xmlns="http://www.w3.org/2000/svg"
   xmlns:svg="http://www.w3.org/2000/svg"><sodipodi:namedview
     id="namedview649"
     pagecolor="#ffffff"
     bordercolor="#666666"
     borderopacity="1.0"
     inkscape:showpageshadow="2"
     inkscape:pageopacity="0.0"
     inkscape:pagecheckerboard="0"
     inkscape:deskcolor="#d1d1d1"
     inkscape:document-units="mm"
     showgrid="false"
     inkscape:zoom="1.2938725"
     inkscape:cx="-355.90834"
     inkscape:cy="-77.287369"
     inkscape:window-width="2560"
     inkscape:window-height="1369"
     inkscape:window-x="-8"
     inkscape:window-y="-8"
     inkscape:window-maximized="1"
     inkscape:current-layer="layer1" /><defs
     id="defs644" /><g
     inkscape:label="Layer 1"
     inkscape:groupmode="layer"
     id="layer1"
     transform="translate(-135.3009,-113.57228)"><path
       id="path792"
       style="fill:#000000;stroke-width:0.0725714"
       d="m 135.84894,152.07254 c 0.0765,-0.005 0.15695,-0.0282 0.23746,-0.0747 0.18036,-0.10431 0.24038,-0.10676 0.48413,-0.0207 0.65568,0.23129 1.19285,0.005 1.30142,-0.54756 0.0241,-0.12243 0.0878,-0.22251 0.14136,-0.2227 0.11302,-3.8e-4 0.27117,-0.26509 0.21376,-0.35729 -0.0216,-0.0345 0.01,-0.10318 0.0688,-0.15268 0.0593,-0.0496 0.10744,-0.16477 0.10713,-0.25617 -4.6e-4,-0.1355 0.12619,-0.23486 0.6834,-0.5377 1.13949,-0.6193 3.49035,-2.56834 4.6579,-3.86113 l 0.64817,-0.71741 0.49122,0.38847 c 0.27003,0.2137 0.52725,0.39374 0.57187,0.39959 0.0446,0.006 0.32597,0.0135 0.62534,0.0164 0.29936,0.003 0.82202,0.0323 1.1614,0.0652 1.01581,0.0991 1.59621,-0.17463 1.59425,-0.75165 -0.002,-0.57024 -0.39115,-0.80044 -1.36132,-0.80513 -0.35053,-0.001 -0.7784,-0.0247 -0.95103,-0.0511 l -0.31384,-0.0481 1.19972,-1.12548 c 3.48152,-3.19793 4.79628,-4.41806 7.45697,-6.97022 2.67098,2.77649 5.61983,5.41821 7.0282,6.72295 l 1.24261,1.15074 -0.31299,0.0502 c -0.17227,0.0275 -0.60013,0.0534 -0.95065,0.0575 -0.97011,0.0113 -1.35776,0.24466 -1.35581,0.81491 0.002,0.57701 0.58423,0.84629 1.59934,0.74025 0.33916,-0.0354 0.86159,-0.0676 1.16093,-0.0727 0.29935,-0.005 0.58064,-0.0146 0.62521,-0.0207 0.0446,-0.006 0.30057,-0.18794 0.56914,-0.40347 l 0.48856,-0.39183 0.65305,0.7135 c 1.17632,1.2848 3.54042,3.21728 4.6841,3.82879 0.55926,0.29904 0.68659,0.39754 0.68705,0.53304 3.1e-4,0.0914 0.0493,0.20684 0.10887,0.25593 0.0594,0.0491 0.0916,0.11754 0.0703,0.15222 -0.0568,0.0926 0.10369,0.35569 0.2167,0.35531 0.0535,-1.8e-4 0.11743,0.0995 0.14235,0.22173 0.11234,0.55161 0.65156,0.77442 1.30564,0.53866 0.24317,-0.0876 0.30269,-0.0857 0.48376,0.0175 0.0806,0.0459 0.1611,0.0695 0.23743,0.0736 l 5.2e-4,-1e-5 c 0.3312,0.0171 0.58429,-0.32386 0.43527,-0.71462 -0.0615,-0.16145 -0.0578,-0.27721 0.0165,-0.48737 0.25056,-0.71006 -0.0727,-1.32732 -0.6944,-1.3252 -0.0994,3.3e-4 -0.149,-0.0467 -0.14932,-0.14213 -5.2e-4,-0.15034 -0.24843,-0.32745 -0.36055,-0.25767 -0.0362,0.0226 -0.0864,0.009 -0.11173,-0.0323 -0.0252,-0.0405 -0.12227,-0.0735 -0.21626,-0.0732 -0.14131,4.8e-4 -0.23555,-0.11793 -0.54286,-0.68339 -0.6193,-1.13949 -2.56784,-3.49035 -3.86063,-4.6579 l -0.71741,-0.64817 0.38848,-0.49121 c 0.2137,-0.27006 0.39374,-0.52726 0.39958,-0.57188 0.006,-0.0446 0.0135,-0.32598 0.0165,-0.62535 0.003,-0.29936 0.032,-0.822 0.0652,-1.16139 0.071,-0.72728 -0.0124,-1.12294 -0.29573,-1.40409 -0.70926,-0.70444 -1.23396,-0.049 -1.27357,1.59133 -0.0263,1.08735 -0.0813,1.29092 -0.44043,1.6288 -0.23521,0.2215 -0.23713,0.11897 -0.006,-0.43354 0.12874,-0.30885 0.16206,-0.47236 0.11386,-0.5616 -3.02646,-3.15525 -5.1762,-5.81083 -7.48979,-8.16233 2.5816,-2.46901 4.92176,-4.63297 7.86873,-7.2624 1.04397,-0.99871 4.11428,-3.90192 4.40932,-4.16931 0.37114,-0.33636 0.55424,-0.65778 1.20615,-2.11614 0.73927,-1.65377 1.72818,-4.67392 1.72666,-5.27225 -4.3e-4,-0.0968 -0.025,-0.17583 -0.0549,-0.175 -0.57638,0.0161 -2.38756,0.38218 -3.31795,0.6707 -1.02178,0.31685 -3.81348,1.44328 -3.98087,1.60623 -0.14914,0.1452 -0.1382,0.19094 0.16143,0.66453 0.21533,0.34029 0.0111,0.41518 -0.27664,0.10117 -0.30739,-0.3355 -0.33225,-0.33084 -0.74006,0.1374 l -0.34386,0.39443 0.37582,0.49326 c 0.79768,1.04578 0.77528,1.47957 -0.0282,0.54115 -0.62288,-0.72758 -0.67236,-0.75195 -0.93381,-0.46087 -0.41208,0.45876 -0.41981,0.40419 0.14654,0.99634 0.86346,0.90282 1.4908,1.9986 1.27105,2.21984 -0.0547,0.0551 -0.19419,-0.0979 -0.47929,-0.5265 -0.43169,-0.64901 -1.21843,-1.58048 -1.49535,-1.77053 -0.38212,-0.26224 -0.53788,0.0433 -0.78257,0.24762 -3.33455,3.61428 -6.18357,6.71268 -8.85309,9.60483 -4.06597,-4.44431 -7.9563,-8.56679 -9.15571,-9.14298 0.006,-0.0323 0.0105,-0.0634 0.0193,-0.0987 0.0739,-0.29522 0.0684,-0.3127 -0.18434,-0.56369 l -0.26081,-0.25904 -0.3979,0.30935 c -0.21892,0.17008 -0.64108,0.60996 -0.93822,0.9773 -0.29714,0.36735 -0.64342,0.76613 -0.76954,0.88629 l -0.22974,0.21835 0.14288,-0.38135 c 0.29187,-0.77965 0.91635,-1.57943 1.66859,-2.13682 l 0.24743,-0.18327 -0.27544,-0.30293 c -0.34232,-0.37636 -0.329,-0.37694 -0.82561,0.0534 -0.35881,0.311 -0.79197,0.59182 -0.9137,0.59223 -0.21759,7.5e-4 0.28203,-0.65237 0.74805,-0.97769 0.3587,-0.2504 0.36144,-0.2945 0.0381,-0.63988 -0.30966,-0.33076 -0.30203,-0.33055 -0.66722,-0.0158 -0.44848,0.38653 -0.56422,0.21013 -0.1683,-0.25626 0.40726,-0.47978 0.23626,-0.61622 -1.74367,-1.39399 -2.17492,-0.85438 -3.32913,-1.18028 -4.97608,-1.40467 -0.2396,-0.0327 -0.49256,-0.0631 -0.56247,-0.0679 -0.6555,-0.0435 1.88736,6.66764 2.85548,7.53611 0.19498,0.17491 1.26581,1.1721 2.37952,2.21607 1.55243,1.45522 1.9757,1.86622 2.10895,1.82785 4.35735,4.06397 4.60773,4.08656 7.59791,7.08343 -3.41054,4.00891 -4.16546,4.82062 -6.9726,8.07588 -0.30188,0.35008 -0.51735,0.82902 -0.14507,1.55752 -0.86721,-0.69895 -0.64495,-1.28534 -0.65962,-1.73255 -0.0307,-1.06667 -0.047,-1.43767 -0.36342,-1.55784 -0.67883,-0.25796 -1.19889,0.5351 -1.20376,1.45466 0.0354,0.33915 0.0681,0.86158 0.0732,1.16092 0.005,0.29935 0.0144,0.58064 0.0203,0.62522 0.006,0.0445 0.18792,0.30055 0.40346,0.56914 l 0.39234,0.48856 -0.71349,0.65304 c -1.2848,1.17634 -3.21728,3.54043 -3.8288,4.6841 -0.30346,0.56755 -0.39637,0.68658 -0.53768,0.68707 -0.094,3.3e-4 -0.19131,0.0334 -0.21626,0.0741 -0.0249,0.041 -0.0751,0.0559 -0.11152,0.0334 -0.1126,-0.0691 -0.35929,0.10979 -0.35878,0.26012 3.2e-4,0.0954 -0.0483,0.14278 -0.14782,0.14313 -0.62172,0.002 -0.94128,0.62156 -0.68588,1.32991 0.0756,0.20964 0.0802,0.32487 0.0197,0.48673 -0.14642,0.39196 0.10933,0.73139 0.44065,0.71164 z"
       sodipodi:nodetypes="ccscsccsscccsscscscccccccscssccccsccscccccccssccsscccsscccccccccsccssccccccccscscccccccscccccccsscscsccssccsccccsscccssccsscccc" /></g></svg>
