<?xml version="1.0" encoding="UTF-8" standalone="no"?>
<!-- Created with Inkscape (http://www.inkscape.org/) -->

<svg
   width="34.376442mm"
   height="33.520638mm"
   viewBox="0 0 34.376442 33.520637"
   version="1.1"
   id="svg5"
   xml:space="preserve"
   inkscape:version="1.2.1 (9c6d41e410, 2022-07-14)"
   sodipodi:docname="symbol-ctd-icon-attack.svg"
   xmlns:inkscape="http://www.inkscape.org/namespaces/inkscape"
   xmlns:sodipodi="http://sodipodi.sourceforge.net/DTD/sodipodi-0.dtd"
   xmlns="http://www.w3.org/2000/svg"
   xmlns:svg="http://www.w3.org/2000/svg"><sodipodi:namedview
     id="namedview7"
     pagecolor="#ffffff"
     bordercolor="#666666"
     borderopacity="1.0"
     inkscape:showpageshadow="2"
     inkscape:pageopacity="0.0"
     inkscape:pagecheckerboard="0"
     inkscape:deskcolor="#d1d1d1"
     inkscape:document-units="mm"
     showgrid="false"
     inkscape:zoom="4.801634"
     inkscape:cx="-9.059416"
     inkscape:cy="77.473627"
     inkscape:window-width="2560"
     inkscape:window-height="1369"
     inkscape:window-x="-8"
     inkscape:window-y="-8"
     inkscape:window-maximized="1"
     inkscape:current-layer="layer1" /><defs
     id="defs2" /><g
     inkscape:label="Layer 1"
     inkscape:groupmode="layer"
     id="layer1"
     transform="translate(-83.389627,-124.16409)"><path
       style="fill:#000000;stroke-width:0.0725714"
       d="m 85.126899,157.50149 c -0.230526,-0.0967 -0.472307,-0.21991 -0.537291,-0.27385 -0.06499,-0.0539 -0.176682,-0.0881 -0.248218,-0.076 -0.434029,0.0735 -1.172291,-0.9592 -0.888541,-1.24295 0.02622,-0.0262 0.05071,-0.39905 0.05443,-0.82852 0.01326,-1.53202 0.944715,-2.5986 2.350255,-2.69121 0.384682,-0.0254 0.489583,-0.063 0.665704,-0.23916 0.280181,-0.28018 0.712694,-0.25335 0.895121,0.0555 0.101648,0.17211 0.178526,0.12433 2.126742,-1.32186 2.136673,-1.58609 2.037833,-1.49602 1.883423,-1.71647 -0.22784,-0.32528 -0.0273,-0.9274 0.3089,-0.9274 0.12174,0 0.13338,0.0308 -0.38567,-1.0215 -0.51782,-1.04983 -0.54815,-1.21684 -0.36141,-1.99022 0.0578,-0.23948 0.10583,-0.66403 0.10668,-0.94343 0.002,-0.68855 0.10097,-0.99783 0.40416,-1.26403 0.79731,-0.70004 1.98861,0.28687 1.99072,1.64918 10e-4,0.93875 0.38774,1.81592 0.6831,1.55115 0.0837,-0.075 0.86867,-0.73733 1.74439,-1.47178 5.583416,-4.68274 7.463436,-6.55256 11.953736,-11.88889 0.65232,-0.77523 1.2732,-1.47359 1.37971,-1.55191 l 0.19367,-0.14238 0.7166,0.36809 c 1.88597,0.96875 2.72163,1.00527 5.95593,0.26025 1.679,-0.38675 1.64437,-0.42355 1.64702,1.74975 0.006,4.82586 -3.29128,9.35886 -8.34403,11.47149 -0.64348,0.26905 -2.7813,1.2013 -5.69685,2.48427 -0.81825,0.36006 -2.66338,1.16704 -4.100286,1.79329 -1.43691,0.62626 -2.67125,1.16993 -2.74297,1.20817 -0.16885,0.09 0.50559,0.9058 0.80933,0.97891 1.01377,0.244 1.79413,1.01738 1.87241,1.85566 0.0953,1.02046 -0.38479,1.2335 -1.70032,0.75454 -0.29783,-0.10844 -0.77219,-0.21224 -1.08857,-0.23821 -0.4709,-0.0387 -0.59776,-0.0782 -0.79183,-0.24653 -0.12709,-0.11027 -0.29317,-0.2202 -0.36906,-0.24429 -0.0759,-0.0241 -0.37549,-0.32046 -0.66579,-0.65862 l -0.5278,-0.61483 -0.18334,0.14422 c -0.28394,0.22334 -0.62214,0.16301 -0.88648,-0.15814 -0.16374,-0.19892 -4.407905,2.61219 -4.286455,2.83912 0.137951,0.25776 0.08383,0.51303 -0.159591,0.75268 -0.128643,0.12665 -0.3062,0.38419 -0.394571,0.57232 -0.550706,1.17237 -2.163833,1.7749 -3.382957,1.26358 z m 15.102561,-19.62206 c -0.0132,-0.0296 -0.252596,-0.2498 -0.531996,-0.48928 -0.2794,-0.23949 -0.51888,-0.45992 -0.53219,-0.48986 -0.0133,-0.0299 -0.0705,-0.0544 -0.127,-0.0544 -0.0565,0 -0.10434,-0.0245 -0.10621,-0.0544 -0.002,-0.0299 -0.15699,-0.16086 -0.34471,-0.29094 -2.16627,-1.50113 -4.28376,-2.39349 -6.58246,-2.77402 -1.64624,-0.27253 -1.66049,-0.29283 -0.32657,-0.4653 2.55468,-0.33031 5.44225,0.0424 7.98286,1.03043 1.157266,0.45005 2.755186,1.28593 2.756816,1.4421 0.002,0.20303 -2.12493,2.28847 -2.18854,2.14573 z m 11.84143,-7.87623 c -0.25944,-0.0945 -0.77084,-0.32563 -1.13645,-0.51361 -1.01955,-0.52421 -1.78953,-0.57082 -2.58783,-0.15664 -0.45832,0.23778 -0.38334,0.2582 -1.15595,-0.31482 -3.19522,-2.36978 -7.247226,-3.97668 -10.924666,-4.33238 -0.59335,-0.0574 -0.61361,-0.0922 -0.10974,-0.18843 5.961256,-1.13875 13.085666,0.69545 18.140556,4.67036 0.83051,0.65307 0.83056,0.66076 0.006,0.80566 -1.23819,0.2175 -1.69951,0.22367 -2.23157,0.0299 z"
       id="path321" /></g></svg>
