<?xml version="1.0" encoding="UTF-8" standalone="no"?>
<!-- Created with Inkscape (http://www.inkscape.org/) -->

<svg
   version="1.1"
   id="svg2"
   width="86.290497"
   height="76.228065"
   viewBox="0 0 86.290497 76.228065"
   sodipodi:docname="SwapIcon.svg"
   inkscape:version="1.2.1 (9c6d41e410, 2022-07-14)"
   xmlns:inkscape="http://www.inkscape.org/namespaces/inkscape"
   xmlns:sodipodi="http://sodipodi.sourceforge.net/DTD/sodipodi-0.dtd"
   xmlns="http://www.w3.org/2000/svg"
   xmlns:svg="http://www.w3.org/2000/svg">
  <defs
     id="defs6" />
  <sodipodi:namedview
     id="namedview4"
     pagecolor="#ffffff"
     bordercolor="#666666"
     borderopacity="1.0"
     inkscape:showpageshadow="2"
     inkscape:pageopacity="0.0"
     inkscape:pagecheckerboard="0"
     inkscape:deskcolor="#d1d1d1"
     showgrid="false"
     inkscape:zoom="9.1696429"
     inkscape:cx="23.719572"
     inkscape:cy="49.838364"
     inkscape:window-width="2560"
     inkscape:window-height="1369"
     inkscape:window-x="-8"
     inkscape:window-y="-8"
     inkscape:window-maximized="1"
     inkscape:current-layer="g8" />
  <g
     inkscape:groupmode="layer"
     inkscape:label="Image"
     id="g8"
     transform="translate(-12.527617,-14.525474)">
    <path
       style="fill:#000000;stroke-width:1"
       d="M 39.90373,90.585585 C 32.04604,89.878598 27.17901,87.318899 24.642048,82.559069 21.923669,77.458867 21.333507,73.808656 21.299493,61.885024 l -0.02666,-9.345197 -3.04,0.218819 c -5.07565,0.365348 -5.586365,0.326916 -5.694409,-0.428537 -0.206155,-1.441459 2.54013,-5.613341 7.986855,-12.132829 3.15571,-3.777245 8.446729,-9.349171 9.32332,-9.818307 0.52053,-0.278579 0.872107,-0.08475 2.212954,1.220025 4.018262,3.910167 10.558698,11.988605 12.866512,15.892106 1.92071,3.248746 2.346582,4.502176 1.766973,5.200563 -0.396493,0.477744 -0.888928,0.517402 -4.065946,0.327463 -1.988147,-0.118861 -3.82664,-0.297399 -4.085536,-0.396746 -0.389923,-0.149626 -0.469872,0.250938 -0.465773,2.333603 0.0086,4.349063 0.628925,12.036131 1.131133,14.016144 1.008131,3.974701 3.329405,5.376301 8.990106,5.428282 l 3.246189,0.02982 1.994339,6.4 c 1.096886,3.52 2.185725,6.970377 2.419638,7.667504 0.233917,0.697129 0.379328,1.313481 0.323136,1.36967 -0.67976,0.679758 -11.432931,1.154178 -16.278595,0.718188 z M 60.052312,89.080042 C 59.749045,88.57641 54.712834,74.348096 54.712834,73.994944 c 0,-0.200595 0.198,-0.36472 0.44,-0.36472 0.242,0 0.883085,-0.08862 1.424637,-0.196928 0.885577,-0.177114 1.006755,-0.104682 1.204521,0.72 0.218215,0.909955 3.417735,9.708461 4.63088,12.734666 0.347866,0.867756 0.521668,1.678291 0.386224,1.801187 -0.391187,0.354947 -2.580796,0.66655 -2.746784,0.390893 z m 4.406487,-3.369818 c -1.469274,-3.918122 -4.04105,-10.255629 -4.669674,-11.507251 -0.755523,-1.504288 -0.761414,-1.471239 0.283709,-1.591495 0.834531,-0.09602 0.931904,0.03928 1.884544,2.618746 0.552499,1.496 1.818397,4.848211 2.813104,7.449357 0.994707,2.601145 1.722163,4.869145 1.61657,5.04 -0.491303,0.794941 -1.123828,0.135811 -1.928253,-2.009357 z m 12.602147,-14.24 C 71.90758,66.230234 65.951247,58.036723 64.62092,54.35777 c -0.354806,-0.981197 -0.350108,-1.251335 0.0297,-1.708989 0.396493,-0.477744 0.888928,-0.517402 4.065946,-0.327463 1.988147,0.118861 3.82664,0.297399 4.085536,0.396746 0.389923,0.149626 0.469872,-0.250938 0.465773,-2.333603 -0.0086,-4.349063 -0.628925,-12.036131 -1.131133,-14.016144 -1.008131,-3.974701 -3.329405,-5.376301 -8.990106,-5.428282 l -3.246188,-0.02982 -1.99434,-6.4 c -1.096886,-3.52 -2.185724,-6.970377 -2.419638,-7.667505 -0.233917,-0.697128 -0.379328,-1.313479 -0.323136,-1.36967 0.05619,-0.05619 0.930102,-0.236915 1.942029,-0.40161 3.453382,-0.562053 8.962253,-0.70847 13.298169,-0.353444 10.623159,0.869825 15.214397,3.879378 17.921418,11.747473 1.374131,3.993982 1.693126,7.14274 1.721216,16.989956 l 0.02666,9.345197 3.04,-0.218819 c 5.075651,-0.365347 5.586365,-0.326915 5.69441,0.428537 0.205568,1.437364 -2.503796,5.557533 -7.983015,12.139885 -3.09391,3.716807 -9.236617,10.082029 -9.728419,10.080826 -0.185363,-3.2e-4 -2.001053,-1.692826 -4.034864,-3.760826 z M 50.070645,32.067571 c -0.111251,-0.443261 -1.256137,-3.548995 -2.544189,-6.901637 -2.959446,-7.703072 -2.897955,-7.492736 -2.261884,-7.736818 0.283724,-0.108876 0.582496,-0.131326 0.663932,-0.04989 0.08144,0.08144 1.063511,2.511228 2.182381,5.399533 1.118874,2.888305 2.486032,6.24338 3.038131,7.455725 0.5521,1.212343 1.003818,2.239997 1.003818,2.28368 0,0.04368 -0.422982,0.141498 -0.939958,0.217376 -0.79113,0.116112 -0.971984,0.01034 -1.142231,-0.667971 z m 2.668224,-3.291821 c -0.637293,-1.81804 -1.83487,-5.105526 -2.661286,-7.305526 -0.826413,-2.2 -1.525562,-4.206112 -1.553661,-4.458026 -0.05682,-0.509414 2.30345,-1.164974 2.696131,-0.748843 0.290003,0.307321 5.412781,14.58141 5.412781,15.082149 0,0.200595 -0.198,0.36472 -0.44,0.36472 -0.242,0 -0.85743,0.08348 -1.367626,0.185526 -0.922841,0.184567 -0.933606,0.168468 -2.086339,-3.12 z"
       id="path295" />
  </g>
</svg>
