<?xml version="1.0" encoding="UTF-8" standalone="no"?>
<!-- Created with Inkscape (http://www.inkscape.org/) -->

<svg
   xmlns:dc="http://purl.org/dc/elements/1.1/"
   xmlns:cc="http://creativecommons.org/ns#"
   xmlns:rdf="http://www.w3.org/1999/02/22-rdf-syntax-ns#"
   xmlns:svg="http://www.w3.org/2000/svg"
   xmlns="http://www.w3.org/2000/svg"
   xmlns:sodipodi="http://sodipodi.sourceforge.net/DTD/sodipodi-0.dtd"
   xmlns:inkscape="http://www.inkscape.org/namespaces/inkscape"
   width="3.1649611mm"
   height="2.9579606mm"
   viewBox="0 0 3.1649611 2.9579606"
   version="1.1"
   id="svg2908"
   inkscape:version="0.92.3 (2405546, 2018-03-11)"
   sodipodi:docname="symbol-hash.svg">
  <defs
     id="defs2902" />
  <sodipodi:namedview
     id="base"
     pagecolor="#ffffff"
     bordercolor="#666666"
     borderopacity="1.0"
     inkscape:pageopacity="0.0"
     inkscape:pageshadow="2"
     inkscape:zoom="0.35"
     inkscape:cx="-4.0189522"
     inkscape:cy="77.018271"
     inkscape:document-units="mm"
     inkscape:current-layer="layer1"
     showgrid="false"
     fit-margin-top="0"
     fit-margin-left="0"
     fit-margin-right="0"
     fit-margin-bottom="0"
     inkscape:window-width="782"
     inkscape:window-height="516"
     inkscape:window-x="205"
     inkscape:window-y="1048"
     inkscape:window-maximized="0" />
  <metadata
     id="metadata2905">
    <rdf:RDF>
      <cc:Work
         rdf:about="">
        <dc:format>image/svg+xml</dc:format>
        <dc:type
           rdf:resource="http://purl.org/dc/dcmitype/StillImage" />
        <dc:title></dc:title>
      </cc:Work>
    </rdf:RDF>
  </metadata>
  <g
     inkscape:label="Layer 1"
     inkscape:groupmode="layer"
     id="layer1"
     transform="translate(15.945581,-166.25312)">
    <path
       style="fill:#000000;stroke-width:0.26458332"
       d="m -13.952672,166.25545 c -0.02933,0.006 -0.06036,0.0263 -0.09353,0.0594 -0.06658,0.0666 -0.08578,0.14092 -0.08578,0.33486 v 0.2496 l -0.298173,0.0729 c -0.164086,0.0402 -0.307324,0.0647 -0.31781,0.0543 -0.01048,-0.0105 -0.03109,-0.14148 -0.04599,-0.29094 -0.03932,-0.39427 -0.102664,-0.48325 -0.269234,-0.37827 -0.04542,0.0286 -0.06961,0.14439 -0.08475,0.4067 l -0.02119,0.36638 -0.278536,0.0703 c -0.353832,0.0888 -0.514221,0.18997 -0.496611,0.31368 0.01248,0.0876 0.03391,0.0925 0.404626,0.092 l 0.391708,-5.3e-4 v 0.20309 c 0,0.12619 -0.02034,0.20874 -0.05323,0.21808 -0.0291,0.008 -0.131718,0.0363 -0.22841,0.0625 -0.09669,0.0262 -0.220785,0.0855 -0.275435,0.13178 l -0.09922,0.0842 0.100253,0.0847 c 0.07298,0.0618 0.16102,0.0848 0.327628,0.0848 h 0.22841 v 0.26096 c 0,0.3601 0.127237,0.50561 0.303341,0.34624 0.06045,-0.0547 0.07751,-0.1327 0.07751,-0.35605 v -0.28629 l 0.158647,-0.0238 c 0.08731,-0.0131 0.24742,-0.0356 0.355533,-0.0501 l 0.196371,-0.0264 0.0155,0.36742 c 0.01334,0.32476 0.02661,0.3771 0.114205,0.44803 0.07526,0.061 0.118267,0.0701 0.1788,0.0377 0.137247,-0.0734 0.173935,-0.20272 0.160198,-0.56328 l -0.01292,-0.34519 0.23151,-0.0269 c 0.289506,-0.0336 0.370404,-0.0668 0.427881,-0.17415 0.03585,-0.067 0.02803,-0.10825 -0.03721,-0.19586 -0.07244,-0.0973 -0.117098,-0.11263 -0.360185,-0.1235 l -0.278019,-0.0124 -0.02946,-0.21497 c -0.03574,-0.25989 -0.02923,-0.26529 0.396875,-0.32866 0.175766,-0.0262 0.35386,-0.0788 0.395842,-0.11679 0.100417,-0.0909 0.09659,-0.23583 -0.0083,-0.33073 -0.07071,-0.064 -0.129786,-0.0716 -0.370003,-0.0496 -0.157397,0.0144 -0.327468,0.0377 -0.377755,0.0522 -0.08242,0.0237 -0.09623,0.003 -0.14056,-0.21032 -0.04467,-0.2152 -0.114581,-0.31622 -0.202572,-0.29714 z m -0.174149,1.16117 c 0.02043,0 0.03721,0.0935 0.03721,0.20825 v 0.20878 l -0.243396,0.047 c -0.133879,0.0258 -0.28661,0.056 -0.338998,0.0672 -0.0886,0.0189 -0.09508,0.006 -0.09508,-0.18758 v -0.20774 l 0.301791,-0.0682 c 0.165839,-0.0375 0.318052,-0.0677 0.338481,-0.0677 z"
       id="path1093"
       inkscape:connector-curvature="0" />
  </g>
</svg>
