<?xml version="1.0" encoding="UTF-8" standalone="no"?>
<!-- Created with Inkscape (http://www.inkscape.org/) -->

<svg
   xmlns:dc="http://purl.org/dc/elements/1.1/"
   xmlns:cc="http://creativecommons.org/ns#"
   xmlns:rdf="http://www.w3.org/1999/02/22-rdf-syntax-ns#"
   xmlns:svg="http://www.w3.org/2000/svg"
   xmlns="http://www.w3.org/2000/svg"
   xmlns:sodipodi="http://sodipodi.sourceforge.net/DTD/sodipodi-0.dtd"
   xmlns:inkscape="http://www.inkscape.org/namespaces/inkscape"
   width="2.9000587mm"
   height="3.117238mm"
   viewBox="0 0 2.9000587 3.117238"
   version="1.1"
   id="svg17618"
   inkscape:version="0.92.3 (2405546, 2018-03-11)"
   sodipodi:docname="symbol-at.svg">
  <defs
     id="defs17612" />
  <sodipodi:namedview
     id="base"
     pagecolor="#ffffff"
     bordercolor="#666666"
     borderopacity="1.0"
     inkscape:pageopacity="0.0"
     inkscape:pageshadow="2"
     inkscape:zoom="0.35"
     inkscape:cx="-321.66245"
     inkscape:cy="-74.109147"
     inkscape:document-units="mm"
     inkscape:current-layer="layer1"
     showgrid="false"
     fit-margin-top="0"
     fit-margin-left="0"
     fit-margin-right="0"
     fit-margin-bottom="0"
     inkscape:window-width="2560"
     inkscape:window-height="1377"
     inkscape:window-x="1072"
     inkscape:window-y="1072"
     inkscape:window-maximized="1" />
  <metadata
     id="metadata17615">
    <rdf:RDF>
      <cc:Work
         rdf:about="">
        <dc:format>image/svg+xml</dc:format>
        <dc:type
           rdf:resource="http://purl.org/dc/dcmitype/StillImage" />
        <dc:title></dc:title>
      </cc:Work>
    </rdf:RDF>
  </metadata>
  <g
     inkscape:label="Layer 1"
     inkscape:groupmode="layer"
     id="layer1"
     transform="translate(-68.097594,-126.10805)">
    <path
       style="fill:#000000;stroke-width:0.26458332"
       d="m 69.639264,126.10805 c -0.412094,0 -0.460669,0.009 -0.667661,0.12402 -0.575913,0.31908 -0.961726,1.03369 -0.856795,1.58698 0.02204,0.1162 0.115004,0.36002 0.206706,0.54157 0.214805,0.42523 0.385019,0.58676 0.797886,0.75653 0.448429,0.18441 1.070218,0.12252 1.070218,-0.10645 0,-0.12403 -0.08726,-0.16431 -0.454237,-0.21032 -0.620979,-0.0779 -0.893445,-0.25621 -1.110009,-0.72605 -0.119925,-0.2602 -0.13658,-0.33479 -0.116789,-0.52658 0.02806,-0.27188 0.109638,-0.43748 0.338481,-0.68575 0.256392,-0.27815 0.455742,-0.36771 0.813903,-0.36638 0.168431,5.3e-4 0.342234,0.0257 0.402043,0.0584 0.105243,0.0576 0.10546,0.058 -0.06976,0.0889 -0.09651,0.017 -0.26833,0.0778 -0.381373,0.13539 -0.55159,0.28074 -0.756325,0.92002 -0.348814,1.08882 0.189524,0.0785 0.401741,0.0194 0.790131,-0.22066 l 0.14056,-0.0873 -0.0279,0.21238 c -0.02408,0.18139 -0.01656,0.21853 0.05116,0.25477 0.107759,0.0577 0.368779,-0.0352 0.533302,-0.18965 0.25119,-0.23583 0.335423,-0.60668 0.137975,-0.60668 -0.06076,0 -0.08076,0.0184 -0.230476,0.21187 l -0.08165,0.10594 0.04341,-0.19069 c 0.06404,-0.28129 0.02283,-0.72555 -0.0832,-0.8971 -0.04868,-0.0788 -0.17068,-0.19021 -0.270785,-0.24753 -0.161653,-0.0926 -0.231529,-0.10438 -0.626319,-0.10438 z m 0.471805,0.86971 c 0.113646,-0.005 0.205673,0.006 0.205673,0.0382 0,0.0605 -0.394975,0.38824 -0.600479,0.49816 -0.306965,0.16418 -0.472348,0.11674 -0.358119,-0.10284 0.08397,-0.16141 0.23156,-0.29156 0.418063,-0.36948 0.08595,-0.0359 0.221218,-0.0587 0.334862,-0.0641 z"
       id="path1149"
       inkscape:connector-curvature="0" />
  </g>
</svg>
