<?xml version="1.0" encoding="UTF-8" standalone="no"?>
<!-- Created with Inkscape (http://www.inkscape.org/) -->

<svg
   xmlns:dc="http://purl.org/dc/elements/1.1/"
   xmlns:cc="http://creativecommons.org/ns#"
   xmlns:rdf="http://www.w3.org/1999/02/22-rdf-syntax-ns#"
   xmlns:svg="http://www.w3.org/2000/svg"
   xmlns="http://www.w3.org/2000/svg"
   xmlns:sodipodi="http://sodipodi.sourceforge.net/DTD/sodipodi-0.dtd"
   xmlns:inkscape="http://www.inkscape.org/namespaces/inkscape"
   width="2.9602072mm"
   height="0.87538487mm"
   viewBox="0 0 2.9602072 0.87538487"
   version="1.1"
   id="svg22712"
   inkscape:version="0.92.3 (2405546, 2018-03-11)"
   sodipodi:docname="symbol-tilde.svg">
  <defs
     id="defs22706" />
  <sodipodi:namedview
     id="base"
     pagecolor="#ffffff"
     bordercolor="#666666"
     borderopacity="1.0"
     inkscape:pageopacity="0.0"
     inkscape:pageshadow="2"
     inkscape:zoom="0.35"
     inkscape:cx="-352.97734"
     inkscape:cy="33.082568"
     inkscape:document-units="mm"
     inkscape:current-layer="layer1"
     showgrid="false"
     fit-margin-top="0"
     fit-margin-left="0"
     fit-margin-right="0"
     fit-margin-bottom="0"
     inkscape:window-width="2560"
     inkscape:window-height="1377"
     inkscape:window-x="1072"
     inkscape:window-y="1072"
     inkscape:window-maximized="1" />
  <metadata
     id="metadata22709">
    <rdf:RDF>
      <cc:Work
         rdf:about="">
        <dc:format>image/svg+xml</dc:format>
        <dc:type
           rdf:resource="http://purl.org/dc/dcmitype/StillImage" />
        <dc:title></dc:title>
      </cc:Work>
    </rdf:RDF>
  </metadata>
  <g
     inkscape:label="Layer 1"
     inkscape:groupmode="layer"
     id="layer1"
     transform="translate(-76.382993,-156.71104)">
    <path
       style="fill:#000000;stroke-width:0.26458332"
       d="m 78.225379,157.53356 c -0.09086,-0.0338 -0.262906,-0.15796 -0.382333,-0.2759 -0.271069,-0.2677 -0.355899,-0.27223 -0.80154,-0.0428 -0.245832,0.12658 -0.373247,0.16814 -0.486481,0.15866 -0.290005,-0.0243 -0.219078,-0.13096 0.256392,-0.38568 0.65896,-0.35302 0.876503,-0.36363 1.207121,-0.0589 0.166296,0.15329 0.215509,0.17478 0.43697,0.1908 0.224274,0.0162 0.269775,0.005 0.448826,-0.11393 0.220935,-0.14634 0.239549,-0.15094 0.356854,-0.0882 0.111125,0.0595 0.108863,0.29225 -0.004,0.41341 -0.211969,0.22752 -0.704625,0.32418 -1.031799,0.20244 z"
       id="path1107"
       inkscape:connector-curvature="0" />
  </g>
</svg>
