<?xml version="1.0" encoding="UTF-8" standalone="no"?>
<!-- Created with Inkscape (http://www.inkscape.org/) -->

<svg
   xmlns:dc="http://purl.org/dc/elements/1.1/"
   xmlns:cc="http://creativecommons.org/ns#"
   xmlns:rdf="http://www.w3.org/1999/02/22-rdf-syntax-ns#"
   xmlns:svg="http://www.w3.org/2000/svg"
   xmlns="http://www.w3.org/2000/svg"
   xmlns:sodipodi="http://sodipodi.sourceforge.net/DTD/sodipodi-0.dtd"
   xmlns:inkscape="http://www.inkscape.org/namespaces/inkscape"
   width="1.7928897mm"
   height="1.4758873mm"
   viewBox="0 0 1.7928897 1.4758873"
   version="1.1"
   id="svg10817"
   inkscape:version="0.92.3 (2405546, 2018-03-11)"
   sodipodi:docname="symbol-quotes-right.svg">
  <defs
     id="defs10811" />
  <sodipodi:namedview
     id="base"
     pagecolor="#ffffff"
     bordercolor="#666666"
     borderopacity="1.0"
     inkscape:pageopacity="0.0"
     inkscape:pageshadow="2"
     inkscape:zoom="0.35"
     inkscape:cx="-152.32611"
     inkscape:cy="-74.353768"
     inkscape:document-units="mm"
     inkscape:current-layer="layer1"
     showgrid="false"
     fit-margin-top="0"
     fit-margin-left="0"
     fit-margin-right="0"
     fit-margin-bottom="0"
     inkscape:window-width="2560"
     inkscape:window-height="1377"
     inkscape:window-x="1072"
     inkscape:window-y="1072"
     inkscape:window-maximized="1" />
  <metadata
     id="metadata10814">
    <rdf:RDF>
      <cc:Work
         rdf:about="">
        <dc:format>image/svg+xml</dc:format>
        <dc:type
           rdf:resource="http://purl.org/dc/dcmitype/StillImage" />
        <dc:title></dc:title>
      </cc:Work>
    </rdf:RDF>
  </metadata>
  <g
     inkscape:label="Layer 1"
     inkscape:groupmode="layer"
     id="layer1"
     transform="translate(-23.294023,-127.68468)">
    <path
       inkscape:connector-curvature="0"
       style="fill:#000000;stroke-width:0.26458332"
       d="m 24.506444,127.68691 c -0.09849,0.0175 -0.142105,0.13804 -0.04082,0.34572 0.147731,0.30292 0.151019,0.34921 0.03307,0.46715 -0.14071,0.14077 -0.140009,0.32053 0.0021,0.48938 0.195178,0.23196 0.460142,0.16066 0.569473,-0.15296 0.05782,-0.16588 -0.04192,-0.62047 -0.192235,-0.87695 -0.119775,-0.20438 -0.273061,-0.28989 -0.371555,-0.27234 z m -1.119828,0.10646 c -0.121322,0.0177 -0.129037,0.15316 0.01035,0.33589 0.180666,0.23686 0.192181,0.31545 0.06977,0.47594 -0.11952,0.1567 -0.143121,0.3793 -0.05219,0.48886 0.0634,0.0764 0.305584,0.0903 0.428914,0.0243 0.04479,-0.024 0.110051,-0.0994 0.145211,-0.16743 0.182094,-0.35212 -0.07226,-1.0016 -0.443899,-1.13327 -0.06448,-0.0228 -0.11769,-0.0302 -0.158131,-0.0243 z"
       id="path1057" />
  </g>
</svg>
