<?xml version="1.0" encoding="UTF-8" standalone="no"?>
<!-- Created with Inkscape (http://www.inkscape.org/) -->

<svg
   xmlns:dc="http://purl.org/dc/elements/1.1/"
   xmlns:cc="http://creativecommons.org/ns#"
   xmlns:rdf="http://www.w3.org/1999/02/22-rdf-syntax-ns#"
   xmlns:svg="http://www.w3.org/2000/svg"
   xmlns="http://www.w3.org/2000/svg"
   xmlns:sodipodi="http://sodipodi.sourceforge.net/DTD/sodipodi-0.dtd"
   xmlns:inkscape="http://www.inkscape.org/namespaces/inkscape"
   width="0.71972901mm"
   height="2.3886404mm"
   viewBox="0 0 0.71972901 2.3886404"
   version="1.1"
   id="svg20448"
   inkscape:version="0.92.3 (2405546, 2018-03-11)"
   sodipodi:docname="symbol-semicolon.svg">
  <defs
     id="defs20442" />
  <sodipodi:namedview
     id="base"
     pagecolor="#ffffff"
     bordercolor="#666666"
     borderopacity="1.0"
     inkscape:pageopacity="0.0"
     inkscape:pageshadow="2"
     inkscape:zoom="0.35"
     inkscape:cx="-217.2113"
     inkscape:cy="-161.20032"
     inkscape:document-units="mm"
     inkscape:current-layer="layer1"
     showgrid="false"
     fit-margin-top="0"
     fit-margin-left="0"
     fit-margin-right="0"
     fit-margin-bottom="0"
     inkscape:window-width="2560"
     inkscape:window-height="1377"
     inkscape:window-x="1072"
     inkscape:window-y="1072"
     inkscape:window-maximized="1" />
  <metadata
     id="metadata20445">
    <rdf:RDF>
      <cc:Work
         rdf:about="">
        <dc:format>image/svg+xml</dc:format>
        <dc:type
           rdf:resource="http://purl.org/dc/dcmitype/StillImage" />
        <dc:title></dc:title>
      </cc:Work>
    </rdf:RDF>
  </metadata>
  <g
     inkscape:label="Layer 1"
     inkscape:groupmode="layer"
     id="layer1"
     transform="translate(-40.461561,-103.79377)">
    <path
       inkscape:connector-curvature="0"
       style="fill:#000000;stroke-width:0.26458332"
       d="m 40.846541,103.79378 c -0.03785,-2.5e-4 -0.07695,0.007 -0.116787,0.0238 -0.206172,0.0854 -0.277294,0.39709 -0.125058,0.54932 0.104227,0.10422 0.387022,0.11475 0.483692,0.0181 0.215543,-0.21554 0.02315,-0.58948 -0.241847,-0.59117 z m -0.03256,1.16582 c -0.146058,0 -0.336415,0.14955 -0.336415,0.26458 0,0.10113 0.155184,0.28577 0.240298,0.28577 0.08181,0 0.07373,0.021 -0.116274,0.30076 -0.139229,0.20501 -0.162878,0.26591 -0.121955,0.31522 0.08439,0.10169 0.17313,0.0703 0.363802,-0.12867 0.197075,-0.20567 0.340657,-0.57853 0.294037,-0.7643 -0.036,-0.14344 -0.189976,-0.27336 -0.323493,-0.27336 z"
       id="path1145" />
  </g>
</svg>
