<?xml version="1.0" encoding="UTF-8" standalone="no"?>
<!-- Created with Inkscape (http://www.inkscape.org/) -->

<svg
   width="34.537994mm"
   height="34.617191mm"
   viewBox="0 0 34.537994 34.617191"
   version="1.1"
   id="svg5"
   xml:space="preserve"
   inkscape:version="1.2.1 (9c6d41e410, 2022-07-14)"
   sodipodi:docname="symbol-ctd-icon-buff.svg"
   xmlns:inkscape="http://www.inkscape.org/namespaces/inkscape"
   xmlns:sodipodi="http://sodipodi.sourceforge.net/DTD/sodipodi-0.dtd"
   xmlns="http://www.w3.org/2000/svg"
   xmlns:svg="http://www.w3.org/2000/svg"><sodipodi:namedview
     id="namedview7"
     pagecolor="#ffffff"
     bordercolor="#666666"
     borderopacity="1.0"
     inkscape:showpageshadow="2"
     inkscape:pageopacity="0.0"
     inkscape:pagecheckerboard="0"
     inkscape:deskcolor="#d1d1d1"
     inkscape:document-units="mm"
     showgrid="false"
     inkscape:zoom="3.659624"
     inkscape:cx="-30.467611"
     inkscape:cy="47.545868"
     inkscape:window-width="2560"
     inkscape:window-height="1369"
     inkscape:window-x="-8"
     inkscape:window-y="-8"
     inkscape:window-maximized="1"
     inkscape:current-layer="layer1" /><defs
     id="defs2" /><g
     inkscape:label="Layer 1"
     inkscape:groupmode="layer"
     id="layer1"
     transform="translate(-88.254616,-109.96076)"><path
       style="fill:#000000;stroke-width:0.0725714"
       d="m 90.660152,144.46947 c -0.210342,-0.0592 -0.478142,-0.15714 -0.595111,-0.21763 -0.116968,-0.0605 -0.298081,-0.10997 -0.402473,-0.10997 -0.425975,0 -0.969423,-0.56257 -0.975975,-1.01031 -0.0014,-0.0966 -0.09116,-0.39057 -0.199443,-0.65314 -0.773951,-1.87682 0.466304,-3.95321 2.502513,-4.18963 0.289295,-0.0336 0.445962,-0.0908 0.514976,-0.18811 0.08169,-0.11517 0.169703,-0.13554 0.498917,-0.11547 l 0.399728,0.0244 1.601648,-1.66914 c 0.880907,-0.91803 1.814469,-1.8892 2.074584,-2.15816 0.370363,-0.38295 0.453865,-0.50808 0.385006,-0.57694 -0.134715,-0.13471 -0.10462,-0.52611 0.05617,-0.73052 0.127985,-0.16271 0.131719,-0.19347 0.03338,-0.27508 -0.135827,-0.11273 -1.267383,-1.75067 -1.451661,-2.1013 -0.116851,-0.22233 -0.135694,-0.46558 -0.151141,-1.9511 l -0.01765,-1.6971 0.217605,-0.21761 c 0.797367,-0.79736 2.118525,0.22241 2.681422,2.06972 0.215072,0.70582 0.275691,0.82101 0.642564,1.22101 l 0.405088,0.44167 6.584391,-9.46807 c 3.62141,-5.20743 6.83257,-9.7984 7.13591,-10.20215 l 0.55152,-0.73408 0.66552,5.5e-4 c 0.98303,8.1e-4 8.70507,0.21339 8.73206,0.24038 0.027,0.027 0.24151,7.82377 0.24233,8.80878 l 5.8e-4,0.66772 -0.70757,0.52817 c -0.83209,0.62111 -2.41418,1.73281 -2.53,1.77777 -0.0444,0.0172 -0.28758,-0.28884 -0.54043,-0.68016 -1.61698,-2.50252 -1.85737,-2.79814 -2.54555,-3.13031 -1.0515,-0.50754 -2.33343,-0.24331 -3.1475,0.64876 -0.32574,0.35695 -7.26483,10.38983 -7.50605,10.85261 -0.26906,0.5162 -0.32691,1.13863 -0.17851,1.9205 0.0317,0.16713 -1.02204,1.08008 -1.24667,1.08008 -0.021,0 -0.46287,0.30208 -0.98191,0.67129 l -0.9437,0.67128 0.40538,0.36939 c 0.35693,0.32525 0.49828,0.39771 1.18279,0.60628 1.84535,0.5623 2.86473,1.8839 2.06779,2.68084 l -0.21761,0.2176 -1.6971,-0.0177 c -1.48552,-0.0154 -1.72877,-0.0343 -1.9511,-0.15114 -0.35063,-0.18428 -1.98857,-1.31583 -2.1013,-1.45166 -0.0816,-0.0983 -0.11237,-0.0946 -0.275079,0.0334 -0.204412,0.16079 -0.595806,0.19088 -0.730521,0.0562 -0.06886,-0.0689 -0.193992,0.0146 -0.576943,0.385 -0.268958,0.26012 -1.240127,1.19368 -2.158156,2.07459 l -1.669143,1.60164 0.02437,0.39973 c 0.02007,0.32922 -2.97e-4,0.41723 -0.115469,0.49892 -0.0973,0.069 -0.154522,0.22568 -0.188111,0.51498 -0.216698,1.8664 -2.041486,3.12945 -3.804371,2.63324 z m 21.144318,-3.09089 -0.18788,-0.22328 v -4.85672 -4.85671 h -1.81758 -1.81759 l -0.18558,-0.18559 c -0.3449,-0.3449 -0.36866,-0.30478 3.48712,-5.88974 4.30294,-6.23266 4.00679,-5.94888 4.85322,-4.65075 0.21602,0.3313 1.72748,2.64344 3.35879,5.13808 3.88872,5.94673 3.8238,5.51543 0.83019,5.51543 h -1.88685 v 4.86589 c 0,5.14943 -0.003,5.19614 -0.32983,5.3216 -0.0646,0.0248 -1.46717,0.0451 -3.1168,0.0451 h -2.99933 z"
       id="path459" /></g></svg>
