<?xml version="1.0" encoding="UTF-8" standalone="no"?>
<!-- Created with Inkscape (http://www.inkscape.org/) -->

<svg
   xmlns:dc="http://purl.org/dc/elements/1.1/"
   xmlns:cc="http://creativecommons.org/ns#"
   xmlns:rdf="http://www.w3.org/1999/02/22-rdf-syntax-ns#"
   xmlns:svg="http://www.w3.org/2000/svg"
   xmlns="http://www.w3.org/2000/svg"
   xmlns:sodipodi="http://sodipodi.sourceforge.net/DTD/sodipodi-0.dtd"
   xmlns:inkscape="http://www.inkscape.org/namespaces/inkscape"
   width="2.2321525mm"
   height="3.0395007mm"
   viewBox="0 0 2.2321525 3.0395007"
   version="1.1"
   id="svg2325"
   inkscape:version="0.92.3 (2405546, 2018-03-11)"
   sodipodi:docname="symbol-pound.svg">
  <defs
     id="defs2319" />
  <sodipodi:namedview
     id="base"
     pagecolor="#ffffff"
     bordercolor="#666666"
     borderopacity="1.0"
     inkscape:pageopacity="0.0"
     inkscape:pageshadow="2"
     inkscape:zoom="11.2"
     inkscape:cx="6.4932279"
     inkscape:cy="12.575313"
     inkscape:document-units="mm"
     inkscape:current-layer="layer1"
     showgrid="false"
     fit-margin-top="0"
     fit-margin-left="0"
     fit-margin-right="0"
     fit-margin-bottom="0"
     inkscape:window-width="1080"
     inkscape:window-height="1897"
     inkscape:window-x="-8"
     inkscape:window-y="464"
     inkscape:window-maximized="1" />
  <metadata
     id="metadata2322">
    <rdf:RDF>
      <cc:Work
         rdf:about="">
        <dc:format>image/svg+xml</dc:format>
        <dc:type
           rdf:resource="http://purl.org/dc/dcmitype/StillImage" />
        <dc:title></dc:title>
      </cc:Work>
    </rdf:RDF>
  </metadata>
  <g
     inkscape:label="Layer 1"
     inkscape:groupmode="layer"
     id="layer1"
     transform="translate(-44.997017,-31.652877)">
    <path
       style="fill:#000000;stroke-width:0.26458332"
       d="m 46.502478,34.612189 c -0.06531,-0.04306 -0.148765,-0.12115 -0.18545,-0.173526 -0.08376,-0.11959 -0.303471,-0.213287 -0.500133,-0.213287 -0.196297,0 -0.392896,0.08428 -0.580168,0.248704 -0.332595,0.292022 -0.315034,0.03822 0.02746,-0.39687 0.321402,-0.408297 0.532958,-0.847451 0.462875,-0.960852 -0.0357,-0.05776 -0.221419,-0.0044 -0.406683,0.116762 -0.183142,0.119808 -0.201988,0.123926 -0.201988,0.04414 0,-0.0956 0.282006,-0.315362 0.443592,-0.345676 0.128572,-0.02412 0.149074,-0.04434 0.149074,-0.147006 0,-0.06547 -0.04709,-0.175003 -0.104645,-0.243402 -0.218654,-0.259857 -0.249359,-0.526767 -0.0833,-0.724114 0.128196,-0.152353 0.332189,-0.202839 0.541059,-0.133906 0.117433,0.03876 0.17157,0.09702 0.269391,0.289944 0.122214,0.241027 0.137594,0.252002 0.277083,0.197715 0.115453,-0.04493 0.09231,0.09333 -0.02891,0.172759 -0.140478,0.09204 -0.244595,0.03022 -0.3638,-0.216026 -0.109199,-0.225574 -0.224721,-0.285477 -0.437338,-0.226772 -0.246705,0.06812 -0.246904,0.213437 -7.93e-4,0.539134 0.07609,0.100671 0.178604,0.266213 0.227816,0.367873 0.06565,0.135618 0.137449,0.208058 0.269629,0.272047 0.229402,0.111051 0.256644,0.109632 0.357527,-0.01862 0.09494,-0.12069 0.198053,-0.137424 0.236085,-0.03831 0.01672,0.04356 -0.02717,0.120592 -0.123656,0.217082 -0.134451,0.134452 -0.166881,0.14724 -0.320995,0.126569 -0.0943,-0.01265 -0.207664,-0.05578 -0.251939,-0.09584 -0.09005,-0.0815 -0.07485,-0.103962 -0.187725,0.277342 -0.03791,0.128058 -0.07804,0.254085 -0.0892,0.28006 -0.01257,0.0293 0.05388,0.05558 0.17508,0.06925 0.215442,0.02428 0.400706,0.166263 0.486167,0.372586 0.02963,0.07153 0.101176,0.137326 0.178728,0.16436 0.174358,0.06078 0.225724,0.05699 0.305248,-0.02253 0.09007,-0.09007 0.202109,-0.04343 0.184819,0.07695 -0.0283,0.197124 -0.493183,0.276303 -0.724966,0.123478 z"
       id="path1011"
       inkscape:connector-curvature="0" />
  </g>
</svg>
