<?xml version="1.0" encoding="UTF-8" standalone="no"?>
<!-- Created with Inkscape (http://www.inkscape.org/) -->

<svg
   width="34.537994mm"
   height="34.617191mm"
   viewBox="0 0 34.537994 34.617191"
   version="1.1"
   id="svg135"
   xml:space="preserve"
   inkscape:version="1.2.1 (9c6d41e410, 2022-07-14)"
   sodipodi:docname="ctd-icon-buff.svg"
   xmlns:inkscape="http://www.inkscape.org/namespaces/inkscape"
   xmlns:sodipodi="http://sodipodi.sourceforge.net/DTD/sodipodi-0.dtd"
   xmlns="http://www.w3.org/2000/svg"
   xmlns:svg="http://www.w3.org/2000/svg"><sodipodi:namedview
     id="namedview137"
     pagecolor="#ffffff"
     bordercolor="#666666"
     borderopacity="1.0"
     inkscape:showpageshadow="2"
     inkscape:pageopacity="0.0"
     inkscape:pagecheckerboard="0"
     inkscape:deskcolor="#d1d1d1"
     inkscape:document-units="mm"
     showgrid="false"
     inkscape:zoom="1.2938725"
     inkscape:cx="342.76948"
     inkscape:cy="296.7835"
     inkscape:window-width="2560"
     inkscape:window-height="1369"
     inkscape:window-x="-8"
     inkscape:window-y="-8"
     inkscape:window-maximized="1"
     inkscape:current-layer="layer1" /><defs
     id="defs132" /><g
     inkscape:label="Layer 1"
     inkscape:groupmode="layer"
     id="layer1"
     transform="translate(-94.794217,-60.956069)"><path
       style="fill:#000000;stroke-width:0.0725714"
       d="m 97.199753,95.464779 c -0.210342,-0.0592 -0.478142,-0.15714 -0.595111,-0.21763 -0.116968,-0.0605 -0.298081,-0.10997 -0.402473,-0.10997 -0.425975,0 -0.969423,-0.56257 -0.975975,-1.01031 -0.0014,-0.0967 -0.09116,-0.39057 -0.199443,-0.65314 -0.773951,-1.87682 0.466304,-3.95321 2.502513,-4.18963 0.289295,-0.0336 0.445962,-0.0908 0.514976,-0.18811 0.08169,-0.11517 0.169703,-0.13554 0.498917,-0.11547 l 0.399728,0.0244 1.601645,-1.66914 c 0.88091,-0.91803 1.81447,-1.8892 2.07459,-2.15816 0.37036,-0.38295 0.45386,-0.50808 0.385,-0.57694 -0.13471,-0.13471 -0.10462,-0.52611 0.0562,-0.73052 0.12799,-0.16271 0.13172,-0.19347 0.0334,-0.27508 -0.13582,-0.11273 -1.26738,-1.75067 -1.45166,-2.1013 -0.11685,-0.22233 -0.13569,-0.46558 -0.15114,-1.9511 l -0.0177,-1.6971 0.21761,-0.21761 c 0.79736,-0.79736 2.11852,0.22241 2.68142,2.06972 0.21507,0.70582 0.27569,0.82101 0.64256,1.22101 l 0.40509,0.44167 6.58439,-9.46807 c 3.62141,-5.20743 6.83257,-9.7984 7.13591,-10.20215 l 0.55152,-0.73408 0.66552,5.5e-4 c 0.98303,8.1e-4 8.70507,0.21339 8.73206,0.24038 0.027,0.027 0.2415,7.82308 0.24233,8.80658 l 5.8e-4,0.66552 -0.81643,0.61032 c -0.44904,0.33567 -1.51195,1.0931 -2.36204,1.68317 l -1.54561,1.07286 -0.41382,-0.22015 c -1.31885,-0.7016 -4.05915,-0.7281 -5.37785,-0.052 -1.01682,0.52132 -1.6037,1.76901 -1.6037,3.40942 v 0.61992 h -0.51106 c -2.42541,0 -3.75999,1.32574 -3.7745,3.74952 l -0.004,0.64105 -1.99882,1.37801 -1.99882,1.37801 0.44275,0.40594 c 0.40114,0.36779 0.51597,0.42824 1.22209,0.6434 1.84731,0.5629 2.86708,1.88406 2.06971,2.68143 l -0.2176,0.2176 -1.6971,-0.0177 c -1.48552,-0.0154 -1.72877,-0.0343 -1.9511,-0.15114 -0.35063,-0.18428 -1.98857,-1.31583 -2.1013,-1.45166 -0.0816,-0.0983 -0.11237,-0.0946 -0.27508,0.0334 -0.20441,0.16079 -0.5958,0.19088 -0.73052,0.0562 -0.0689,-0.0689 -0.19399,0.0146 -0.57694,0.385 -0.26896,0.26012 -1.24013,1.19368 -2.15816,2.07459 l -1.66914,1.60164 0.0244,0.39973 c 0.0201,0.32922 -3e-4,0.41723 -0.11547,0.49892 -0.0973,0.069 -0.15452,0.22568 -0.18811,0.51498 -0.2167,1.8664 -2.041487,3.12945 -3.804372,2.63324 z m 22.375717,-6.42701 c -0.81902,-0.40861 -0.91128,-0.67509 -0.91128,-2.63208 v -1.57366 h -1.52633 c -1.89846,0 -2.23056,-0.11562 -2.60203,-0.90589 -0.23301,-0.49571 -0.23301,-3.2805 0,-3.77621 0.37147,-0.79027 0.70357,-0.90589 2.60203,-0.90589 h 1.52633 v -1.63519 c 0,-2.01926 0.10538,-2.33461 0.9059,-2.7109 0.49571,-0.23301 3.28049,-0.23301 3.7762,0 0.80052,0.37629 0.9059,0.69164 0.9059,2.7109 v 1.63519 h 1.67148 c 2.05957,0 2.36937,0.10216 2.74718,0.90589 0.23301,0.49571 0.23301,3.2805 0,3.77621 -0.37781,0.80373 -0.68761,0.90589 -2.74718,0.90589 h -1.67148 v 1.56262 c 0,1.9387 -0.1121,2.2652 -0.9059,2.63832 -0.47899,0.22516 -3.32189,0.22878 -3.77082,0.005 z"
       id="path534" /><path
       style="fill:#000000;stroke-width:0.0725714"
       id="path372"
       d="" /></g></svg>
