<?xml version="1.0" encoding="UTF-8" standalone="no"?>
<!-- Created with Inkscape (http://www.inkscape.org/) -->

<svg
   xmlns:dc="http://purl.org/dc/elements/1.1/"
   xmlns:cc="http://creativecommons.org/ns#"
   xmlns:rdf="http://www.w3.org/1999/02/22-rdf-syntax-ns#"
   xmlns:svg="http://www.w3.org/2000/svg"
   xmlns="http://www.w3.org/2000/svg"
   xmlns:sodipodi="http://sodipodi.sourceforge.net/DTD/sodipodi-0.dtd"
   xmlns:inkscape="http://www.inkscape.org/namespaces/inkscape"
   width="1.7971228mm"
   height="3.6388209mm"
   viewBox="0 0 1.7971228 3.6388209"
   version="1.1"
   id="svg1193"
   inkscape:version="0.92.3 (2405546, 2018-03-11)"
   sodipodi:docname="symbol-euro.svg">
  <defs
     id="defs1187" />
  <sodipodi:namedview
     id="base"
     pagecolor="#ffffff"
     bordercolor="#666666"
     borderopacity="1.0"
     inkscape:pageopacity="0.0"
     inkscape:pageshadow="2"
     inkscape:zoom="1.979899"
     inkscape:cx="-45.835617"
     inkscape:cy="-35.007269"
     inkscape:document-units="mm"
     inkscape:current-layer="layer1"
     showgrid="false"
     fit-margin-top="0"
     fit-margin-left="0"
     fit-margin-right="0"
     fit-margin-bottom="0"
     inkscape:window-width="699"
     inkscape:window-height="388"
     inkscape:window-x="153"
     inkscape:window-y="1485"
     inkscape:window-maximized="0" />
  <metadata
     id="metadata1190">
    <rdf:RDF>
      <cc:Work
         rdf:about="">
        <dc:format>image/svg+xml</dc:format>
        <dc:type
           rdf:resource="http://purl.org/dc/dcmitype/StillImage" />
        <dc:title></dc:title>
      </cc:Work>
    </rdf:RDF>
  </metadata>
  <g
     inkscape:label="Layer 1"
     inkscape:groupmode="layer"
     id="layer1"
     transform="translate(-33.11925,-139.45454)">
    <path
       style="fill:#000000;stroke-width:0.26458332"
       d="m 33.893799,139.45454 c -0.08071,-1.6e-4 -0.161486,0.0191 -0.214458,0.0579 -0.08121,0.0594 -0.08147,0.0611 0.0026,0.15865 0.0602,0.0698 0.08141,0.145 0.07183,0.25734 -0.0132,0.15499 -0.0177,0.15917 -0.184483,0.15917 -0.181425,0 -0.416513,0.13094 -0.416513,0.23202 0,0.0876 0.09124,0.10113 0.248563,0.0372 0.177009,-0.0719 0.399529,-0.0767 0.376722,-0.008 -0.0091,0.0272 -0.09077,0.0754 -0.181901,0.10697 -0.217993,0.0755 -0.391777,0.2463 -0.451136,0.44442 -0.0401,0.13384 -0.03533,0.18791 0.02791,0.32815 0.07968,0.17669 0.302479,0.35839 0.49816,0.40617 0.112977,0.0276 0.116273,0.0373 0.116273,0.3204 0,0.16046 -0.01527,0.29145 -0.03411,0.29145 -0.08291,0 -0.178176,-0.12374 -0.275434,-0.35812 -0.05763,-0.13889 -0.124235,-0.25914 -0.148312,-0.26716 -0.08442,-0.0281 -0.105831,0.35111 -0.02894,0.51314 0.07318,0.15423 0.272494,0.33291 0.424265,0.38086 0.06003,0.019 0.100036,0.0912 0.136424,0.24443 0.02839,0.1195 0.07367,0.2434 0.100253,0.27543 0.02659,0.032 0.05431,0.0584 0.06201,0.0584 0.02476,0 0.187585,-0.38972 0.187585,-0.44907 0,-0.0315 0.05224,-0.0699 0.116271,-0.0853 0.272028,-0.0654 0.439848,-0.18787 0.526584,-0.38395 0.09859,-0.22288 0.08203,-0.38226 -0.0615,-0.59325 -0.113207,-0.16641 -0.305884,-0.26665 -0.513664,-0.26665 h -0.152445 v -0.27492 c 0,-0.20429 0.01497,-0.27543 0.05788,-0.27543 0.08833,0 0.274703,0.16247 0.346747,0.30179 0.08253,0.1596 0.14573,0.12016 0.14573,-0.0909 0,-0.21306 -0.181894,-0.42958 -0.421164,-0.50126 -0.105654,-0.0317 -0.171567,-0.0769 -0.171567,-0.11783 0,-0.0534 0.03091,-0.061 0.158647,-0.0387 0.316685,0.0551 0.410003,0.0489 0.425296,-0.0279 0.02021,-0.10156 -0.228044,-0.24422 -0.425296,-0.24443 -0.1533,-1.5e-4 -0.158647,-0.005 -0.158647,-0.14883 0,-0.0818 0.0236,-0.18797 0.05271,-0.23564 0.04502,-0.0737 0.04098,-0.0954 -0.02894,-0.14728 -0.05253,-0.0389 -0.133236,-0.0588 -0.213942,-0.0589 z m -0.223242,1.31155 c 0.06633,-3.2e-4 0.09989,0.0923 0.110072,0.28474 0.01646,0.31068 -0.04519,0.34549 -0.250116,0.14056 -0.151138,-0.15113 -0.153247,-0.18937 -0.01704,-0.32557 0.06566,-0.0657 0.1173,-0.0995 0.157096,-0.0997 z m 0.485759,0.88108 0.139525,0.014 c 0.09263,0.009 0.168312,0.0525 0.225311,0.1292 0.07449,0.10022 0.07888,0.12906 0.03152,0.21755 -0.03003,0.0561 -0.101385,0.12349 -0.158131,0.14935 -0.144406,0.0658 -0.183451,0.0587 -0.183451,-0.032 0,-0.0433 -0.01233,-0.16827 -0.02739,-0.27802 z"
       id="path1027"
       inkscape:connector-curvature="0" />
  </g>
</svg>
