<?xml version="1.0" encoding="UTF-8" standalone="no"?>
<!-- Created with Inkscape (http://www.inkscape.org/) -->

<svg
   width="49.762722mm"
   height="51.603127mm"
   viewBox="0 0 49.762722 51.603127"
   version="1.1"
   id="svg5"
   xml:space="preserve"
   inkscape:version="1.2.1 (9c6d41e410, 2022-07-14)"
   sodipodi:docname="symbol-ctd-icon-cleave.svg"
   xmlns:inkscape="http://www.inkscape.org/namespaces/inkscape"
   xmlns:sodipodi="http://sodipodi.sourceforge.net/DTD/sodipodi-0.dtd"
   xmlns="http://www.w3.org/2000/svg"
   xmlns:svg="http://www.w3.org/2000/svg"><sodipodi:namedview
     id="namedview7"
     pagecolor="#ffffff"
     bordercolor="#666666"
     borderopacity="1.0"
     inkscape:showpageshadow="2"
     inkscape:pageopacity="0.0"
     inkscape:pagecheckerboard="0"
     inkscape:deskcolor="#d1d1d1"
     inkscape:document-units="mm"
     showgrid="false"
     inkscape:zoom="1.2938725"
     inkscape:cx="256.9805"
     inkscape:cy="370.2065"
     inkscape:window-width="2560"
     inkscape:window-height="1369"
     inkscape:window-x="-8"
     inkscape:window-y="-8"
     inkscape:window-maximized="1"
     inkscape:current-layer="layer1" /><defs
     id="defs2" /><g
     inkscape:label="Layer 1"
     inkscape:groupmode="layer"
     id="layer1"
     transform="translate(1.9253051,2.5326915)"><path
       style="fill:#000000;stroke-width:0.999998"
       d="m 6.052794,40.657245 c 0,-0.12283 0.22944,-0.42331 0.74447,-0.97494 1.49142,-1.59742 4.51569,-6.68176 5.56619,-9.35775 1.27703,-3.25305 1.25488,-6.58019 -0.0762,-11.442162 -1.25067,-4.568361 -2.39901,-6.743596 -5.84773,-11.0769816 -0.53203,-0.668503 -0.96732,-1.229244 -0.96732,-1.246091 0,-0.17602 5.84728,-0.561658 6.76937,-0.44645 0.39727,0.04964 0.39727,0.04964 1.70516,2.023105 3.60285,5.4363366 5.1829,8.7909706 6.91129,14.6734696 0.45717,1.55596 0.49668,1.5604 0.3228,0.0363 -0.71119,-6.233843 -1.96631,-9.510848 -5.82005,-15.1956476 -1.11028,-1.637804 -1.25923,-1.516052 1.46886,-1.200579 2.29993,0.265962 2.07828,0.162333 2.60674,1.218718 1.07929,2.1575 2.06308,4.2782016 2.59694,5.5980796 0.6116,1.512082 0.61888,1.505259 0.22654,-0.212297 -0.40901,-1.790553 -0.87428,-3.016175 -1.99252,-5.2487026 -0.23491,-0.468993 -0.39242,-0.852714 -0.35003,-0.852714 0.3706,0 3.79302,0.950095 5.3669,1.489899 3.03962,1.04252 4.84681,3.0576326 9.91079,11.0510716 2.0776,3.279482 1.97296,3.192012 3.52306,2.944972 0.26214,-0.0418 0.26214,-0.0418 0.227,0.32392 -0.0754,0.7844 0.20537,1.03943 1.16989,1.06275 0.44372,0.0107 0.59068,0.0389 0.59068,0.11334 0,0.11608 0.0346,0.0973 -1.74171,0.94784 -0.75837,0.36315 -4.49761,2.16279 -8.30943,3.99922 -3.81181,1.83642 -10.01667,4.8249 -13.78857,6.64106 -8.54307,4.11347 -9.55062,4.60617 -9.88195,4.83236 -0.14644,0.1 -0.28021,0.16778 -0.29729,0.15071 -0.0171,-0.0171 -0.14931,0.0184 -0.29386,0.0788 -0.28714,0.11997 -0.34004,0.13067 -0.34004,0.0688 z m 2.2797,-7.47507 c -0.83066,-0.40986 -1.40381,-1.60475 -1.04893,-2.18678 0.52544,-0.86174 1.78533,-0.31958 2.21846,0.95466 0.30749,0.90462 -0.37534,1.624 -1.16953,1.23212 z m 1.89316,-3.23608 c -1.28507,-0.70648 -1.95645,-3.18884 -1.02715,-3.79774 0.79508,-0.52095 1.52431,0.0846 2.22776,1.84995 0.48321,1.21262 -0.28143,2.45312 -1.20061,1.94779 z m 27.86607,-8.7255 c -0.55023,-0.23975 -0.86839,-0.901242 -0.67627,-1.406022 0.21353,-0.56104 1.10987,-0.9168 1.61376,-0.6405 1.1826,0.64845 0.29596,2.583972 -0.93749,2.046522 z m -1.94748,-2.979682 c -0.5335,-0.49444 0.0378,-1.379731 0.70928,-1.099158 0.29158,0.12183 0.40498,0.302608 0.40498,0.645588 0,0.55822 -0.69575,0.84143 -1.11426,0.45357 z"
       id="path423" /></g></svg>
