<?xml version="1.0" encoding="UTF-8" standalone="no"?>
<!-- Created with Inkscape (http://www.inkscape.org/) -->

<svg
   xmlns:dc="http://purl.org/dc/elements/1.1/"
   xmlns:cc="http://creativecommons.org/ns#"
   xmlns:rdf="http://www.w3.org/1999/02/22-rdf-syntax-ns#"
   xmlns:svg="http://www.w3.org/2000/svg"
   xmlns="http://www.w3.org/2000/svg"
   xmlns:sodipodi="http://sodipodi.sourceforge.net/DTD/sodipodi-0.dtd"
   xmlns:inkscape="http://www.inkscape.org/namespaces/inkscape"
   width="3.4215033mm"
   height="3.3989341mm"
   viewBox="0 0 3.4215033 3.3989341"
   version="1.1"
   id="svg23844"
   inkscape:version="0.92.3 (2405546, 2018-03-11)"
   sodipodi:docname="symbol-copyright.svg">
  <defs
     id="defs23838" />
  <sodipodi:namedview
     id="base"
     pagecolor="#ffffff"
     bordercolor="#666666"
     borderopacity="1.0"
     inkscape:pageopacity="0.0"
     inkscape:pageshadow="2"
     inkscape:zoom="0.35"
     inkscape:cx="-303.53417"
     inkscape:cy="-96.433979"
     inkscape:document-units="mm"
     inkscape:current-layer="layer1"
     showgrid="false"
     fit-margin-top="0"
     fit-margin-left="0"
     fit-margin-right="0"
     fit-margin-bottom="0"
     inkscape:window-width="2560"
     inkscape:window-height="1377"
     inkscape:window-x="1072"
     inkscape:window-y="1072"
     inkscape:window-maximized="1" />
  <metadata
     id="metadata23841">
    <rdf:RDF>
      <cc:Work
         rdf:about="">
        <dc:format>image/svg+xml</dc:format>
        <dc:type
           rdf:resource="http://purl.org/dc/dcmitype/StillImage" />
        <dc:title></dc:title>
      </cc:Work>
    </rdf:RDF>
  </metadata>
  <g
     inkscape:label="Layer 1"
     inkscape:groupmode="layer"
     id="layer1"
     transform="translate(-63.301153,-119.91958)">
    <path
       inkscape:connector-curvature="0"
       style="fill:#000000;stroke-width:0.26458332"
       d="m 65.226106,119.91992 c -0.482226,0.008 -1.012814,0.14297 -1.270206,0.36897 -0.32984,0.28959 -0.652888,0.95785 -0.654741,1.35443 -0.0011,0.23598 0.139478,0.71145 0.272336,0.92191 0.197363,0.31264 0.643975,0.626 1.028361,0.7214 0.08741,0.0217 0.31186,0.0356 0.498677,0.031 0.28825,-0.007 0.382053,-0.0293 0.620635,-0.14676 0.621207,-0.30594 0.944946,-0.75946 0.993738,-1.3932 0.03108,-0.40368 -0.03209,-0.78751 -0.175702,-1.07022 -0.119218,-0.23468 -0.415038,-0.57621 -0.566888,-0.65474 -0.185237,-0.0958 -0.456874,-0.13734 -0.74621,-0.1328 z m -0.450617,0.37103 c 0.06754,-0.003 0.138372,-10e-4 0.212905,0.004 0.484754,0.0339 0.631227,0.0916 0.881602,0.3483 0.282454,0.28956 0.369838,0.55804 0.342615,1.05368 -0.02908,0.52948 -0.21921,0.81296 -0.712618,1.06298 -0.262213,0.13287 -0.502299,0.16029 -0.802535,0.0909 -0.436467,-0.10079 -0.79357,-0.35362 -0.966351,-0.68419 -0.09194,-0.1759 -0.11108,-0.26891 -0.112138,-0.55036 -0.0011,-0.30189 0.01455,-0.37003 0.142629,-0.62528 0.233339,-0.465 0.541155,-0.68139 1.013891,-0.70022 z m 0.228926,0.41496 c -0.542724,0 -0.991161,0.65445 -0.796851,1.16324 0.101322,0.26531 0.205142,0.3805 0.455787,0.5054 0.120904,0.0602 0.268171,0.10916 0.327628,0.10903 0.40258,-8.7e-4 0.771279,-0.34201 0.638204,-0.59066 -0.06244,-0.11666 -0.121285,-0.10934 -0.355018,0.0455 -0.158525,0.105 -0.226306,0.12672 -0.332795,0.10542 -0.183232,-0.0366 -0.315169,-0.12998 -0.391189,-0.27699 -0.08569,-0.1657 -0.04461,-0.34391 0.12402,-0.53898 0.145117,-0.16787 0.251587,-0.1883 0.62012,-0.11938 0.120804,0.0226 0.158428,0.0139 0.179832,-0.0418 0.06507,-0.16957 -0.183917,-0.36071 -0.469738,-0.36071 z"
       id="path1161" />
  </g>
</svg>
