<?xml version="1.0" encoding="UTF-8" standalone="no"?>
<!-- Created with Inkscape (http://www.inkscape.org/) -->

<svg
   xmlns:dc="http://purl.org/dc/elements/1.1/"
   xmlns:cc="http://creativecommons.org/ns#"
   xmlns:rdf="http://www.w3.org/1999/02/22-rdf-syntax-ns#"
   xmlns:svg="http://www.w3.org/2000/svg"
   xmlns="http://www.w3.org/2000/svg"
   xmlns:sodipodi="http://sodipodi.sourceforge.net/DTD/sodipodi-0.dtd"
   xmlns:inkscape="http://www.inkscape.org/namespaces/inkscape"
   width="2.4493141mm"
   height="2.7569952mm"
   viewBox="0 0 2.4493141 2.7569952"
   version="1.1"
   id="svg4591"
   inkscape:version="0.92.3 (2405546, 2018-03-11)"
   sodipodi:docname="symbol-percent.svg">
  <defs
     id="defs4585" />
  <sodipodi:namedview
     id="base"
     pagecolor="#ffffff"
     bordercolor="#666666"
     borderopacity="1.0"
     inkscape:pageopacity="0.0"
     inkscape:pageshadow="2"
     inkscape:zoom="0.35"
     inkscape:cx="-565.37149"
     inkscape:cy="108.06752"
     inkscape:document-units="mm"
     inkscape:current-layer="layer1"
     showgrid="false"
     fit-margin-top="0"
     fit-margin-left="0"
     fit-margin-right="0"
     fit-margin-bottom="0"
     inkscape:window-width="1080"
     inkscape:window-height="1897"
     inkscape:window-x="-8"
     inkscape:window-y="464"
     inkscape:window-maximized="1" />
  <metadata
     id="metadata4588">
    <rdf:RDF>
      <cc:Work
         rdf:about="">
        <dc:format>image/svg+xml</dc:format>
        <dc:type
           rdf:resource="http://purl.org/dc/dcmitype/StillImage" />
        <dc:title></dc:title>
      </cc:Work>
    </rdf:RDF>
  </metadata>
  <g
     inkscape:label="Layer 1"
     inkscape:groupmode="layer"
     id="layer1"
     transform="translate(-132.57895,-174.6692)">
    <path
       inkscape:connector-curvature="0"
       style="fill:#000000;stroke-width:0.26458332"
       d="m 134.72281,174.67166 c -0.0422,0.0104 -0.0733,0.0522 -0.10904,0.12971 -0.0294,0.0637 -0.0963,0.16817 -0.14882,0.23203 -0.0872,0.10592 -0.10844,0.11201 -0.24237,0.0729 -0.17471,-0.0511 -0.54297,0.0207 -0.57826,0.11266 -0.0365,0.0952 0.0707,0.185 0.22118,0.185 0.28292,0 0.2909,0.0321 0.0698,0.29042 -0.53612,0.62636 -1.13265,1.6186 -1.03301,1.71824 0.0374,0.0374 0.10662,0.004 0.38034,-0.1819 0.13341,-0.0906 0.29061,-0.22778 0.34881,-0.30489 0.0582,-0.0771 0.1736,-0.2269 0.25684,-0.33331 0.0832,-0.10642 0.25728,-0.36056 0.38654,-0.56431 0.25536,-0.40254 0.2506,-0.40121 0.41031,-0.0842 0.1357,0.26933 0.34313,0.21676 0.34313,-0.0868 0,-0.11259 -0.16655,-0.38168 -0.30593,-0.49454 l -0.0884,-0.0718 0.0982,-0.17415 c 0.0555,-0.0987 0.13461,-0.1799 0.18294,-0.18707 0.13723,-0.0204 0.12968,-0.10952 -0.0165,-0.19844 -0.0804,-0.0489 -0.13351,-0.0698 -0.1757,-0.0594 z m -1.81178,0.90176 c -0.19403,0 -0.29503,0.10344 -0.32607,0.33486 -0.0247,0.1845 0.0252,0.28176 0.17725,0.34623 0.24314,0.10308 0.56049,-0.11826 0.51263,-0.3576 -0.0394,-0.19713 -0.18128,-0.32349 -0.36381,-0.32349 z m 0.0165,0.18242 c 0.0848,0.002 0.16936,0.0819 0.13384,0.19378 -0.0187,0.0591 -0.0638,0.0894 -0.13281,0.0894 -0.11131,0 -0.16868,-0.0856 -0.12815,-0.1912 0.0252,-0.0656 0.0762,-0.093 0.12712,-0.092 z m 1.66502,0.76636 c -0.29252,-0.0342 -0.61826,0.39059 -0.4222,0.65319 0.0453,0.0607 0.12838,0.12304 0.18448,0.13849 0.22697,0.0625 0.43442,-0.0649 0.49506,-0.30386 0.0538,-0.21211 0.013,-0.34615 -0.13539,-0.44338 -0.0388,-0.0254 -0.0802,-0.0396 -0.12195,-0.0444 z m -0.0992,0.24804 c 0.10488,-0.0178 0.18952,0.11043 0.11834,0.26665 -0.0541,0.11871 -0.14064,0.1317 -0.23617,0.0362 -0.0851,-0.0851 -0.0838,-0.11445 0.0114,-0.23203 0.0345,-0.0427 0.0715,-0.0649 0.10646,-0.0708 z"
       id="path1075" />
  </g>
</svg>
