<?xml version="1.0" encoding="UTF-8" standalone="no"?>
<!-- Created with Inkscape (http://www.inkscape.org/) -->

<svg
   width="49.762722mm"
   height="51.603127mm"
   viewBox="0 0 49.762722 51.603127"
   version="1.1"
   id="svg5"
   xml:space="preserve"
   inkscape:version="1.2.1 (9c6d41e410, 2022-07-14)"
   sodipodi:docname="symbol-ctd-icon-pommel.svg"
   xmlns:inkscape="http://www.inkscape.org/namespaces/inkscape"
   xmlns:sodipodi="http://sodipodi.sourceforge.net/DTD/sodipodi-0.dtd"
   xmlns="http://www.w3.org/2000/svg"
   xmlns:svg="http://www.w3.org/2000/svg"><sodipodi:namedview
     id="namedview7"
     pagecolor="#ffffff"
     bordercolor="#666666"
     borderopacity="1.0"
     inkscape:showpageshadow="2"
     inkscape:pageopacity="0.0"
     inkscape:pagecheckerboard="0"
     inkscape:deskcolor="#d1d1d1"
     inkscape:document-units="mm"
     showgrid="false"
     inkscape:zoom="2.587745"
     inkscape:cx="23.379429"
     inkscape:cy="150.32393"
     inkscape:window-width="2560"
     inkscape:window-height="1369"
     inkscape:window-x="-8"
     inkscape:window-y="-8"
     inkscape:window-maximized="1"
     inkscape:current-layer="layer1" /><defs
     id="defs2" /><g
     inkscape:label="Layer 1"
     inkscape:groupmode="layer"
     id="layer1"
     transform="translate(1.9253051,2.5326915)"><path
       style="fill:#000000;stroke-width:0.999998"
       d="M 21.334691,38.901502 C 15.49617,38.527717 9.6558462,35.677499 10.819049,33.769617 c 0.337219,-0.553104 0.978353,-0.575242 1.637999,-0.05656 1.346629,1.058865 2.244906,1.555169 3.730427,2.061088 4.842638,1.649243 11.492903,1.378381 15.639142,-0.636974 0.698445,-0.339492 1.256451,-0.705672 2.170141,-1.424114 1.382208,-1.086839 2.448625,0.322088 1.235539,1.632366 -2.239599,2.419034 -8.127094,3.925508 -13.897606,3.556077 z m 0.186783,-2.324353 c -3.684979,-0.257862 -8.150466,-1.877271 -9.077373,-3.29191 l -0.108278,-0.165254 0.210541,-0.534786 c 0.385186,-0.978392 0.449237,-1.603238 0.263118,-2.566786 -0.02622,-0.135763 -0.0026,-0.270867 0.06267,-0.358924 l 0.104726,-0.141209 0.462298,0.296067 c 0.816012,0.522597 1.466158,0.897343 1.955586,1.127208 l 0.477288,0.224164 0.153912,0.33349 c 0.45699,0.990182 1.47494,1.965431 2.673209,2.561073 l 0.774494,0.384988 h 0.575909 0.575909 l 0.23836,-0.260096 c 0.131099,-0.143053 0.251914,-0.300755 0.268478,-0.350449 0.01906,-0.05718 0.129035,0.0029 0.299505,0.163713 0.314551,0.296659 0.909608,0.593941 1.428718,0.713766 0.615089,0.14198 1.598367,-0.182726 2.161434,-0.713766 0.170469,-0.160774 0.280446,-0.220888 0.299504,-0.163713 0.01656,0.04969 0.13738,0.207396 0.268478,0.350449 l 0.23836,0.260096 h 0.57591 0.575909 l 0.778648,-0.387054 c 0.54348,-0.270156 0.950687,-0.538652 1.348273,-0.889 0.683385,-0.602189 0.622019,-0.594786 0.68003,-0.08203 0.02613,0.23095 0.179058,0.794286 0.339842,1.251857 0.160784,0.457571 0.309023,0.882616 0.329421,0.944545 0.02891,0.08777 -0.135986,0.170588 -0.747753,0.37556 -2.367922,0.793369 -5.288468,1.120844 -8.187127,0.918006 z m 9.251586,-1.714593 c -0.263917,-0.593812 -0.443201,-1.189454 -0.588414,-1.954902 l -0.140258,-0.739331 0.211715,-0.349241 c 0.116444,-0.192082 0.232946,-0.419725 0.258893,-0.505873 0.02718,-0.09022 0.161383,-0.202297 0.316543,-0.264338 l 0.269364,-0.107706 0.0491,0.862151 c 0.06133,1.07692 0.289322,2.171369 0.614862,2.951532 0.03066,0.07347 -0.645935,0.452422 -0.807775,0.452422 -0.01695,0 -0.09976,-0.155121 -0.184026,-0.344714 z m 1.388817,-0.804316 c -0.268418,-0.751815 -0.438939,-1.640025 -0.490248,-2.553609 l -0.04696,-0.836068 0.463829,-0.280213 c 0.255106,-0.154117 0.671863,-0.412931 0.926127,-0.575141 l 0.462298,-0.294929 0.104725,0.141209 c 0.06531,0.08806 0.0889,0.223161 0.06267,0.358924 C 33.457946,30.9833 33.52215,31.60657 33.90919,32.5896 l 0.212289,0.539186 -0.136599,0.186528 c -0.15369,0.209866 -0.968288,0.844663 -1.379687,1.075158 l -0.270576,0.151595 z m -9.532774,0.24089 c -0.668347,-0.245499 -1.165358,-0.809472 -1.394194,-1.582031 -0.07153,-0.241477 -0.185149,-0.0458 -0.185149,0.318853 v 0.360115 l -0.385107,0.397602 c -0.443048,0.457422 -0.509335,0.469424 -1.185964,0.214742 -1.325903,-0.499069 -2.130384,-1.268073 -2.883441,-2.756284 -0.380868,-0.752678 -0.442646,-0.831655 -0.411569,-0.526142 0.01858,0.182687 0.03497,0.189032 -1.365566,-0.528735 -10.7522142,-5.510453 -8.3392664,-18.439066 3.99444,-21.4022708 0.465893,-0.111932 0.944463,-0.2728566 1.063488,-0.3576104 0.119026,-0.084754 0.284848,-0.1540977 0.368493,-0.1540977 h 0.152083 l 5.08e-4,0.3447143 c 0.0021,1.5165416 3.376664,2.1863986 5.043693,1.0011838 0.461907,-0.3284037 0.615335,-0.5778005 0.615922,-1.0011838 l 4.49e-4,-0.3447143 h 0.152082 c 0.08365,0 0.249468,0.069344 0.368493,0.1540977 0.119026,0.084754 0.597596,0.2456784 1.063489,0.3576104 12.333706,2.9632048 14.746654,15.8918178 3.994439,21.4022708 -1.400537,0.717767 -1.384149,0.711422 -1.365565,0.528735 0.03108,-0.305513 -0.0307,-0.226536 -0.411569,0.526142 -0.753057,1.488211 -1.557538,2.257215 -2.883441,2.756284 -0.676629,0.254682 -0.742916,0.24268 -1.185964,-0.214742 l -0.385107,-0.397602 v -0.360115 c 0,-0.364656 -0.113622,-0.56033 -0.185149,-0.318853 -0.373697,1.261616 -1.533423,1.970058 -2.589794,1.582031 z m -6.635724,-6.101913 c 0.71017,-0.24198 1.097314,-1.024915 0.922702,-1.866016 -0.505569,-2.435314 -3.938918,-4.356172 -5.170372,-2.892672 -1.469415,1.7463 1.925697,5.549863 4.24767,4.758688 z m 0.121524,-0.863947 c 0,-0.01996 0.01633,-0.03628 0.03629,-0.03628 0.01996,0 0.03629,0.01633 0.03629,0.03628 0,0.01996 -0.01633,0.03629 -0.03629,0.03629 -0.01996,0 -0.03629,-0.01633 -0.03629,-0.03629 z m -3.749524,-2.914952 c 0.02661,-0.02661 0.07015,-0.02661 0.09676,0 0.02661,0.02661 0.0048,0.04838 -0.04838,0.04838 -0.05322,0 -0.07499,-0.02177 -0.04838,-0.04838 z m 19.836505,3.656039 c 2.517645,-1.023011 3.79925,-4.188224 2.022592,-4.995248 -1.552771,-0.705326 -4.28358,1.189445 -4.685825,3.251258 -0.299666,1.536021 1.03084,2.40729 2.663233,1.74399 z M 30.266331,27.33327 c 0,-0.01996 0.01633,-0.03628 0.03629,-0.03628 0.01996,0 0.03629,0.01633 0.03629,0.03628 0,0.01996 -0.01633,0.03629 -0.03629,0.03629 -0.01996,0 -0.03629,-0.01633 -0.03629,-0.03629 z m 3.701143,-2.902857 c 0,-0.01996 0.01633,-0.03629 0.03629,-0.03629 0.01996,0 0.03628,0.01633 0.03628,0.03629 0,0.01996 -0.01633,0.03629 -0.03628,0.03629 -0.01996,0 -0.03629,-0.01633 -0.03629,-0.03629 z M 20.58375,26.070794 c 1.122889,-0.509991 0.951633,-2.141496 -0.362758,-3.455886 -1.335635,-1.335635 -3.038851,-1.47847 -3.491656,-0.292818 -0.678715,1.777189 2.146135,4.524566 3.854414,3.748704 z m 6.677649,-0.0096 c 2.380361,-0.817602 3.476827,-3.89495 1.601923,-4.49597 -1.32171,-0.423688 -3.555991,1.409791 -3.726066,3.057655 -0.126131,1.222092 0.843041,1.878345 2.124143,1.438315 z M 15.498046,21.411168 c 1.844235,-0.503764 1.23205,-3.60503 -1.000903,-5.070469 -2.290675,-1.503321 -4.058079,0.164071 -2.7994,2.640991 0.82266,1.618888 2.602446,2.75668 3.800303,2.429478 z m 16.46068,-0.02841 c 2.086084,-0.543356 3.811958,-3.283287 3.031617,-4.81288 -0.767778,-1.504971 -3.283784,-0.743323 -4.561572,1.380884 -1.227295,2.040263 -0.384569,3.930666 1.529955,3.431996 z M 22.570175,9.5885212 c -1.83873,-0.2861738 -2.193931,-1.3814234 -0.611702,-1.8861631 1.430335,-0.4562847 3.590716,0.067878 3.590716,0.8711987 0,0.6514779 -1.666454,1.2192468 -2.979014,1.0149644 z"
       id="path526" /></g></svg>
