<?xml version="1.0" encoding="UTF-8" standalone="no"?>
<!-- Created with Inkscape (http://www.inkscape.org/) -->

<svg
   width="25.120705mm"
   height="32.124916mm"
   viewBox="0 0 25.120705 32.124916"
   version="1.1"
   id="svg5"
   xml:space="preserve"
   inkscape:version="1.2.1 (9c6d41e410, 2022-07-14)"
   sodipodi:docname="symbol-ctd-icon-block.svg"
   xmlns:inkscape="http://www.inkscape.org/namespaces/inkscape"
   xmlns:sodipodi="http://sodipodi.sourceforge.net/DTD/sodipodi-0.dtd"
   xmlns="http://www.w3.org/2000/svg"
   xmlns:svg="http://www.w3.org/2000/svg"><sodipodi:namedview
     id="namedview7"
     pagecolor="#ffffff"
     bordercolor="#666666"
     borderopacity="1.0"
     inkscape:showpageshadow="2"
     inkscape:pageopacity="0.0"
     inkscape:pagecheckerboard="0"
     inkscape:deskcolor="#d1d1d1"
     inkscape:document-units="mm"
     showgrid="false"
     inkscape:zoom="9.603268"
     inkscape:cx="47.43177"
     inkscape:cy="60.708501"
     inkscape:window-width="2560"
     inkscape:window-height="1369"
     inkscape:window-x="-8"
     inkscape:window-y="-8"
     inkscape:window-maximized="1"
     inkscape:current-layer="layer1" /><defs
     id="defs2" /><g
     inkscape:label="Layer 1"
     inkscape:groupmode="layer"
     id="layer1"
     transform="translate(-85.813739,-127.14355)"><path
       style="fill:#000000;stroke-width:0.0725714"
       d="m 96.817358,158.13821 c -8.50654,-6.59784 -10.0206,-8.14349 -10.79583,-11.02105 -0.16767,-0.62239 -0.28583,-12.62341 -0.14574,-14.80249 l 0.0559,-0.86878 0.90714,0.0203 c 0.81994,0.0183 2.036,-0.0482 3.23815,-0.17696 l 0.44414,-0.0476 0.41072,0.78949 c 0.45729,0.87901 1.11329,1.82032 1.20101,1.72337 0.0545,-0.0602 0.19623,-0.90291 0.38903,-2.31262 l 0.0893,-0.65303 0.94196,-0.33256 c 1.98965,-0.70246 3.4794,-1.64932 4.38197,-2.78511 l 0.41928,-0.52762 0.41716,0.53925 c 1.787582,2.31077 5.991292,3.79525 10.747292,3.79525 h 1.31882 l 0.0474,0.88225 c 0.0822,1.52772 0.0551,13.45625 -0.0321,14.17632 -0.16622,1.37203 -1.01323,2.99309 -2.22266,4.25387 l -0.46061,0.48016 -0.95903,-0.30525 c -1.60502,-0.51086 -1.49965,-0.60559 -0.9859,0.8863 0.15448,0.4486 0.28088,0.84535 0.28088,0.88165 0,0.0655 -1.50369,1.35499 -1.78472,1.5305 -0.13112,0.0819 -0.23026,0.0307 -0.94078,-0.48616 -0.43682,-0.31772 -0.91668,-0.65086 -1.06636,-0.7403 l -0.27214,-0.16261 v 0.26875 c 0,0.33298 0.19491,1.6671 0.32578,2.22981 l 0.0973,0.41843 -1.13683,0.89222 c -1.823572,1.43119 -3.350082,2.58927 -3.406692,2.58446 -0.0288,-0.002 -0.70557,-0.51104 -1.50386,-1.13021 z"
       id="path302" /></g></svg>
