<?xml version="1.0" encoding="UTF-8" standalone="no"?>
<!-- Created with Inkscape (http://www.inkscape.org/) -->

<svg
   width="49.762722mm"
   height="51.603127mm"
   viewBox="0 0 49.762722 51.603127"
   version="1.1"
   id="svg5"
   xml:space="preserve"
   inkscape:version="1.2.1 (9c6d41e410, 2022-07-14)"
   sodipodi:docname="symbol-ctd-icon-gigabuff.svg"
   xmlns:inkscape="http://www.inkscape.org/namespaces/inkscape"
   xmlns:sodipodi="http://sodipodi.sourceforge.net/DTD/sodipodi-0.dtd"
   xmlns="http://www.w3.org/2000/svg"
   xmlns:svg="http://www.w3.org/2000/svg"><sodipodi:namedview
     id="namedview7"
     pagecolor="#ffffff"
     bordercolor="#666666"
     borderopacity="1.0"
     inkscape:showpageshadow="2"
     inkscape:pageopacity="0.0"
     inkscape:pagecheckerboard="0"
     inkscape:deskcolor="#d1d1d1"
     inkscape:document-units="mm"
     showgrid="false"
     inkscape:zoom="2.587745"
     inkscape:cx="23.379429"
     inkscape:cy="150.32393"
     inkscape:window-width="2560"
     inkscape:window-height="1369"
     inkscape:window-x="-8"
     inkscape:window-y="-8"
     inkscape:window-maximized="1"
     inkscape:current-layer="layer1" /><defs
     id="defs2" /><g
     inkscape:label="Layer 1"
     inkscape:groupmode="layer"
     id="layer1"
     transform="translate(1.9253051,2.5326915)"><path
       style="fill:#000000;stroke-width:0.999998"
       d="m 9.4778415,39.870908 c -0.1197429,-0.0318 -0.3483429,-0.124082 -0.508,-0.205063 -0.1596571,-0.08098 -0.4082665,-0.168619 -0.5524654,-0.194752 -0.3244089,-0.0588 -0.5267856,-0.272475 -0.545272,-0.575726 -0.00774,-0.127024 -0.097967,-0.459553 -0.2004973,-0.738953 -0.613496,-1.67181 0.443083,-3.416796 2.201284,-3.635514 0.2688732,-0.03345 0.4348352,-0.09506 0.4980662,-0.184895 0.06414,-0.09114 0.18439,-0.134734 0.371608,-0.134734 h 0.276779 l 0.579138,-0.598714 c 2.901514,-2.999595 2.625939,-2.661152 2.41175,-2.961953 -0.15312,-0.215037 -0.168888,-0.509162 -0.04263,-0.795156 0.03191,-0.07227 -0.105396,-0.310347 -0.39761,-0.689428 -0.686949,-0.891162 -0.729459,-1.095653 -0.749893,-3.607351 l -0.004,-0.488317 0.185329,-0.18522 c 0.755873,-0.755428 1.903319,0.0634 2.390869,1.70614 0.228694,0.77056 0.819736,1.699051 0.966962,1.519039 0.01409,-0.01723 0.316659,-0.453525 0.672373,-0.969546 0.355714,-0.516022 0.963864,-1.397765 1.351444,-1.959428 0.387579,-0.561665 1.018642,-1.478408 1.40236,-2.037208 0.383719,-0.5588 0.904619,-1.309914 1.157555,-1.669143 0.252936,-0.359228 0.680481,-0.979714 0.950099,-1.378857 0.269618,-0.399143 0.610294,-0.889 0.757056,-1.088571 0.146764,-0.199572 0.884299,-1.258214 1.638969,-2.352539 0.754669,-1.094325 1.689789,-2.449597 2.078043,-3.011715 0.388254,-0.562117 0.850486,-1.236659 1.027181,-1.498981 0.450151,-0.668294 0.600412,-0.752458 1.314902,-0.73651 3.291822,0.07348 6.974671,0.25699 7.048872,0.351236 0.161945,0.205692 0.323276,7.298093 0.176151,7.743886 -0.07138,0.216276 -0.192156,0.328232 -0.680473,0.63077 -0.326531,0.202303 -0.85495,0.560768 -1.174264,0.796587 -0.66169,0.488671 -0.752186,0.51193 -0.917479,0.235807 -0.06556,-0.109512 -0.408457,-0.62723 -0.762,-1.150484 -0.353544,-0.523254 -0.789764,-1.188928 -0.969378,-1.479274 -0.179614,-0.290348 -0.445194,-0.654167 -0.590176,-0.808487 l -0.263606,-0.280582 h -0.364651 -0.364652 l -0.232507,0.235857 c -0.127879,0.129722 -1.446234,2.064657 -2.929678,4.299857 -1.483445,2.2352 -2.766029,4.161971 -2.850188,4.281714 -0.08416,0.119743 -0.469284,0.695815 -0.855834,1.28016 l -0.702818,1.062445 -0.01892,0.374078 c -0.02047,0.404778 -0.07008,0.478056 -0.530316,0.783223 -0.166919,0.11068 -0.711467,0.491618 -1.210106,0.846528 l -0.906616,0.645291 0.213887,0.152994 c 0.117639,0.08415 0.33806,0.242991 0.489825,0.352986 0.151765,0.109995 0.462236,0.248516 0.689936,0.307824 1.17899,0.307088 1.861831,0.915048 1.862617,1.65836 0.001,0.982806 -0.640814,1.270715 -2.112825,0.947727 -0.294613,-0.06464 -0.789852,-0.141991 -1.100532,-0.171884 -0.609837,-0.05868 -0.823744,-0.171529 -1.606196,-0.84739 l -0.35678,-0.308178 -0.179149,0.140918 C 17.2618,33.676129 17.05978,33.65621 16.706694,33.400434 l -0.304069,-0.220265 -0.994963,0.923465 c -0.54723,0.507906 -1.257223,1.178598 -1.577763,1.490428 -0.320539,0.31183 -0.658027,0.619656 -0.749973,0.684056 -0.12011,0.08413 -0.145021,0.139245 -0.08849,0.195781 0.11116,0.111159 0.09784,0.523994 -0.02007,0.621846 -0.05432,0.04508 -0.11728,0.261446 -0.139922,0.480816 -0.08739,0.84673 -0.640776,1.640813 -1.440514,2.067068 l -0.445782,0.2376 -0.624799,0.02375 c -0.3436388,0.01306 -0.7227697,-0.0023 -0.8425125,-0.03407 z M 27.900692,39.141822 c -0.513371,-0.127713 -1.014147,-0.564756 -1.253837,-1.094265 l -0.147827,-0.326571 -0.0016,-4.118429 -0.0016,-4.118428 H 24.765362 23.034895 L 22.91479,29.351415 c -0.14881,-0.164434 -0.153054,-0.391349 -0.0124,-0.663337 0.08608,-0.16646 3.071566,-4.659801 3.648521,-5.491251 0.121176,-0.174626 0.680984,-1.013929 1.475859,-2.212711 0.09597,-0.144737 0.477091,-0.716237 0.846935,-1.27 0.369845,-0.553765 0.769176,-1.161965 0.887402,-1.351558 0.285687,-0.458141 0.5619,-0.482021 0.839408,-0.07257 0.101446,0.149679 1.107189,1.660072 2.234983,3.356429 1.127795,1.696357 2.646782,3.974472 3.375527,5.062479 1.336463,1.99532 1.491165,2.302166 1.32099,2.620139 l -0.08301,0.155096 h -1.775446 -1.775447 v 4.138902 4.138902 l -0.1124,0.269812 c -0.141212,0.338972 -0.561359,0.778631 -0.939885,0.983532 l -0.290286,0.157137 -2.213429,0.01306 c -1.217385,0.0072 -2.31603,-0.01246 -2.441434,-0.04366 z m -6.771454,-8.260693 c 0.0062,-0.09204 1.359179,-0.999044 1.460968,-0.979422 1.194911,0.230337 1.132692,0.334175 -0.506825,0.845835 -0.598924,0.186912 -0.961183,0.23763 -0.954143,0.133587 z m -4.830237,-4.131244 c -0.02498,-0.152609 -0.155007,-0.653028 -0.288952,-1.112042 -0.703809,-2.411863 -0.8224,-3.119597 -0.687062,-4.100285 0.247814,-1.795716 1.024707,-2.942112 2.190913,-3.232951 0.656745,-0.163785 1.138273,0.07006 0.758844,0.368521 -0.758611,0.596724 -0.578404,2.555947 0.262413,2.852966 0.336628,0.118915 0.797313,-0.740923 0.929004,-1.733924 l 0.08711,-0.656817 -0.116399,-0.515433 c -0.07141,-0.316226 -0.218224,-0.674612 -0.379862,-0.927291 -1.191016,-1.861858 -0.484027,-5.045071 1.120507,-5.045071 0.290775,0 0.327839,0.09088 0.153615,0.376637 -0.390114,0.639862 0.0035,1.727934 0.625162,1.727934 0.564683,0 1.007158,-0.5437 1.004023,-1.233714 l -0.0018,-0.399143 -0.319407,-0.49733 c -0.58344,-0.908444 -0.430805,-1.75637 0.472383,-2.6241884 0.790264,-0.7593166 2.172818,-0.8856953 1.675717,-0.1531766 -0.543708,0.801199 -0.04391,1.859552 0.878159,1.859552 h 0.33337 l 0.321739,-0.335785 c 1.028808,-1.073723 0.726937,-3.0750716 -0.463825,-3.0750716 -0.184817,0 -0.397117,-0.2315091 -0.309317,-0.3373025 0.615443,-0.7415633 2.756583,-0.2942738 3.884276,0.8114348 0.536831,0.5263659 0.670276,0.5615746 0.974686,0.2571644 C 29.664344,8.7645237 29.6659,8.6955476 29.424528,8.1278 28.971141,7.0613417 29.366748,5.9935692 30.450998,5.3572836 31.073036,4.9922435 31.322349,5.0410185 31.093773,5.483035 31.027123,5.6119187 30.974549,5.8834393 30.974549,6.0987498 v 0.38516 l 0.267454,0.3883318 c 0.365783,0.5311004 1.039806,0.9980363 1.505223,1.042757 L 33.100417,7.948937 33.4267,7.6226536 33.752983,7.2963702 V 6.9942047 c 0,-0.3360254 -0.137596,-0.7170428 -0.361942,-1.0022527 -0.41523,-0.5278794 0.913996,-0.2818734 2.171408,0.4018725 1.534386,0.8343563 2.464645,2.0550756 2.736862,3.591407 l 0.124919,0.7050105 -0.126428,0.97874 c -0.208646,1.615243 0.33102,1.310946 0.613364,-0.345853 0.158268,-0.928717 0.544498,-0.696288 0.834415,0.502143 0.960805,3.971677 -1.303573,8.912539 -4.920358,10.736202 -0.601665,0.303374 -0.50465,0.325869 -0.861616,-0.199787 l -0.302786,-0.445871 0.173082,-0.134215 c 0.428737,-0.332464 1.938023,-1.366062 2.107545,-1.443302 0.191824,-0.0874 0.462379,-0.496048 0.564364,-0.852419 0.03117,-0.10892 0.01975,-1.879879 -0.02537,-3.935465 l -0.08204,-3.737428 -0.143421,-0.290286 c -0.232254,-0.470085 -1.457575,-0.589503 -6.529707,-0.636376 l -1.814285,-0.01677 -0.22787,0.124733 c -0.125327,0.0686 -0.373341,0.32986 -0.55114,0.580571 -0.433313,0.611006 -0.820063,1.16332 -1.183083,1.689553 -0.165209,0.239486 -1.193092,1.725386 -2.284184,3.302 -1.091093,1.576614 -2.107866,3.046186 -2.259495,3.265714 -0.151629,0.219529 -0.603532,0.872672 -1.004228,1.451429 -0.400696,0.578757 -0.871986,1.264557 -1.047311,1.524 -0.175324,0.259442 -0.548651,0.798285 -0.829615,1.197428 -0.280965,0.399143 -0.83736,1.201825 -1.236434,1.783738 -0.399074,0.581914 -0.774553,1.098661 -0.834398,1.148328 l -0.108809,0.0903 z m 18.985658,-2.701444 c -0.424852,-0.39687 -0.230828,-1.052198 0.311525,-1.052198 0.533203,0 0.873924,0.655135 0.552944,1.063194 -0.217516,0.276529 -0.561357,0.272155 -0.864469,-0.011 z m 0.938646,-1.12854 c -0.192783,-0.232289 0.09037,-0.589118 0.341821,-0.430765 0.251266,0.158235 0.16175,0.536136 -0.127,0.536136 -0.07005,0 -0.166723,-0.04742 -0.214821,-0.105371 z M 16.223519,16.88239 c -0.461545,-0.498015 -0.02108,-1.579243 0.681745,-1.673512 l 0.290401,-0.03895 0.19509,0.195091 0.195092,0.195091 -0.02973,0.466894 -0.02973,0.466895 -0.28343,0.290258 c -0.359062,0.367714 -0.736029,0.404038 -1.019439,0.09823 z M 17.3232,14.730408 c -0.283492,-0.207295 0.0057,-0.772183 0.300784,-0.587445 0.252561,0.158139 0.15502,0.681738 -0.127,0.681738 -0.02466,0 -0.102859,-0.04243 -0.173784,-0.09429 z M 38.496548,8.788965 c -0.474196,-0.2296097 -0.378726,-1.076264 0.121361,-1.076264 0.380545,0 0.660079,0.7809151 0.372646,1.041038 -0.149788,0.1355558 -0.269216,0.1440718 -0.494007,0.035226 z M 37.756841,7.3854478 C 37.594183,7.178662 37.61514,7.0224385 37.820264,6.9126595 c 0.179348,-0.095984 0.352254,-0.0164 0.402915,0.185449 0.110311,0.4395128 -0.197466,0.6291534 -0.466338,0.2873393 z M 37.118846,6.6638905 c -0.05995,-0.1562372 0.03076,-0.2574752 0.230706,-0.2574752 0.140575,0 0.177146,0.037455 0.177146,0.1814286 0,0.2070347 -0.33371,0.269257 -0.407852,0.076047 z"
       id="path469" /></g></svg>
