<?xml version="1.0" encoding="UTF-8" standalone="no"?>
<!-- Created with Inkscape (http://www.inkscape.org/) -->

<svg
   width="49.762722mm"
   height="51.603127mm"
   viewBox="0 0 49.762722 51.603127"
   version="1.1"
   id="svg5"
   xml:space="preserve"
   inkscape:version="1.2.1 (9c6d41e410, 2022-07-14)"
   sodipodi:docname="symbol-ctd-icon-heal.svg"
   xmlns:inkscape="http://www.inkscape.org/namespaces/inkscape"
   xmlns:sodipodi="http://sodipodi.sourceforge.net/DTD/sodipodi-0.dtd"
   xmlns="http://www.w3.org/2000/svg"
   xmlns:svg="http://www.w3.org/2000/svg"><sodipodi:namedview
     id="namedview7"
     pagecolor="#ffffff"
     bordercolor="#666666"
     borderopacity="1.0"
     inkscape:showpageshadow="2"
     inkscape:pageopacity="0.0"
     inkscape:pagecheckerboard="0"
     inkscape:deskcolor="#d1d1d1"
     inkscape:document-units="mm"
     showgrid="false"
     inkscape:zoom="2.587745"
     inkscape:cx="23.379429"
     inkscape:cy="150.32393"
     inkscape:window-width="2560"
     inkscape:window-height="1369"
     inkscape:window-x="-8"
     inkscape:window-y="-8"
     inkscape:window-maximized="1"
     inkscape:current-layer="layer1" /><defs
     id="defs2" /><g
     inkscape:label="Layer 1"
     inkscape:groupmode="layer"
     id="layer1"
     transform="translate(1.9253051,2.5326915)"><path
       style="fill:#000000;stroke-width:0.999998"
       d="M 20.402615,36.565147 C 19.425236,36.25403 18.650262,35.578675 18.208127,34.652748 l -0.269102,-0.563557 -0.02104,-3.135844 -0.02104,-3.135843 -3.177743,-0.02101 -3.177744,-0.02101 -0.615802,-0.305227 C 10.14941,27.085499 9.6571694,26.585052 9.2818413,25.799034 L 9.0127395,25.235477 v -3.198614 -3.198614 l 0.305227,-0.615974 c 0.3847282,-0.776414 0.8850515,-1.268584 1.6712155,-1.643982 l 0.563557,-0.269102 3.172914,-0.02102 3.172913,-0.02102 0.02023,-0.942171 0.02023,-0.942173 0.388287,0.291903 c 0.715006,0.537519 0.683899,0.240438 -0.09376,-0.89545 L 17.90274,13.296059 v -0.5091 -0.509098 l 0.526143,0.535473 c 0.483452,0.492026 0.997857,0.86243 0.997857,0.718519 0,-0.107996 -0.650452,-1.117186 -1.099603,-1.706059 l -0.440932,-0.578097 0.02908,-0.66493 0.02908,-0.6649299 0.26643,-0.561027 c 0.371843,-0.7829968 0.86429,-1.2836563 1.641311,-1.6686853 l 0.615973,-0.305227 h 3.204086 3.204085 l 0.615974,0.305227 c 0.776414,0.3847282 1.268584,0.8850516 1.643981,1.6712156 l 0.269102,0.5635573 0.02101,3.1721003 0.02101,3.1721 3.141489,0.02104 3.141489,0.02104 0.615799,0.305228 c 0.776238,0.384749 1.268481,0.885199 1.643807,1.671215 l 0.269102,0.563557 v 3.193143 3.193143 l -0.269102,0.563557 c -0.375326,0.786016 -0.867569,1.286465 -1.643807,1.671215 l -0.615799,0.305227 -3.14436,0.02105 -3.14436,0.02105 v 1.203748 1.203746 l -0.53863,-0.511646 c -0.564931,-0.536629 -0.840227,-0.73186 -0.840227,-0.595861 0,0.173213 0.450483,0.950987 0.900124,1.554097 l 0.478733,0.642129 -0.0057,0.480557 c -0.0032,0.264307 -0.0215,0.441845 -0.04077,0.394531 -0.04896,-0.120188 -0.747381,-0.559426 -0.802265,-0.504542 -0.04963,0.04963 0.303091,0.758694 0.647485,1.301614 l 0.220869,0.348189 -0.04258,0.412543 c -0.106289,1.029841 -0.924782,2.104884 -1.989739,2.613406 l -0.563554,0.269102 -3.084285,0.01479 c -2.35235,0.01128 -3.154085,-0.0074 -3.37841,-0.07883 z"
       id="path488" /></g></svg>
