<?xml version="1.0" encoding="UTF-8" standalone="no"?>
<!-- Created with Inkscape (http://www.inkscape.org/) -->

<svg
   xmlns:dc="http://purl.org/dc/elements/1.1/"
   xmlns:cc="http://creativecommons.org/ns#"
   xmlns:rdf="http://www.w3.org/1999/02/22-rdf-syntax-ns#"
   xmlns:svg="http://www.w3.org/2000/svg"
   xmlns="http://www.w3.org/2000/svg"
   xmlns:sodipodi="http://sodipodi.sourceforge.net/DTD/sodipodi-0.dtd"
   xmlns:inkscape="http://www.inkscape.org/namespaces/inkscape"
   width="1.5643731mm"
   height="2.9175336mm"
   viewBox="0 0 1.5643731 2.9175336"
   version="1.1"
   id="svg22146"
   inkscape:version="0.92.3 (2405546, 2018-03-11)"
   sodipodi:docname="symbol-right-curlybrace.svg">
  <defs
     id="defs22140" />
  <sodipodi:namedview
     id="base"
     pagecolor="#ffffff"
     bordercolor="#666666"
     borderopacity="1.0"
     inkscape:pageopacity="0.0"
     inkscape:pageshadow="2"
     inkscape:zoom="0.35"
     inkscape:cx="-358.47221"
     inkscape:cy="28.37076"
     inkscape:document-units="mm"
     inkscape:current-layer="layer1"
     showgrid="false"
     fit-margin-top="0"
     fit-margin-left="0"
     fit-margin-right="0"
     fit-margin-bottom="0"
     inkscape:window-width="2560"
     inkscape:window-height="1377"
     inkscape:window-x="1072"
     inkscape:window-y="1072"
     inkscape:window-maximized="1" />
  <metadata
     id="metadata22143">
    <rdf:RDF>
      <cc:Work
         rdf:about="">
        <dc:format>image/svg+xml</dc:format>
        <dc:type
           rdf:resource="http://purl.org/dc/dcmitype/StillImage" />
        <dc:title></dc:title>
      </cc:Work>
    </rdf:RDF>
  </metadata>
  <g
     inkscape:label="Layer 1"
     inkscape:groupmode="layer"
     id="layer1"
     transform="translate(-77.836844,-153.42223)">
    <path
       style="fill:#000000;stroke-width:0.26458332"
       d="m 77.906589,156.2818 c -0.145647,-0.14564 -0.05442,-0.27728 0.192159,-0.27728 0.08923,0 0.230759,-0.0286 0.314524,-0.0636 0.151609,-0.0633 0.152167,-0.0645 0.12364,-0.26458 -0.08029,-0.56295 -0.07983,-0.63271 0.0047,-0.71469 0.08012,-0.0777 0.07913,-0.0809 -0.06277,-0.20607 -0.144044,-0.12703 -0.144171,-0.12748 -0.140184,-0.49651 0.0044,-0.40302 -0.02432,-0.45264 -0.300958,-0.52063 -0.277326,-0.0682 -0.21436,-0.31621 0.08027,-0.31621 0.428347,0 0.676568,0.32212 0.605036,0.78518 -0.04157,0.26915 -0.0016,0.31548 0.271806,0.31548 0.254685,0 0.406405,0.0867 0.406405,0.23216 0,0.11918 -0.13926,0.23808 -0.405331,0.34606 -0.170254,0.0691 -0.189322,0.09 -0.16791,0.18378 0.06336,0.27757 0.07388,0.59661 0.02368,0.71782 -0.07682,0.18544 -0.296855,0.3045 -0.609079,0.32957 -0.21159,0.017 -0.278665,0.007 -0.336021,-0.0504 z"
       id="path1143"
       inkscape:connector-curvature="0" />
  </g>
</svg>
