<?xml version="1.0" encoding="UTF-8" standalone="no"?>
<!-- Created with Inkscape (http://www.inkscape.org/) -->

<svg
   width="49.762722mm"
   height="51.603127mm"
   viewBox="0 0 49.762722 51.603127"
   version="1.1"
   id="svg5"
   xml:space="preserve"
   inkscape:version="1.2.1 (9c6d41e410, 2022-07-14)"
   sodipodi:docname="symbol-ctd-icon-disarm.svg"
   xmlns:inkscape="http://www.inkscape.org/namespaces/inkscape"
   xmlns:sodipodi="http://sodipodi.sourceforge.net/DTD/sodipodi-0.dtd"
   xmlns="http://www.w3.org/2000/svg"
   xmlns:svg="http://www.w3.org/2000/svg"><sodipodi:namedview
     id="namedview7"
     pagecolor="#ffffff"
     bordercolor="#666666"
     borderopacity="1.0"
     inkscape:showpageshadow="2"
     inkscape:pageopacity="0.0"
     inkscape:pagecheckerboard="0"
     inkscape:deskcolor="#d1d1d1"
     inkscape:document-units="mm"
     showgrid="false"
     inkscape:zoom="2.587745"
     inkscape:cx="23.379429"
     inkscape:cy="150.32393"
     inkscape:window-width="2560"
     inkscape:window-height="1369"
     inkscape:window-x="-8"
     inkscape:window-y="-8"
     inkscape:window-maximized="1"
     inkscape:current-layer="layer1" /><defs
     id="defs2" /><g
     inkscape:label="Layer 1"
     inkscape:groupmode="layer"
     id="layer1"
     transform="translate(1.9253051,2.5326915)"><path
       style="fill:#000000;stroke-width:0.999998"
       d="M 8.4159771,38.299989 C 5.1048131,36.93836 4.7509235,31.581164 8.0415598,32.632043 l 0.1502885,0.048 2.6116347,-3.252636 c 1.436399,-1.788951 2.635991,-3.293184 2.66576,-3.342742 0.03162,-0.05265 -0.03958,-0.226302 -0.171273,-0.417711 -1.481211,-2.152865 -1.404473,-5.168898 0.135278,-5.316849 0.676238,-0.06498 1.092335,0.310808 1.387037,1.252665 0.302199,0.965816 0.92215,2.363612 1.095951,2.471026 0.08613,0.05323 0.08605,0.05236 -0.04224,-0.50082 -0.130415,-0.562339 -0.122283,-0.588289 0.401352,-1.280778 0.226363,-0.299357 0.779698,-1.083128 1.229633,-1.741714 1.37681,-2.015287 2.925182,-4.209143 2.970716,-4.209143 0.02374,0 0.169131,0.73963 0.323101,1.643621 0.273474,1.605623 0.575572,3.073246 0.677474,3.291236 0.03064,0.06555 0.06682,-0.0355 0.09094,-0.254 l 0.04006,-0.362857 0.362857,0.0063 c 0.199571,0.0035 0.934357,0.108724 1.632857,0.233912 0.6985,0.125188 1.275923,0.228489 1.283163,0.22956 0.0072,0.0011 0.02357,0.312261 0.03629,0.691536 l 0.02312,0.689591 -0.286657,-1.45e-4 c -0.60243,-3.63e-4 -0.355469,0.08811 2.137229,0.765453 1.599655,0.434679 1.843351,0.141596 -2.633951,3.167755 -1.485027,1.003713 -2.819049,1.917243 -2.964492,2.030066 -0.316277,0.245342 -0.442284,0.254376 -0.726389,0.05207 -0.387598,-0.275994 -0.304247,-0.08165 0.16634,0.387847 0.499132,0.497976 0.87056,0.771688 1.550206,1.142379 0.744275,0.405941 1.052541,0.833139 1.052014,1.457889 -0.0015,1.741532 -3.059877,1.518692 -4.938387,-0.359818 l -0.41535,-0.415349 -3.50971,2.691415 -3.509709,2.691415 -0.0127,0.566633 c -0.03282,1.464495 -1.0927374,2.165371 -2.4380249,1.612157 z M 33.908128,24.755716 c -1.456872,-0.02682 -2.800437,-0.05324 -2.985701,-0.05871 l -0.336844,-0.01 -1.511752,-2.594428 c -2.283978,-3.919705 -2.422846,-4.169383 -2.422846,-4.35617 0,-0.163425 0.4688,-1.322665 1.042255,-2.577268 l 0.258386,-0.565295 0.634731,0.02101 0.634732,0.02101 0.04721,0.181429 0.04721,0.181428 0.158314,-0.357405 0.158315,-0.357404 0.09604,0.103404 c 0.05282,0.05687 0.39993,0.446305 0.771356,0.865405 1.748491,1.972912 3.282101,3.48483 2.600565,2.563782 -0.538322,-0.727503 -3.053113,-4.336789 -3.093581,-4.439977 -0.02118,-0.05401 0.06869,-0.563515 0.199718,-1.13224 l 0.238229,-1.034045 0.770263,-0.08037 c 0.423645,-0.0442 1.40893,-0.120313 2.189521,-0.169136 l 1.419259,-0.08877 2.756943,2.400966 c 1.516319,1.320531 2.795822,2.447811 2.843339,2.505067 0.08119,0.09783 -1.732518,8.394046 -1.943705,8.890861 l -0.06941,0.163285 -0.926842,-0.01386 c -0.509763,-0.0076 -2.118827,-0.0358 -3.575698,-0.06262 z"
       id="path450" /></g></svg>
