<?xml version="1.0" encoding="UTF-8" standalone="no"?>
<!-- Created with Inkscape (http://www.inkscape.org/) -->

<svg
   xmlns:dc="http://purl.org/dc/elements/1.1/"
   xmlns:cc="http://creativecommons.org/ns#"
   xmlns:rdf="http://www.w3.org/1999/02/22-rdf-syntax-ns#"
   xmlns:svg="http://www.w3.org/2000/svg"
   xmlns="http://www.w3.org/2000/svg"
   xmlns:sodipodi="http://sodipodi.sourceforge.net/DTD/sodipodi-0.dtd"
   xmlns:inkscape="http://www.inkscape.org/namespaces/inkscape"
   width="2.3972182mm"
   height="2.5542667mm"
   viewBox="0 0 2.3972182 2.5542667"
   version="1.1"
   id="svg12206"
   inkscape:version="0.92.3 (2405546, 2018-03-11)"
   sodipodi:docname="t.svg">
  <defs
     id="defs12200" />
  <sodipodi:namedview
     id="base"
     pagecolor="#ffffff"
     bordercolor="#666666"
     borderopacity="1.0"
     inkscape:pageopacity="0.0"
     inkscape:pageshadow="2"
     inkscape:zoom="0.35"
     inkscape:cx="-365.46982"
     inkscape:cy="-158.02981"
     inkscape:document-units="mm"
     inkscape:current-layer="layer1"
     showgrid="false"
     fit-margin-top="0"
     fit-margin-left="0"
     fit-margin-right="0"
     fit-margin-bottom="0"
     inkscape:window-width="2560"
     inkscape:window-height="1377"
     inkscape:window-x="1072"
     inkscape:window-y="1072"
     inkscape:window-maximized="1" />
  <metadata
     id="metadata12203">
    <rdf:RDF>
      <cc:Work
         rdf:about="">
        <dc:format>image/svg+xml</dc:format>
        <dc:type
           rdf:resource="http://purl.org/dc/dcmitype/StillImage" />
        <dc:title></dc:title>
      </cc:Work>
    </rdf:RDF>
  </metadata>
  <g
     inkscape:label="Layer 1"
     inkscape:groupmode="layer"
     id="layer1"
     transform="translate(-79.688294,-104.46701)">
    <path
       inkscape:connector-curvature="0"
       style="fill:#000000;stroke-width:0.26458332"
       d="m 80.905081,106.9257 c -0.04062,-0.0986 -0.128645,-1.26212 -0.128415,-1.69729 l 1.27e-4,-0.24737 -0.402375,0.0302 c -0.281388,0.0211 -0.439584,0.0148 -0.526124,-0.0211 -0.205924,-0.0853 -0.214402,-0.24539 -0.01774,-0.33499 0.137347,-0.0626 1.122466,-0.17233 1.663619,-0.18534 0.358632,-0.009 0.428675,0.001 0.505628,0.0706 0.111985,0.1011 0.114497,0.24329 0.006,0.34145 -0.07885,0.0714 -0.223392,0.0941 -0.658177,0.10342 l -0.169973,0.004 0.05249,0.87841 c 0.06076,1.0169 0.04166,1.15359 -0.16123,1.15359 -0.08939,0 -0.135716,-0.0269 -0.163859,-0.0952 z"
       id="path978" />
  </g>
</svg>
