<?xml version="1.0" encoding="UTF-8" standalone="no"?>
<!-- Created with Inkscape (http://www.inkscape.org/) -->

<svg
   xmlns:dc="http://purl.org/dc/elements/1.1/"
   xmlns:cc="http://creativecommons.org/ns#"
   xmlns:rdf="http://www.w3.org/1999/02/22-rdf-syntax-ns#"
   xmlns:svg="http://www.w3.org/2000/svg"
   xmlns="http://www.w3.org/2000/svg"
   xmlns:sodipodi="http://sodipodi.sourceforge.net/DTD/sodipodi-0.dtd"
   xmlns:inkscape="http://www.inkscape.org/namespaces/inkscape"
   width="2.4454699mm"
   height="2.5538075mm"
   viewBox="0 0 2.4454699 2.5538075"
   version="1.1"
   id="svg15045"
   inkscape:version="0.92.3 (2405546, 2018-03-11)"
   sodipodi:docname="y.svg">
  <defs
     id="defs15039" />
  <sodipodi:namedview
     id="base"
     pagecolor="#ffffff"
     bordercolor="#666666"
     borderopacity="1.0"
     inkscape:pageopacity="0.0"
     inkscape:pageshadow="2"
     inkscape:zoom="0.35"
     inkscape:cx="-336.80721"
     inkscape:cy="-120.88818"
     inkscape:document-units="mm"
     inkscape:current-layer="layer1"
     showgrid="false"
     fit-margin-top="0"
     fit-margin-left="0"
     fit-margin-right="0"
     fit-margin-bottom="0"
     inkscape:window-width="2560"
     inkscape:window-height="1377"
     inkscape:window-x="1072"
     inkscape:window-y="1072"
     inkscape:window-maximized="1" />
  <metadata
     id="metadata15042">
    <rdf:RDF>
      <cc:Work
         rdf:about="">
        <dc:format>image/svg+xml</dc:format>
        <dc:type
           rdf:resource="http://purl.org/dc/dcmitype/StillImage" />
        <dc:title></dc:title>
      </cc:Work>
    </rdf:RDF>
  </metadata>
  <g
     inkscape:label="Layer 1"
     inkscape:groupmode="layer"
     id="layer1"
     transform="translate(-72.104646,-114.29453)">
    <path
       inkscape:connector-curvature="0"
       style="fill:#000000;stroke-width:0.26458332"
       d="m 73.365629,116.79273 c -0.07802,-0.0632 -0.09255,-0.12888 -0.109146,-0.49349 -0.01807,-0.39689 -0.02588,-0.42659 -0.138424,-0.52645 -0.0656,-0.0582 -0.321217,-0.34241 -0.568032,-0.63155 -0.462653,-0.54199 -0.527442,-0.67803 -0.364471,-0.76525 0.1344,-0.0719 0.285775,0.0357 0.770009,0.54769 l 0.441008,0.46625 0.369044,-0.50029 c 0.380637,-0.516 0.493955,-0.61634 0.668253,-0.59171 0.08027,0.0114 0.104378,0.0436 0.11497,0.15378 0.01141,0.11872 -0.04829,0.22556 -0.402167,0.71966 l -0.415568,0.58025 -0.0018,0.4445 c -0.0019,0.46476 -0.04602,0.60997 -0.19731,0.64953 -0.04198,0.011 -0.116835,-0.0128 -0.166335,-0.0529 z"
       id="path1040" />
  </g>
</svg>
