<?xml version="1.0" encoding="UTF-8" standalone="no"?>
<!-- Created with Inkscape (http://www.inkscape.org/) -->

<svg
   xmlns:dc="http://purl.org/dc/elements/1.1/"
   xmlns:cc="http://creativecommons.org/ns#"
   xmlns:rdf="http://www.w3.org/1999/02/22-rdf-syntax-ns#"
   xmlns:svg="http://www.w3.org/2000/svg"
   xmlns="http://www.w3.org/2000/svg"
   xmlns:sodipodi="http://sodipodi.sourceforge.net/DTD/sodipodi-0.dtd"
   xmlns:inkscape="http://www.inkscape.org/namespaces/inkscape"
   width="2.4725373mm"
   height="2.5809464mm"
   viewBox="0 0 2.4725373 2.5809464"
   version="1.1"
   id="svg15611"
   inkscape:version="0.92.3 (2405546, 2018-03-11)"
   sodipodi:docname="z.svg">
  <defs
     id="defs15605" />
  <sodipodi:namedview
     id="base"
     pagecolor="#ffffff"
     bordercolor="#666666"
     borderopacity="1.0"
     inkscape:pageopacity="0.0"
     inkscape:pageshadow="2"
     inkscape:zoom="0.35"
     inkscape:cx="-311.04178"
     inkscape:cy="-200.8369"
     inkscape:document-units="mm"
     inkscape:current-layer="layer1"
     showgrid="false"
     fit-margin-top="0"
     fit-margin-left="0"
     fit-margin-right="0"
     fit-margin-bottom="0"
     inkscape:window-width="2560"
     inkscape:window-height="1377"
     inkscape:window-x="1072"
     inkscape:window-y="1072"
     inkscape:window-maximized="1" />
  <metadata
     id="metadata15608">
    <rdf:RDF>
      <cc:Work
         rdf:about="">
        <dc:format>image/svg+xml</dc:format>
        <dc:type
           rdf:resource="http://purl.org/dc/dcmitype/StillImage" />
        <dc:title></dc:title>
      </cc:Work>
    </rdf:RDF>
  </metadata>
  <g
     inkscape:label="Layer 1"
     inkscape:groupmode="layer"
     id="layer1"
     transform="translate(-65.287544,-93.11429)">
    <path
       inkscape:connector-curvature="0"
       style="fill:#000000;stroke-width:0.26458332"
       d="m 65.661515,95.672628 c -0.03324,-0.01863 -0.06043,-0.09417 -0.06043,-0.167878 0,-0.101526 0.04557,-0.180575 0.187931,-0.32598 0.323825,-0.330759 1.169629,-1.497393 1.112106,-1.53395 -0.02816,-0.0179 -0.340476,-0.03283 -0.694031,-0.03319 -0.675279,-6.88e-4 -0.826495,-0.02827 -0.899151,-0.164024 -0.03418,-0.06387 -0.02675,-0.104427 0.03254,-0.177653 0.06771,-0.08362 0.136696,-0.0997 0.580645,-0.135397 0.277094,-0.02228 0.721419,-0.02691 0.987388,-0.01029 0.436362,0.02726 0.493771,0.04041 0.587942,0.134576 0.08144,0.08144 0.09953,0.13415 0.08235,0.240001 -0.04098,0.252511 -0.339006,0.689108 -1.002585,1.468735 l -0.189026,0.222085 0.381954,-0.02988 c 0.676883,-0.05295 0.990933,0.0395 0.990933,0.291725 0,0.20194 -0.11008,0.225745 -1.114315,0.240971 -0.508099,0.0077 -0.951011,-0.0013 -0.98425,-0.01984 z"
       id="path1032" />
  </g>
</svg>
