<?xml version="1.0" encoding="UTF-8" standalone="no"?>
<!-- Created with Inkscape (http://www.inkscape.org/) -->

<svg
   width="491.91333mm"
   height="34.62867mm"
   viewBox="0 0 491.91333 34.62867"
   version="1.1"
   id="svg5"
   inkscape:version="1.1 (c68e22c387, 2021-05-23)"
   sodipodi:docname="SwordFontCyrillicVectorized.svg"
   xmlns:inkscape="http://www.inkscape.org/namespaces/inkscape"
   xmlns:sodipodi="http://sodipodi.sourceforge.net/DTD/sodipodi-0.dtd"
   xmlns="http://www.w3.org/2000/svg"
   xmlns:svg="http://www.w3.org/2000/svg">
  <sodipodi:namedview
     id="namedview7"
     pagecolor="#ffffff"
     bordercolor="#666666"
     borderopacity="1.0"
     inkscape:pageshadow="2"
     inkscape:pageopacity="0.0"
     inkscape:pagecheckerboard="0"
     inkscape:document-units="mm"
     showgrid="false"
     fit-margin-top="0"
     fit-margin-left="0"
     fit-margin-right="0"
     fit-margin-bottom="0"
     inkscape:zoom="2"
     inkscape:cx="1212.5"
     inkscape:cy="32.5"
     inkscape:window-width="1278"
     inkscape:window-height="632"
     inkscape:window-x="-7"
     inkscape:window-y="0"
     inkscape:window-maximized="0"
     inkscape:current-layer="layer1" />
  <defs
     id="defs2" />
  <g
     inkscape:label="Layer 1"
     inkscape:groupmode="layer"
     id="layer1"
     transform="translate(122.80202,-79.984634)">
    <path
       id="path1355"
       style="fill:#000000;stroke-width:0.32"
       d="M 1045.373 46.777344 C 1045.1163 46.778999 1044.8644 46.789586 1044.6172 46.806641 C 1042.257 46.969463 1036.9966 48.520752 1034.5371 49.779297 C 1032.7268 50.705659 1029.4875 53.814636 1028.0059 56.048828 C 1026.2336 58.721408 1025.543 61.086837 1025.3574 65.113281 C 1025.1661 69.264412 1025.74 72.550884 1027.0547 74.828125 C 1027.5263 75.644919 1029.0391 77.420593 1030.418 78.773438 C 1033.2412 81.543529 1036.401 83.322405 1039.3359 83.794922 L 1039.3359 83.796875 C 1042.1905 84.25639 1046.7178 84.194671 1048.7891 83.669922 C 1052.3611 82.76499 1055.9155 80.762305 1058.3789 78.265625 C 1063.0438 73.537723 1064.9108 67.717071 1063.5 62.300781 C 1062.5241 58.554211 1059.3339 53.20659 1056.5996 50.736328 C 1054.0415 48.425171 1049.2238 46.752518 1045.373 46.777344 z M 1044.1934 51.542969 C 1046.8621 51.508167 1049.5379 52.148467 1051.9375 53.554688 C 1053.6917 54.582719 1056.3645 58.15733 1057.709 61.273438 C 1059.0364 64.349368 1059.0955 67.789378 1057.8652 70.394531 C 1056.0379 74.263785 1052.4665 77.401035 1048.2812 78.8125 C 1045.3368 79.805609 1039.6411 79.705704 1037.0312 78.615234 C 1035.2336 77.864129 1031.2413 74.71685 1030.1602 73.199219 C 1028.6814 71.123351 1028.3714 69.790974 1028.5078 66.103516 C 1028.6165 63.166823 1028.7381 62.611959 1029.7168 60.615234 C 1032.4868 54.963712 1038.3221 51.619532 1044.1934 51.542969 z "
       transform="matrix(0.26458333,0,0,0.26458333,-122.80202,79.984634)" />
    <path
       style="fill:#000000;stroke-width:0.0846667"
       d="m 160.67997,102.59769 c -0.65359,-0.30591 -0.54498,-0.93997 0.16102,-0.93997 0.46735,0 0.84751,-0.18368 1.34762,-0.6511 0.77885,-0.72795 1.50007,-1.904044 1.75983,-2.869744 0.30561,-1.13611 0.61351,-3.19803 0.73222,-4.9035 0.0744,-1.06884 0.11425,-1.09786 1.52082,-1.10795 0.5588,-0.004 2.08442,-0.0376 3.39026,-0.0748 2.72724,-0.0775 2.8018,-0.0637 3.09153,0.5745 0.14002,0.30839 0.16117,0.56782 0.16353,2.00522 0.004,2.1857 -0.15858,6.532094 -0.26444,7.088184 -0.1129,0.59306 -0.30603,0.81968 -0.69851,0.81968 -0.38667,0 -0.55979,-0.16975 -0.65208,-0.63941 -0.0847,-0.43118 -0.10249,-6.441404 -0.0224,-7.585954 l 0.0548,-0.78317 -1.727,0.0104 c -0.94985,0.006 -2.12704,0.0343 -2.61599,0.0635 l -0.889,0.0531 -0.0672,0.71967 c -0.10478,1.12191 -0.55682,3.59699 -0.79511,4.35341 -0.2646,0.83996 -0.43686,1.18714 -0.98104,1.977284 -1.08427,1.57436 -2.52543,2.35087 -3.50882,1.89061 z"
       id="path1353" />
    <path
       style="fill:#000000;stroke-width:0.0846667"
       d="m 130.78797,102.62709 c -0.10313,-0.0722 -0.22845,-0.20784 -0.27849,-0.30134 -0.18076,-0.33775 -0.26863,-1.79163 -0.32183,-5.324654 l -0.0542,-3.59833 -1.43933,1.7e-4 c -0.79164,8e-5 -2.19305,0.0344 -3.11427,0.0762 l -1.67494,0.076 0.0463,0.47415 c 0.0254,0.26078 0.0846,1.42665 0.13145,2.59082 0.0469,1.16416 0.10913,2.68958 0.13836,3.389824 0.0597,1.43101 -0.0161,1.84849 -0.36488,2.00739 -0.17282,0.0787 -0.23509,0.066 -0.37873,-0.0777 -0.0945,-0.0945 -0.20475,-0.32047 -0.24492,-0.50206 -0.0764,-0.34525 -0.21221,-2.262404 -0.29336,-4.140164 -0.0262,-0.60537 -0.0868,-1.83109 -0.1347,-2.72382 -0.10361,-1.93023 -0.0559,-2.15721 0.48546,-2.30753 0.17835,-0.0495 0.49572,-0.0908 0.70527,-0.0918 0.20955,-9.7e-4 1.2573,-0.0768 2.32833,-0.16853 3.59782,-0.30812 5.02272,-0.17247 5.28348,0.50297 0.0504,0.13062 0.0939,2.12818 0.10942,5.02835 l 0.0258,4.811664 -0.23756,0.20484 c -0.27596,0.23798 -0.45551,0.25639 -0.71662,0.0735 z"
       id="path1351" />
    <path
       style="fill:#000000;stroke-width:0.0846667"
       d="m 250.25254,102.87031 c -0.27019,-0.10871 -0.38177,-0.57968 -0.4673,-1.97246 -0.0473,-0.76993 -0.0961,-1.412684 -0.10854,-1.428334 -0.0124,-0.0156 -0.32093,0.0406 -0.68557,0.12503 -0.48215,0.11162 -1.00938,0.15371 -1.93298,0.15431 -1.09062,6.7e-4 -1.3597,-0.0269 -1.905,-0.19549 -0.79182,-0.24478 -1.99014,-0.88647 -2.17106,-1.16257 -0.27537,-0.42027 -0.37721,-4.58041 -0.12769,-5.21651 0.15673,-0.39957 0.60249,-0.50368 0.73032,-0.17057 0.0293,0.0764 0.0716,0.90217 0.0939,1.83495 0.0223,0.93279 0.0607,1.92652 0.0851,2.20829 l 0.0445,0.51232 0.78945,0.26854 c 1.48069,0.50367 2.6892,0.55758 4.25558,0.18984 l 0.77206,-0.18126 0.0287,-2.0941 c 0.0251,-1.83138 0.0475,-2.12283 0.17881,-2.32305 0.10442,-0.15926 0.22283,-0.22894 0.38904,-0.22894 0.277,0 0.45394,0.17577 0.59658,0.59267 0.11653,0.34058 0.24948,3.44385 0.28168,6.575094 l 0.0219,2.13009 -0.20526,0.21941 c -0.19328,0.2066 -0.41834,0.26173 -0.66435,0.16274 z"
       id="path1349" />
    <path
       style="fill:#000000;stroke-width:0.0846667"
       d="m 38.808998,102.79901 c -0.126441,-0.0687 -0.611014,-0.70017 -1.11815,-1.45711 -0.869552,-1.29788 -2.26618,-3.071544 -2.418605,-3.071544 -0.04147,0 -0.334188,0.35243 -0.650494,0.78317 -1.704222,2.320814 -2.509673,3.369724 -2.678236,3.487794 -0.392065,0.27462 -0.781685,0.11876 -0.767655,-0.30709 0.01446,-0.43925 1.106297,-2.321914 2.392248,-4.124984 0.387722,-0.54364 0.668519,-1.01768 0.642688,-1.085 -0.0501,-0.13055 -1.750594,-2.38344 -2.414541,-3.19889 -0.461095,-0.56556 -0.543882,-0.80378 -0.367242,-1.05596 0.36598,-0.52251 1.213739,0.10758 2.83823,2.1095 0.432071,0.53246 0.82368,0.9785 0.870246,0.99122 0.04657,0.0127 0.370417,-0.34269 0.719667,-0.78979 0.957411,-1.22564 1.196374,-1.49729 1.566333,-1.78052 0.481694,-0.36878 0.812411,-0.42258 1.086324,-0.17674 0.393861,0.35349 0.334603,0.70158 -0.223384,1.31204 -0.247168,0.27041 -0.624916,0.72026 -0.839436,0.99966 -0.21452,0.2794 -0.597188,0.7543 -0.850384,1.05534 l -0.460349,0.54735 0.715958,0.80415 c 0.936506,1.05186 1.598058,1.94571 2.315379,3.128414 0.482693,0.79585 0.584226,1.02655 0.584226,1.32746 0,0.58624 -0.39801,0.79827 -0.942823,0.50227 z"
       id="path1347" />
    <path
       style="fill:#000000;stroke-width:0.0846667"
       d="m 286.30597,102.84751 c -0.0958,-0.0958 -0.17426,-0.22179 -0.17438,-0.27999 0,-0.0582 -0.0925,-0.69639 -0.20536,-1.41817 -0.30169,-1.929894 -0.49827,-4.808674 -0.4561,-6.679374 0.0407,-1.80502 0.11217,-2.08363 0.53468,-2.08363 0.41571,0 0.48824,0.27801 0.56325,2.159 0.0773,1.93938 0.29056,4.77985 0.42422,5.651644 l 0.0941,0.61397 1.0915,-1.629974 c 0.60033,-0.89649 1.33027,-1.97288 1.62209,-2.39198 0.29182,-0.4191 0.90684,-1.31445 1.3667,-1.98966 1.27931,-1.87843 1.80145,-2.53843 2.01741,-2.55003 0.53888,-0.029 0.66239,0.12151 0.89021,1.08455 0.45632,1.92892 0.78557,4.42088 0.9566,7.240014 0.11484,1.89266 0.0942,2.05708 -0.29017,2.30891 -0.2491,0.16322 -0.57747,0.0661 -0.76731,-0.22683 -0.17786,-0.27448 -0.36917,-1.46729 -0.52003,-3.242284 -0.13125,-1.54438 -0.46219,-4.63853 -0.50039,-4.67842 -0.0114,-0.012 -0.51124,0.69289 -1.11063,1.56634 -0.59939,0.87344 -1.3008,1.87753 -1.55869,2.23129 -0.2579,0.35377 -0.79275,1.11025 -1.18856,1.681074 -0.39582,0.57082 -1.0059,1.42438 -1.35574,1.89679 -0.58609,0.79142 -0.66057,0.86098 -0.94769,0.88492 -0.22582,0.0188 -0.35953,-0.022 -0.48575,-0.14816 z"
       id="path1345" />
    <path
       style="fill:#000000;stroke-width:0.0846667"
       d="m 303.74386,102.85751 c -0.34076,-0.34076 -0.38422,-0.88792 -0.47532,-5.983414 -0.0291,-1.62983 -0.0691,-2.98052 -0.0888,-3.00153 -0.0197,-0.021 -0.63455,-0.021 -1.36638,0 -2.45451,0.0705 -2.72664,0.0585 -2.86151,-0.12615 -0.17348,-0.23747 -0.14818,-0.45024 0.0808,-0.6792 0.28699,-0.287 0.64983,-0.36733 2.50848,-0.55538 3.81652,-0.38615 7.13021,-0.41971 7.69225,-0.0779 0.46314,0.28165 0.44217,0.8367 -0.0436,1.15486 -0.2093,0.13708 -0.45501,0.15264 -2.40964,0.15264 -1.19712,0 -2.20158,0.0249 -2.23213,0.0554 -0.0306,0.0305 -0.0164,1.00202 0.0315,2.159 0.0479,1.15698 0.11225,3.07791 0.14296,4.268744 0.0497,1.92488 0.0402,2.19539 -0.0851,2.43781 -0.11621,0.22472 -0.41116,0.43472 -0.61058,0.43472 -0.0238,0 -0.15115,-0.10782 -0.28293,-0.23959 z"
       id="path1343" />
    <path
       style="fill:#000000;stroke-width:0.0846667"
       d="m 269.26361,103.12035 c -0.3062,-0.0732 -0.33084,-0.51581 -0.30342,-5.450154 0.0289,-5.20069 0.0163,-5.07177 0.49479,-5.07177 0.29357,0 0.50686,0.21528 1.64242,1.65772 0.8542,1.08503 3.40214,4.80422 3.84558,5.61332 l 0.2245,0.409644 1.0351,-1.871844 c 0.5693,-1.02951 1.45363,-2.71781 1.96519,-3.75178 0.78926,-1.59528 0.97063,-1.90092 1.19778,-2.01838 0.24762,-0.12805 0.29479,-0.12807 0.62944,-2.5e-4 0.30382,0.11603 0.39014,0.20415 0.53907,0.55034 0.37375,0.86882 0.70929,2.68287 0.85419,4.61825 0.0488,0.65193 0.15126,1.78451 0.22765,2.516834 0.15764,1.5112 0.11817,1.81952 -0.25595,1.99932 -0.32303,0.15526 -0.66293,0.007 -0.84143,-0.36749 -0.19372,-0.40626 -0.38017,-1.50468 -0.48144,-2.836334 -0.11839,-1.55672 -0.35312,-4.01484 -0.38691,-4.05188 -0.0152,-0.0166 -0.32004,0.55488 -0.67751,1.27 -0.35746,0.71512 -0.87961,1.70027 -1.16032,2.18922 -0.28071,0.48895 -0.67423,1.17475 -0.87447,1.524004 -0.20025,0.34925 -0.5343,1.00198 -0.74232,1.45051 -0.38274,0.82519 -0.6152,1.08949 -0.95826,1.08949 -0.50469,0 -0.78914,-0.31434 -1.62315,-1.7937 -0.27078,-0.48032 -0.775,-1.313024 -1.12049,-1.850454 -0.34549,-0.53744 -0.83772,-1.31062 -1.09384,-1.71818 -0.65481,-1.04201 -1.10083,-1.66502 -1.19203,-1.66502 -0.0448,0 -0.0799,0.72937 -0.0825,1.7145 -0.007,2.50017 -0.12699,4.959454 -0.26167,5.345974 -0.12349,0.35441 -0.36442,0.55443 -0.6,0.49811 z"
       id="path1341" />
    <path
       style="fill:#000000;stroke-width:0.0846667"
       d="m -32.76142,103.10435 c -0.08782,-0.16982 -0.155101,-0.73069 -0.215824,-1.79916 -0.08996,-1.583134 -0.162348,-2.356724 -0.375014,-4.007774 -0.06598,-0.51223 -0.143933,-1.27423 -0.173236,-1.69333 -0.0293,-0.4191 -0.08705,-1.12103 -0.128312,-1.55985 -0.08791,-0.93471 0.01244,-1.30248 0.397696,-1.45765 0.354347,-0.14271 6.673367,-0.21196 7.080512,-0.0776 0.633603,0.20911 0.871872,0.95159 0.436592,1.36051 -0.287959,0.27053 -0.624052,0.28609 -3.89078,0.18007 -1.488626,-0.0483 -2.72034,-0.0741 -2.737129,-0.0573 -0.05817,0.0582 0.152941,2.49695 0.335144,3.87153 0.249437,1.88185 0.276945,4.907184 0.0478,5.257674 -0.214198,0.32764 -0.603606,0.31907 -0.777452,-0.0171 z"
       id="path1339" />
    <path
       style="fill:#000000;stroke-width:0.0846667"
       d="m -46.265046,103.18625 c -0.09068,-0.0907 -0.202106,-0.30976 -0.24762,-0.48684 -0.129038,-0.50205 -0.258012,-2.41787 -0.309515,-4.597634 -0.02585,-1.09432 -0.08604,-2.64471 -0.133746,-3.44532 -0.09115,-1.52966 -0.06599,-1.71257 0.259478,-1.88675 0.231972,-0.12415 0.562072,0.025 0.716583,0.3238 0.174257,0.33698 0.283853,0.98382 0.446889,2.6376 0.07575,0.76835 0.145887,1.4082 0.155863,1.42188 0.01,0.0137 0.718145,-0.0325 1.573705,-0.10257 0.85556,-0.0701 2.161348,-0.15372 2.901752,-0.18582 l 1.346189,-0.0584 -0.05444,-1.53239 c -0.0589,-1.65814 0.01551,-2.41879 0.26996,-2.7596 0.21204,-0.28401 0.57708,-0.28422 0.784666,-4.2e-4 0.197764,0.27033 0.359232,1.92581 0.540918,5.54566 0.07246,1.44357 0.144814,2.872324 0.160799,3.175014 0.01599,0.30268 -0.0021,0.77893 -0.04015,1.05833 -0.165066,1.21152 -1.234448,1.167 -1.381599,-0.0575 -0.105241,-0.87581 -0.218203,-2.490854 -0.219532,-3.138664 l -0.0013,-0.6562 h -1.764613 c -0.970538,0 -2.281016,0.0248 -2.912174,0.055 l -1.147561,0.055 0.04414,1.871134 c 0.04677,1.98267 -0.0076,2.45193 -0.320258,2.7646 -0.09068,0.0907 -0.241067,0.16486 -0.334201,0.16486 -0.09313,0 -0.243523,-0.0742 -0.3342,-0.16486 z"
       id="path1337" />
    <path
       style="fill:#000000;stroke-width:0.0846667"
       d="m -20.784846,103.36588 c -0.33202,-0.064 -0.494961,-0.1559 -0.668765,-0.37729 -0.183422,-0.23364 -0.25267,-1.87643 -0.2609,-6.189314 -0.0068,-3.53384 0.0055,-3.89911 0.135585,-4.04283 0.282042,-0.31165 0.636592,-0.11405 0.796934,0.44416 0.151951,0.52895 0.245702,2.04161 0.337718,5.44876 0.05026,1.861154 0.09897,3.390884 0.108238,3.399394 0.0093,0.009 0.836007,-0.0363 1.83719,-0.0995 1.001184,-0.0632 1.976493,-0.11659 2.167348,-0.11856 l 0.347015,-0.004 -0.0647,-0.4445 c -0.111117,-0.76336 -0.279138,-4.593894 -0.28503,-6.498174 -0.0061,-1.96885 0.04619,-2.27066 0.423087,-2.44238 0.260571,-0.11872 0.579654,-0.006 0.730301,0.25816 0.07967,0.13967 0.111489,0.61251 0.112793,1.67622 0.001,0.81492 0.03573,2.80564 0.07717,4.42383 l 0.07535,2.942174 h 2.282224 2.282216 l -0.0661,-1.883834 c -0.106994,-3.04936 -0.07745,-6.43587 0.05864,-6.71979 0.22832,-0.47639 0.8536767,-0.47903 1.2067028,-0.005 0.172339,0.23137 0.1796881,0.35526 0.2320036,3.9125 0.029718,2.02046 0.07874,4.084644 0.1089491,4.587074 0.060596,1.00806 0.011515,1.19095 -0.4020312,1.498 -0.2338324,0.17361 -0.3199469,0.17763 -3.9370003,0.1839 -2.033871,0.004 -4.517094,0.0292 -5.518277,0.0571 -1.001183,0.0279 -1.953683,0.025 -2.116667,-0.006 z"
       id="path1335" />
    <path
       style="fill:#000000;stroke-width:0.0846667"
       d="m 260.05923,103.43008 c -1.09068,-0.15263 -2.54143,-1.17777 -3.07844,-2.17529 -0.53646,-0.99653 -0.87014,-3.155774 -0.65955,-4.267994 0.21014,-1.10984 0.70189,-2.26096 1.25336,-2.93396 0.45746,-0.55826 1.47565,-1.3301 2.03139,-1.5399 0.57878,-0.21849 1.29085,-0.19542 1.71859,0.0557 0.27418,0.16095 0.89726,1.02328 0.98507,1.36328 0.12964,0.50202 -0.26134,0.90869 -0.68711,0.7147 -0.11546,-0.0526 -0.35066,-0.29154 -0.52266,-0.53096 l -0.31274,-0.43529 -0.40817,0.0392 c -0.32714,0.0314 -0.51704,0.12281 -0.95653,0.46029 -0.67163,0.51572 -1.01278,0.92866 -1.32055,1.59844 -0.53664,1.1679 -0.63162,2.23891 -0.3244,3.65842 0.25351,1.171374 0.49327,1.577944 1.24932,2.118514 0.60364,0.4316 1.13809,0.5546 1.93434,0.44516 0.62756,-0.0863 0.93342,-0.20481 1.80266,-0.69871 0.58177,-0.33056 0.79708,-0.35581 1.06547,-0.12495 0.20092,0.17283 0.22168,0.23609 0.1692,0.5158 -0.0774,0.41253 -0.63189,0.97303 -1.29121,1.30517 -0.73765,0.37161 -1.81971,0.54829 -2.64804,0.43237 z"
       id="path1333" />
    <path
       id="path1329"
       style="fill:#000000;stroke-width:0.32"
       d="M 894.95117 43.546875 C 891.6692 43.566307 889.50674 44.118262 886.53711 45.595703 C 883.08028 47.315502 881.57617 48.91142 881.57617 50.863281 C 881.57617 51.598702 881.76275 51.924622 882.29688 52.123047 C 883.16749 52.446688 883.65757 52.295714 885.02148 51.287109 C 889.66316 47.854694 897.51468 47.593323 901.63281 50.734375 C 903.69337 52.306016 905.19483 56.139748 905.71875 61.164062 L 905.94141 63.296875 L 904.55859 62.949219 C 902.5791 62.452286 893.03774 62.491466 890.69727 63.005859 C 888.41454 63.507592 885.09034 64.960212 883.56836 66.121094 C 882.27448 67.108004 878.86893 71.607265 878.17773 73.244141 C 877.19037 75.582194 876.98535 77.527231 877.5293 79.398438 C 878.85334 83.952882 883.81424 86.377333 891.8457 86.388672 C 895.8706 86.395286 899.26937 85.643146 902.41602 84.048828 L 904.53516 82.974609 L 904.72852 84.810547 C 904.96198 87.044285 905.42966 88.142182 906.33398 88.580078 C 907.23869 89.018617 907.32643 89.017985 908.30469 88.572266 C 909.92199 87.835371 910.03422 87.368931 911.30078 75.994141 C 912.19846 67.931864 912.31338 65.425266 911.9668 61.5 C 911.40746 55.165285 909.44641 50.19043 906.44531 47.492188 C 905.56529 46.700981 903.74905 45.522937 902.41016 44.873047 C 900.13575 43.769047 899.74307 43.683698 896.43164 43.570312 C 895.91152 43.55252 895.42002 43.544099 894.95117 43.546875 z M 898.66016 67.265625 C 901.41388 67.274472 904.16442 67.470749 905.01172 67.796875 C 905.81491 68.10604 905.87472 68.246835 905.73828 69.503906 C 905.65627 70.257242 905.50307 71.989005 905.39648 73.351562 L 905.20312 75.828125 L 902.36914 77.582031 C 900.8108 78.545962 898.62639 79.648863 897.51562 80.033203 C 894.90688 80.93583 889.03867 81.165406 886.29492 80.472656 C 884.30855 79.971113 882.52015 79.160628 882.14258 78.589844 C 881.34393 77.3827 882.64322 74.256866 885.02734 71.650391 C 887.2443 69.226655 890.05949 67.928781 894.11133 67.464844 C 895.35431 67.322559 897.00792 67.260317 898.66016 67.265625 z "
       transform="matrix(0.26458333,0,0,0.26458333,-122.80202,79.984634)" />
    <path
       id="path1323"
       style="fill:#000000;stroke-width:0.32"
       d="M 837.99805 43.880859 C 834.59455 43.882934 832.36796 44.37423 831.39648 45.345703 L 830.61133 46.130859 L 830.79297 54.183594 C 830.89335 58.611915 831.19618 64.194417 831.4668 66.589844 C 831.73741 68.985271 832.10557 73.739882 832.2832 77.15625 C 832.58409 82.942669 832.97878 86.326377 833.44336 87.078125 C 833.6699 87.444626 834.75276 87.912464 836.77734 88.519531 C 837.76898 88.818114 839.46225 88.913984 842.2168 88.830078 C 845.61852 88.726406 846.64837 88.563415 849.09766 87.740234 C 854.86688 85.801148 858.11236 83.313979 860.23438 79.207031 C 861.12441 77.484323 861.2323 76.97908 861.22852 74.554688 C 861.2247 72.319286 861.07858 71.520644 860.4082 70.074219 C 859.9595 69.106206 859.17482 67.90303 858.66602 67.400391 C 857.53393 66.281991 855.22848 65.082164 853.63477 64.783203 C 852.98253 64.660898 852.38115 64.450516 852.29688 64.314453 C 852.21274 64.178315 853.19829 63.271704 854.48828 62.300781 C 857.25236 60.220378 857.97105 58.976253 858.15625 55.941406 C 858.40695 51.828827 856.72692 48.968923 852.87305 46.949219 C 849.66279 45.2668 847.26872 44.570478 843.36133 44.181641 C 841.33531 43.980003 839.54509 43.879916 837.99805 43.880859 z M 836.81836 49.003906 C 837.83082 49.004961 839.9992 49.172346 842.01953 49.412109 C 845.79216 49.860172 846.48522 50.046194 848.87305 51.242188 C 851.68607 52.651157 852.45703 53.524241 852.45703 55.308594 C 852.45703 56.046849 852.12359 56.531134 850.9375 57.515625 C 847.81262 60.109288 845.65878 61.126012 840.13672 62.611328 C 839.08072 62.89536 837.62339 63.224695 836.89844 63.34375 L 835.58008 63.560547 L 835.38086 60.177734 C 835.27163 58.317111 835.16135 55.067078 835.13867 52.955078 L 835.0957 49.113281 L 836.45898 49.013672 C 836.55265 49.006765 836.67372 49.003756 836.81836 49.003906 z M 838.08203 68.392578 C 840.56112 68.383662 846.97741 69.025144 850.0332 69.621094 C 854.08576 70.411393 855.1001 71.188087 855.52148 73.828125 C 855.69753 74.931105 855.57807 75.508508 854.88086 76.933594 C 854.40985 77.896315 853.57844 79.060772 853.0332 79.519531 C 851.66838 80.667941 848.88919 82.026631 846.2168 82.853516 C 844.02717 83.531185 838.7611 83.984245 837.17578 83.630859 C 836.46712 83.472762 836.45703 83.395519 836.45703 78.419922 C 836.45703 75.64271 836.36421 72.28672 836.25195 70.960938 L 836.04883 68.548828 L 837.44727 68.416016 C 837.61137 68.400365 837.82557 68.3935 838.08203 68.392578 z "
       transform="matrix(0.26458333,0,0,0.26458333,-122.80202,79.984634)" />
    <path
       id="path1319"
       style="fill:#000000;stroke-width:0.32"
       d="M 792.5293 44.566406 C 791.95997 44.563415 791.39443 45.119027 790.95117 46.267578 C 790.42425 47.632857 790.37695 49.211793 790.37695 65.673828 C 790.37695 84.699482 790.51401 87.390583 791.54492 88.701172 L 791.54492 88.703125 C 792.3911 89.777305 793.70294 89.771204 794.7207 88.6875 L 795.49609 87.861328 L 795.4082 70.527344 C 795.31412 52.124748 795.2309 50.051352 794.47852 47.273438 C 793.99739 45.497029 793.26129 44.570252 792.5293 44.566406 z M 758.65625 44.794922 C 756.82589 44.794922 756.77734 45.196053 756.77734 60.378906 C 756.77784 67.911656 756.87428 77.002403 756.99023 80.582031 C 757.23737 88.209723 757.27908 88.325541 760.01758 88.65625 C 763.2218 89.042896 768.84123 88.955479 771.69531 88.474609 C 775.34795 87.859227 779.92652 85.653739 782.1543 83.4375 C 785.43369 80.175087 786.61463 75.260051 784.84375 72.238281 C 784.40094 71.482678 783.25623 70.126303 782.30078 69.222656 C 778.90164 66.007903 775.34243 64.855342 768.77734 64.851562 C 765.70739 64.849069 764.26146 64.984359 763.25781 65.367188 L 761.89648 65.884766 L 761.89258 62.140625 C 761.88653 57.365268 761.37825 49.880323 760.9082 47.642578 C 760.47159 45.564103 759.86281 44.794922 758.65625 44.794922 z M 768.61719 70.554688 C 774.74007 70.55514 775.73723 70.847053 778.52539 73.455078 C 780.46177 75.266341 780.60349 76.261142 779.22656 78.412109 C 778.13735 80.113615 774.6447 82.319973 771.87695 83.056641 C 770.87564 83.323135 768.29272 83.62899 766.13672 83.736328 L 762.2168 83.931641 L 762.2168 77.472656 C 762.2168 71.622462 762.27011 70.991455 762.77734 70.783203 C 763.08535 70.656967 765.71319 70.554461 768.61719 70.554688 z "
       transform="matrix(0.26458333,0,0,0.26458333,-122.80202,79.984634)" />
    <path
       id="path1315"
       style="fill:#000000;stroke-width:0.32"
       d="M 261.80859 48.332031 C 260.37915 48.349925 258.90421 48.601819 257.41602 49.099609 C 254.03021 50.232107 252.696 51.052136 250.27734 53.484375 C 248.14196 55.631751 246.60203 58.36331 245.52344 61.914062 C 244.64 64.822409 244.78304 70.255359 245.85156 74.34375 C 246.79195 77.941913 247.47093 79.278978 249.90625 82.324219 C 251.94111 84.86871 254.49611 86.641902 258.08398 88 C 260.39791 88.874545 260.89206 88.94857 263.81641 88.847656 C 268.56493 88.683889 271.46362 87.376962 273.91602 84.291016 C 275.30734 82.540263 275.68246 80.848997 274.95508 79.607422 C 273.7252 77.508121 272.57971 77.672119 269.69531 80.361328 C 267.82898 82.101423 266.76339 82.676724 264.44922 83.195312 C 261.40948 83.876535 256.62426 81.957349 254.08789 79.039062 C 252.19448 76.860505 251.62846 75.785529 251.02148 73.210938 C 250.17375 69.615133 249.13647 69.950532 260.2168 70.234375 C 276.82737 70.659685 275.40073 70.723221 276.48438 69.509766 C 277.08657 68.835422 277.41602 68.115543 277.41602 67.480469 C 277.41602 65.901798 274.55319 57.335201 273.32422 55.238281 C 270.67147 50.712012 266.47812 48.273577 261.80859 48.332031 z M 261.81641 53.998047 C 262.23891 54.003284 262.62812 54.050321 262.9707 54.144531 C 266.65827 55.158616 268.53234 57.279124 270.06445 62.166016 C 270.40728 63.259471 270.69112 64.245989 270.69336 64.359375 C 270.69563 64.472761 267.85295 64.55834 264.37695 64.550781 C 260.90095 64.542466 256.29675 64.645124 254.14453 64.779297 L 250.23047 65.023438 L 250.73438 63.308594 C 251.4629 60.827939 253.02475 58.042336 254.33203 56.894531 C 256.29369 55.172165 259.5349 53.969768 261.81641 53.998047 z "
       transform="matrix(0.26458333,0,0,0.26458333,-122.80202,79.984634)" />
    <path
       style="fill:#000000;stroke-width:0.0846667"
       d="m -69.599207,103.34665 c -0.146706,-0.16211 -0.17205,-0.37307 -0.231897,-1.93027 -0.03695,-0.96155 -0.07519,-3.310384 -0.08497,-5.219614 -0.01982,-3.86974 -0.0093,-3.95515 0.49514,-4.00461 0.573318,-0.0562 0.64555,0.27753 0.756736,3.49661 0.03217,0.93133 0.06695,1.70217 0.07728,1.71298 0.01034,0.0108 0.243713,-0.25376 0.518612,-0.58791 0.274897,-0.33416 1.127093,-1.24933 1.893769,-2.03373 0.766676,-0.78439 1.44819,-1.5036 1.514477,-1.59824 0.06629,-0.0946 0.274592,-0.28367 0.462901,-0.42008 0.630109,-0.45645 1.25122,-0.25294 1.245613,0.40814 -0.0015,0.17463 -0.0592,0.3937 -0.128276,0.48684 -0.06907,0.0931 -1.101764,1.14674 -2.294875,2.34134 l -2.169293,2.17201 0.286156,0.14798 c 0.828215,0.42828 4.067106,3.299244 4.359911,3.864634 0.388583,0.75033 -0.305362,1.37568 -1.024597,0.92332 -0.1397,-0.0879 -1.19794,-1.04187 -2.351645,-2.12002 -1.153705,-1.078154 -2.134947,-1.937224 -2.180538,-1.909044 -0.05088,0.0314 -0.07733,0.80257 -0.06848,1.996684 0.01356,1.83033 0.0043,1.95902 -0.156206,2.17494 -0.228268,0.30704 -0.686485,0.35588 -0.919824,0.098 z"
       id="path1313" />
    <path
       style="fill:#000000;stroke-width:0.0846667"
       d="m 204.80865,103.57541 c -0.14016,-0.0629 -0.76362,-0.64391 -1.38547,-1.29116 -0.62185,-0.64724 -1.49778,-1.51932 -1.9465,-1.93796 l -0.81587,-0.761164 -0.0423,1.569504 c -0.0467,1.72975 -0.12739,2.02714 -0.55033,2.02714 -0.43167,0 -0.66149,-0.78718 -0.77126,-2.64168 -0.0553,-0.933974 -0.0674,-0.984534 -0.21207,-0.883224 -0.0844,0.0591 -0.7168,0.623724 -1.40537,1.254704 -1.88725,1.72939 -2.37182,2.0985 -2.75661,2.09979 -0.25681,8.7e-4 -0.33773,-0.0393 -0.41334,-0.20527 -0.0791,-0.17363 -0.0577,-0.26839 0.13535,-0.59772 0.22364,-0.38161 2.18945,-2.364164 3.57357,-3.603984 l 0.69028,-0.61831 -0.81326,-0.89466 c -1.15021,-1.26534 -2.39502,-2.46689 -2.81274,-2.71499 -0.69096,-0.41038 -0.85604,-0.74174 -0.52072,-1.04521 0.20046,-0.18142 0.33391,-0.17663 0.8915,0.032 0.71493,0.26749 1.3611,0.73301 2.50967,1.80803 l 1.05833,0.99057 0.0455,-1.63353 c 0.0502,-1.80257 0.12534,-2.12177 0.50985,-2.16669 0.12922,-0.0151 0.27331,0.0388 0.36001,0.13456 0.1751,0.19348 0.37589,1.47912 0.46292,2.96394 l 0.061,1.04133 1.143,-0.89981 c 0.62865,-0.49489 1.63532,-1.28734 2.23706,-1.76099 0.60172,-0.47366 1.23037,-0.94672 1.397,-1.05126 0.58532,-0.36722 1.10728,-0.17298 1.10728,0.41206 0,0.29671 -0.0559,0.3951 -0.4445,0.78246 -0.24448,0.24369 -0.79102,0.70793 -1.21453,1.03165 -0.42352,0.32371 -1.42741,1.10166 -2.23087,1.72877 l -1.46085,1.14021 0.28354,0.24525 c 2.10529,1.82099 3.95756,3.700894 4.24658,4.309964 0.385,0.81133 -0.15273,1.47811 -0.91587,1.13567 z"
       id="path1311" />
    <path
       id="path1307"
       style="fill:#000000;stroke-width:0.32"
       d="M 645.46289 46.566406 C 643.24789 46.581011 639.83666 46.903282 634.31836 47.550781 C 631.38079 47.895474 630.36678 50.127993 632.61719 51.294922 C 633.78205 51.898323 635.22687 51.901716 642.82031 51.314453 L 645.50586 51.107422 L 645.26562 54.429688 C 644.8954 59.549549 645.00459 85.823553 645.40234 87.300781 C 645.82855 88.883534 646.27813 89.252334 648.19922 89.601562 C 650.30232 89.983862 654.80345 89.720156 656.9375 89.089844 C 657.9055 88.80396 660.07641 87.864 661.76367 87 C 668.01503 83.798891 671.60637 78.643965 671.9082 72.435547 C 672.03707 69.784926 671.97051 69.340522 671.1875 67.595703 C 670.71326 66.538947 669.79615 65.166314 669.15039 64.544922 C 667.67583 63.125936 663.99867 61.249971 661.74023 60.765625 C 659.30238 60.242803 653.98184 60.550135 651.97656 61.330078 L 650.375 61.953125 L 650.49219 56.044922 C 650.61878 49.651586 650.36739 47.981612 649.16406 47.230469 C 648.44148 46.779459 647.4173 46.55352 645.46289 46.566406 z M 657.62305 66.292969 C 659.68241 66.256811 661.47835 66.653787 663.19727 67.5 C 664.89535 68.335956 665.31769 68.720437 665.92578 69.976562 C 666.56815 71.303479 666.6093 71.638572 666.30078 73.109375 C 665.82254 75.389451 664.78573 77.47167 663.27539 79.1875 C 661.94109 80.703355 658.48831 82.908148 655.92383 83.882812 C 655.1029 84.194813 653.48329 84.547338 652.32422 84.666016 L 650.2168 84.882812 L 650.2168 76.019531 C 650.2168 71.144833 650.33172 67.227524 650.47266 67.314453 C 650.61355 67.401533 652.01864 67.181384 653.59375 66.824219 C 655.05798 66.492338 656.38743 66.314663 657.62305 66.292969 z "
       transform="matrix(0.26458333,0,0,0.26458333,-122.80202,79.984634)" />
    <path
       id="path1303"
       style="fill:#000000;stroke-width:0.32"
       d="M 1743.9824 29.113281 C 1743.4115 29.113281 1741.7363 30.794211 1741.7363 31.367188 C 1741.7363 31.932265 1740.5247 32.273694 1736.7656 32.763672 C 1729.7101 33.683269 1725.0746 35.27017 1720.3477 38.384766 C 1714.0062 42.563185 1709.7534 49.297123 1708.418 57.273438 C 1707.9055 60.334137 1707.9142 66.479744 1708.4355 68.914062 C 1709.5472 74.104034 1712.0388 78.628768 1716.0605 82.761719 C 1719.2151 86.003495 1723.9144 88.847106 1727.5898 89.738281 C 1733.9229 91.273828 1740.5658 88.925695 1744.5684 83.736328 C 1747.5662 79.849613 1748.8792 75.84177 1748.8867 70.554688 C 1748.8944 64.689654 1747.4858 60.778453 1743.8555 56.580078 C 1740.2733 52.437376 1737.2561 50.646445 1732.0508 49.572266 C 1725.7911 48.280499 1720.0216 49.192495 1716.168 52.083984 L 1715.0781 52.902344 L 1715.959 51.285156 C 1718.2383 47.097402 1721.9518 43.359227 1725.7363 41.445312 C 1728.4027 40.09689 1732.1158 39.018107 1736.8574 38.214844 C 1739.4499 37.775663 1742.1789 37.123483 1742.9219 36.763672 C 1744.5619 35.969744 1745.4649 34.596952 1745.7461 32.470703 C 1745.9245 31.121639 1745.8495 30.737763 1745.2637 29.994141 C 1744.8824 29.510134 1744.3059 29.113281 1743.9824 29.113281 z M 1726.707 55.064453 C 1729.5172 55.043014 1731.8418 55.453066 1734.3477 56.390625 C 1736.6269 57.2434 1740.3673 60.999071 1741.7441 63.816406 C 1745.1857 70.858838 1742.5394 80.30298 1736.2363 83.46875 C 1731.6257 85.784467 1726.8196 84.852948 1721.7246 80.652344 C 1719.1642 78.541364 1716.9575 75.785544 1715.5605 72.955078 C 1714.4005 70.60081 1714.3793 70.484902 1714.3906 66.875 C 1714.4079 61.979567 1715.1474 60.02349 1717.7363 58.035156 C 1720.7383 55.729644 1721.9488 55.26931 1725.4707 55.099609 C 1725.8939 55.079233 1726.3056 55.067516 1726.707 55.064453 z "
       transform="matrix(0.26458333,0,0,0.26458333,-122.80202,79.984634)" />
    <path
       style="fill:#000000;stroke-width:0.0846667"
       d="m 21.379154,103.72752 c -1.138987,-0.24445 -1.967399,-0.67982 -2.381623,-1.25164 -0.297408,-0.41056 -0.33605,-0.93171 -0.07927,-1.06913 0.26742,-0.14312 0.443874,-0.10521 1.190303,0.25576 0.842942,0.40763 1.535329,0.58514 2.286593,0.5862 0.722537,10e-4 1.060061,-0.10064 1.615338,-0.48657 0.538955,-0.37457 0.755015,-0.75201 0.755193,-1.31924 0,-1.095554 -0.861559,-1.713294 -2.793864,-2.002394 -0.86581,-0.12954 -1.139724,-0.25541 -1.251111,-0.57494 -0.154043,-0.4419 0.04705,-0.72041 0.712478,-0.98678 0.764058,-0.30585 1.868788,-1.12805 2.182995,-1.62471 0.888407,-1.40428 -0.396223,-2.62178 -2.055106,-1.94771 -0.756691,0.30747 -1.423297,0.77285 -2.023618,1.41276 -0.592556,0.63163 -0.768697,0.73222 -1.033771,0.59035 -0.262204,-0.14033 -0.229311,-0.64104 0.07349,-1.1185 0.320311,-0.50507 1.074319,-1.2431 1.682352,-1.64669 0.881821,-0.58532 2.07093,-0.94979 2.746359,-0.84179 1.521654,0.24333 2.437265,1.28969 2.437265,2.78533 0,0.52394 -0.04166,0.69884 -0.28658,1.20333 -0.288645,0.59455 -0.646718,1.0334 -1.10959,1.35995 l -0.25091,0.17701 0.5498,0.2624 c 1.15763,0.55248 1.731289,1.19099 1.993273,2.21862 0.235873,0.925174 0.01008,1.961084 -0.602496,2.764214 -0.277749,0.36414 -1.35625,1.02669 -1.994738,1.22541 -0.610997,0.19017 -1.557096,0.20168 -2.362759,0.0288 z"
       id="path1301" />
    <path
       id="path1297"
       style="fill:#000000;stroke-width:0.32"
       d="M 1774.0273 49.435547 C 1773.8244 49.435806 1773.6271 49.481725 1773.4434 49.580078 C 1772.0616 50.319543 1771.9768 51.412499 1771.9844 68.474609 C 1771.9918 86.08401 1772.0266 86.457947 1773.7969 87.771484 C 1774.545 88.326319 1774.78 88.357231 1775.6094 88.013672 C 1777.2319 87.341672 1777.3799 86.466411 1777.1406 79.025391 L 1776.9277 72.347656 L 1783.7324 72.517578 C 1787.4751 72.610555 1790.7175 72.742515 1790.9375 72.810547 C 1791.1748 72.883908 1791.3386 73.491484 1791.3418 74.304688 C 1791.3534 77.657446 1793.3965 82.890473 1795.6816 85.419922 C 1797.7502 87.709522 1800.5441 89.164297 1804.6172 90.074219 L 1804.6172 90.076172 C 1807.2497 90.662906 1811.6094 90.655936 1813.9102 90.060547 C 1818.6855 88.824793 1822.8265 84.703846 1824.9727 79.052734 C 1826.3613 75.395837 1826.2966 71.088514 1824.7676 65.320312 C 1823.0845 58.97082 1819.9922 54.767912 1815.0176 52.070312 C 1811.4994 50.162634 1808.9213 49.643088 1805.7656 50.207031 C 1803.154 50.673765 1799.633 52.273505 1797.9336 53.765625 C 1795.145 56.214003 1792.4644 61.064717 1791.6191 65.193359 L 1791.209 67.195312 L 1786.2324 67.197266 C 1783.4957 67.198399 1780.3013 67.290028 1779.1328 67.400391 L 1777.0078 67.599609 L 1776.8027 62.837891 C 1776.5224 56.292996 1776.0586 51.302921 1775.6582 50.554688 C 1775.2818 49.852007 1774.636 49.434771 1774.0273 49.435547 z M 1807.3359 55.515625 C 1810.0279 55.51725 1810.0799 55.532193 1812.2969 56.986328 C 1816.3844 59.667374 1818.2103 62.318862 1819.5449 67.513672 C 1819.9904 69.248097 1820.2544 71.276847 1820.2695 73.113281 C 1820.2944 75.788559 1820.2146 76.165381 1819.1426 78.410156 C 1817.1638 82.553539 1814.9732 84.433491 1811.3574 85.089844 C 1809.2404 85.47373 1808.9403 85.472745 1806.2324 85.078125 C 1803.6803 84.706257 1802.5621 84.310632 1800.8281 83.162109 C 1799.216 82.094317 1797.1636 79.140767 1796.332 76.691406 C 1795.5738 74.458484 1795.1349 69.892156 1795.4766 67.792969 C 1795.9221 65.055684 1798.3187 60.2782 1800.1504 58.474609 C 1802.5014 56.159724 1804.0689 55.513697 1807.3359 55.515625 z "
       transform="matrix(0.26458333,0,0,0.26458333,-122.80202,79.984634)" />
    <path
       id="path1293"
       style="fill:#000000;stroke-width:0.32"
       d="M 1350.7852 48.410156 C 1350.0892 48.41412 1349.0983 48.490277 1347.543 48.632812 C 1341.9016 49.149701 1339.859 49.682002 1336.207 51.591797 C 1332.2222 53.675639 1330.6396 55.332657 1329.4082 58.708984 C 1328.6619 60.756279 1328.554 61.459152 1328.6836 63.478516 C 1328.8788 66.520431 1329.837 68.234567 1332.2812 69.917969 C 1333.2579 70.590611 1334.0566 71.199295 1334.0566 71.271484 C 1334.0566 71.343598 1333.4282 72.220123 1332.6602 73.21875 C 1328.7152 78.348604 1324.4534 85.959054 1324.4609 87.861328 C 1324.4665 89.265801 1324.6508 89.647088 1325.5762 90.171875 C 1326.4136 90.64681 1326.5621 90.640671 1327.6387 90.083984 C 1328.2494 89.768129 1329.0447 88.693648 1330.0586 86.818359 C 1330.8895 85.281603 1332.7983 82.073919 1334.3008 79.689453 C 1335.8033 77.305025 1337.3358 74.81424 1337.7051 74.154297 C 1338.1553 73.349976 1338.5338 73.01464 1338.8555 73.136719 C 1340.8144 73.879396 1345.344 74.106223 1348.6953 73.628906 L 1350.377 73.388672 L 1350.3828 75.970703 C 1350.3962 81.020681 1350.9614 87.598811 1351.4648 88.572266 C 1352.0494 89.702571 1352.7577 90.033167 1353.6152 89.574219 C 1354.9188 88.876631 1354.9952 88.058942 1355.1074 73.753906 C 1355.2167 59.807979 1354.8073 51.616861 1353.918 49.955078 C 1353.7197 49.584571 1353.1141 49.051547 1352.5723 48.771484 C 1352.0853 48.519768 1351.6799 48.405061 1350.7852 48.410156 z M 1349.6016 53.777344 L 1349.9902 57.845703 C 1350.2034 60.083146 1350.3771 63.22795 1350.377 64.833984 L 1350.377 67.753906 L 1349.3379 67.962891 C 1348.7661 68.077032 1346.8579 68.239935 1345.0977 68.324219 C 1341.4377 68.499778 1339.728 68.135899 1336.0449 66.396484 C 1334.1017 65.478739 1333.633 65.101922 1333.2305 64.138672 C 1332.7985 63.107655 1332.7987 62.80335 1333.2305 61.328125 C 1333.9915 58.728377 1335.1981 57.543871 1338.6074 56.052734 C 1341.4871 54.793245 1343.6588 54.287674 1347.6699 53.943359 L 1349.6016 53.777344 z "
       transform="matrix(0.26458333,0,0,0.26458333,-122.80202,79.984634)" />
    <path
       id="path1287"
       style="fill:#000000;stroke-width:0.32"
       d="M 1661.7266 46.751953 C 1661.0998 46.771035 1660.4663 47.197434 1660.125 48.021484 C 1659.8238 48.748212 1659.7779 50.667195 1659.9355 55.771484 C 1660.0508 59.502407 1660.2219 65.435053 1660.3164 68.955078 C 1660.546 77.495163 1661.0849 88.550244 1661.2988 89.107422 C 1661.6951 90.140178 1665.4355 91.633201 1668.9375 92.15625 C 1671.5771 92.550455 1678.0891 91.910549 1680.1328 91.056641 C 1681.6744 90.412534 1686.2093 87.165318 1687.1816 86.009766 C 1688.5079 84.433551 1689.8167 81.562736 1690.2188 79.345703 C 1691.2031 73.917455 1689.0349 70.375825 1682.9512 67.472656 C 1681.1551 66.615611 1678.7798 65.700618 1677.6719 65.439453 C 1675.2797 64.87551 1670.4406 64.813426 1667.5859 65.310547 C 1666.4619 65.506326 1665.4636 65.586612 1665.3672 65.490234 C 1665.2711 65.39397 1665.0688 63.253808 1664.918 60.734375 C 1664.6072 55.538243 1663.8057 49.219854 1663.293 47.925781 C 1662.9745 47.121781 1662.3533 46.732871 1661.7266 46.751953 z M 1671.2227 70.808594 C 1674.3576 70.807351 1676.7196 71.300126 1679.6289 72.484375 C 1683.7935 74.179569 1684.9696 75.641724 1684.4414 78.46875 C 1683.9622 81.033613 1683.0648 82.350347 1680.5469 84.1875 C 1678.8242 85.44442 1677.7336 85.988839 1676.3652 86.273438 C 1673.6221 86.843957 1669.4808 87.032442 1667.6055 86.671875 L 1665.9551 86.355469 L 1665.7715 83.09375 C 1665.6706 81.300591 1665.5386 77.869597 1665.4785 75.46875 L 1665.3691 71.103516 L 1668.9141 70.886719 C 1669.7362 70.836227 1670.4992 70.808881 1671.2227 70.808594 z "
       transform="matrix(0.26458333,0,0,0.26458333,-122.80202,79.984634)" />
    <path
       style="fill:#000000;stroke-width:0.0846667"
       d="m 214.76368,104.6567 c -1.52191,-0.55568 -3.14796,-2.50395 -2.45314,-2.93925 0.21776,-0.13642 0.49951,-0.0114 1.21961,0.54114 0.37253,0.28586 0.9193,0.63495 1.21504,0.77577 0.50726,0.24153 0.5792,0.25326 1.27,0.20711 1.10712,-0.0739 2.55797,-0.59902 3.37304,-1.2207 0.49248,-0.37564 0.95674,-1.28009 1.09234,-2.128064 l 0.0521,-0.32569 -0.83426,-0.0612 c -0.45883,-0.0336 -2.11436,-0.10615 -3.67896,-0.16112 -3.07095,-0.10791 -3.12428,-0.11764 -3.12428,-0.56995 0,-0.29895 0.17452,-0.47588 0.57531,-0.58322 1.0287,-0.27551 4.38771,-0.40817 5.94402,-0.23474 0.58208,0.0649 1.07048,0.10869 1.08532,0.0974 0.0717,-0.0546 -0.4361,-1.30512 -0.76099,-1.87389 -0.48426,-0.84776 -1.09982,-1.46258 -1.81872,-1.81649 -0.57187,-0.28153 -0.58567,-0.28373 -1.7635,-0.28123 -1.32107,0.003 -1.83076,0.13473 -2.46362,0.63766 -0.44942,0.35715 -0.7041,0.40547 -0.89493,0.16981 -0.14026,-0.17321 -0.14263,-0.21546 -0.028,-0.4996 0.43424,-1.07602 2.36818,-1.88334 4.24486,-1.77202 1.71935,0.10199 3.14324,1.03067 4.12818,2.69242 0.59537,1.0045 0.87508,1.7245 1.03295,2.65894 0.16486,0.97575 0.0743,1.96836 -0.27465,3.009084 -0.49148,1.46601 -1.17398,2.23083 -2.61051,2.9254 -1.27586,0.61688 -1.98486,0.80701 -3.17843,0.85236 -0.75746,0.0288 -1.05697,0.007 -1.3488,-0.1 z"
       id="path1285" />
    <path
       style="fill:#000000;stroke-width:0.0846667"
       d="m -83.687138,106.38313 c -0.537444,-0.0839 -0.890816,-0.27081 -1.137452,-0.60169 -0.16379,-0.21974 -0.167085,-0.25313 -0.04593,-0.46567 0.127429,-0.22354 0.146971,-0.22834 0.827143,-0.20297 1.217098,0.0454 1.404835,-0.16213 3.751026,-4.14635 l 0.842513,-1.430734 -0.893359,-1.24612 c -0.491347,-0.68536 -1.175691,-1.66522 -1.520765,-2.17745 -0.345073,-0.51223 -0.916098,-1.31233 -1.268945,-1.778 -0.677751,-0.89446 -0.86201,-1.27594 -0.777985,-1.61072 0.06212,-0.24751 0.337195,-0.41026 0.586436,-0.34698 0.239232,0.0607 0.965542,0.76546 1.713174,1.66225 0.525494,0.63034 2.562221,3.34235 2.91677,3.88384 0.126509,0.19322 0.161254,0.14793 1.59302,-2.07643 1.563935,-2.4297 1.66896,-2.57368 2.137975,-2.93107 0.360684,-0.27483 0.587731,-0.29307 0.795168,-0.0639 0.135044,0.14922 0.141275,0.22179 0.05566,0.64812 -0.138305,0.68867 -0.384309,1.17592 -1.331826,2.63785 -1.758646,2.71344 -2.789615,4.342964 -3.653514,5.774664 -1.400204,2.32049 -2.073863,3.30912 -2.574541,3.77825 -0.73428,0.68803 -1.143927,0.82896 -2.014562,0.69306 z"
       id="path1283" />
    <path
       id="path1279"
       style="fill:#000000;stroke-width:0.32"
       d="M 995.83789 45.076172 C 994.35094 45.075972 992.87647 45.245783 991.48438 45.603516 C 988.79301 46.295169 985.24167 48.038769 983.71289 49.419922 L 982.41406 50.595703 L 982.21094 49.375 C 981.86798 47.308694 981.38885 46.399783 980.52734 46.183594 C 978.31042 45.627172 977.94917 47.299506 977.69141 59.353516 C 977.41539 72.266687 978.29135 94.830293 979.20312 98.302734 C 979.37475 98.95629 979.83068 99.711808 980.2168 99.982422 C 981.1641 100.64592 981.32527 100.61617 982.36914 99.572266 C 983.143 98.798559 983.30391 98.317494 983.50195 96.205078 C 983.62762 94.849588 983.62617 90.791506 983.49805 87.1875 C 983.37143 83.583494 983.35637 80.634766 983.46484 80.634766 C 983.57343 80.634766 984.24769 81.058074 984.96289 81.576172 C 987.19992 83.196682 989.11718 83.672518 993.41602 83.671875 C 997.10211 83.67127 997.36715 83.623707 1000.0176 82.515625 C 1003.0477 81.248765 1006.123 79.196307 1008.1953 77.056641 C 1014.3582 70.693224 1014.0246 55.480476 1007.5859 49.25 C 1004.8624 46.614403 1000.2987 45.076771 995.83789 45.076172 z M 994 50.251953 C 994.47527 50.251885 995.01597 50.272247 995.67383 50.306641 C 998.29826 50.443913 998.97984 50.607537 1000.8438 51.548828 C 1002.0588 52.162472 1003.38 53.125902 1003.8848 53.765625 C 1005.6679 56.025442 1006.9532 61.620466 1006.5664 65.433594 C 1006.0272 70.74863 1003.6589 74.131843 998.78125 76.548828 C 996.40245 77.727398 995.82889 77.878795 993.48438 77.957031 C 990.10555 78.069548 989.39262 77.869852 985.95703 75.835938 L 983.10938 74.150391 L 982.9043 70.302734 C 982.79053 68.186388 982.69727 64.043533 982.69727 61.097656 L 982.69727 55.742188 L 985.01758 53.773438 C 986.94695 52.136902 987.78328 51.665533 989.99219 50.976562 C 991.72577 50.435854 992.57418 50.252157 994 50.251953 z "
       transform="matrix(0.26458333,0,0,0.26458333,-122.80202,79.984634)" />
    <path
       style="fill:#000000;stroke-width:0.0846667"
       d="m 12.023047,107.49818 c -0.09289,-0.0347 -0.241037,-0.14325 -0.329209,-0.24129 -0.14986,-0.16663 -0.157082,-0.29014 -0.110677,-1.89383 0.02731,-0.94357 0.07532,-1.8013 0.106697,-1.90607 l 0.05705,-0.1905 -2.3593811,6.7e-4 c -3.319068,9.3e-4 -12.0945227,-0.23709 -12.6102612,-0.34204 -0.5109464,-0.10397 -0.7792042,-0.27519 -0.8907356,-0.56854 -0.1231985,-0.32405 -0.505985,-5.615494 -0.5253906,-7.262834 -0.014791,-1.25559 0.00237,-1.47149 0.1331384,-1.67216 0.1877229,-0.28815 0.5161364,-0.3072 0.688467,-0.0399 0.067556,0.10477 0.1629494,0.4191 0.2119799,0.6985 0.086089,0.49051 0.5303858,5.23786 0.6473952,6.917434 l 0.057226,0.82143 0.2230712,-0.0368 c 0.3533818,-0.0583 2.28517032,-0.11702 3.9756842,-0.12087 l 1.5512885,-0.004 -0.0529,-0.9525 c -0.135061,-2.431884 -0.196596,-6.935984 -0.100009,-7.319224 0.177775,-0.70532 0.756522,-0.88888 1.047877,-0.33235 0.19122,0.36525 0.295656,2.77188 0.262078,6.03908 -0.02568,2.498464 -0.02238,2.558284 0.143052,2.597674 0.09313,0.0222 1.178984,0.0496 2.413,0.0609 1.9076,0.0175 2.23857,0.003 2.209665,-0.1 -0.0187,-0.0663 -0.0504,-1.924424 -0.07044,-4.129134 -0.03882,-4.2713 -0.02432,-4.45428 0.360553,-4.55088 0.355406,-0.0892 0.577376,2.5e-4 0.755608,0.30443 0.168952,0.28837 0.173346,0.40605 0.163567,4.3815 l -0.01004,4.085174 h 0.9519581 c 1.149638,0 1.415813,0.047 1.686755,0.29814 0.416611,0.38611 0.488019,0.91984 0.399178,2.98396 -0.08739,2.03026 -0.152443,2.30485 -0.581499,2.45442 -0.129718,0.0452 -0.311845,0.0538 -0.404741,0.0192 z"
       id="path1277" />
    <path
       id="path1271"
       style="fill:#000000;stroke-width:0.32"
       d="M 710.58984 29.802734 C 710.25264 29.818494 710.00382 29.984466 709.71289 30.34375 C 709.10694 31.092059 708.99025 31.827674 708.40039 38.642578 L 708.00586 43.210938 L 706.71094 43.949219 C 705.999 44.355178 704.30505 45.166303 702.94531 45.753906 C 699.55629 47.218322 696.54413 49.572033 694.00391 52.742188 C 690.0119 57.724095 688.13798 62.411897 688.16406 67.353516 C 688.17305 69.060917 688.39416 70.950726 688.70703 71.994141 C 689.54284 74.781504 692.01386 78.625037 694.67969 81.287109 C 698.69498 85.296848 702.2765 87.235906 707.08398 88.003906 C 708.26923 88.193261 709.2697 88.380993 709.30859 88.419922 C 709.46386 88.575223 710.35742 96.669973 710.55078 99.673828 C 710.79888 103.52861 711.16186 105.09935 712 105.9375 C 712.79056 106.72803 713.63633 106.35951 714.45312 104.86523 C 714.94804 103.95989 715.01758 102.87071 715.01758 95.900391 L 715.01758 87.966797 L 717.09766 87.238281 C 723.03027 85.162829 727.5585 81.682933 730.78711 76.71875 C 733.67581 72.277223 734.67774 68.844562 734.68945 63.341797 C 734.69873 58.958754 734.2327 56.858669 732.43555 53.1875 C 730.79801 49.842316 729.53472 48.545477 725.71875 46.283203 C 721.96246 44.056268 719.95097 43.32874 716.21484 42.849609 C 713.36219 42.483789 713.31864 42.464286 713.12891 41.515625 C 713.02304 40.98634 712.9375 38.620546 712.9375 36.257812 C 712.9375 31.463672 712.58819 30.240354 711.11719 29.871094 C 710.91535 29.820424 710.74312 29.795571 710.58984 29.802734 z M 713.1582 47.921875 L 714.56836 48.132812 C 717.74346 48.608844 719.30034 49.09332 721.69922 50.351562 C 725.23343 52.205307 726.70011 53.594136 727.91797 56.236328 C 732.05595 65.213764 727.76293 76.381446 718.36523 81.085938 C 716.7518 81.89366 715.25268 82.554688 715.0332 82.554688 C 714.6164 82.554688 714.11221 73.609193 713.73438 59.513672 C 713.63766 55.905697 713.46722 51.821525 713.35742 50.4375 L 713.1582 47.921875 z M 707.68945 48.634766 C 708.06102 48.634766 708.13672 50.0136 708.13672 56.767578 C 708.13672 64.515458 708.56336 77.412224 708.94922 81.353516 L 709.12891 83.195312 L 708.23242 83.162109 C 705.5963 83.067546 701.88901 81.352641 698.63867 78.722656 C 696.56552 77.045189 694.17446 73.634872 693.26758 71.064453 C 690.95356 64.505801 696.50841 54.007383 704.37695 50.068359 C 705.95302 49.279383 707.44333 48.634766 707.68945 48.634766 z "
       transform="matrix(0.26458333,0,0,0.26458333,-122.80202,79.984634)" />
    <path
       id="path836"
       style="fill:#000000;stroke-width:0.32"
       d="M 1165.3398 46.125 C 1164.0443 46.125884 1162.3297 46.159727 1160.0625 46.222656 C 1147.8866 46.560697 1142.9176 47.198885 1141.3105 48.634766 L 1140.3242 49.517578 L 1140.0781 55.236328 C 1139.6667 64.815314 1139.0578 68.131896 1136.5645 74.351562 C 1135.5843 76.796592 1132.8329 81.029378 1131.2949 82.458984 C 1130.3635 83.324799 1130.3529 83.855926 1131.0195 95.673828 C 1131.5364 104.83631 1131.6374 105.69394 1132.3477 106.81445 C 1132.9818 107.81486 1134.0776 107.61853 1134.6934 106.39453 C 1135.0781 105.62959 1135.1758 104.06938 1135.1758 98.714844 C 1135.1758 95.018844 1135.0722 90.677077 1134.9434 89.068359 L 1134.709 86.144531 L 1135.9023 86.425781 C 1136.559 86.580628 1141.7761 86.856889 1147.4961 87.039062 C 1153.2161 87.221236 1160.0573 87.500724 1162.6973 87.662109 C 1165.3373 87.823117 1169.1602 87.963271 1171.1934 87.974609 L 1174.8906 87.994141 L 1175.252 94.154297 C 1175.4512 97.542303 1175.7847 100.81757 1175.9922 101.43359 C 1176.7047 103.55002 1178.5275 104.32403 1179.8008 103.05078 C 1181.0514 101.79995 1181.202 100.19214 1180.8066 92.359375 C 1180.2958 82.238556 1180.2287 82.132718 1174.3008 81.966797 L 1170.4512 81.859375 L 1170.6367 65.199219 C 1170.8414 46.914545 1170.868 47.193097 1168.959 46.402344 C 1168.4972 46.211241 1167.4991 46.123527 1165.3398 46.125 z M 1158.748 51.835938 L 1165.7402 51.835938 L 1165.5547 53.996094 C 1165.0106 60.317354 1164.8456 64.99273 1164.8887 72.861328 L 1164.9375 81.566406 L 1155.4961 81.548828 C 1150.3041 81.539379 1144.832 81.622942 1143.3359 81.736328 L 1143.3359 81.738281 C 1141.84 81.851667 1140.1482 82.015453 1139.5762 82.103516 C 1138.3715 82.28909 1138.3209 82.159799 1139.1367 81.003906 C 1141.2922 77.949746 1144.0371 70.307659 1144.8027 65.230469 C 1145.139 63.001379 1145.2684 60.330446 1145.1992 57.078125 L 1145.0977 52.242188 L 1148.4258 52.039062 C 1150.2572 51.927188 1154.9022 51.835938 1158.748 51.835938 z "
       transform="matrix(0.26458333,0,0,0.26458333,-122.80202,79.984634)" />
    <path
       d="m -90.637351,104.49759 c -0.26901,-0.269 -0.29868,-0.88142 -0.11867,-2.44905 0.0475,-0.41353 0.0754,-0.76201 0.0621,-0.7744 -0.0413,-0.0384 -2.52068,0.1182 -3.36858,0.2128 -1.17884,0.13153 -4.59633,0.25155 -4.924567,0.17295 -0.897,-0.21479 -1.00559,-0.55321 -1.345662,-4.193492 -0.32785,-3.509618 -0.30893,-5.490778 0.0563,-5.894358 0.26659,-0.29457 0.666632,-0.15162 0.825882,0.29512 0.031,0.087 0.0944,0.8299 0.14085,1.651 0.0904,1.59759 0.36256,4.796718 0.518317,6.093368 l 0.095,0.790462 0.2638,-0.0472 c 0.14508,-0.0259 1.08294,-0.10521 2.08412,-0.17612 1.66682,-0.11806 2.9811,-0.249822 3.44067,-0.344932 0.17661,-0.0366 0.1824,-0.0853 0.23817,-2.00675 0.0314,-1.08309 0.0684,-2.912828 0.0822,-4.066058 0.0224,-1.87721 0.041,-2.1144 0.17712,-2.26484 0.20503,-0.22655 0.6447,-0.22084 0.85354,0.0111 0.15241,0.16927 0.16025,0.32882 0.14251,2.89984 -0.0104,1.49639 -0.0634,3.302648 -0.11791,4.013908 -0.0545,0.71127 -0.0842,1.30564 -0.0659,1.32083 0.0183,0.0152 0.39253,-0.007 0.83166,-0.0504 0.69013,-0.0674 0.84307,-0.0578 1.12767,0.0705 0.62688,0.282692 0.68614,0.712882 0.39742,2.885382 -0.0958,0.72074 -0.20856,1.40095 -0.25062,1.51156 -0.2094,0.55079 -0.76813,0.71602 -1.14541,0.33873 z"
       style="fill:#000000;stroke-width:0.0224014"
       id="path1176" />
    <path
       d="m -106.15418,104.28227 c -0.34623,-0.13946 -0.42475,-0.41233 -0.57233,-1.98885 -0.0785,-0.8382 -0.19399,-1.86692 -0.25671,-2.28602 -0.0627,-0.419098 -0.18025,-1.447798 -0.26115,-2.285998 -0.0809,-0.8382 -0.16986,-1.56635 -0.19767,-1.61811 -0.0764,-0.14217 -1.65613,1.66603 -3.57046,4.086848 -0.39923,0.50486 -1.02788,1.29892 -1.397,1.76456 -1.00737,1.27079 -1.9381,2.21348 -2.24624,2.27511 -0.4645,0.0929 -0.79912,-0.19343 -0.87775,-0.75106 -0.20695,-1.4678 -0.48252,-8.441458 -0.35382,-8.954218 0.11299,-0.45022 0.56674,-0.63966 0.85108,-0.35532 0.27179,0.27179 0.34313,0.92524 0.55886,5.11853 0.0491,0.954608 0.11197,1.953028 0.13969,2.218708 l 0.0504,0.48303 0.77266,-0.98517 c 2.82532,-3.602318 3.27279,-4.146388 4.498,-5.468978 0.5588,-0.60322 1.19135,-1.2907 1.40567,-1.52775 0.34912,-0.38614 0.42617,-0.43099 0.74041,-0.43099 0.68444,0 0.70149,0.0494 1.11189,3.22042 0.14415,1.11378 0.31762,2.36796 0.38549,2.78706 0.0679,0.419098 0.18796,1.489098 0.26689,2.377788 0.16032,1.8052 0.12568,2.05255 -0.31974,2.28288 -0.26648,0.13781 -0.4551,0.14753 -0.72818,0.0375 z m -5.51059,-10.249708 c -1.21892,-0.2358 -2.05084,-1.29719 -2.05084,-2.61653 0,-0.51102 0.0958,-0.6789 0.38756,-0.6789 0.26016,0 0.35618,0.14919 0.55279,0.85884 0.19187,0.6926 0.31168,0.86319 0.77077,1.09751 0.61589,0.31433 1.49057,0.12421 1.95212,-0.42431 0.2059,-0.24469 0.48542,-0.96683 0.48542,-1.25405 0,-0.24382 0.27246,-0.53199 0.50298,-0.53199 0.51003,0 0.80986,0.73607 0.60688,1.48988 -0.14958,0.55548 -0.70953,1.34552 -1.12711,1.59024 -0.72469,0.42469 -1.45715,0.58991 -2.08057,0.46931 z"
       style="fill:#000000;stroke-width:0.0224014"
       id="path1060" />
  </g>
</svg>
