<?xml version="1.0" encoding="UTF-8" standalone="no"?>
<!-- Created with Inkscape (http://www.inkscape.org/) -->

<svg
   xmlns:dc="http://purl.org/dc/elements/1.1/"
   xmlns:cc="http://creativecommons.org/ns#"
   xmlns:rdf="http://www.w3.org/1999/02/22-rdf-syntax-ns#"
   xmlns:svg="http://www.w3.org/2000/svg"
   xmlns="http://www.w3.org/2000/svg"
   xmlns:sodipodi="http://sodipodi.sourceforge.net/DTD/sodipodi-0.dtd"
   xmlns:inkscape="http://www.inkscape.org/namespaces/inkscape"
   version="1.1"
   id="svg2"
   width="386.742"
   height="105.93221"
   viewBox="0 0 386.742 105.93221"
   sodipodi:docname="SwordFontT.svg"
   inkscape:version="0.92.3 (2405546, 2018-03-11)">
  <metadata
     id="metadata8">
    <rdf:RDF>
      <cc:Work
         rdf:about="">
        <dc:format>image/svg+xml</dc:format>
        <dc:type
           rdf:resource="http://purl.org/dc/dcmitype/StillImage" />
        <dc:title />
      </cc:Work>
    </rdf:RDF>
  </metadata>
  <defs
     id="defs6" />
  <sodipodi:namedview
     pagecolor="#ffffff"
     bordercolor="#666666"
     borderopacity="1"
     objecttolerance="10"
     gridtolerance="10"
     guidetolerance="10"
     inkscape:pageopacity="0"
     inkscape:pageshadow="2"
     inkscape:window-width="1774"
     inkscape:window-height="1057"
     id="namedview4"
     showgrid="false"
     inkscape:zoom="6.291806"
     inkscape:cx="240.28962"
     inkscape:cy="75.602158"
     inkscape:window-x="1189"
     inkscape:window-y="1257"
     inkscape:window-maximized="1"
     inkscape:current-layer="svg2"
     fit-margin-top="20"
     fit-margin-left="20"
     fit-margin-right="20"
     fit-margin-bottom="20"
     inkscape:snap-global="false" />
  <path
     style="fill:#000000;stroke-width:1"
     d="m 150.13579,38.518803 c -0.21878,-0.0276 -0.4515,0.02123 -0.68554,0.146485 -0.27223,0.14568 -0.29133,0.295828 -0.20313,1.544921 l 0.0977,1.384766 -1.14649,-0.09766 -1.14453,-0.0957 -0.48242,0.992187 c -0.27291,0.560654 -0.77669,1.250541 -1.16019,1.589845 l -0.67774,0.599609 h 0.53906 c 0.4122,3.3e-4 0.67513,-0.140612 1.12305,-0.599609 0.32205,-0.33 0.69267,-0.757099 0.82227,-0.949219 0.22073,-0.3272 0.29449,-0.33835 1.15625,-0.183593 0.81283,0.145966 0.91992,0.208066 0.91992,0.541015 0,0.310894 -0.10657,0.395416 -0.60156,0.478516 -0.33,0.0554 -0.82919,0.170359 -1.10938,0.255859 -0.55272,0.168654 -1.54906,1.168975 -1.72851,1.734375 -0.15762,0.496592 0.0328,1.351866 0.36914,1.65625 0.42374,0.38348 1.57537,0.746094 2.36914,0.746094 h 0.70117 v 1.140625 1.140625 l -0.68164,-0.107422 c -0.374,-0.05979 -0.9811,-0.286013 -1.34961,-0.501953 -0.3685,-0.21597 -0.70796,-0.329353 -0.75586,-0.251953 -0.21705,0.3512 1.27005,1.422491 2.32617,1.675781 0.25969,0.06228 0.4921,0.278576 0.61133,0.566406 0.10598,0.25587 0.33887,0.620827 0.51562,0.810547 0.26122,0.28038 0.3642,0.308148 0.55664,0.148438 0.32084,-0.26627 0.69727,-1.015765 0.69727,-1.390625 0,-0.21626 0.21352,-0.388508 0.73047,-0.585938 1.03903,-0.39681 1.98828,-1.337041 1.98828,-1.970703 0,-1.179809 -0.69999,-1.792969 -2.05078,-1.792969 -0.7545,0 -0.79287,-0.02122 -0.88867,-0.5 -0.1047,-0.523406 -0.13728,-1.740234 -0.0469,-1.740234 0.0288,0 0.49373,0.180392 1.03516,0.40039 0.54142,0.220001 1.03254,0.400391 1.08984,0.400391 0.19067,0 -0.0748,-1.117574 -0.4375,-1.84375 -0.19682,-0.394099 -0.45196,-0.716797 -0.56836,-0.716797 -0.25676,0 -0.2706,0.231465 -0.0391,0.664063 0.23369,0.436642 0.15208,0.476391 -0.54102,0.263672 -0.52136,-0.160024 -0.59179,-0.242116 -0.59179,-0.69336 0,-0.467601 0.0519,-0.520798 0.59961,-0.611328 1.09171,-0.18045 1.26853,-0.135143 1.48633,0.390625 0.27532,0.66469 1.29379,1.334792 1.82617,1.201172 l 0.40234,-0.09961 -0.63281,-0.632813 c -0.3481,-0.348102 -0.85073,-1.065913 -1.11719,-1.59375 -0.27803,-0.550792 -0.57065,-0.932154 -0.68555,-0.896484 -0.1101,0.03418 -0.56799,0.10377 -1.01757,0.15625 l -0.81641,0.0957 -0.0977,-0.822266 c -0.0536,-0.452464 -0.0266,-0.956238 0.0606,-1.11914 0.12116,-0.2264 0.0833,-0.371736 -0.16406,-0.619141 -0.17712,-0.177121 -0.38278,-0.280995 -0.60157,-0.308594 z m -0.84179,6.058594 v 1.363281 1.363281 l -0.76172,-0.0059 c -0.91067,-0.0075 -1.79883,-0.361134 -1.79883,-0.714844 0,-0.758306 0.97307,-1.632322 2.11914,-1.902343 z m 1.75976,3.525391 h 0.52735 c 0.60776,0 0.91211,0.241205 0.91211,0.720703 0,0.366931 -1.15242,1.593665 -1.33008,1.416015 -0.0604,-0.06046 -0.10938,-0.565706 -0.10938,-1.123047 z"
     id="path1060"
     inkscape:connector-curvature="0" />
  <path
     style="fill:#000000;stroke-width:1"
     d="m 130.38384,41.067631 c -0.25783,0.01365 -0.50401,0.119024 -0.60547,0.308594 -0.18904,0.353216 -0.62434,4.245431 -0.68554,6.138672 -0.0351,1.086104 0.001,1.282835 0.27343,1.482422 0.38466,0.282282 0.54487,0.236877 0.91797,-0.263672 0.21174,-0.284054 0.35634,-0.999003 0.53125,-2.630859 0.43703,-4.077289 0.45858,-4.531835 0.24024,-4.794922 -0.14644,-0.176451 -0.41404,-0.253882 -0.67188,-0.240235 z m -0.57812,9.132813 c -0.21992,-0.0276 -0.45921,0.0293 -0.72266,0.167969 -0.70792,0.37262 -0.78013,0.919093 -0.19727,1.501953 0.47978,0.47976 0.87217,0.49798 1.42579,0.0625 0.50476,-0.39708 0.54085,-0.920628 0.0957,-1.398438 -0.18119,-0.19448 -0.38165,-0.306382 -0.60156,-0.333984 z"
     id="path1054"
     inkscape:connector-curvature="0" />
  <path
     style="fill:#000000;stroke-width:1"
     d="m 138.93853,40.907475 c -1.69805,0.0065 -3.08594,1.003152 -3.08594,2.216797 0,1.015437 0.76172,1.363251 1.11524,0.509766 0.10895,-0.263024 0.42756,-0.57779 0.72461,-0.71875 0.62742,-0.297734 1.69803,-0.331262 1.96875,-0.06055 0.3017,0.301698 0.22556,1.00297 -0.16407,1.507812 -0.50112,0.649293 -0.74228,0.814981 -1.58593,1.101563 -1.0823,0.367648 -1.25363,0.63294 -1.29883,1.986328 -0.033,0.988165 0.006,1.190247 0.27148,1.384765 0.17082,0.125369 0.3926,0.228516 0.49414,0.228516 0.35626,0 0.73785,-0.617962 0.84571,-1.36914 0.10543,-0.734271 0.13218,-0.764176 0.83398,-0.96875 1.57963,-0.460463 2.81981,-2.113954 2.67969,-3.572266 -0.14356,-1.494107 -1.08844,-2.252594 -2.79883,-2.246094 z m -1.54297,9.435547 c -0.36092,0 -1.0625,0.642326 -1.0625,0.972656 0,0.16961 0.14431,0.452906 0.32031,0.628907 0.176,0.176 0.46463,0.318359 0.64063,0.318359 0.41209,0 0.95898,-0.546895 0.95898,-0.958985 0,-0.36502 -0.53102,-0.960937 -0.85742,-0.960937 z"
     id="path1052"
     inkscape:connector-curvature="0" />
  <path
     style="fill:#000000;stroke-width:1"
     d="m 98.467824,39.010991 c -3.017987,-0.07247 -4.695312,0.287886 -4.695312,1.011718 0,0.515392 0.568961,0.709389 2.246094,0.761719 4.495244,0.140252 4.452564,0.141185 4.794924,-0.201172 0.37657,-0.376614 0.40813,-0.778392 0.0937,-1.208984 -0.20199,-0.276564 -0.46953,-0.315981 -2.439456,-0.363281 z m -1.082031,2.589844 c -0.49597,0.01612 -0.999559,0.09753 -1.492187,0.25 -1.06261,0.328872 -1.163798,0.403334 -1.8125,1.328124 -1.51768,2.163601 -1.697098,5.382696 -0.396485,7.087891 0.602896,0.79043 1.439828,1.380394 2.298828,1.621094 0.929213,0.26038 2.423346,0.140259 3.353516,-0.269531 0.37651,-0.16587 1.113265,-0.709695 1.636725,-1.208985 2.12439,-2.026315 2.18698,-4.857845 0.1621,-7.294922 -0.84465,-1.016608 -2.262086,-1.562038 -3.749997,-1.513671 z m -0.263672,1.710937 c 0.547182,-0.009 1.105046,0.06448 1.488281,0.224609 0.94315,0.394075 1.905318,1.677946 2.121098,2.828125 0.23118,1.23231 -0.754436,2.944332 -2.044926,3.550782 -1.952243,0.91743 -3.994537,0.0076 -4.417968,-1.966797 -0.360269,-1.679867 0.340358,-3.81968 1.427734,-4.365235 0.342888,-0.172033 0.878599,-0.262511 1.425781,-0.271484 z"
     id="path1050"
     inkscape:connector-curvature="0" />
  <path
     style="fill:#000000;stroke-width:1"
     d="m 122.25311,51.783614 c -0.68821,-0.68821 -0.17488,-1.66715 0.82392,-1.57125 1.22422,0.11753 1.08989,1.8804 -0.14392,1.8888 -0.198,0.001 -0.504,-0.14155 -0.68,-0.31755 z"
     id="path1046"
     inkscape:connector-curvature="0" />
  <path
     style="fill:#000000;stroke-width:1"
     d="m 160.05337,51.996404 c -0.2212,-0.0461 -0.39993,-0.23514 -0.46412,-0.49088 -0.13049,-0.51994 0.34204,-0.94928 1.19528,-1.08602 1.34598,-0.21571 1.28904,-0.17394 1.13794,-0.83477 -0.0756,-0.33062 -0.2264,-1.951119 -0.33513,-3.601119 l -0.19769,-3 h -0.6644 c -1.24453,0 -1.96257,-0.433925 -1.7283,-1.044445 0.18834,-0.490788 0.78994,-0.612927 3.37268,-0.684734 2.22649,-0.0619 2.65401,-0.03451 2.99999,0.192184 0.50434,0.330451 0.55864,1.122701 0.094,1.371366 -0.17021,0.0911 -0.84736,0.165629 -1.50477,0.165629 h -1.19529 l 0.0661,0.6 c 0.11064,1.004056 0.40363,4.209402 0.49726,5.44 l 0.0883,1.159999 h 1.25896 c 1.04563,0 1.31318,0.0542 1.57896,0.32 0.176,0.176 0.32,0.428 0.32,0.56 0,0.132 -0.144,0.384 -0.32,0.56 -0.27496,0.27496 -0.53957,0.32109 -1.88,0.32771 -0.858,0.004 -2.1,0.033 -2.76,0.0639 -0.66,0.0309 -1.36188,0.0224 -1.55974,-0.0188 z"
     id="path1044"
     inkscape:connector-curvature="0" />
  <path
     style="fill:#000000;stroke-width:1"
     d="m 26.017214,51.471594 c -0.369383,-0.71431 -0.362856,-9.626344 0.0073,-9.99652 0.138285,-0.138286 0.381469,-0.251429 0.540408,-0.251429 0.670565,0 0.725667,0.329788 0.78016,4.669275 l 0.052,4.140724 0.588003,-0.0984 c 0.323401,-0.0541 1.153957,-0.20036 1.845678,-0.325 1.784528,-0.32157 2.59269,-0.29627 2.982325,0.0934 0.176,0.176 0.32,0.45877 0.32,0.62839 0,0.41306 -0.737278,0.97161 -1.282512,0.97161 -0.241646,0 -1.392515,0.144 -2.557488,0.32 -2.850518,0.43064 -2.977616,0.42475 -3.275891,-0.15206 z"
     id="path1042"
     inkscape:connector-curvature="0" />
  <path
     style="fill:#000000;stroke-width:1"
     d="m 67.19178,51.638554 c -0.294865,-0.23877 -0.34979,-0.48711 -0.41252,-1.86518 -0.06828,-1.500035 -0.0978,-1.612297 -0.523176,-1.989729 -0.247947,-0.22 -1.214051,-1.294131 -2.146896,-2.386957 -1.748606,-2.048489 -1.993478,-2.562624 -1.377528,-2.89227 0.507971,-0.271858 1.080096,0.135083 2.910272,2.07001 l 1.666802,1.762203 1.394811,-1.890861 c 1.438629,-1.950262 1.866917,-2.329491 2.525682,-2.236382 0.303393,0.04288 0.394499,0.164736 0.434532,0.581187 0.04314,0.448699 -0.182528,0.852515 -1.52,2.72 l -1.570654,2.19307 -0.0069,1.679999 c -0.0072,1.75657 -0.173944,2.30537 -0.745739,2.4549 -0.158682,0.0415 -0.441582,-0.0485 -0.628669,-0.19999 z"
     id="path1040"
     inkscape:connector-curvature="0" />
  <path
     style="fill:#000000;stroke-width:1"
     d="m 83.475637,41.264897 c -0.490316,-0.01236 -0.651459,0.06792 -0.972657,0.330078 l -0.470703,0.382813 0.283203,3.183593 c 0.395115,4.452828 0.686091,6.332 1.023438,6.59375 0.321594,0.24954 1.755405,0.141236 2.748047,-0.208984 1.49898,-0.52888 3.513766,-2.398463 3.835937,-3.558594 0.485719,-1.749063 -0.02355,-3.429332 -1.488281,-4.912109 -0.846582,-0.857012 -1.13624,-1.041365 -2.101562,-1.335938 -0.616,-0.187978 -1.624235,-0.383907 -2.240235,-0.435547 -0.254895,-0.02137 -0.453749,-0.03494 -0.617187,-0.03906 z m 0.416015,1.896484 c 0.122539,-0.01215 0.30836,-0.0074 0.53711,0.01563 1.925558,0.193595 3.428479,1.594414 3.550781,3.310547 0.0585,0.820934 0.02006,0.952611 -0.470703,1.570313 -0.620279,0.78072 -1.346586,1.352537 -2.410156,1.898437 -0.415074,0.21305 -0.775852,0.386659 -0.800782,0.386719 -0.02493,5e-5 -0.01978,-0.347408 0.0098,-0.773437 0.05713,-0.823727 -0.416608,-6.075518 -0.570312,-6.324219 -0.02661,-0.04304 0.03176,-0.07183 0.154296,-0.08398 z"
     id="path1038"
     inkscape:connector-curvature="0" />
  <path
     style="fill:#000000;stroke-width:1"
     d="m 108.08657,51.244944 c -1.57334,-0.73264 -2.23997,-2.09755 -2.12202,-4.344758 0.0576,-1.096968 0.16271,-1.515165 0.60873,-2.421266 0.60554,-1.230148 1.83899,-2.56428 2.84551,-3.077769 1.25123,-0.638328 2.81284,-0.347256 3.31161,0.617257 0.32846,0.635162 0.30522,1.080525 -0.0668,1.279608 -0.42201,0.22585 -0.41584,0.227847 -0.97052,-0.314371 -0.80028,-0.782297 -1.48773,-0.586371 -2.77635,0.791272 -1.0609,1.134181 -1.45064,2.056168 -1.45785,3.448728 -0.007,1.354782 0.26046,2.051249 0.95191,2.478589 0.87121,0.53843 1.52625,0.43058 2.45469,-0.40416 0.82151,-0.73861 2.00259,-2.431163 1.58454,-2.270743 -0.12473,0.04786 -0.62533,0.136816 -1.11246,0.197679 -1.04307,0.130323 -1.56448,-0.07704 -1.56448,-0.622197 0,-0.722145 0.84728,-1.107301 2.88,-1.309179 0.92699,-0.09207 1.08973,-0.06394 1.49765,0.258856 0.39941,0.316058 0.44704,0.441178 0.37435,0.983192 -0.17693,1.319073 -2.26136,4.044992 -3.6658,4.793942 -0.74225,0.39582 -1.81096,0.36319 -2.77274,-0.0847 z"
     id="path1034"
     inkscape:connector-curvature="0" />
  <path
     style="fill:#000000;stroke-width:1"
     d="m 50.001519,51.255644 c -0.125628,-0.0704 -0.228414,-0.3559 -0.228414,-0.6345 0,-0.38372 0.172242,-0.68249 0.71029,-1.23205 1.223905,-1.250113 4.420644,-5.659438 4.203235,-5.797608 -0.106439,-0.06764 -1.286839,-0.124094 -2.623109,-0.125441 -2.552234,-0.0026 -3.123762,-0.106832 -3.398365,-0.619933 -0.129185,-0.241386 -0.101102,-0.394685 0.123005,-0.671445 0.255909,-0.316033 0.516645,-0.376833 2.194563,-0.511737 1.047283,-0.0842 2.726621,-0.101703 3.731859,-0.03889 1.649244,0.103048 1.866223,0.152714 2.222143,0.508633 0.307809,0.307812 0.376163,0.507021 0.311241,0.90709 -0.154873,0.95437 -1.281283,2.604502 -3.789296,5.551123 l -0.714432,0.839378 1.443607,-0.11294 c 2.558297,-0.20013 3.745259,0.1493 3.745259,1.10258 0,0.76324 -0.41605,0.85321 -4.211586,0.91076 -1.920372,0.0291 -3.594372,-0.005 -3.72,-0.075 z"
     id="path1032"
     inkscape:connector-curvature="0" />
  <path
     style="fill:#000000;stroke-width:1"
     d="m 40.067434,40.632085 c -0.520386,-0.02741 -0.963055,0.491752 -1.087891,1.324218 -0.05836,0.389197 -0.418589,1.992979 -0.800781,3.564453 -0.925505,3.805407 -1.151545,5.221926 -0.886719,5.541016 0.110637,0.13331 0.340051,0.242187 0.509766,0.242187 0.371667,10e-7 0.660463,-0.632211 0.9375,-2.044921 0.108278,-0.55214 0.242445,-1.030814 0.296875,-1.064453 0.05443,-0.03364 0.731314,-0.08261 1.505859,-0.109376 l 1.408203,-0.04883 0.591797,1.19336 c 0.703946,1.42142 1.218739,1.800054 1.683594,1.240234 0.406377,-0.4894 0.306314,-0.885355 -1.179688,-4.667969 -1.437005,-3.657893 -2.102637,-4.897715 -2.75,-5.125 -0.07677,-0.02695 -0.154175,-0.04101 -0.228515,-0.04492 z m 0.111328,2.992187 c 0.103243,0 1.148042,2.587231 1.070312,2.650391 -0.01964,0.01596 -0.458754,0.08 -0.974609,0.142578 -0.751032,0.09111 -0.919943,0.07155 -0.851563,-0.09961 0.04697,-0.117563 0.211358,-0.771125 0.365235,-1.453125 0.153875,-0.682 0.329905,-1.240234 0.390625,-1.240234 z"
     id="path1030"
     inkscape:connector-curvature="0" />
  <path
     style="fill:#000000;stroke-width:1"
     d="m 64.135793,21.247319 c -0.243631,0.01151 -0.461992,0.04709 -0.626953,0.111328 -0.595128,0.231736 -1.874712,2.090502 -2.234375,3.246094 -0.328563,1.055677 -0.39102,2.610334 -0.140625,3.511718 0.267226,0.961968 1.282858,2.268425 2.074219,2.667969 0.864535,0.436488 2.335461,0.486484 3.072265,0.105469 0.477396,-0.246872 0.501894,-0.241246 0.990235,0.21875 0.275907,0.259891 0.646265,0.551527 0.822265,0.648438 0.398256,0.219298 0.360607,0.219428 0.730469,0.02148 0.550504,-0.294621 0.28945,-1.273572 -0.548828,-2.056641 -0.342099,-0.319569 -0.380382,-0.436426 -0.232422,-0.71289 0.597321,-1.116105 0.755188,-2.920744 0.369141,-4.220703 -0.276726,-0.931842 -1.403448,-2.547084 -2.146485,-3.076172 -0.438204,-0.312025 -1.398014,-0.49937 -2.128906,-0.464844 z m 0.466797,1.576172 c 0.493181,0 1.497747,1.033612 1.992187,2.048828 0.264337,0.542784 0.321072,0.903503 0.269532,1.71289 -0.03593,0.564238 -0.113545,1.074483 -0.171875,1.132813 -0.05833,0.05833 -0.331001,-0.0835 -0.605469,-0.314453 -0.604492,-0.508649 -0.861583,-0.52587 -1.173828,-0.08008 -0.26852,0.383366 -0.149277,0.863149 0.380859,1.537109 0.173039,0.219985 0.274553,0.463356 0.226563,0.541016 -0.157026,0.254071 -1.255506,0.148686 -1.78125,-0.171875 -0.282883,-0.172482 -0.715821,-0.622811 -0.960938,-1 -0.380127,-0.58495 -0.445312,-0.850329 -0.445312,-1.808594 0,-0.950544 0.08273,-1.292027 0.535156,-2.210938 0.548413,-1.11387 0.890078,-1.386718 1.734375,-1.386718 z"
     id="path1020"
     inkscape:connector-curvature="0" />
  <path
     style="fill:#000000;stroke-width:1"
     d="m 231.57746,31.614039 c -0.78249,-0.238684 -1.61307,-1.19354 -1.90165,-2.186206 -0.19635,-0.675443 -0.20844,-0.908579 -0.0566,-1.091538 0.36971,-0.445472 0.76977,-0.254993 1.34145,0.638688 0.44994,0.703348 0.66355,0.891255 1.10807,0.974647 1.51537,0.284283 1.94099,-1.08988 1.69731,-5.479989 -0.0815,-1.468739 0.13368,-1.93972 0.79099,-1.731101 0.75744,0.240407 1.21821,2.147948 1.10197,4.56209 -0.0663,1.377585 -0.14543,1.73192 -0.58647,2.627803 -0.75249,1.528546 -2.01454,2.137205 -3.49507,1.685606 z"
     id="path1016"
     inkscape:connector-curvature="0" />
  <path
     style="fill:#000000;stroke-width:1"
     d="m 292.51275,21.944585 -1.16992,0.8125 c -0.95854,0.665936 -1.25722,0.981378 -1.65039,1.748046 -0.40471,0.789129 -0.47675,1.114832 -0.46875,2.06836 0.0219,2.533427 1.38402,4.458371 3.45898,4.886718 0.82807,0.170941 2.25384,0.05427 2.9668,-0.242187 0.81726,-0.339824 2.05206,-1.601494 2.46484,-2.519531 0.46988,-1.045025 0.51073,-3.192123 0.0801,-4.158203 -0.74583,-1.673081 -2.24891,-2.562395 -4.3711,-2.583985 z m -0.69531,1.759765 h 1.49804 c 1.2232,0 1.5999,0.05982 2.05664,0.328125 1.92128,1.128647 1.84112,4.127354 -0.14648,5.466797 -0.42883,0.288992 -0.7566,0.363275 -1.5957,0.359375 -0.58098,-0.0027 -1.20096,-0.0843 -1.37696,-0.181641 -1.89683,-1.049099 -2.37589,-3.729984 -0.95898,-5.36914 z"
     id="path1014"
     inkscape:connector-curvature="0" />
  <path
     style="fill:#000000;stroke-width:1"
     d="m 93.453105,31.310841 c -1.379675,-0.273538 -2.561013,-1.248952 -2.872958,-2.372163 -0.218524,-0.786827 -0.206847,-1.17993 0.0747,-2.515032 0.336896,-1.59753 1.030645,-2.891643 2.21232,-4.126832 0.83309,-0.870817 1.119818,-1.073168 1.520674,-1.073168 0.331931,0 0.550766,0.106069 0.667029,0.323307 0.210051,0.392483 0.151572,0.499551 -0.832349,1.523915 -1.398035,1.455501 -1.984477,2.604487 -2.153189,4.218629 -0.118416,1.132952 0.05957,1.503469 0.937304,1.951258 0.841382,0.429241 1.763661,0.346596 2.619107,-0.234693 0.97744,-0.664184 1.667363,-0.503733 1.667363,0.387766 0,1.133141 -2.21539,2.239112 -3.840001,1.917013 z"
     id="path1010"
     inkscape:connector-curvature="0" />
  <path
     style="fill:#000000;stroke-width:1"
     d="m 122.09087,20.005131 c -0.48388,0.02863 -0.95279,0.177899 -1.34179,0.47461 -0.98325,0.74996 -0.99438,0.838179 -0.59375,4.548828 0.55756,5.164139 0.81887,6.007462 1.9414,6.271484 1.37281,0.322888 2.46997,0.08809 3.76758,-0.804687 1.15093,-0.791862 1.66797,-1.623839 1.66797,-2.681641 0,-1.415737 -0.50765,-2.117866 -2.0957,-2.890625 -0.70805,-0.344544 -1.20918,-0.673132 -1.11329,-0.732422 0.31926,-0.19731 0.81055,-1.346335 0.81055,-1.896484 0,-1.372957 -1.59132,-2.374954 -3.04297,-2.289063 z m 0.0274,1.640625 c 0.81864,0.02146 1.37106,0.501932 1.11914,0.972657 -0.0922,0.17236 -0.48193,0.571022 -0.86719,0.886718 l -0.70117,0.574219 -0.16406,-1.148437 c -0.0905,-0.631334 -0.13426,-1.18225 -0.0977,-1.22461 0.0366,-0.04236 0.35614,-0.06985 0.71094,-0.06055 z m -0.10547,4.298829 0.88086,0.01562 c 0.86849,0.01591 1.97105,0.433742 2.59961,0.986329 0.4841,0.425589 0.35784,1.214492 -0.28321,1.777343 -0.30919,0.27147 -0.75998,0.595575 -1.00195,0.720704 -0.24197,0.125129 -0.77274,0.278523 -1.18164,0.339843 l -0.74414,0.111328 -0.11914,-1.095703 c -0.0648,-0.6028 -0.12381,-1.492562 -0.13281,-1.976562 z"
     id="path1008"
     inkscape:connector-curvature="0" />
  <path
     style="fill:#000000;stroke-width:1"
     d="m 46.102071,31.074457 c -0.168475,-0.202998 -0.254816,-1.322846 -0.361452,-4.688017 -0.1313,-4.143499 -0.122114,-4.43883 0.146192,-4.700165 0.205849,-0.200502 0.744281,-0.323686 1.916206,-0.438398 2.207581,-0.21609 2.770088,-0.05961 2.770088,0.770565 0,0.623664 -0.456128,0.964884 -1.292598,0.966968 -0.389071,9.6e-4 -0.977402,0.04639 -1.307402,0.100934 -0.564984,0.09339 -0.599898,0.132968 -0.598238,0.678238 9.6e-4,0.318487 0.04487,0.839701 0.09756,1.158256 0.095,0.574372 0.100644,0.578064 0.67824,0.443818 0.838488,-0.194885 2.225911,-0.173309 2.63296,0.04094 0.658764,0.346747 0.743311,0.710626 0.294029,1.265466 -0.260158,0.321281 -0.484733,0.375959 -1.88,0.457724 l -1.584547,0.09286 -0.04777,1.100099 c -0.04177,0.96185 -0.01502,1.087534 0.212789,1.000114 0.143307,-0.05499 0.905624,-0.17306 1.69404,-0.262373 1.793536,-0.203175 2.372313,0.02032 2.378489,0.918472 0.0038,0.551075 -0.582982,0.811009 -2.23755,0.991214 -0.836,0.09105 -1.918179,0.211547 -2.404843,0.267767 -0.716058,0.08272 -0.927066,0.05134 -1.106191,-0.16449 z"
     id="path1002"
     inkscape:connector-curvature="0" />
  <path
     style="fill:#000000;stroke-width:1"
     d="m 75.504393,31.080457 c -1.527328,-0.411254 -2.594029,-1.759742 -3.168354,-4.005331 -0.512497,-2.003844 -0.374134,-4.39479 0.268597,-4.64143 0.535464,-0.205477 0.728451,0.292504 0.845477,2.18165 0.13035,2.104275 0.62749,3.480585 1.549709,4.290305 1.072097,0.941314 1.865917,0.803517 2.47284,-0.429251 0.353513,-0.718047 0.380443,-0.9577 0.380443,-3.385588 0,-2.401747 0.02509,-2.631195 0.310581,-2.84 0.406469,-0.297291 0.509121,-0.287456 0.880979,0.0844 0.518366,0.518366 0.68271,1.51673 0.619104,3.760928 -0.04954,1.747774 -0.118347,2.21771 -0.422811,2.887512 -0.463963,1.020694 -1.377427,1.95972 -2.102256,2.161086 -0.681992,0.189466 -0.693621,0.189008 -1.634309,-0.06428 z"
     id="path1000"
     inkscape:connector-curvature="0" />
  <path
     style="fill:#000000;stroke-width:1"
     d="m 241.53311,31.107287 c -0.264,-0.0941 -0.78058,-0.376141 -1.14794,-0.62675 -1.14444,-0.780728 -1.97206,-2.988162 -1.97206,-5.259923 0,-1.312799 0.23421,-1.88552 0.69824,-1.707451 0.3577,0.137256 0.51952,0.607585 0.70107,2.037625 0.18523,1.459053 0.87739,3.083275 1.5041,3.529526 0.24945,0.177629 0.70227,0.363322 1.00627,0.412655 0.47619,0.07728 0.61824,0.01796 1.02594,-0.428403 0.60988,-0.667741 0.8043,-1.412133 0.97201,-3.721696 0.1528,-2.104112 0.42354,-2.812951 0.96391,-2.523754 0.60072,0.321501 0.86144,1.450373 0.7683,3.326679 -0.0469,0.944819 -0.19398,2.027787 -0.32685,2.406593 -0.74768,2.13157 -2.45761,3.173481 -4.19299,2.554899 z"
     id="path998"
     inkscape:connector-curvature="0" />
  <path
     style="fill:#000000;stroke-width:1"
     d="m 35.126511,30.596039 c -0.286851,-0.437792 -0.32132,-0.772508 -0.561689,-5.454503 -0.191639,-3.732792 -0.124818,-4.23789 0.560635,-4.23789 0.674467,0 0.89779,0.570619 1.002869,2.562446 l 0.09425,1.786613 0.495264,-0.09244 c 0.272395,-0.05084 1.197979,-0.13989 2.056851,-0.197884 L 40.33628,24.85694 40.233165,23.390001 c -0.117202,-1.667309 0.03527,-2.166354 0.66188,-2.166354 0.816507,0 1.092173,0.952418 1.441269,4.979558 0.165867,1.913435 0.194232,2.951549 0.08826,3.230271 -0.422145,1.110328 -1.517595,0.686448 -1.690806,-0.654252 -0.05369,-0.415568 -0.136131,-1.025577 -0.183203,-1.355577 l -0.08559,-0.6 -0.985936,0.0011 c -0.542264,6.4e-4 -1.470763,0.04693 -2.06333,0.102893 l -1.077392,0.101756 0.03739,1.542975 c 0.03032,1.251198 -0.01625,1.62507 -0.246294,1.977107 -0.350952,0.537066 -0.671739,0.551947 -1.002906,0.04652 z"
     id="path996"
     inkscape:connector-curvature="0" />
  <path
     style="fill:#000000;stroke-width:1"
     d="m 274.94351,30.672609 c -1.48344,-0.6735 -2.2904,-1.597373 -2.2904,-2.622221 0,-0.773875 0.48722,-1.072029 0.94299,-0.577077 0.99959,1.085474 1.24536,1.285243 1.87874,1.527138 0.65325,0.249472 0.74411,0.249164 1.40902,-0.0048 1.15387,-0.440669 1.52925,-0.818207 1.52925,-1.538079 0,-0.466137 -0.12277,-0.762643 -0.488,-1.178619 -0.53762,-0.612318 -0.9008,-0.761046 -2.792,-1.143393 -1.33448,-0.269792 -2.21298,-0.693018 -2.48202,-1.195725 -0.0869,-0.162349 -0.15798,-0.610443 -0.15798,-0.995765 0,-0.731968 0.3931,-1.270659 1.24872,-1.711197 0.68275,-0.351539 2.25338,-0.51566 3.15117,-0.32928 1.2224,0.25377 1.88349,1.078464 1.40832,1.756858 -0.20573,0.293721 -0.34587,0.336795 -0.82794,0.254469 -1.34891,-0.230378 -2.52432,-0.26968 -2.96632,-0.09919 -0.69009,0.266195 -0.35289,0.438378 1.23131,0.628725 2.28352,0.274369 3.4422,0.949768 4.20965,2.45384 0.77888,1.526422 0.35509,3.265441 -1.00619,4.128913 -0.85683,0.543496 -2.09192,0.958229 -2.83776,0.952891 -0.27003,-0.0019 -0.79229,-0.140316 -1.16056,-0.307521 z"
     id="path994"
     inkscape:connector-curvature="0" />
  <path
     style="fill:#000000;stroke-width:1"
     d="m 85.236278,30.461364 c -0.320147,-0.320147 -0.408771,-0.607275 -0.486019,-1.57463 -0.05196,-0.650699 -0.167077,-2.059479 -0.255815,-3.130622 -0.08874,-1.071144 -0.161339,-2.422688 -0.161339,-3.003431 0,-0.975717 0.03089,-1.069969 0.406782,-1.241238 0.560524,-0.25539 0.979847,0.184213 1.176533,1.233437 0.254011,1.355024 0.526495,5.05235 0.470181,6.379892 -0.04623,1.089944 -0.101363,1.292821 -0.406139,1.494631 -0.322315,0.213422 -0.386314,0.199832 -0.744184,-0.158039 z"
     id="path992"
     inkscape:connector-curvature="0" />
  <path
     style="fill:#000000;stroke-width:1"
     d="m 147.1065,20.727788 c -1.19618,0.02759 -2.36786,0.561223 -3.38281,1.576171 -1.05495,1.054949 -1.53216,2.233066 -1.53516,3.798829 -0.002,0.997077 0.0725,1.422222 0.33594,1.923828 0.43013,0.818971 1.77485,2.081222 2.65234,2.490234 0.95942,0.447193 2.77603,0.36841 3.87305,-0.167969 1.83977,-0.899544 2.85033,-2.59686 2.86133,-4.804687 0.01,-2.001773 -0.86108,-3.416419 -2.6543,-4.3125 -0.70749,-0.353539 -1.43269,-0.520458 -2.15039,-0.503906 z m -0.38477,1.769531 c 1.21235,-0.0056 2.48177,0.619289 3.01367,1.609375 0.33006,0.614443 0.3755,0.873859 0.3125,1.810547 -0.0907,1.348996 -0.64128,2.246091 -1.71093,2.787109 -0.89191,0.451119 -2.12516,0.478858 -2.80469,0.06445 -0.89746,-0.547307 -1.64132,-1.379658 -1.84766,-2.068359 -0.42221,-1.409232 0.52166,-3.41387 1.87305,-3.978516 0.36228,-0.151368 0.75995,-0.222756 1.16406,-0.224609 z"
     id="path990"
     inkscape:connector-curvature="0" />
  <path
     style="fill:#000000;stroke-width:1"
     d="m 266.08306,20.100835 c -0.51606,0.02872 -1.0317,0.156712 -1.51758,0.40039 -1.45605,0.730243 -1.58559,1.421616 -1.02734,5.484375 0.36786,2.677084 0.83343,4.43383 1.23437,4.658203 0.84933,0.475323 1.19127,-0.94732 0.75196,-3.125 -0.0635,-0.314548 -0.0164,-0.337392 0.5332,-0.263672 1.93977,0.260177 4.16303,-1.474581 4.32031,-3.371093 0.18046,-2.176025 -2.05864,-3.907648 -4.29492,-3.783203 z m -0.43359,1.78125 c 0.49528,-0.04015 0.99655,0.05752 1.51953,0.294921 0.76411,0.346863 1.37445,1.186401 1.22461,1.685547 -0.15842,0.527645 -0.85055,1.157112 -1.63867,1.490235 -1.50011,0.634085 -1.39917,0.685022 -1.61133,-0.804688 -0.10376,-0.728597 -0.22935,-1.585019 -0.27735,-1.902344 -0.0765,-0.506047 -0.0394,-0.589274 0.29102,-0.677734 0.16431,-0.04399 0.32709,-0.07255 0.49219,-0.08594 z"
     id="path986"
     inkscape:connector-curvature="0" />
  <path
     style="fill:#000000;stroke-width:1"
     d="m 312.12746,30.402666 c -0.13177,-0.259012 -0.27966,-1.191035 -0.33939,-2.139017 -0.0582,-0.924 -0.22003,-2.73957 -0.3596,-4.034598 -0.13955,-1.295031 -0.21282,-2.461256 -0.16278,-2.591615 0.14684,-0.38268 1.34019,-0.606596 2.92153,-0.54819 1.17272,0.04331 1.54151,0.116526 1.80941,0.359202 0.89312,0.809033 0.0655,1.455201 -1.86379,1.455201 -1.25295,0 -1.32971,0.01952 -1.25851,0.32 0.0417,0.176 0.12456,0.657962 0.18412,1.071024 l 0.10831,0.751024 1.30317,-0.08949 c 1.16376,-0.07992 1.34865,-0.0533 1.72824,0.248833 0.47702,0.379688 0.45798,0.880098 -0.0437,1.148584 -0.16428,0.08791 -0.88423,0.204991 -1.59991,0.260181 l -1.30123,0.100344 0.0822,1.023713 c 0.0452,0.563042 0.12337,1.064924 0.17374,1.11529 0.0504,0.05037 0.43634,0.0036 0.85771,-0.103874 0.42138,-0.107497 1.45991,-0.234756 2.30786,-0.282796 1.53115,-0.08675 1.54361,-0.08445 1.8184,0.334912 0.2544,0.38827 0.25622,0.453478 0.0225,0.810124 -0.31397,0.479175 -0.37947,0.498751 -2.74267,0.81969 -3.60928,0.490168 -3.38083,0.491957 -3.64565,-0.02854 z"
     id="path982"
     inkscape:connector-curvature="0" />
  <path
     style="fill:#000000;stroke-width:1"
     d="m 360.04201,30.424046 c -0.34564,-0.439397 -0.42863,-1.306554 -0.58962,-6.1604 -0.11419,-3.443 -0.0796,-3.487485 2.86488,-3.684288 1.89736,-0.126816 2.58131,-0.0026 2.74008,0.497661 0.29445,0.927696 -0.45827,1.310264 -2.57797,1.310264 h -1.52211 l 0.0782,0.418181 c 0.043,0.23 0.12318,0.893672 0.17816,1.474827 l 0.1,1.056645 0.66978,-0.129677 c 1.26454,-0.244835 2.3196,-0.173778 2.67342,0.180054 0.25541,0.255408 0.28839,0.389607 0.15634,0.636333 -0.25394,0.47447 -0.67387,0.635259 -2.16035,0.827142 l -1.35971,0.175514 v 1.018672 c 0,0.56027 0.018,1.017438 0.04,1.015929 0.022,-0.0014 0.58,-0.144273 1.24,-0.317257 1.64098,-0.430095 3.4099,-0.430095 3.84,0 0.75859,0.758589 0.17766,1.350976 -1.46066,1.489464 -0.65556,0.05542 -1.7158,0.210957 -2.35609,0.345646 -1.68087,0.353581 -2.17823,0.323459 -2.55435,-0.15471 z"
     id="path980"
     inkscape:connector-curvature="0" />
  <path
     style="fill:#000000;stroke-width:1"
     d="m 27.857958,30.303646 c -0.153507,-0.372672 -0.486219,-4.770197 -0.485349,-6.414931 l 4.8e-4,-0.934933 -1.520786,0.114018 c -1.063513,0.07974 -1.661419,0.05577 -1.988502,-0.07972 -0.778294,-0.322379 -0.810338,-0.92744 -0.06705,-1.266104 0.519104,-0.23652 4.242389,-0.651325 6.287693,-0.700501 1.355458,-0.03259 1.62019,0.0044 1.911035,0.266967 0.42325,0.38211 0.432743,0.919515 0.02279,1.290511 -0.298024,0.269709 -0.844315,0.355548 -2.487599,0.390879 l -0.642417,0.01381 0.198371,3.32 c 0.229643,3.843393 0.15744,4.36 -0.609374,4.36 -0.337864,0 -0.512943,-0.101773 -0.619309,-0.36 z"
     id="path978"
     inkscape:connector-curvature="0" />
  <path
     style="fill:#000000;stroke-width:1"
     d="m 250.12511,30.471646 c -0.23726,-0.237256 -0.27262,-7.255093 -0.0397,-7.867856 0.22723,-0.597658 0.72769,-0.81209 1.32139,-0.566173 0.45509,0.188503 2.17545,2.107587 3.24752,3.622613 0.26331,0.372122 0.51776,0.678122 0.56542,0.68 0.0477,0.0019 0.28855,-0.410584 0.53527,-0.916584 0.86572,-1.775434 2.22641,-3.908891 2.60225,-4.080136 0.52904,-0.241043 1.13947,0.07182 1.40576,0.720494 0.11733,0.285804 0.44456,2.131679 0.7272,4.101944 0.54595,3.805789 0.53162,4.199091 -0.16101,4.418922 -0.83859,0.26616 -1.30619,-0.836331 -1.76488,-4.161224 -0.10924,-0.792 -0.25068,-1.499102 -0.31428,-1.571338 -0.0636,-0.07224 -0.48575,0.589168 -0.9381,1.469788 -1.44954,2.821953 -2.27566,2.949977 -3.9643,0.61434 -0.33117,-0.458035 -0.90232,-1.206846 -1.26925,-1.664027 l -0.66715,-0.831238 -0.11661,2.831238 c -0.0641,1.557181 -0.18325,2.957237 -0.26471,3.111237 -0.17089,0.323048 -0.6256,0.367269 -0.90486,0.088 z"
     id="path976"
     inkscape:connector-curvature="0" />
  <path
     style="fill:#000000;stroke-width:1"
     d="m 156.52974,30.396556 c -0.36284,-0.145988 -0.61894,-0.871763 -1.64664,-4.666551 -1.05248,-3.88624 -1.07972,-4.205706 -0.36779,-4.313016 0.17023,-0.02566 0.46245,0.118341 0.64938,0.32 0.35871,0.386988 1.07684,2.432961 1.6788,4.782929 l 0.36034,1.406701 0.57245,-0.991488 c 1.03973,-1.80081 1.91806,-1.788307 3.44859,0.04909 0.5064,0.607928 1.00951,1.139391 1.11802,1.181031 0.226,0.08673 0.3071,-0.368704 0.55225,-3.101613 0.21861,-2.436811 0.29208,-2.791882 0.65941,-3.186155 0.35813,-0.384403 0.37726,-0.388611 0.78208,-0.171962 0.52755,0.282336 0.61238,1.063551 0.38664,3.56077 -0.33507,3.706667 -0.58117,4.599684 -1.38166,5.013641 -0.80615,0.416871 -1.34195,0.164071 -2.79499,-1.318707 l -1.31421,-1.341112 -0.59303,1.128541 c -0.78119,1.486611 -1.36911,1.945846 -2.10964,1.647897 z"
     id="path974"
     inkscape:connector-curvature="0" />
  <path
     style="fill:#000000;stroke-width:1"
     d="m 189.05741,30.132676 c -0.30224,-0.461278 -0.4583,-1.391936 -0.80308,-4.788931 -0.27984,-2.757265 -0.21946,-3.54279 0.2983,-3.880153 0.7637,-0.497618 4.25466,-0.75347 4.80363,-0.352059 0.18914,0.138309 0.26632,0.36591 0.23058,0.68 -0.0675,0.593414 -0.72189,0.849176 -2.21373,0.865264 -1.6235,0.01751 -1.79746,0.09842 -1.69474,0.78824 0.0474,0.318233 0.12941,0.902606 0.18226,1.298606 l 0.0961,0.72 1.57779,-0.0504 c 1.41915,-0.04534 1.61101,-0.01718 1.90819,0.28 0.41512,0.41512 0.41795,0.722854 0.0104,1.130403 -0.27464,0.274637 -0.53333,0.32 -1.82486,0.32 h -1.50488 l 0.0737,1.24 c 0.0784,1.320123 -0.12054,1.992598 -0.61784,2.088369 -0.14622,0.02816 -0.38102,-0.124539 -0.52178,-0.339336 z"
     id="path972"
     inkscape:connector-curvature="0" />
  <path
     style="fill:#000000;stroke-width:1"
     d="m 200.78033,21.544194 c -0.91913,0 -1.55577,0.337829 -2.47461,1.314453 -1.26899,1.348798 -1.63875,3.034733 -1.08008,4.916016 0.31541,1.062107 1.4641,2.2779 2.39648,2.537109 1.36454,0.379351 3.65223,-0.20107 4.625,-1.173828 0.78091,-0.780914 1.25748,-2.158043 1.1543,-3.333985 -0.0653,-0.744291 -0.20612,-1.120103 -0.68164,-1.810546 -1.10279,-1.601197 -2.46758,-2.449219 -3.93945,-2.449219 z m 0.0234,1.775391 c 0.23573,0.0155 0.47453,0.05868 0.70508,0.134765 0.66874,0.220707 1.80868,1.497316 2.03125,2.273438 0.33187,1.157147 -0.45612,2.444368 -1.73047,2.826171 -1.47233,0.441124 -2.48942,0.108924 -3.18554,-1.041015 -0.61239,-1.011585 -0.42697,-2.663406 0.40429,-3.59375 0.38378,-0.429514 1.06822,-0.646115 1.77539,-0.599609 z"
     id="path970"
     inkscape:connector-curvature="0" />
  <path
     style="fill:#000000;stroke-width:1"
     d="m 324.01275,20.995366 c -1.07533,-0.0059 -1.29472,0.0478 -2.11914,0.52539 -1.08608,0.629163 -1.06781,0.521745 -0.66797,3.970703 0.34352,2.963145 0.62087,4.331892 0.95508,4.701172 0.34423,0.380376 0.4538,0.386028 0.79687,0.04297 0.22806,-0.228069 0.25215,-0.470255 0.15625,-1.621094 l -0.11328,-1.351562 0.93359,0.117187 c 1.0233,0.127851 2.25107,0.492841 3.51758,1.048828 0.94648,0.415507 1.60194,0.338859 1.80664,-0.210937 0.30642,-0.822919 -0.27619,-1.360189 -2.19726,-2.025391 l -1.31446,-0.455078 0.44336,-0.376953 c 0.83328,-0.708558 1.16211,-1.264979 1.16211,-1.958984 -10e-4,-1.516353 -1.22822,-2.39452 -3.35937,-2.406251 z m -0.35547,1.669922 c 0.71396,-0.0026 1.67841,0.318816 1.86523,0.621093 0.17715,0.286648 -0.70745,1.289671 -1.57812,1.789063 -0.44589,0.255758 -0.85897,0.465997 -0.91797,0.466797 -0.12078,0.0017 -0.2273,-0.479395 -0.38281,-1.738282 -0.12435,-1.006801 -0.0114,-1.134971 1.01367,-1.138671 z"
     id="path966"
     inkscape:connector-curvature="0" />
  <path
     style="fill:#000000;stroke-width:1"
     d="m 105.61311,28.663646 c -1.188,-0.922554 -2.214,-1.677962 -2.28,-1.678685 -0.066,-7.23e-4 -0.12,0.574685 -0.12,1.278685 0,1.071501 -0.0527,1.332721 -0.32367,1.603667 -0.26044,0.260437 -0.38696,0.289792 -0.64766,0.150272 -0.53172,-0.28457 -0.64111,-0.858334 -0.91062,-4.776422 l -0.25744,-3.742485 0.37268,-0.301771 c 0.32639,-0.264296 0.41453,-0.274282 0.70969,-0.0804 0.44605,0.292989 0.6863,1.037127 0.82555,2.557053 l 0.11452,1.249912 1.78138,-1.757554 c 1.7783,-1.754511 2.43359,-2.159484 2.96033,-1.829491 0.62935,0.394274 0.40645,0.822779 -1.36091,2.616285 -0.94673,0.960734 -1.6904,1.772896 -1.65259,1.804802 0.0378,0.03191 0.61374,0.422262 1.27985,0.867456 1.81304,1.21174 3.02889,2.376947 3.02889,2.902732 0,0.564069 -0.26994,0.816253 -0.872,0.814631 -0.37457,-9.6e-4 -0.99008,-0.391208 -2.648,-1.678685 z"
     id="path962"
     inkscape:connector-curvature="0" />
  <path
     style="fill:#000000;stroke-width:1"
     d="m 343.32905,30.063353 c -0.44775,-0.494741 -0.59352,-1.13541 -0.83722,-3.679179 -0.1313,-1.370558 -0.23872,-2.527054 -0.23872,-2.569992 0,-0.04294 -0.62197,-0.03417 -1.38214,0.01947 -1.54152,0.108791 -1.97786,-0.0245 -1.97786,-0.604208 0,-0.801203 0.6555,-1.076227 3.2337,-1.356748 2.40379,-0.261546 3.54608,-0.224999 3.8615,0.123548 0.33211,0.366976 0.34038,0.88549 0.0184,1.152719 -0.13554,0.112473 -0.61262,0.26239 -1.06022,0.333145 -0.4476,0.07076 -0.84077,0.1556 -0.87372,0.188543 -0.0329,0.03294 0.0584,1.277843 0.2029,2.766446 0.24061,2.478219 0.24131,2.757166 0.008,3.306549 -0.27835,0.656217 -0.56386,0.751806 -0.9549,0.319707 z"
     id="path960"
     inkscape:connector-curvature="0" />
  <path
     style="fill:#000000;stroke-width:1"
     d="m 354.64277,29.950329 c -0.14174,-0.216325 -0.33571,-0.897259 -0.43105,-1.513189 l -0.17333,-1.119872 -0.65264,0.07008 c -0.35896,0.03855 -1.28264,0.113944 -2.05264,0.167552 l -1.4,0.09747 v 0.761762 c 0,1.767624 -0.71549,2.362937 -1.28704,1.070857 -0.31715,-0.716967 -0.95296,-5.045641 -0.95296,-6.487871 0,-0.880971 0.27133,-1.220536 0.85766,-1.073374 0.49216,0.123523 0.68332,0.624788 0.95332,2.499902 0.16587,1.152034 0.27336,1.506861 0.44393,1.465723 0.12381,-0.02985 1.04165,-0.09487 2.03965,-0.144493 l 1.81458,-0.09022 -0.0686,-0.415505 c -0.0377,-0.228528 -0.20377,-1.048911 -0.36897,-1.823072 -0.32733,-1.533999 -0.25247,-1.908979 0.40046,-2.005615 0.56907,-0.08422 1.05525,0.523909 1.42422,1.781493 0.7265,2.4762 1.1042,6.381021 0.66804,6.906558 -0.31069,0.374355 -0.921,0.299893 -1.2146,-0.148187 z"
     id="path958"
     inkscape:connector-curvature="0" />
  <path
     style="fill:#000000;stroke-width:1"
     d="m 214.40097,28.794476 -1.46056,-1.407984 -0.6605,0.798576 c -1.11314,1.345824 -1.69368,1.838578 -2.16619,1.838578 -0.49747,0 -0.82061,-0.25832 -0.82061,-0.656007 0,-0.149604 0.47982,-0.873204 1.06627,-1.608 0.58645,-0.734796 1.12843,-1.417755 1.2044,-1.517686 0.0899,-0.118203 -0.27601,-0.632766 -1.04707,-1.472605 -1.3387,-1.458112 -1.59069,-2.031062 -1.07642,-2.447492 0.48508,-0.392788 0.84791,-0.224588 2.16114,1.001822 0.64781,0.604982 1.21592,1.099968 1.26246,1.099968 0.0466,0 0.59352,-0.645123 1.21551,-1.433606 0.62197,-0.788484 1.28221,-1.514605 1.46718,-1.613605 0.48215,-0.258037 1.08362,-0.0598 1.1977,0.394745 0.12312,0.490532 -0.0599,0.819162 -1.40787,2.528002 l -1.10644,1.402642 1.24922,1.364945 c 1.41682,1.548091 1.69437,1.993514 1.6237,2.60577 -0.0429,0.371256 -0.1325,0.437966 -0.64557,0.480515 -0.55618,0.04612 -0.69293,-0.04422 -2.05635,-1.358578 z"
     id="path956"
     inkscape:connector-curvature="0" />
  <path
     style="fill:#000000;stroke-width:1"
     d="m 135.00298,20.4231 c -0.9718,0 -1.225,0.06248 -1.78125,0.439453 -0.35673,0.241752 -0.70434,0.513313 -0.77344,0.601563 -0.12979,0.165891 -0.0535,1.806168 0.22071,4.71875 0.20622,2.190177 0.41508,3.201881 0.73437,3.554687 0.33704,0.372429 0.4583,0.360099 0.75977,-0.07031 0.15587,-0.222558 0.25,-0.702745 0.25,-1.283203 v -0.925782 l 0.43945,0.103516 c 0.55247,0.132067 0.77636,0.245014 2.39258,1.212891 1.65276,0.989752 2.31057,1.127891 2.68359,0.558593 0.22118,-0.337633 0.23329,-0.472245 0.0703,-0.779297 -0.23411,-0.441103 -0.48452,-0.629859 -2.06446,-1.552734 -0.66071,-0.385938 -1.23268,-0.729432 -1.27148,-0.763672 -0.0388,-0.03424 0.29347,-0.438615 0.74023,-0.898437 0.9848,-1.013592 1.17097,-1.352809 1.16797,-2.144531 -0.007,-1.59374 -1.52329,-2.771485 -3.56836,-2.771485 z m -1.10742,1.552735 0.92969,0.0957 c 1.07333,0.110777 1.72457,0.517402 1.79687,1.121093 0.0563,0.469722 -0.9768,1.7222 -1.75195,2.123047 -0.24219,0.125244 -0.47502,0.228516 -0.51562,0.228516 -0.0919,0 -0.21644,-0.84274 -0.35352,-2.384766 z"
     id="path954"
     inkscape:connector-curvature="0" />
  <path
     style="fill:#000000;stroke-width:1"
     d="m 176.04628,29.701247 c -0.28975,-0.17666 -1.44175,-1.19259 -2.56,-2.25762 -1.11824,-1.065029 -2.36336,-2.213031 -2.76691,-2.551114 l -0.73375,-0.614697 0.0743,2.444998 c 0.0811,2.669534 -0.0204,3.140832 -0.67681,3.140832 -0.5054,0 -0.73002,-0.664797 -0.73002,-2.160642 0,-0.634088 -0.0754,-2.081027 -0.16749,-3.215419 -0.0921,-1.134393 -0.12902,-2.215734 -0.082,-2.402981 0.047,-0.187248 0.29498,-0.427236 0.55106,-0.53331 0.53868,-0.223134 1.21246,0.03815 1.72552,0.669155 0.16241,0.199759 0.90676,0.89852 1.65412,1.552805 0.74735,0.654285 1.85348,1.662285 2.45807,2.24 l 1.09925,1.050392 -0.0901,-0.64 c -0.34833,-2.472918 -0.46235,-4.571643 -0.27317,-5.028368 0.28514,-0.688385 0.77634,-0.796958 1.22831,-0.271502 0.4092,0.475725 0.42585,0.557657 0.78414,3.85987 0.48754,4.493272 0.48605,4.160865 0.0206,4.626293 -0.4972,0.4972 -0.81768,0.516513 -1.51509,0.09131 z"
     id="path950"
     inkscape:connector-curvature="0" />
  <path
     style="fill:#000000;stroke-width:1"
     d="m 305.05311,29.724337 c -0.7017,-0.435803 -1.00515,-0.815271 -2.70354,-3.380688 -1.59683,-2.412021 -1.92236,-3.202674 -1.49472,-3.63032 0.53975,-0.539733 0.67946,-0.389312 3.86848,4.164565 l 0.76628,1.094246 1.04009,-2.774246 c 0.57205,-1.525834 1.18074,-2.972245 1.35264,-3.214245 0.53143,-0.74811 1.41077,-0.508464 1.41077,0.384472 0,0.455971 -2.07885,6.128453 -2.52206,6.881894 -0.22095,0.375586 -0.8021,0.774755 -1.12548,0.773035 -0.0618,-3.2e-4 -0.32846,-0.13475 -0.59246,-0.298713 z"
     id="path817"
     inkscape:connector-curvature="0" />
  <path
     style="fill:#000000;stroke-width:1"
     d="M 315.41406 73.087891 C 313.59147 73.116491 311.5861 73.628272 310.61328 74.482422 C 309.36664 75.576972 308.14567 78.102673 308.13867 79.601562 C 308.13467 80.493432 308.66583 82.290487 309.16797 83.085938 C 309.91391 84.267557 311.60189 85.4519 313.05469 85.8125 C 313.38506 85.8945 314.23337 85.946988 314.93945 85.929688 C 316.0289 85.902987 316.38343 85.8191 317.28516 85.375 C 319.63303 84.21868 320.85661 82.504585 321.04102 80.109375 C 321.15849 78.583635 320.91973 77.132933 320.37695 76.064453 C 319.92636 75.177453 318.8083 73.886644 318.23438 73.589844 C 317.53427 73.227814 316.50761 73.070751 315.41406 73.087891 z M 313.71094 74.490234 C 313.96619 74.480034 314.23392 74.486259 314.51562 74.505859 C 316.34776 74.634109 316.90136 74.852156 317.84766 75.822266 C 318.9152 76.916666 319.24547 77.931398 319.14258 79.804688 C 319.03267 81.805868 318.31407 82.877286 316.44922 83.822266 C 315.45818 84.324456 314.55077 84.428066 313.41602 84.166016 C 311.76638 83.785076 310.4167 82.829488 309.76367 81.580078 C 309.41617 80.915258 309.34384 80.56372 309.33984 79.5 C 309.33584 78.35898 309.39485 78.101439 309.87891 77.136719 C 310.76082 75.379239 311.92422 74.561394 313.71094 74.490234 z M 314.57617 76.058594 C 312.52493 76.058594 310.83005 78.532078 311.56445 80.455078 C 311.9474 81.457808 312.33979 81.893174 313.28711 82.365234 C 313.74407 82.592944 314.30067 82.777824 314.52539 82.777344 C 316.04695 82.774014 317.44046 81.484702 316.9375 80.544922 C 316.70151 80.103992 316.4791 80.131657 315.5957 80.716797 C 314.99655 81.113667 314.74037 81.195734 314.33789 81.115234 C 313.64536 80.976734 313.1467 80.623989 312.85938 80.068359 C 312.53552 79.442099 312.69079 78.76853 313.32812 78.03125 C 313.87659 77.39678 314.279 77.319588 315.67188 77.580078 C 316.12846 77.665468 316.27066 77.632635 316.35156 77.421875 C 316.5975 76.780995 315.65644 76.058594 314.57617 76.058594 z "
     id="path1161" />
  <path
     style="fill:#000000;stroke-width:1"
     d="m 192.11287,85.106395 c -1.00115,-0.83042 -4.45838,-4.55533 -4.45838,-4.80357 0,-0.0249 0.10328,-0.28811 0.2295,-0.58486 0.4076,-0.95829 4.73685,-4.8826 6.11362,-5.54179 0.90747,-0.4345 1.68819,0.0674 1.41987,0.91285 -0.0542,0.17083 -0.47307,0.57914 -0.93079,0.90736 -0.45771,0.32822 -1.79027,1.3581 -2.96123,2.28861 -2.10536,1.67305 -2.12525,1.69493 -1.78851,1.9676 0.18728,0.15165 1.30734,1.18912 2.48902,2.30548 1.70512,1.61087 2.14852,2.11712 2.14852,2.45304 0,1.06251 -1.0426,1.10644 -2.26162,0.0953 z"
     id="path1155"
     inkscape:connector-curvature="0" />
  <path
     style="fill:#000000;stroke-width:1"
     d="m 201.12649,85.626405 c -0.1056,-0.1056 -0.18968,-0.3036 -0.18684,-0.44 0.008,-0.39304 1.08516,-1.78235 2.85117,-3.678 l 1.63109,-1.75084 -2.13461,-2.28956 c -1.17403,-1.25926 -2.18206,-2.4172 -2.24008,-2.57319 -0.11509,-0.30945 0.37491,-0.91637 0.73984,-0.91637 0.79861,0 4.85075,3.788 5.38474,5.03372 0.18718,0.43667 0.26606,0.85056 0.19728,1.03514 -0.12547,0.33672 -4.46565,4.83138 -5.22514,5.4111 -0.5348,0.40822 -0.74288,0.44258 -1.01745,0.168 z"
     id="path1153"
     inkscape:connector-curvature="0" />
  <path
     style="fill:#000000;stroke-width:1"
     d="m 256.52589,85.423195 c -0.43526,-0.21736 -0.88974,-0.55371 -1.00992,-0.74745 -0.12017,-0.19375 -0.27222,-1.00078 -0.33788,-1.79342 -0.12789,-1.54394 -0.16863,-1.61515 -1.26885,-2.21805 -1.02848,-0.56358 -0.75707,-1.15065 0.79329,-1.71594 l 0.95196,-0.3471 v -1.35934 c 0,-1.66365 0.22216,-2.16555 1.11708,-2.52362 0.86551,-0.3463 1.49178,-0.32783 1.83752,0.0542 0.42069,0.46485 0.21074,0.75021 -0.62092,0.84395 -1.1334,0.12775 -1.21368,0.25805 -1.21368,1.96998 0,1.4217 -0.0192,1.50389 -0.426,1.82387 -0.23429,0.1843 -0.59413,0.37729 -0.79964,0.42887 l -0.37364,0.0938 0.41902,0.32961 c 0.57941,0.45576 0.86026,1.21681 0.86026,2.33114 0,1.2251 0.17668,1.36858 1.77462,1.44115 0.97269,0.0442 1.30595,0.12322 1.5209,0.36072 0.22627,0.25003 0.2426,0.3758 0.0918,0.70671 -0.37146,0.81525 -2.00874,0.97371 -3.31596,0.32093 z"
     id="path1151"
     inkscape:connector-curvature="0" />
  <path
     style="fill:#000000;stroke-width:1"
     d="m 160.61431,73.897685 c -1.55752,0 -1.74111,0.0353 -2.52344,0.46875 -2.17668,1.20596 -3.63487,3.90685 -3.23828,5.99803 0.0833,0.4392 0.43466,1.36073 0.78125,2.04687 0.81186,1.60718 1.45519,2.21769 3.01563,2.85936 1.69485,0.69696 4.04492,0.46304 4.04492,-0.40234 0,-0.46878 -0.32981,-0.62101 -1.7168,-0.79492 -2.34701,-0.29428 -3.3768,-0.96836 -4.19531,-2.74413 -0.45326,-0.98341 -0.51621,-1.26535 -0.44141,-1.99023 0.10606,-1.02757 0.41438,-1.65347 1.2793,-2.59179 0.96904,-1.05129 1.72249,-1.38976 3.07617,-1.38476 0.63659,0.002 1.29348,0.097 1.51953,0.2207 0.39777,0.21761 0.39859,0.21909 -0.26367,0.33594 -0.36475,0.0644 -1.01416,0.29426 -1.44141,0.51172 -2.08475,1.06108 -2.85855,3.47725 -1.31835,4.11522 0.71631,0.29671 1.51839,0.0733 2.98632,-0.83398 l 0.53125,-0.33008 -0.10546,0.80273 c -0.091,0.68556 -0.0626,0.82591 0.19335,0.96289 0.40728,0.21797 1.39381,-0.13301 2.01563,-0.71679 0.94938,-0.89131 1.26774,-2.29297 0.52148,-2.29297 -0.22963,0 -0.30523,0.0696 -0.87109,0.80078 l -0.30859,0.40039 0.16406,-0.7207 c 0.24205,-1.06316 0.0863,-2.74225 -0.31445,-3.39061 -0.184,-0.29772 -0.64509,-0.71891 -1.02344,-0.93555 -0.61097,-0.3499 -0.87507,-0.39453 -2.36719,-0.39453 z m 1.7832,3.2871 c 0.42953,-0.0203 0.77735,0.0242 0.77735,0.14453 0,0.22872 -1.49282,1.46737 -2.26953,1.88281 -1.16018,0.62054 -1.78525,0.44123 -1.35352,-0.38867 0.31736,-0.61007 0.87519,-1.10196 1.58008,-1.39648 0.32485,-0.13572 0.8361,-0.2219 1.26562,-0.24219 z"
     id="path1149"
     inkscape:connector-curvature="0" />
  <path
     style="fill:#000000;stroke-width:1"
     d="M 222.32812 76.292969 C 222.18505 76.292053 222.03727 76.320453 221.88672 76.382812 C 221.10749 76.705583 220.83868 77.883624 221.41406 78.458984 C 221.80799 78.852914 222.87682 78.892714 223.24219 78.527344 C 224.05684 77.712701 223.32967 76.299379 222.32812 76.292969 z M 222.20508 80.699219 C 221.65305 80.699219 220.93359 81.264469 220.93359 81.699219 C 220.93359 82.081439 221.52011 82.779297 221.8418 82.779297 C 222.151 82.779297 222.12045 82.858556 221.40234 83.916016 C 220.87612 84.690886 220.78674 84.921052 220.94141 85.107422 C 221.26037 85.491732 221.59576 85.373224 222.31641 84.621094 C 223.06126 83.843744 223.60393 82.434542 223.42773 81.732422 C 223.29165 81.190282 222.70971 80.699219 222.20508 80.699219 z "
     id="path1145" />
  <path
     style="fill:#000000;stroke-width:1"
     d="m 264.40535,85.106475 c -0.55048,-0.55047 -0.2057,-1.04799 0.72627,-1.04799 0.33723,0 0.87216,-0.10822 1.18875,-0.2405 0.57301,-0.23942 0.57512,-0.24396 0.4673,-1 -0.30346,-2.12768 -0.30171,-2.39133 0.0179,-2.70119 0.30282,-0.29358 0.29907,-0.3059 -0.23723,-0.77884 -0.54442,-0.48011 -0.5449,-0.48179 -0.52983,-1.87658 0.0165,-1.5232 -0.0919,-1.71075 -1.13748,-1.96773 -1.04816,-0.25763 -0.81018,-1.19513 0.30337,-1.19513 1.61895,0 2.55711,1.21749 2.28675,2.96762 -0.15713,1.01726 -0.006,1.19236 1.0273,1.19236 0.96259,0 1.53602,0.32757 1.53602,0.87746 0,0.45046 -0.52634,0.89983 -1.53196,1.30794 -0.64348,0.26115 -0.71555,0.34003 -0.63462,0.6946 0.23946,1.0491 0.27922,2.25491 0.0895,2.71301 -0.29033,0.70091 -1.12197,1.1509 -2.30203,1.24563 -0.79971,0.0642 -1.05322,0.0261 -1.27,-0.19066 z"
     id="path1143"
     inkscape:connector-curvature="0" />
  <path
     style="fill:#000000;stroke-width:1"
     d="m 62.122749,85.019275 c -1.595256,-0.23395 -2.54632,-1.01711 -2.145253,-1.76651 0.153179,-0.28621 0.299277,-0.30051 2.125842,-0.20793 1.762209,0.0893 2.036976,0.066 2.706125,-0.23004 0.551776,-0.24408 0.828648,-0.49386 1.068465,-0.96394 0.310765,-0.60915 0.312237,-0.64486 0.03686,-0.89407 -0.477433,-0.43207 -1.742062,-0.78431 -2.506531,-0.69814 -0.787851,0.0888 -1.353776,-0.19325 -1.353776,-0.67471 0,-0.17376 0.42387,-0.62943 1.024813,-1.10169 1.185349,-0.93152 1.90511,-1.80462 1.827001,-2.21623 -0.04096,-0.21588 -0.23288,-0.30031 -0.769593,-0.33858 -1.071839,-0.0764 -1.657445,0.0836 -2.54817,0.69632 -1.264033,0.8695 -1.698731,0.65035 -1.10207,-0.55561 0.542059,-1.09559 1.48704,-1.63593 3.252078,-1.85954 1.084397,-0.13739 2.036264,0.1414 2.544307,0.74517 0.783213,0.93079 0.73729,1.9335 -0.141265,3.08446 l -0.53977,0.70713 0.698879,0.26691 c 1.220998,0.4663 2.0462,1.78737 1.777177,2.84508 -0.202891,0.79769 -1.153678,2.11793 -1.783387,2.47636 -1.112618,0.63329 -2.723331,0.89797 -4.171736,0.68556 z"
     id="path1141"
     inkscape:connector-curvature="0" />
  <path
     style="fill:#000000;stroke-width:1"
     d="m 232.46609,85.017275 c -1.08144,-0.23116 -1.29018,-0.76938 -0.48765,-1.25742 0.49913,-0.30354 0.8012,-0.33677 6.11744,-0.67307 2.76413,-0.17486 3.66382,-0.0587 3.96949,0.51242 0.22744,0.42497 0.0694,1.04542 -0.31919,1.2534 -0.40771,0.21819 -8.36883,0.35946 -9.28009,0.16467 z"
     id="path1139"
     inkscape:connector-curvature="0" />
  <path
     style="fill:#000000;stroke-width:1"
     d="m 39.839101,84.723485 c -0.273954,-0.27396 -0.313941,-0.68478 -0.420829,-4.32351 l -0.11811,-4.02079 -0.605863,0.47985 c -0.333225,0.26392 -0.789252,0.47985 -1.013396,0.47985 -0.938372,0 -0.736141,-0.7772 0.56383,-2.16687 1.17269,-1.2536 1.74543,-1.60162 2.218856,-1.34825 0.179418,0.096 0.392534,0.34902 0.473594,0.56223 0.235696,0.61991 0.275481,9.34746 0.04496,9.86314 -0.290709,0.65032 -0.768705,0.84867 -1.143042,0.47435 z"
     id="path1137"
     inkscape:connector-curvature="0" />
  <path
     style="fill:#000000;stroke-width:1"
     d="m 115.10591,84.767485 c -0.13828,-0.13828 -0.25142,-0.42151 -0.25142,-0.6294 0,-0.20788 0.756,-2.0092 1.68,-4.00293 0.924,-1.99374 1.68,-3.64575 1.68,-3.67114 0,-0.0254 -1.25569,-0.0985 -2.79041,-0.16243 -2.40332,-0.10012 -2.82697,-0.15666 -3.05402,-0.40754 -0.14499,-0.16022 -0.23843,-0.42211 -0.20764,-0.58199 0.1102,-0.57221 0.87463,-0.73369 4.28236,-0.90461 3.71657,-0.18642 4.12213,-0.11403 4.37852,0.78151 0.12521,0.43737 -0.0834,0.94615 -1.94212,4.73554 -2.38685,4.86624 -2.98487,5.63338 -3.77527,4.84299 z"
     id="path1135"
     inkscape:connector-curvature="0" />
  <path
     style="fill:#000000;stroke-width:1"
     d="m 47.934485,84.686685 c -0.474458,-0.2773 -0.315136,-0.85541 0.552525,-2.00485 2.74563,-3.6373 2.823811,-3.75619 2.995035,-4.55458 0.227045,-1.05867 0.217515,-1.46549 -0.04267,-1.82131 -0.462464,-0.63246 -2.024115,0.37925 -2.370627,1.5358 -0.163993,0.54736 -0.245528,0.62661 -0.601976,0.58515 -0.524765,-0.061 -0.614051,-0.56295 -0.263449,-1.48099 0.625017,-1.63658 2.57342,-2.72 3.84756,-2.13947 0.73431,0.33457 1.085353,1.12991 1.070276,2.42487 -0.01677,1.44014 -0.311257,2.28281 -1.295041,3.70571 l -0.775693,1.12192 h 1.462029 c 0.804115,0 1.659117,0.0551 1.900003,0.12254 0.571414,0.15987 0.987258,0.79577 0.857773,1.31168 -0.159453,0.63531 -0.626123,0.78898 -1.734026,0.57102 -1.168265,-0.22985 -3.138913,0.0497 -5.161723,0.73217 -0.088,0.0297 -0.286,-0.0197 -0.44,-0.10966 z"
     id="path1133"
     inkscape:connector-curvature="0" />
  <path
     style="fill:#000000;stroke-width:1"
     d="m 89.094485,84.613685 c -0.698794,-0.31489 -1.44,-1.01113 -1.44,-1.35263 0,-0.62354 0.769066,-0.838 1.405792,-0.39202 0.553949,0.388 1.493642,0.32582 2.310502,-0.1529 1.324807,-0.77637 1.59473,-1.36926 0.872148,-1.91567 -0.38898,-0.29415 -0.643981,-0.33759 -1.84,-0.31348 -0.763644,0.0154 -1.639912,0.0514 -1.947266,0.08 -0.527898,0.0491 -0.569501,0.0166 -0.751778,-0.58799 -0.265592,-0.88093 -0.874788,-3.26756 -0.966331,-3.78577 -0.133201,-0.75405 0.333,-0.88491 3.568034,-1.00152 2.780625,-0.10024 2.907489,-0.0913 3.32,0.23315 0.516136,0.406 0.552963,0.95221 0.09232,1.36935 -0.300286,0.27194 -0.60195,0.3048 -2.797923,0.3048 -2.112618,0 -2.451335,0.034 -2.390661,0.24 0.03888,0.132 0.153338,0.57741 0.25435,0.98979 0.173437,0.70806 0.205591,0.74145 0.57765,0.6 0.693547,-0.26369 2.380038,-0.17267 3.320517,0.17921 1.366568,0.5113 2.004518,1.45126 1.783733,2.62815 -0.361488,1.92689 -3.613906,3.66934 -5.37109,2.87753 z"
     id="path1131"
     inkscape:connector-curvature="0" />
  <path
     style="fill:#000000;stroke-width:1"
     d="m 128.97369,74.604715 c -0.58732,-0.0276 -1.15254,0.0817 -1.58594,0.34961 -0.697,0.43077 -1.20816,1.43314 -1.22266,2.39648 -0.0143,0.94446 0.34991,1.52297 1.19727,1.90233 0.39386,0.17635 0.57087,0.33195 0.45703,0.40235 -0.10217,0.0631 -0.39806,0.40725 -0.65625,0.76367 -0.54372,0.75057 -0.62199,1.68292 -0.22266,2.63866 0.32955,0.78872 0.6688,1.14744 1.4336,1.51172 0.8992,0.42828 2.76615,0.31569 3.98047,-0.24024 1.71387,-0.78463 2.35617,-2.51183 1.5332,-4.12499 -0.32055,-0.62832 -1.554,-1.58593 -2.04297,-1.58593 -0.16224,0 -0.19514,-0.1024 -0.11523,-0.35937 0.0616,-0.198 0.14921,-0.72391 0.19531,-1.16797 0.0732,-0.70544 0.0298,-0.86965 -0.33789,-1.30663 -0.59434,-0.70633 -1.63442,-1.13372 -2.61328,-1.17969 z m -0.19141,1.61523 c 0.77729,0 1.5918,0.42677 1.5918,0.83398 0,0.15702 -0.14432,0.42947 -0.32032,0.60547 -0.33526,0.33526 -0.68501,0.37038 -1.57421,0.16016 -0.78666,-0.18599 -0.88325,-0.35006 -0.60352,-1.01953 0.2238,-0.53566 0.29465,-0.58008 0.90625,-0.58008 z m 1.4043,3.91014 c 0.13622,0.001 0.28267,0.031 0.45507,0.0781 1.99821,0.54668 2.38895,1.98592 0.72852,2.67969 -1.17133,0.4894 -1.93921,0.42068 -2.63477,-0.23438 -0.57482,-0.54135 -0.55658,-1.01373 0.0645,-1.63476 0.66013,-0.66016 0.97803,-0.89332 1.38672,-0.88867 z"
     id="path1129"
     inkscape:connector-curvature="0" />
  <path
     style="fill:#000000;stroke-width:1"
     d="m 77.966304,84.472755 c -0.258161,-0.18877 -0.322782,-0.48657 -0.390581,-1.8 l -0.08124,-1.57379 -1.36,-0.0958 c -0.748,-0.0527 -1.59391,-0.14839 -1.879802,-0.21267 -0.890838,-0.20027 -0.959491,-0.44896 -0.87563,-3.17183 0.07873,-2.55628 0.176506,-2.99967 0.66147,-2.99967 0.591197,0 0.731557,0.44473 0.790415,2.50444 l 0.05645,1.97554 h 1.324234 1.324232 l 0.06668,-2.00291 c 0.05817,-1.74736 0.108156,-2.0444 0.391737,-2.32797 0.323319,-0.32332 0.327131,-0.32338 0.712635,-0.0113 0.366232,0.2965 0.390661,0.42376 0.443554,2.31066 l 0.05598,1.99688 1.166771,0.10933 c 1.338819,0.12546 1.841277,0.45453 1.841277,1.20587 0,0.62943 -0.371989,0.7994 -1.749482,0.7994 h -1.130518 l -0.0095,0.76 c -0.0159,1.26765 -0.246688,2.31765 -0.559706,2.54653 -0.364608,0.26661 -0.418072,0.26576 -0.798937,-0.0127 z"
     id="path1123"
     inkscape:connector-curvature="0" />
  <path
     style="fill:#000000;stroke-width:1"
     d="m 27.792043,74.065655 c -0.564149,-0.0119 -1.137328,0.0818 -1.523437,0.2832 -1.114001,0.58109 -2.098382,2.26197 -2.519532,4.30273 -0.316058,1.53143 -0.317081,1.89885 -0.0078,3.09374 0.285772,1.1041 0.8815,1.92286 1.767578,2.42967 1.84683,1.05635 4.362698,-0.28123 5.1875,-2.75975 0.832433,-2.50145 0.105526,-6.04634 -1.435547,-7.00389 -0.348988,-0.21687 -0.904601,-0.33384 -1.46875,-0.3457 z m -0.25,1.84961 c 0.891433,-0.02 1.282103,0.60568 1.556641,2.32421 0.264153,1.65352 -0.129472,3.20589 -1.023438,4.041 -0.281992,0.26342 -0.649447,0.40281 -1.175781,0.44531 -1.041989,0.0843 -1.557388,-0.31988 -1.896485,-1.48632 -0.233025,-0.80167 -0.233932,-0.98077 0.0078,-2.17383 0.42491,-2.097 0.964918,-2.88733 2.117187,-3.1035 0.148936,-0.0279 0.286715,-0.044 0.414063,-0.0469 z"
     id="path1121"
     inkscape:connector-curvature="0" />
  <path
     style="fill:#000000;stroke-width:1"
     d="m 103.18072,75.100805 c -1.19994,-0.0618 -3.445888,2.42307 -4.02149,4.70898 -0.379559,1.50734 0.436351,3.30512 1.80664,3.98045 0.82025,0.40427 2.60998,0.35332 3.40625,-0.0977 1.83375,-1.0386 1.79022,-3.9358 -0.0723,-4.87498 -0.76118,-0.38384 -1.79899,-0.4652 -2.68555,-0.21094 -0.49236,0.14121 -0.51041,0.13341 -0.3418,-0.18164 0.28597,-0.53434 1.41628,-1.69662 2.00196,-2.05859 0.55672,-0.34407 0.68395,-0.73987 0.34765,-1.07617 -0.12086,-0.12086 -0.26998,-0.18062 -0.4414,-0.18945 z m -0.25,5.27928 c 0.33294,0.0184 0.60417,0.0939 0.73047,0.2461 0.28359,0.34168 0.26004,1.15403 -0.043,1.45702 -0.33907,0.33908 -1.53204,0.43042 -2.12305,0.16211 -0.51379,-0.23325 -0.76867,-0.49346 -0.9336,-0.95507 -0.17843,-0.49941 1.37033,-0.96538 2.36915,-0.91016 z"
     id="path1117"
     inkscape:connector-curvature="0" />
  <path
     style="fill:#000000;stroke-width:1"
     d="m 144.25298,74.175025 c -0.4918,-0.0117 -1.05673,0.0773 -1.55859,0.26758 -2.57152,0.97482 -3.89565,3.25146 -2.86328,4.92186 0.52968,0.85705 1.42442,1.23037 2.96289,1.23437 l 1.29883,0.004 0.0859,1.25391 c 0.0526,0.76798 0.18931,1.40861 0.35157,1.65624 0.32281,0.49266 0.73153,0.44688 1,-0.11328 0.50038,-1.04399 0.36857,-8.36579 -0.16016,-8.8945 -0.20706,-0.20704 -0.62538,-0.31843 -1.11719,-0.33008 z m -0.27343,1.45313 c 0.15117,0.0302 0.15429,0.32171 0.15429,1.4414 v 1.51171 l -0.71094,0.17774 c -0.87165,0.21952 -1.13301,0.21522 -1.84765,-0.0332 -0.49842,-0.17324 -0.55786,-0.25353 -0.53516,-0.72852 0.0406,-0.85112 1.26323,-1.89524 2.73438,-2.33397 0.0888,-0.0265 0.15468,-0.0452 0.20508,-0.0352 z"
     id="path1113"
     inkscape:connector-curvature="0" />
  <path
     style="fill:#000000;stroke-width:1"
     d="M 214.52734 76.320312 C 214.22543 76.360182 213.90905 76.543362 213.66992 76.884766 C 213.34833 77.344016 213.34767 77.651826 213.66406 78.103516 C 213.83807 78.351946 214.07652 78.458984 214.45508 78.458984 C 215.106 78.458984 215.49414 77.997582 215.49414 77.226562 C 215.49414 76.582687 215.03054 76.253863 214.52734 76.320312 z M 214.28516 80.865234 C 213.73124 80.900385 213.25469 81.334622 213.25781 82.017578 C 213.26061 82.612268 213.36414 82.809512 213.81445 83.070312 C 214.46128 83.444923 215.37505 82.947542 215.58008 82.107422 C 215.66205 81.771602 215.5946 81.582885 215.27734 81.265625 C 214.9782 80.96648 214.61751 80.844144 214.28516 80.865234 z "
     id="path1109" />
  <path
     style="fill:#000000;stroke-width:1"
     d="m 282.15013,81.431695 c -0.34339,-0.12777 -0.99366,-0.59702 -1.44504,-1.04279 -1.02451,-1.01178 -1.34513,-1.02889 -3.02944,-0.16161 -0.92913,0.47843 -1.4107,0.63549 -1.83867,0.59967 -1.09608,-0.0917 -0.82801,-0.49499 0.96904,-1.45771 2.49056,-1.33424 3.31277,-1.37434 4.56235,-0.22252 0.62852,0.57935 0.81452,0.66056 1.65154,0.72111 0.84765,0.0613 1.01962,0.0177 1.69635,-0.4306 0.83503,-0.5531 0.90538,-0.57047 1.34874,-0.33319 0.42,0.22477 0.41145,1.10458 -0.0152,1.56249 -0.80114,0.85992 -2.66315,1.22526 -3.89971,0.76515 z"
     id="path1107"
     inkscape:connector-curvature="0" />
  <path
     style="fill:#000000;stroke-width:1"
     d="M 176.7832 76.009766 C 175.47297 76.008501 175.26769 76.071838 175.0332 76.283203 C 174.59432 76.678833 174.60272 77.115067 175.05469 77.367188 C 175.25269 77.477637 176.02739 77.653139 176.77539 77.755859 C 178.59123 78.005239 181.45546 78.027002 181.96484 77.794922 C 182.66398 77.476352 182.64004 76.616772 181.92188 76.232422 C 181.76488 76.148402 180.22693 76.057297 178.50391 76.029297 C 177.77977 76.017529 177.21995 76.010187 176.7832 76.009766 z M 179.93359 79.396484 C 178.1576 79.40348 175.57297 79.554913 175.14453 79.71875 C 174.49555 79.96693 174.31195 80.424746 174.67969 80.878906 C 174.96879 81.235916 175.09049 81.253103 177.99609 81.345703 C 179.65569 81.398603 181.28523 81.455303 181.61523 81.470703 C 182.65845 81.519233 183.18231 80.658124 182.57031 79.902344 C 182.36085 79.643684 182.03456 79.522306 181.33008 79.441406 C 181.02778 79.406679 180.52559 79.394153 179.93359 79.396484 z "
     id="path1105" />
  <path
     style="fill:#000000;stroke-width:1"
     d="m 297.08306,74.884015 c -1.14455,-0.0443 -2.15262,0.70011 -2.45898,1.9746 -0.13668,0.56857 0.36129,1.43639 1.02734,1.78711 0.69606,0.36654 1.96337,0.38169 2.55664,0.0312 1.27977,-0.75595 1.3051,-2.83166 0.043,-3.47656 -0.39071,-0.19964 -0.78645,-0.30165 -1.16797,-0.3164 z m -0.29687,1.24413 c 0.27328,0.0289 0.55367,0.12315 0.73242,0.27149 0.31713,0.26317 0.26244,0.90313 -0.0937,1.09375 -0.41072,0.21981 -0.80486,0.20532 -1.29102,-0.0469 -0.46515,-0.24132 -0.4844,-0.85821 -0.0371,-1.19727 0.14982,-0.11357 0.41617,-0.15002 0.68946,-0.12109 z"
     id="path1103"
     inkscape:connector-curvature="0" />
  <path
     style="fill:#000000;stroke-width:1"
     d="m 27.532277,59.030522 c -0.110854,0.02404 -0.228145,0.09924 -0.353515,0.224609 -0.251647,0.25165 -0.324219,0.532622 -0.324219,1.265625 v 0.94336 l -1.126953,0.27539 c -0.620167,0.15197 -1.161542,0.244679 -1.201172,0.205079 -0.03963,-0.03963 -0.117498,-0.53474 -0.173828,-1.09961 -0.148608,-1.490183 -0.38802,-1.826457 -1.017578,-1.429687 -0.17167,0.10819 -0.263093,0.545709 -0.320313,1.537109 l -0.08008,1.384766 -1.052734,0.265625 c -1.337316,0.33578 -1.943513,0.717977 -1.876953,1.185547 0.04715,0.331209 0.128181,0.349656 1.529296,0.347656 l 1.480469,-0.002 v 0.767578 c 0,0.47693 -0.07686,0.788918 -0.201172,0.824219 -0.11,0.03119 -0.497831,0.137328 -0.863281,0.236328 -0.36545,0.09902 -0.834465,0.323019 -1.041016,0.498049 l -0.375,0.31836 0.378907,0.32031 c 0.275845,0.2337 0.608582,0.32031 1.238281,0.32031 h 0.863281 v 0.98632 c 0,1.361 0.480896,1.91094 1.146485,1.3086 0.228469,-0.20676 0.292968,-0.50152 0.292968,-1.3457 v -1.08203 l 0.59961,-0.0898 c 0.33,-0.0494 0.935133,-0.13456 1.34375,-0.18946 l 0.742187,-0.0996 0.05859,1.38867 c 0.05041,1.22745 0.100576,1.42528 0.431641,1.69336 0.284465,0.23038 0.446994,0.26502 0.675781,0.14257 0.518727,-0.2776 0.657389,-0.76615 0.605469,-2.1289 l -0.04883,-1.30468 0.875,-0.10156 c 1.094196,-0.12696 1.399951,-0.2523 1.617187,-0.658207 0.135498,-0.25318 0.105946,-0.409114 -0.140625,-0.740234 -0.273806,-0.36771 -0.442577,-0.425697 -1.361328,-0.466797 l -1.050781,-0.04687 -0.111329,-0.8125 c -0.135093,-0.98225 -0.110489,-1.002658 1.5,-1.242188 0.664312,-0.09881 1.337422,-0.297806 1.496094,-0.441406 0.37953,-0.34348 0.365078,-0.89133 -0.03125,-1.25 -0.267258,-0.24183 -0.49053,-0.2706 -1.398437,-0.1875 -0.594886,0.05446 -1.237674,0.142666 -1.427735,0.197266 -0.311492,0.08943 -0.363697,0.01218 -0.53125,-0.794922 -0.168849,-0.813347 -0.433061,-1.195158 -0.765625,-1.123047 z m -0.658203,4.388672 c 0.0772,0 0.140625,0.353349 0.140625,0.787109 v 0.789063 L 26.094777,65.1731 c -0.506,0.0977 -1.08325,0.211706 -1.28125,0.253906 -0.33488,0.07139 -0.359375,0.02188 -0.359375,-0.708984 v -0.785156 l 1.140625,-0.257813 c 0.626795,-0.14155 1.202087,-0.255859 1.279297,-0.255859 z"
     id="path1093"
     inkscape:connector-curvature="0" />
  <path
     style="fill:#000000;stroke-width:1"
     d="m 79.236951,69.901275 c -0.727064,-0.43584 -1.734879,-1.77953 -1.982628,-2.64337 -0.202648,-0.70659 -0.200123,-2.75095 0.0045,-3.63772 0.180599,-0.78267 0.89856,-2.02626 1.807186,-3.13022 0.503907,-0.612243 0.717512,-0.758643 1.050502,-0.720003 0.670364,0.0778 0.628344,0.649973 -0.118856,1.618483 -1.335787,1.73143 -1.765744,3.41427 -1.300374,5.08965 0.199421,0.71793 1.260675,1.94841 1.913757,2.21893 0.611403,0.25325 0.7952,0.84856 0.397621,1.28788 -0.380882,0.42087 -0.977034,0.39273 -1.7717,-0.0836 z"
     id="path1089"
     inkscape:connector-curvature="0" />
  <path
     style="fill:#000000;stroke-width:1"
     d="m 126.45434,69.875475 c -0.38555,-0.38555 -0.21856,-0.79363 0.99684,-2.43604 0.80213,-1.08395 1.17351,-1.46095 1.43916,-1.46095 0.79387,0 0.61337,1.51859 -0.32704,2.75155 -0.48378,0.63428 -1.42977,1.40844 -1.72105,1.40844 -0.0687,0 -0.24326,-0.11835 -0.38791,-0.263 z"
     id="path1087"
     inkscape:connector-curvature="0" />
  <path
     style="fill:#000000;stroke-width:1"
     d="m 41.844777,58.225835 c -0.453722,0.03067 -0.945639,0.175198 -1.470703,0.433593 -0.942808,0.46398 -1.319616,0.87369 -1.611328,1.751953 -0.289058,0.87027 -0.225195,1.553037 0.244141,2.623047 l 0.289062,0.65625 -0.722656,0.703125 c -0.915179,0.89287 -1.309953,1.747002 -1.314453,2.839842 -0.0058,1.41025 0.590729,2.22468 1.890625,2.57617 0.233849,0.0632 0.701478,0.0537 1.039062,-0.0215 0.649542,-0.14464 2.097854,-1.00215 2.683594,-1.58789 0.227271,-0.22731 0.416945,-0.29868 0.539063,-0.20508 1.800957,1.38103 3.103725,1.91189 3.5625,1.45312 0.227749,-0.22775 0.225433,-0.28824 -0.01953,-0.66211 -0.148374,-0.22644 -0.807636,-0.85317 -1.464843,-1.39257 -0.657204,-0.5394 -1.195356,-1.02472 -1.195313,-1.07812 4.5e-5,-0.0534 0.144358,-0.476506 0.320313,-0.939456 0.380119,-1.00009 0.425088,-2.311947 0.08789,-2.591797 -0.357416,-0.29663 -0.530037,-0.08682 -0.882812,1.080078 -0.448776,1.48446 -0.522123,1.578066 -0.976563,1.259766 -0.663562,-0.46478 -2.70725,-2.897529 -2.845703,-3.386719 -0.214315,-0.75723 0.113819,-1.381999 0.943359,-1.792968 0.992129,-0.491524 1.336512,-0.454224 2.087891,0.224609 0.52012,0.46986 0.707857,0.556558 0.919922,0.423828 0.480767,-0.30092 0.413258,-0.945679 -0.164063,-1.574219 -0.531503,-0.578656 -1.183249,-0.844089 -1.939453,-0.792968 z m -1.65039,6.634765 1.003906,1.078125 1.001953,1.08008 -0.511719,0.45117 c -0.282331,0.2486 -0.780926,0.59036 -1.107421,0.75976 -1.245624,0.6463 -2.046822,0.26067 -2.044922,-0.98437 0.0012,-0.81305 0.337586,-1.412184 1.121093,-1.990234 z"
     id="path1085"
     inkscape:connector-curvature="0" />
  <path
     style="fill:#000000;stroke-width:1"
     d="m 91.246802,69.269235 c -0.305659,-0.4665 -0.183823,-0.76415 0.748597,-1.82888 0.717776,-0.81963 0.852435,-1.37884 0.737128,-3.06113 -0.103394,-1.50848 -0.498738,-2.4614 -1.3916,-3.35427 -0.497738,-0.49773 -0.653282,-0.77038 -0.616135,-1.07999 0.08095,-0.674683 0.460104,-0.787413 1.292727,-0.384343 0.999168,0.483683 1.521985,1.042953 2.078203,2.223063 0.398139,0.84472 0.487128,1.26707 0.557504,2.64598 0.11931,2.33772 -0.134207,3.12967 -1.383251,4.32104 -1.074386,1.02479 -1.602732,1.1602 -2.023173,0.51853 z"
     id="path1081"
     inkscape:connector-curvature="0" />
  <path
     style="fill:#000000;stroke-width:1"
     d="m 147.86329,69.394915 c -0.24678,-0.6431 0.71008,-2.22032 3.37016,-5.55515 2.55195,-3.19928 4.02094,-4.854263 4.4216,-4.981433 0.51037,-0.16198 0.95944,0.18939 0.95944,0.75071 0,0.571823 -0.21365,0.878773 -2.48442,3.569473 -0.89119,1.056 -2.32817,2.82 -3.19329,3.92 -0.86511,1.09999 -1.72354,2.12439 -1.90762,2.27643 -0.42571,0.35164 -1.03459,0.36206 -1.16587,0.02 z"
     id="path1079"
     inkscape:connector-curvature="0" />
  <path
     style="fill:#000000;stroke-width:1"
     d="m 168.01353,69.411815 c -0.35192,-0.2465 -0.73066,-0.79655 -3.13515,-4.55333 -2.74185,-4.28386 -3.08179,-5.096453 -2.28413,-5.459893 0.2723,-0.12407 0.47133,-0.12402 0.70337,1.6e-4 0.42354,0.22667 1.81888,2.090323 3.76036,5.022413 2.42626,3.66424 2.63494,4.17343 1.9791,4.82926 -0.47711,0.47711 -0.55521,0.48943 -1.02355,0.16139 z"
     id="path1077"
     inkscape:connector-curvature="0" />
  <path
     style="fill:#000000;stroke-width:1"
     d="M 58.820312 59.050781 C 58.660864 59.089981 58.543305 59.248231 58.408203 59.541016 C 58.297188 59.781606 58.044343 60.176609 57.845703 60.417969 C 57.516244 60.818289 57.435885 60.841329 56.929688 60.693359 C 56.26934 60.500319 54.87752 60.771561 54.744141 61.119141 C 54.606064 61.478971 55.011338 61.818359 55.580078 61.818359 C 56.649386 61.818359 56.679534 61.939556 55.84375 62.916016 C 53.817478 65.283376 51.562866 69.033576 51.939453 69.410156 C 52.080898 69.551596 52.342411 69.425296 53.376953 68.722656 C 53.881201 68.380186 54.475313 67.861743 54.695312 67.570312 C 54.915312 67.278883 55.351411 66.712737 55.666016 66.310547 C 55.980621 65.908357 56.638414 64.947824 57.126953 64.177734 C 58.092115 62.656324 58.074106 62.661335 58.677734 63.859375 C 59.19062 64.877325 59.974609 64.67865 59.974609 63.53125 C 59.974609 63.10571 59.34515 62.088679 58.818359 61.662109 L 58.484375 61.390625 L 58.855469 60.732422 C 59.065132 60.359382 59.364206 60.052491 59.546875 60.025391 C 60.065546 59.948421 60.037017 59.611471 59.484375 59.275391 C 59.180421 59.090546 58.979761 59.011581 58.820312 59.050781 z M 51.972656 62.458984 C 51.239312 62.458984 50.857549 62.849959 50.740234 63.724609 C 50.646704 64.421919 50.835355 64.789523 51.410156 65.033203 C 52.329109 65.422783 53.528571 64.586211 53.347656 63.681641 C 53.198645 62.936581 52.662523 62.458984 51.972656 62.458984 z M 52.035156 63.148438 C 52.355798 63.154938 52.675258 63.457903 52.541016 63.880859 C 52.470126 64.104229 52.29972 64.21875 52.039062 64.21875 C 51.618349 64.21875 51.401498 63.895304 51.554688 63.496094 C 51.649878 63.248046 51.842772 63.144515 52.035156 63.148438 z M 58.328125 66.044922 C 57.222565 65.915871 55.991422 67.521182 56.732422 68.513672 C 56.903664 68.743032 57.217621 68.978709 57.429688 69.037109 C 58.287506 69.273239 59.071564 68.791702 59.300781 67.888672 C 59.504266 67.087002 59.349941 66.580391 58.789062 66.212891 C 58.642389 66.116791 58.486062 66.063362 58.328125 66.044922 z M 57.953125 66.982422 C 58.349524 66.915122 58.669413 67.399794 58.400391 67.990234 C 58.195975 68.438884 57.868844 68.487983 57.507812 68.126953 C 57.186074 67.805223 57.190932 67.69439 57.550781 67.25 C 57.68134 67.08877 57.820993 67.004862 57.953125 66.982422 z "
     id="path1075" />
  <path
     style="fill:#000000;stroke-width:1"
     d="m 114.86434,69.218445 c -0.29336,-0.23767 -0.36008,-0.50373 -0.44141,-1.75999 l -0.0958,-1.48 -0.97632,-0.004 c -1.74697,-0.007 -2.79288,-0.41413 -2.56805,-1.00004 0.13435,-0.3501 0.85767,-0.5625 2.3609,-0.69327 l 1.24917,-0.10868 -0.10463,-1.61709 c -0.10982,-1.69738 0.0289,-2.42373 0.49722,-2.60344 0.63756,-0.244653 1.18461,1.29644 1.18787,3.34633 l 10e-4,0.76001 h 1.28794 c 1.88688,0 2.6441,0.51191 2.16923,1.46649 -0.17295,0.34766 -0.2935,0.37668 -1.74149,0.4193 l -1.55568,0.0458 v 1.4342 c 0,1.22087 -0.0476,1.4818 -0.32,1.7542 -0.39169,0.39168 -0.50993,0.39666 -0.95015,0.04 z"
     id="path1073"
     inkscape:connector-curvature="0" />
  <path
     style="fill:#000000;stroke-width:1"
     d="m 139.01449,65.390145 c -3.51316,-0.2557 -4.40885,-0.37879 -4.5938,-0.6313 -0.26606,-0.36325 -0.0241,-0.76346 0.62768,-1.03844 0.38966,-0.16438 1.35794,-0.22195 3.73325,-0.22195 2.80088,0 3.26197,0.0359 3.64,0.28369 0.51657,0.33855 0.58521,1.04884 0.14027,1.45151 -0.28972,0.2622 -1.41378,0.31178 -3.5474,0.15649 z"
     id="path1067"
     inkscape:connector-curvature="0" />
  <path
     style="fill:#000000;stroke-width:1"
     d="m 100.08115,64.591785 c -0.262422,-0.26242 -0.0523,-0.76519 0.62042,-1.48435 l 0.72709,-0.77731 -0.80709,-0.79446 c -0.789052,-0.7767 -0.978192,-1.19258 -0.637992,-1.40283 0.292082,-0.18052 0.858172,0.0543 1.394242,0.57845 l 0.51667,0.50514 0.002,-0.61898 c 0.003,-0.760253 0.1819,-1.068343 0.57673,-0.993303 0.22244,0.0423 0.32167,0.2361 0.38082,0.743823 l 0.08,0.68664 0.55109,-0.40808 c 0.58118,-0.43036 1.04041,-0.52072 1.21454,-0.23897 0.2185,0.35355 -0.11329,0.95089 -0.80352,1.44657 l -0.71654,0.51458 0.64737,0.70232 c 0.76603,0.83104 0.80548,1.37772 0.10522,1.45824 -0.3419,0.0393 -0.58988,-0.0987 -1.09621,-0.61013 -0.7322,-0.73955 -0.56631,-0.7723 -1.81639,0.35858 -0.48807,0.44153 -0.74132,0.53164 -0.93889,0.33407 z"
     id="path1061"
     inkscape:connector-curvature="0" />
  <path
     style="fill:#000000;stroke-width:1"
     d="M 182.51367 58.806641 C 182.38194 58.802548 182.23394 58.819531 182.07031 58.855469 C 181.13223 59.061499 180.52454 60.158671 180.69531 61.337891 C 180.8135 62.154061 181.41548 63.288082 181.91602 63.638672 C 182.27373 63.889222 182.62121 63.837918 182.74414 63.517578 C 182.78532 63.410238 182.64489 62.909947 182.43164 62.404297 C 182.0255 61.441207 182.04479 61.177734 182.51953 61.177734 C 183.15738 61.177734 183.63424 60.141692 183.33203 59.412109 C 183.16739 59.014647 182.90887 58.818917 182.51367 58.806641 z M 178.03711 59.097656 C 177.17231 59.097656 176.57873 59.891049 176.48633 61.167969 C 176.4132 62.179149 176.65549 62.841697 177.38672 63.623047 C 178.19456 64.486237 178.66155 63.807159 178.06445 62.636719 C 177.6348 61.794059 177.63405 61.337891 178.0625 61.337891 C 178.532 61.337891 179.17383 60.633971 179.17383 60.119141 C 179.17383 59.479308 178.75021 59.097656 178.03711 59.097656 z "
     id="path1059" />
  <path
     style="fill:#000000;stroke-width:1"
     d="M 201.68945 58.484375 C 201.3172 58.550696 201.15236 59.006111 201.53516 59.791016 C 202.09351 60.935909 202.10594 61.110881 201.66016 61.556641 C 201.12834 62.088681 201.13099 62.7681 201.66797 63.40625 C 202.40565 64.28295 203.40709 64.013475 203.82031 62.828125 C 204.03885 62.201205 203.66186 60.483055 203.09375 59.513672 C 202.64106 58.741214 202.06171 58.418054 201.68945 58.484375 z M 197.45703 58.886719 C 196.99849 58.953555 196.96933 59.465618 197.49609 60.15625 C 198.17892 61.05148 198.22244 61.348508 197.75977 61.955078 C 197.30804 62.547338 197.21884 63.388634 197.5625 63.802734 C 197.80213 64.091454 198.71746 64.143991 199.18359 63.894531 C 199.35289 63.803921 199.59953 63.518749 199.73242 63.261719 C 200.42065 61.930869 199.45931 59.476136 198.05469 58.978516 C 197.81098 58.892173 197.60988 58.86444 197.45703 58.886719 z "
     id="path1057" />
  <path
     style="fill:#000000;stroke-width:1"
     d="m 67.820114,63.588985 c -0.0911,-0.17021 -0.165629,-1.25021 -0.165629,-2.4 0,-1.901823 0.02994,-2.120463 0.331728,-2.422253 0.298238,-0.29823 0.366888,-0.30847 0.68,-0.10143 0.39564,0.26163 0.546282,1.1136 0.572448,3.237563 0.01139,0.92417 -0.05403,1.38413 -0.233248,1.64 -0.308595,0.44058 -0.960613,0.46595 -1.185299,0.0461 z"
     id="path1055"
     inkscape:connector-curvature="0" />
  <path
     style="fill:#000000;stroke-width:1"
     d="M 217.95117 58.792969 C 217.53915 58.842824 217.41406 59.437915 217.41406 61.09375 C 217.41406 62.44024 217.47499 62.952726 217.66406 63.222656 C 217.96137 63.647136 218.17046 63.669253 218.5625 63.314453 C 218.80867 63.091713 218.8537 62.805072 218.8457 61.513672 C 218.83548 59.777589 218.60575 58.891234 218.14453 58.802734 C 218.07343 58.789097 218.01003 58.785847 217.95117 58.792969 z M 220.85938 58.792969 C 220.60389 58.762132 220.33196 58.982925 220.18359 59.417969 C 219.95059 60.101222 219.91628 62.443413 220.13086 63.007812 C 220.33673 63.549242 221.15067 63.589956 221.42773 63.072266 C 221.66518 62.628576 221.54716 59.642546 221.27148 59.128906 C 221.16005 58.921269 221.01266 58.811471 220.85938 58.792969 z "
     id="path1049" />
  <path
     style="fill:#000000;stroke-width:1"
     d="m 174.29595,39.106694 c -0.30503,-6e-4 -0.61034,0.07235 -0.81055,0.21875 -0.30693,0.224433 -0.30793,0.2311 0.01,0.599609 0.22754,0.263891 0.30768,0.548049 0.27148,0.972656 -0.0499,0.585761 -0.0669,0.601563 -0.69726,0.601563 -0.6857,0 -1.57422,0.494903 -1.57422,0.876953 0,0.331233 0.34485,0.382211 0.93945,0.140625 0.66901,-0.271824 1.51003,-0.289901 1.42383,-0.03125 -0.0343,0.102859 -0.34307,0.285054 -0.6875,0.404297 -0.82391,0.285248 -1.48073,0.930875 -1.70508,1.679688 -0.15155,0.505831 -0.13353,0.710221 0.10547,1.240234 0.30114,0.667808 1.14323,1.35454 1.88281,1.535156 0.427,0.104289 0.43946,0.140758 0.43946,1.210938 0,0.60646 -0.0577,1.101562 -0.12891,1.101562 -0.31337,0 -0.67342,-0.467703 -1.04101,-1.353516 -0.21783,-0.524947 -0.46955,-0.979445 -0.56055,-1.009765 -0.31908,-0.106357 -0.39999,1.327034 -0.10938,1.939453 0.2766,0.582888 1.0299,1.258207 1.60352,1.439453 0.2269,0.07169 0.37809,0.344841 0.51562,0.923828 0.10729,0.451655 0.27843,0.919936 0.37891,1.041016 0.10049,0.121076 0.20528,0.220703 0.23438,0.220703 0.0936,0 0.70898,-1.472936 0.70898,-1.697266 0,-0.119136 0.19745,-0.264095 0.43945,-0.322265 1.02814,-0.247112 1.66242,-0.710095 1.99024,-1.451172 0.37261,-0.842358 0.31004,-1.444757 -0.23242,-2.242188 -0.42787,-0.628968 -1.1561,-1.007812 -1.94141,-1.007812 h -0.57617 v -1.039063 c 0,-0.772117 0.0566,-1.041015 0.21875,-1.041015 0.33386,0 1.03825,0.614081 1.31054,1.140625 0.31194,0.603234 0.55079,0.454159 0.55079,-0.34375 0,-0.805254 -0.68747,-1.623584 -1.5918,-1.894532 -0.39932,-0.119638 -0.64844,-0.290511 -0.64844,-0.445312 0,-0.202024 0.11683,-0.230464 0.59961,-0.146484 1.19692,0.208203 1.54962,0.184781 1.60742,-0.105469 0.0764,-0.383857 -0.8619,-0.923028 -1.60742,-0.923828 -0.5794,-5.77e-4 -0.59961,-0.01965 -0.59961,-0.5625 0,-0.309194 0.0892,-0.710461 0.19922,-0.890625 0.17017,-0.278736 0.1549,-0.360715 -0.10937,-0.556641 -0.19853,-0.1472 -0.50357,-0.222056 -0.8086,-0.222656 z m -0.84375,4.957031 c 0.25069,-0.0012 0.37752,0.348832 0.41602,1.076172 0.0622,1.174223 -0.17078,1.305791 -0.94532,0.53125 -0.57123,-0.571181 -0.5792,-0.715723 -0.0644,-1.230469 0.24815,-0.24815 0.44334,-0.37625 0.59375,-0.376953 z m 1.83594,3.330078 0.52734,0.05273 c 0.35011,0.03443 0.63614,0.198455 0.85157,0.488281 0.28155,0.378787 0.29813,0.487812 0.11914,0.822266 -0.1135,0.212082 -0.38319,0.466733 -0.59766,0.564453 -0.54579,0.248682 -0.69336,0.221837 -0.69336,-0.121094 0,-0.163717 -0.0466,-0.635965 -0.10352,-1.050781 z"
     id="path1027"
     inkscape:connector-curvature="0" />
  <path
     style="fill:#000000;stroke-width:1"
     d="m 185.43749,52.326192 c -0.55081,-0.66369 -0.69977,-1.46697 -0.6414,-3.458773 l 0.0584,-1.993229 -0.54602,-0.112976 c -0.32802,-0.06787 -0.66178,-0.04067 -0.836,0.06813 -0.21123,0.131912 -0.33789,0.133212 -0.46632,0.0048 -0.12843,-0.128428 -0.0437,-0.27076 0.31195,-0.524004 0.37901,-0.269868 0.61451,-0.324 1.05234,-0.241865 0.54721,0.102657 0.56405,0.09096 0.56405,-0.391991 0,-0.433196 -0.0556,-0.497806 -0.42864,-0.497806 -0.23576,0 -0.66594,0.08581 -0.95599,0.190688 -0.75264,0.27216 -0.84638,0.04051 -0.20536,-0.507502 0.35669,-0.304933 0.73274,-0.472466 1.06999,-0.476684 0.50248,-0.0063 0.52,-0.02897 0.52,-0.673641 0,-0.547221 -0.13661,-0.849 -0.76,-1.678877 -0.49186,-0.654774 -1.00008,-1.130152 -1.44048,-1.347365 -0.37426,-0.184595 -0.64002,-0.4011 -0.59056,-0.481123 0.29992,-0.485269 2.25121,0.347975 2.83835,1.212034 0.26062,0.383536 0.43907,0.52159 0.51512,0.398525 0.0682,-0.110356 0.30125,-0.151319 0.56302,-0.09896 0.34498,0.069 0.49986,0.0081 0.68043,-0.267478 0.38232,-0.583493 1.79664,-1.272056 2.35908,-1.148522 0.55558,0.122026 0.49953,0.331506 -0.1268,0.473914 -0.49368,0.112246 -1.20708,0.710928 -1.8472,1.550173 -0.31748,0.416246 -0.43096,0.750942 -0.43096,1.271078 v 0.70605 l 0.71648,-0.05698 c 0.62646,-0.04982 0.77886,0.0054 1.21307,0.439617 0.27313,0.27313 0.46675,0.586253 0.43027,0.695831 -0.11938,0.358497 -0.56283,0.305158 -0.95197,-0.114501 -0.31307,-0.337642 -0.47371,-0.393099 -0.89472,-0.308896 -0.45805,0.09161 -0.51313,0.161648 -0.51313,0.65243 v 0.549805 l 0.68302,-0.102426 c 0.5941,-0.08909 0.74258,-0.04723 1.14056,0.321623 0.56317,0.521913 0.3681,0.896344 -0.30677,0.588854 -0.22653,-0.103213 -0.67069,-0.187659 -0.98704,-0.187659 h -0.57515 l 0.0884,2.2 c 0.0854,2.124344 0.0749,2.223384 -0.30406,2.88 -0.40498,0.70164 -0.69055,0.83575 -0.99599,0.467728 z"
     id="path1013"
     inkscape:connector-curvature="0" />
  <path
     style="fill:#000000;stroke-width:1"
     d="m 198.64567,52.240432 c -0.24685,-0.162759 -0.56226,-0.45789 -0.70091,-0.655847 -0.31658,-0.451992 -1.14698,-0.806121 -1.89027,-0.806121 -0.74191,0 -1.48496,0.318533 -2.19276,0.939984 -1.25705,1.103705 -1.19068,0.144435 0.1038,-1.499984 1.21475,-1.543168 2.01433,-3.202965 1.74945,-3.631566 -0.13491,-0.218287 -0.83686,-0.01675 -1.53707,0.441305 -0.69219,0.452818 -0.76342,0.468384 -0.76342,0.166835 0,-0.361339 1.06585,-1.191916 1.67657,-1.306489 0.48594,-0.09116 0.56343,-0.167581 0.56343,-0.555616 0,-0.247455 -0.17797,-0.661429 -0.39551,-0.919943 -0.82641,-0.982137 -0.94246,-1.990929 -0.31485,-2.736809 0.48452,-0.575822 1.25552,-0.766635 2.04495,-0.506101 0.44384,0.14648 0.64845,0.366693 1.01817,1.095851 0.46191,0.91097 0.52004,0.952447 1.04724,0.747269 0.43636,-0.169829 0.34891,0.352731 -0.10927,0.652947 -0.53094,0.347885 -0.92445,0.114218 -1.37499,-0.816475 -0.41272,-0.852563 -0.84934,-1.078968 -1.65293,-0.857091 -0.93243,0.257456 -0.93318,0.806689 -0.003,2.037673 0.28757,0.380487 0.67504,1.006159 0.86104,1.390384 0.24813,0.512573 0.51949,0.78636 1.01907,1.028208 0.86703,0.41972 0.96999,0.414359 1.35128,-0.07038 0.35882,-0.456152 0.74855,-0.5194 0.89229,-0.144808 0.0632,0.164638 -0.10267,0.455778 -0.46736,0.820467 -0.50816,0.508163 -0.63073,0.556496 -1.21321,0.478368 -0.35639,-0.0478 -0.78487,-0.210811 -0.95221,-0.362246 -0.34035,-0.308024 -0.2829,-0.392928 -0.70951,1.048219 -0.14328,0.484 -0.29497,0.960323 -0.33712,1.058496 -0.0475,0.110744 0.20364,0.210086 0.66172,0.261717 0.81427,0.09178 1.51448,0.628396 1.83748,1.4082 0.11199,0.270344 0.3824,0.519027 0.67551,0.621203 0.65899,0.229729 0.85313,0.215401 1.15369,-0.08516 0.34044,-0.340438 0.76388,-0.164152 0.69853,0.290821 -0.10697,0.745035 -1.864,1.044294 -2.74003,0.466688 z"
     id="path1011"
     inkscape:connector-curvature="0" />
  <path
     style="fill:#000000;stroke-width:1"
     d="M 213.0625 38.789062 C 211.119 38.789063 208.89532 39.372957 208.35547 40.023438 C 208.06909 40.368504 208.2737 40.921685 208.72266 41.015625 C 208.92488 41.05794 209.50288 41.057425 210.00781 41.015625 C 210.51275 40.973822 211.69243 40.882047 212.62891 40.810547 C 214.45787 40.670902 214.84961 40.497812 214.84961 39.826172 C 214.84961 39.03311 214.43075 38.789062 213.0625 38.789062 z M 211.57812 42.564453 C 211.16306 42.537023 210.6956 42.652384 210.54492 42.855469 C 210.36664 43.095763 208.79914 47.808996 208.3457 49.46875 C 208.01111 50.693505 207.89721 52.145262 208.11719 52.365234 C 208.50026 52.748303 208.96241 52.155976 209.41797 50.701172 C 209.91531 49.112963 209.86044 49.143925 212.20703 49.140625 L 213.82227 49.138672 L 214.25977 50.091797 C 215.49142 52.782085 216.83472 52.854677 216.13672 50.193359 C 215.5609 47.997943 212.77032 42.949564 211.96289 42.642578 C 211.84977 42.599569 211.71649 42.573596 211.57812 42.564453 z M 211.45312 44.556641 L 212.05664 45.638672 C 212.99221 47.314289 212.99004 47.302734 212.2168 47.302734 C 211.85123 47.302734 211.31814 47.34887 211.03125 47.40625 C 210.4088 47.530739 210.38651 47.413628 210.83008 46.332031 C 211.00649 45.901886 211.21778 45.32588 211.30078 45.052734 L 211.45312 44.556641 z "
     id="path944" />
  <path
     style="fill:#000000;stroke-width:1"
     d="M 227.45312 38.298828 C 226.2226 38.255648 224.14937 38.451427 223.57031 38.734375 C 222.89795 39.062909 222.70653 39.486802 223.04492 39.894531 C 223.22016 40.105682 223.67445 40.140023 225.74414 40.095703 C 228.09008 40.045472 228.25128 40.01944 228.53711 39.666016 C 228.89773 39.220102 228.80226 38.687751 228.31641 38.427734 C 228.17998 38.354722 227.8633 38.313222 227.45312 38.298828 z M 227.59766 41.896484 C 227.30659 41.89813 226.96374 41.930515 226.56445 41.992188 C 225.29733 42.187903 224.967 42.327876 224.32617 42.943359 C 223.89002 43.362289 223.87291 43.446526 223.87891 45.048828 C 223.88224 45.966886 223.94027 47.780808 224.00977 49.080078 C 224.14997 51.701095 224.34146 52.246664 225.15234 52.339844 C 225.65076 52.397114 228.32591 52.39979 229.07812 52.34375 C 229.67185 52.299522 230.2357 51.747312 230.08789 51.353516 C 229.86125 50.749673 229.49705 50.651884 227.48438 50.646484 L 225.51562 50.640625 L 225.56641 49.599609 C 225.60334 48.825743 225.6792 48.550011 225.86523 48.525391 C 226.00294 48.507167 226.53861 48.445352 227.05469 48.388672 C 227.64734 48.323576 228.12325 48.164148 228.34766 47.955078 C 228.79157 47.541616 228.79205 47.391655 228.35156 46.951172 C 228.0372 46.636813 227.88521 46.61175 226.9043 46.716797 C 226.30122 46.781381 225.72175 46.868073 225.61719 46.908203 C 225.49222 46.956157 225.36045 46.482322 225.23242 45.525391 C 225.12527 44.724681 225.06114 44.046258 225.08984 44.017578 C 225.11851 43.988902 225.77407 43.880199 226.54688 43.777344 C 228.2486 43.550855 228.87109 43.270522 228.87109 42.728516 C 228.87109 42.161016 228.47084 41.891547 227.59766 41.896484 z "
     id="path940" />
  <path
     style="fill:#000000;stroke-width:1"
     d="M 241.77344 37.474609 C 241.26756 37.498412 240.70896 37.550922 240.10742 37.632812 C 238.02863 37.915809 236.99497 38.638531 237.8125 39.236328 C 238.04428 39.405804 238.77765 39.430829 241.12695 39.349609 C 242.78638 39.292243 244.27489 39.178163 244.43555 39.095703 C 244.73514 38.941932 244.82027 38.360985 244.5957 38.007812 C 244.32943 37.589052 243.29107 37.403202 241.77344 37.474609 z M 242.60547 40.933594 C 240.37265 40.969335 238.17151 41.217232 237.60352 41.496094 C 237.36195 41.6147 237.08074 41.84726 236.98047 42.013672 C 236.83237 42.259446 236.87577 42.378298 237.20508 42.648438 C 237.5548 42.935326 237.82879 42.977299 239.20703 42.949219 L 240.80469 42.916016 L 240.89648 46.654297 C 240.94678 48.709832 240.97493 50.414769 240.95703 50.443359 C 240.93914 50.471945 240.48482 50.536861 239.94727 50.587891 C 239.40972 50.638925 238.80031 50.785005 238.59375 50.914062 C 237.95859 51.310904 238.15793 51.990151 238.96875 52.189453 C 239.45411 52.30876 241.57996 52.297902 243.2832 52.167969 C 244.54386 52.071798 244.80648 51.999648 245.07031 51.673828 C 245.39958 51.267201 245.34787 50.857285 244.92383 50.515625 C 244.77156 50.392939 244.17915 50.306803 243.48633 50.306641 L 242.30664 50.306641 L 242.30664 46.550781 L 242.30664 42.794922 L 243.39648 42.794922 C 244.64359 42.795052 245.22852 42.502042 245.22852 41.873047 C 245.22852 41.131081 244.59036 40.901824 242.60547 40.933594 z "
     id="path938" />
  <path
     style="fill:#000000;stroke-width:1"
     d="M 299.48438 37.9375 C 299.19888 37.938831 298.89976 38.084871 298.71094 38.373047 C 298.45765 38.759612 298.45765 38.820466 298.71094 39.207031 C 299.07413 39.761372 299.71645 39.759111 300.08203 39.201172 C 300.30459 38.861524 300.32164 38.69393 300.17188 38.365234 C 300.04125 38.078534 299.76987 37.936169 299.48438 37.9375 z M 303.40039 38.150391 C 302.73294 38.178636 302.39905 38.905124 302.91797 39.478516 C 303.26248 39.859202 303.9521 39.839486 304.20117 39.441406 C 304.47549 39.002981 304.20094 38.308047 303.70508 38.183594 C 303.59759 38.156617 303.49574 38.146356 303.40039 38.150391 z M 297.72656 41.806641 C 297.66589 41.819906 297.59811 41.850366 297.52539 41.894531 C 296.64563 42.428951 296.64465 46.939846 297.52344 48.859375 C 298.26139 50.471274 299.47467 51.574006 301.0625 52.076172 C 302.10699 52.4065 303.43984 52.361824 304.25586 51.966797 C 305.09899 51.558643 305.86918 50.486974 306.28516 49.142578 C 306.71001 47.769545 306.679 44.455215 306.23242 43.546875 C 305.98845 43.050644 305.78789 42.866575 305.45508 42.828125 C 304.74848 42.746492 304.61683 43.216774 304.57812 45.951172 C 304.54113 48.564491 304.38186 49.34282 303.74023 50.035156 C 303.38898 50.414159 303.19892 50.473903 302.36523 50.470703 C 301.29842 50.466662 300.325 50.100135 299.61914 49.435547 C 298.62206 48.496766 298.28311 47.20576 298.28711 44.359375 C 298.28999 42.411951 298.15126 41.71378 297.72656 41.806641 z "
     id="path936" />
  <path
     style="fill:#000000;stroke-width:1"
     d="M 257.63672 37.705078 C 255.25978 37.705078 254.74204 37.751256 254.2832 38.001953 C 253.97315 38.171349 253.74219 38.430756 253.74219 38.607422 C 253.74219 39.237987 254.18819 39.362488 256.80859 39.466797 C 258.19702 39.522061 259.53476 39.580043 259.78125 39.595703 C 260.96904 39.671172 261.50722 38.93643 260.83594 38.15625 L 260.44727 37.705078 L 257.63672 37.705078 z M 257.64062 42.496094 C 257.3351 42.507226 257.04592 42.546643 256.78516 42.617188 C 255.75028 42.897162 254.41574 44.043268 253.85352 45.134766 C 253.42167 45.973248 253.38761 46.172891 253.44531 47.486328 C 253.56333 50.174761 254.77665 51.691535 257.03516 51.974609 C 258.89549 52.207778 259.96507 51.899094 261.18555 50.779297 C 262.11976 49.922153 262.55324 49.031095 262.69531 47.671875 C 262.93289 45.398845 262.25604 43.978069 260.53125 43.132812 C 259.62431 42.688351 258.55719 42.462698 257.64062 42.496094 z M 257.48828 44.109375 C 258.10929 44.073165 258.84676 44.230232 259.52539 44.558594 C 260.53566 45.047421 260.82757 45.434858 260.98633 46.5 C 261.21646 48.044006 260.46258 49.574375 259.18555 50.154297 C 257.91826 50.729801 256.00768 50.428652 255.2207 49.529297 C 254.54836 48.760948 254.32483 46.769605 254.80664 45.837891 C 255.08753 45.294718 256.19094 44.442154 256.91211 44.210938 C 257.08685 44.154913 257.28128 44.121445 257.48828 44.109375 z "
     id="path934" />
  <path
     style="fill:#000000;stroke-width:1"
     d="M 287.96094 36.302734 C 287.78012 36.320831 287.52378 36.424234 287.18945 36.630859 C 286.5677 37.01512 284.97354 38.713713 284.62695 39.361328 C 284.44133 39.70897 284.44097 39.825129 284.625 40.046875 C 284.9631 40.454263 285.59566 40.211154 286.50781 39.322266 C 288.13029 37.741157 288.74449 36.224317 287.96094 36.302734 z M 286.98242 41.210938 C 285.25855 41.211878 284.76948 41.267298 284.3125 41.515625 C 283.83954 41.77268 283.7675 41.888541 283.8457 42.265625 C 283.89657 42.510909 284.01733 44.477329 284.11523 46.634766 C 284.32569 51.27204 284.41888 51.739542 285.16992 51.964844 C 285.68198 52.118453 287.60398 52.073383 289.36328 51.867188 C 290.40132 51.745527 291.07612 51.163855 290.79297 50.634766 C 290.48008 50.050135 289.91865 49.957484 287.8457 50.150391 C 286.78817 50.248804 285.90291 50.306314 285.87891 50.277344 C 285.81716 50.202825 285.60476 47.470091 285.66016 47.462891 C 285.68526 47.459616 286.44934 47.391647 287.35742 47.310547 C 289.18105 47.147676 289.76889 46.839261 289.55273 46.158203 C 289.35585 45.537886 288.21474 45.392771 286.09375 45.71875 C 285.65581 45.78606 285.64643 45.766636 285.53906 44.667969 C 285.47887 44.051958 285.39236 43.416519 285.34766 43.255859 C 285.27388 42.990759 285.43358 42.963138 287.07227 42.960938 C 289.01256 42.958292 289.67912 42.769808 289.76172 42.199219 C 289.78872 42.01284 289.64859 41.713703 289.45117 41.535156 C 289.1353 41.249489 288.83957 41.209938 286.98242 41.210938 z "
     id="path930" />
  <path
     style="fill:#000000;stroke-width:1"
     d="M 275.15625 37.142578 C 274.58575 37.127726 273.88747 37.130164 273.0293 37.146484 C 270.42364 37.196039 269.92504 37.250554 269.34766 37.539062 C 268.66095 37.882182 268.4207 38.345463 268.75586 38.681641 C 268.87476 38.800898 269.96092 38.907634 271.65039 38.964844 C 277.19969 39.152752 276.87477 39.166922 277.38672 38.726562 C 277.79919 38.371776 277.82847 38.28265 277.6543 37.900391 C 277.42403 37.395003 276.86776 37.187133 275.15625 37.142578 z M 276.5 42.470703 C 276.40089 42.482149 276.3066 42.531247 276.2168 42.621094 C 276.09208 42.745853 276.02539 43.606126 276.02539 45.099609 L 276.02539 47.386719 L 275.42773 48.470703 C 275.09253 49.079131 274.58587 49.721032 274.27539 49.931641 C 273.6161 50.378861 272.60508 50.425339 271.95117 50.039062 C 270.82019 49.370978 269.98646 46.913918 270.1582 44.755859 C 270.28935 43.107828 269.85897 42.16487 269.28906 42.851562 C 268.90982 43.308594 268.71175 45.54296 268.92188 47.007812 C 269.26047 49.368315 270.15431 50.948664 271.50195 51.576172 C 273.30093 52.413836 275.05998 51.972879 276.38281 50.351562 C 277.46016 49.031106 277.84006 47.876128 277.85156 45.884766 C 277.85994 44.426747 277.80786 44.109869 277.44336 43.380859 C 277.12802 42.750187 276.79732 42.436364 276.5 42.470703 z "
     id="path928" />
</svg>
